%TF.GenerationSoftware,KiCad,Pcbnew,8.0.5*%
%TF.CreationDate,2024-11-10T22:21:34+02:00*%
%TF.ProjectId,PowerBoard,506f7765-7242-46f6-9172-642e6b696361,rev?*%
%TF.SameCoordinates,Original*%
%TF.FileFunction,Drillmap*%
%TF.FilePolarity,Positive*%
%FSLAX45Y45*%
G04 Gerber Fmt 4.5, Leading zero omitted, Abs format (unit mm)*
G04 Created by KiCad (PCBNEW 8.0.5) date 2024-11-10 22:21:34*
%MOMM*%
%LPD*%
G01*
G04 APERTURE LIST*
%ADD10C,0.050000*%
%ADD11C,0.200000*%
%ADD12C,0.239000*%
%ADD13C,0.345000*%
%ADD14C,0.430000*%
G04 APERTURE END LIST*
D10*
X7250000Y-3200000D02*
X18250000Y-3200000D01*
X18250000Y-15200000D01*
X7250000Y-15200000D01*
X7250000Y-3200000D01*
D11*
D12*
X9022500Y-7730500D02*
X9261500Y-7969500D01*
X9261500Y-7730500D02*
X9022500Y-7969500D01*
X9022500Y-12080500D02*
X9261500Y-12319500D01*
X9261500Y-12080500D02*
X9022500Y-12319500D01*
X16208500Y-8305500D02*
X16447500Y-8544500D01*
X16447500Y-8305500D02*
X16208500Y-8544500D01*
D13*
X10147500Y-6250000D02*
G75*
G02*
X9802500Y-6250000I-172500J0D01*
G01*
X9802500Y-6250000D02*
G75*
G02*
X10147500Y-6250000I172500J0D01*
G01*
X10147500Y-8425000D02*
G75*
G02*
X9802500Y-8425000I-172500J0D01*
G01*
X9802500Y-8425000D02*
G75*
G02*
X10147500Y-8425000I172500J0D01*
G01*
X10147500Y-10600000D02*
G75*
G02*
X9802500Y-10600000I-172500J0D01*
G01*
X9802500Y-10600000D02*
G75*
G02*
X10147500Y-10600000I172500J0D01*
G01*
X15667500Y-7850000D02*
G75*
G02*
X15322500Y-7850000I-172500J0D01*
G01*
X15322500Y-7850000D02*
G75*
G02*
X15667500Y-7850000I172500J0D01*
G01*
X15667500Y-10025000D02*
G75*
G02*
X15322500Y-10025000I-172500J0D01*
G01*
X15322500Y-10025000D02*
G75*
G02*
X15667500Y-10025000I172500J0D01*
G01*
X15667500Y-12200000D02*
G75*
G02*
X15322500Y-12200000I-172500J0D01*
G01*
X15322500Y-12200000D02*
G75*
G02*
X15667500Y-12200000I172500J0D01*
G01*
D14*
X7850000Y-3585000D02*
X7850000Y-4015000D01*
X7635000Y-3800000D02*
X8065000Y-3800000D01*
X7850000Y-14385000D02*
X7850000Y-14815000D01*
X7635000Y-14600000D02*
X8065000Y-14600000D01*
X17650000Y-3585000D02*
X17650000Y-4015000D01*
X17435000Y-3800000D02*
X17865000Y-3800000D01*
X17650000Y-14385000D02*
X17650000Y-14815000D01*
X17435000Y-14600000D02*
X17865000Y-14600000D01*
D11*
X7508277Y-15513984D02*
X7508277Y-15313984D01*
X7508277Y-15313984D02*
X7555896Y-15313984D01*
X7555896Y-15313984D02*
X7584467Y-15323508D01*
X7584467Y-15323508D02*
X7603515Y-15342555D01*
X7603515Y-15342555D02*
X7613039Y-15361603D01*
X7613039Y-15361603D02*
X7622562Y-15399698D01*
X7622562Y-15399698D02*
X7622562Y-15428269D01*
X7622562Y-15428269D02*
X7613039Y-15466365D01*
X7613039Y-15466365D02*
X7603515Y-15485412D01*
X7603515Y-15485412D02*
X7584467Y-15504460D01*
X7584467Y-15504460D02*
X7555896Y-15513984D01*
X7555896Y-15513984D02*
X7508277Y-15513984D01*
X7708277Y-15513984D02*
X7708277Y-15380650D01*
X7708277Y-15418746D02*
X7717801Y-15399698D01*
X7717801Y-15399698D02*
X7727324Y-15390174D01*
X7727324Y-15390174D02*
X7746372Y-15380650D01*
X7746372Y-15380650D02*
X7765420Y-15380650D01*
X7832086Y-15513984D02*
X7832086Y-15380650D01*
X7832086Y-15313984D02*
X7822562Y-15323508D01*
X7822562Y-15323508D02*
X7832086Y-15333031D01*
X7832086Y-15333031D02*
X7841610Y-15323508D01*
X7841610Y-15323508D02*
X7832086Y-15313984D01*
X7832086Y-15313984D02*
X7832086Y-15333031D01*
X7955896Y-15513984D02*
X7936848Y-15504460D01*
X7936848Y-15504460D02*
X7927324Y-15485412D01*
X7927324Y-15485412D02*
X7927324Y-15313984D01*
X8060658Y-15513984D02*
X8041610Y-15504460D01*
X8041610Y-15504460D02*
X8032086Y-15485412D01*
X8032086Y-15485412D02*
X8032086Y-15313984D01*
X8289229Y-15513984D02*
X8289229Y-15313984D01*
X8289229Y-15313984D02*
X8355896Y-15456841D01*
X8355896Y-15456841D02*
X8422563Y-15313984D01*
X8422563Y-15313984D02*
X8422563Y-15513984D01*
X8603515Y-15513984D02*
X8603515Y-15409222D01*
X8603515Y-15409222D02*
X8593991Y-15390174D01*
X8593991Y-15390174D02*
X8574944Y-15380650D01*
X8574944Y-15380650D02*
X8536848Y-15380650D01*
X8536848Y-15380650D02*
X8517801Y-15390174D01*
X8603515Y-15504460D02*
X8584467Y-15513984D01*
X8584467Y-15513984D02*
X8536848Y-15513984D01*
X8536848Y-15513984D02*
X8517801Y-15504460D01*
X8517801Y-15504460D02*
X8508277Y-15485412D01*
X8508277Y-15485412D02*
X8508277Y-15466365D01*
X8508277Y-15466365D02*
X8517801Y-15447317D01*
X8517801Y-15447317D02*
X8536848Y-15437793D01*
X8536848Y-15437793D02*
X8584467Y-15437793D01*
X8584467Y-15437793D02*
X8603515Y-15428269D01*
X8698753Y-15380650D02*
X8698753Y-15580650D01*
X8698753Y-15390174D02*
X8717801Y-15380650D01*
X8717801Y-15380650D02*
X8755896Y-15380650D01*
X8755896Y-15380650D02*
X8774944Y-15390174D01*
X8774944Y-15390174D02*
X8784467Y-15399698D01*
X8784467Y-15399698D02*
X8793991Y-15418746D01*
X8793991Y-15418746D02*
X8793991Y-15475888D01*
X8793991Y-15475888D02*
X8784467Y-15494936D01*
X8784467Y-15494936D02*
X8774944Y-15504460D01*
X8774944Y-15504460D02*
X8755896Y-15513984D01*
X8755896Y-15513984D02*
X8717801Y-15513984D01*
X8717801Y-15513984D02*
X8698753Y-15504460D01*
X8879705Y-15494936D02*
X8889229Y-15504460D01*
X8889229Y-15504460D02*
X8879705Y-15513984D01*
X8879705Y-15513984D02*
X8870182Y-15504460D01*
X8870182Y-15504460D02*
X8879705Y-15494936D01*
X8879705Y-15494936D02*
X8879705Y-15513984D01*
X8879705Y-15390174D02*
X8889229Y-15399698D01*
X8889229Y-15399698D02*
X8879705Y-15409222D01*
X8879705Y-15409222D02*
X8870182Y-15399698D01*
X8870182Y-15399698D02*
X8879705Y-15390174D01*
X8879705Y-15390174D02*
X8879705Y-15409222D01*
X7047500Y-15742500D02*
X7247500Y-15942500D01*
X7247500Y-15742500D02*
X7047500Y-15942500D01*
X7498753Y-15753031D02*
X7508277Y-15743508D01*
X7508277Y-15743508D02*
X7527324Y-15733984D01*
X7527324Y-15733984D02*
X7574943Y-15733984D01*
X7574943Y-15733984D02*
X7593991Y-15743508D01*
X7593991Y-15743508D02*
X7603515Y-15753031D01*
X7603515Y-15753031D02*
X7613039Y-15772079D01*
X7613039Y-15772079D02*
X7613039Y-15791127D01*
X7613039Y-15791127D02*
X7603515Y-15819698D01*
X7603515Y-15819698D02*
X7489229Y-15933984D01*
X7489229Y-15933984D02*
X7613039Y-15933984D01*
X7698753Y-15914936D02*
X7708277Y-15924460D01*
X7708277Y-15924460D02*
X7698753Y-15933984D01*
X7698753Y-15933984D02*
X7689229Y-15924460D01*
X7689229Y-15924460D02*
X7698753Y-15914936D01*
X7698753Y-15914936D02*
X7698753Y-15933984D01*
X7774943Y-15733984D02*
X7898753Y-15733984D01*
X7898753Y-15733984D02*
X7832086Y-15810174D01*
X7832086Y-15810174D02*
X7860658Y-15810174D01*
X7860658Y-15810174D02*
X7879705Y-15819698D01*
X7879705Y-15819698D02*
X7889229Y-15829222D01*
X7889229Y-15829222D02*
X7898753Y-15848269D01*
X7898753Y-15848269D02*
X7898753Y-15895888D01*
X7898753Y-15895888D02*
X7889229Y-15914936D01*
X7889229Y-15914936D02*
X7879705Y-15924460D01*
X7879705Y-15924460D02*
X7860658Y-15933984D01*
X7860658Y-15933984D02*
X7803515Y-15933984D01*
X7803515Y-15933984D02*
X7784467Y-15924460D01*
X7784467Y-15924460D02*
X7774943Y-15914936D01*
X7993991Y-15933984D02*
X8032086Y-15933984D01*
X8032086Y-15933984D02*
X8051134Y-15924460D01*
X8051134Y-15924460D02*
X8060658Y-15914936D01*
X8060658Y-15914936D02*
X8079705Y-15886365D01*
X8079705Y-15886365D02*
X8089229Y-15848269D01*
X8089229Y-15848269D02*
X8089229Y-15772079D01*
X8089229Y-15772079D02*
X8079705Y-15753031D01*
X8079705Y-15753031D02*
X8070182Y-15743508D01*
X8070182Y-15743508D02*
X8051134Y-15733984D01*
X8051134Y-15733984D02*
X8013039Y-15733984D01*
X8013039Y-15733984D02*
X7993991Y-15743508D01*
X7993991Y-15743508D02*
X7984467Y-15753031D01*
X7984467Y-15753031D02*
X7974943Y-15772079D01*
X7974943Y-15772079D02*
X7974943Y-15819698D01*
X7974943Y-15819698D02*
X7984467Y-15838746D01*
X7984467Y-15838746D02*
X7993991Y-15848269D01*
X7993991Y-15848269D02*
X8013039Y-15857793D01*
X8013039Y-15857793D02*
X8051134Y-15857793D01*
X8051134Y-15857793D02*
X8070182Y-15848269D01*
X8070182Y-15848269D02*
X8079705Y-15838746D01*
X8079705Y-15838746D02*
X8089229Y-15819698D01*
X8213039Y-15733984D02*
X8232086Y-15733984D01*
X8232086Y-15733984D02*
X8251134Y-15743508D01*
X8251134Y-15743508D02*
X8260658Y-15753031D01*
X8260658Y-15753031D02*
X8270182Y-15772079D01*
X8270182Y-15772079D02*
X8279705Y-15810174D01*
X8279705Y-15810174D02*
X8279705Y-15857793D01*
X8279705Y-15857793D02*
X8270182Y-15895888D01*
X8270182Y-15895888D02*
X8260658Y-15914936D01*
X8260658Y-15914936D02*
X8251134Y-15924460D01*
X8251134Y-15924460D02*
X8232086Y-15933984D01*
X8232086Y-15933984D02*
X8213039Y-15933984D01*
X8213039Y-15933984D02*
X8193991Y-15924460D01*
X8193991Y-15924460D02*
X8184467Y-15914936D01*
X8184467Y-15914936D02*
X8174943Y-15895888D01*
X8174943Y-15895888D02*
X8165420Y-15857793D01*
X8165420Y-15857793D02*
X8165420Y-15810174D01*
X8165420Y-15810174D02*
X8174943Y-15772079D01*
X8174943Y-15772079D02*
X8184467Y-15753031D01*
X8184467Y-15753031D02*
X8193991Y-15743508D01*
X8193991Y-15743508D02*
X8213039Y-15733984D01*
X8365420Y-15933984D02*
X8365420Y-15800650D01*
X8365420Y-15819698D02*
X8374943Y-15810174D01*
X8374943Y-15810174D02*
X8393991Y-15800650D01*
X8393991Y-15800650D02*
X8422563Y-15800650D01*
X8422563Y-15800650D02*
X8441610Y-15810174D01*
X8441610Y-15810174D02*
X8451134Y-15829222D01*
X8451134Y-15829222D02*
X8451134Y-15933984D01*
X8451134Y-15829222D02*
X8460658Y-15810174D01*
X8460658Y-15810174D02*
X8479705Y-15800650D01*
X8479705Y-15800650D02*
X8508277Y-15800650D01*
X8508277Y-15800650D02*
X8527325Y-15810174D01*
X8527325Y-15810174D02*
X8536848Y-15829222D01*
X8536848Y-15829222D02*
X8536848Y-15933984D01*
X8632086Y-15933984D02*
X8632086Y-15800650D01*
X8632086Y-15819698D02*
X8641610Y-15810174D01*
X8641610Y-15810174D02*
X8660658Y-15800650D01*
X8660658Y-15800650D02*
X8689229Y-15800650D01*
X8689229Y-15800650D02*
X8708277Y-15810174D01*
X8708277Y-15810174D02*
X8717801Y-15829222D01*
X8717801Y-15829222D02*
X8717801Y-15933984D01*
X8717801Y-15829222D02*
X8727325Y-15810174D01*
X8727325Y-15810174D02*
X8746372Y-15800650D01*
X8746372Y-15800650D02*
X8774944Y-15800650D01*
X8774944Y-15800650D02*
X8793991Y-15810174D01*
X8793991Y-15810174D02*
X8803515Y-15829222D01*
X8803515Y-15829222D02*
X8803515Y-15933984D01*
X9193991Y-15724460D02*
X9022563Y-15981603D01*
X9451134Y-15733984D02*
X9470182Y-15733984D01*
X9470182Y-15733984D02*
X9489229Y-15743508D01*
X9489229Y-15743508D02*
X9498753Y-15753031D01*
X9498753Y-15753031D02*
X9508277Y-15772079D01*
X9508277Y-15772079D02*
X9517801Y-15810174D01*
X9517801Y-15810174D02*
X9517801Y-15857793D01*
X9517801Y-15857793D02*
X9508277Y-15895888D01*
X9508277Y-15895888D02*
X9498753Y-15914936D01*
X9498753Y-15914936D02*
X9489229Y-15924460D01*
X9489229Y-15924460D02*
X9470182Y-15933984D01*
X9470182Y-15933984D02*
X9451134Y-15933984D01*
X9451134Y-15933984D02*
X9432087Y-15924460D01*
X9432087Y-15924460D02*
X9422563Y-15914936D01*
X9422563Y-15914936D02*
X9413039Y-15895888D01*
X9413039Y-15895888D02*
X9403515Y-15857793D01*
X9403515Y-15857793D02*
X9403515Y-15810174D01*
X9403515Y-15810174D02*
X9413039Y-15772079D01*
X9413039Y-15772079D02*
X9422563Y-15753031D01*
X9422563Y-15753031D02*
X9432087Y-15743508D01*
X9432087Y-15743508D02*
X9451134Y-15733984D01*
X9603515Y-15914936D02*
X9613039Y-15924460D01*
X9613039Y-15924460D02*
X9603515Y-15933984D01*
X9603515Y-15933984D02*
X9593991Y-15924460D01*
X9593991Y-15924460D02*
X9603515Y-15914936D01*
X9603515Y-15914936D02*
X9603515Y-15933984D01*
X9736848Y-15733984D02*
X9755896Y-15733984D01*
X9755896Y-15733984D02*
X9774944Y-15743508D01*
X9774944Y-15743508D02*
X9784468Y-15753031D01*
X9784468Y-15753031D02*
X9793991Y-15772079D01*
X9793991Y-15772079D02*
X9803515Y-15810174D01*
X9803515Y-15810174D02*
X9803515Y-15857793D01*
X9803515Y-15857793D02*
X9793991Y-15895888D01*
X9793991Y-15895888D02*
X9784468Y-15914936D01*
X9784468Y-15914936D02*
X9774944Y-15924460D01*
X9774944Y-15924460D02*
X9755896Y-15933984D01*
X9755896Y-15933984D02*
X9736848Y-15933984D01*
X9736848Y-15933984D02*
X9717801Y-15924460D01*
X9717801Y-15924460D02*
X9708277Y-15914936D01*
X9708277Y-15914936D02*
X9698753Y-15895888D01*
X9698753Y-15895888D02*
X9689229Y-15857793D01*
X9689229Y-15857793D02*
X9689229Y-15810174D01*
X9689229Y-15810174D02*
X9698753Y-15772079D01*
X9698753Y-15772079D02*
X9708277Y-15753031D01*
X9708277Y-15753031D02*
X9717801Y-15743508D01*
X9717801Y-15743508D02*
X9736848Y-15733984D01*
X9898753Y-15933984D02*
X9936848Y-15933984D01*
X9936848Y-15933984D02*
X9955896Y-15924460D01*
X9955896Y-15924460D02*
X9965420Y-15914936D01*
X9965420Y-15914936D02*
X9984468Y-15886365D01*
X9984468Y-15886365D02*
X9993991Y-15848269D01*
X9993991Y-15848269D02*
X9993991Y-15772079D01*
X9993991Y-15772079D02*
X9984468Y-15753031D01*
X9984468Y-15753031D02*
X9974944Y-15743508D01*
X9974944Y-15743508D02*
X9955896Y-15733984D01*
X9955896Y-15733984D02*
X9917801Y-15733984D01*
X9917801Y-15733984D02*
X9898753Y-15743508D01*
X9898753Y-15743508D02*
X9889229Y-15753031D01*
X9889229Y-15753031D02*
X9879706Y-15772079D01*
X9879706Y-15772079D02*
X9879706Y-15819698D01*
X9879706Y-15819698D02*
X9889229Y-15838746D01*
X9889229Y-15838746D02*
X9898753Y-15848269D01*
X9898753Y-15848269D02*
X9917801Y-15857793D01*
X9917801Y-15857793D02*
X9955896Y-15857793D01*
X9955896Y-15857793D02*
X9974944Y-15848269D01*
X9974944Y-15848269D02*
X9984468Y-15838746D01*
X9984468Y-15838746D02*
X9993991Y-15819698D01*
X10165420Y-15800650D02*
X10165420Y-15933984D01*
X10117801Y-15724460D02*
X10070182Y-15867317D01*
X10070182Y-15867317D02*
X10193991Y-15867317D01*
X10374944Y-15933984D02*
X10260658Y-15933984D01*
X10317801Y-15933984D02*
X10317801Y-15733984D01*
X10317801Y-15733984D02*
X10298753Y-15762555D01*
X10298753Y-15762555D02*
X10279706Y-15781603D01*
X10279706Y-15781603D02*
X10260658Y-15791127D01*
X10451134Y-15733984D02*
X10451134Y-15772079D01*
X10527325Y-15733984D02*
X10527325Y-15772079D01*
X10822563Y-16010174D02*
X10813039Y-16000650D01*
X10813039Y-16000650D02*
X10793991Y-15972079D01*
X10793991Y-15972079D02*
X10784468Y-15953031D01*
X10784468Y-15953031D02*
X10774944Y-15924460D01*
X10774944Y-15924460D02*
X10765420Y-15876841D01*
X10765420Y-15876841D02*
X10765420Y-15838746D01*
X10765420Y-15838746D02*
X10774944Y-15791127D01*
X10774944Y-15791127D02*
X10784468Y-15762555D01*
X10784468Y-15762555D02*
X10793991Y-15743508D01*
X10793991Y-15743508D02*
X10813039Y-15714936D01*
X10813039Y-15714936D02*
X10822563Y-15705412D01*
X10879706Y-15733984D02*
X11003515Y-15733984D01*
X11003515Y-15733984D02*
X10936849Y-15810174D01*
X10936849Y-15810174D02*
X10965420Y-15810174D01*
X10965420Y-15810174D02*
X10984468Y-15819698D01*
X10984468Y-15819698D02*
X10993991Y-15829222D01*
X10993991Y-15829222D02*
X11003515Y-15848269D01*
X11003515Y-15848269D02*
X11003515Y-15895888D01*
X11003515Y-15895888D02*
X10993991Y-15914936D01*
X10993991Y-15914936D02*
X10984468Y-15924460D01*
X10984468Y-15924460D02*
X10965420Y-15933984D01*
X10965420Y-15933984D02*
X10908277Y-15933984D01*
X10908277Y-15933984D02*
X10889230Y-15924460D01*
X10889230Y-15924460D02*
X10879706Y-15914936D01*
X11241610Y-15933984D02*
X11241610Y-15733984D01*
X11327325Y-15933984D02*
X11327325Y-15829222D01*
X11327325Y-15829222D02*
X11317801Y-15810174D01*
X11317801Y-15810174D02*
X11298753Y-15800650D01*
X11298753Y-15800650D02*
X11270182Y-15800650D01*
X11270182Y-15800650D02*
X11251134Y-15810174D01*
X11251134Y-15810174D02*
X11241610Y-15819698D01*
X11451134Y-15933984D02*
X11432087Y-15924460D01*
X11432087Y-15924460D02*
X11422563Y-15914936D01*
X11422563Y-15914936D02*
X11413039Y-15895888D01*
X11413039Y-15895888D02*
X11413039Y-15838746D01*
X11413039Y-15838746D02*
X11422563Y-15819698D01*
X11422563Y-15819698D02*
X11432087Y-15810174D01*
X11432087Y-15810174D02*
X11451134Y-15800650D01*
X11451134Y-15800650D02*
X11479706Y-15800650D01*
X11479706Y-15800650D02*
X11498753Y-15810174D01*
X11498753Y-15810174D02*
X11508277Y-15819698D01*
X11508277Y-15819698D02*
X11517801Y-15838746D01*
X11517801Y-15838746D02*
X11517801Y-15895888D01*
X11517801Y-15895888D02*
X11508277Y-15914936D01*
X11508277Y-15914936D02*
X11498753Y-15924460D01*
X11498753Y-15924460D02*
X11479706Y-15933984D01*
X11479706Y-15933984D02*
X11451134Y-15933984D01*
X11632087Y-15933984D02*
X11613039Y-15924460D01*
X11613039Y-15924460D02*
X11603515Y-15905412D01*
X11603515Y-15905412D02*
X11603515Y-15733984D01*
X11784468Y-15924460D02*
X11765420Y-15933984D01*
X11765420Y-15933984D02*
X11727325Y-15933984D01*
X11727325Y-15933984D02*
X11708277Y-15924460D01*
X11708277Y-15924460D02*
X11698753Y-15905412D01*
X11698753Y-15905412D02*
X11698753Y-15829222D01*
X11698753Y-15829222D02*
X11708277Y-15810174D01*
X11708277Y-15810174D02*
X11727325Y-15800650D01*
X11727325Y-15800650D02*
X11765420Y-15800650D01*
X11765420Y-15800650D02*
X11784468Y-15810174D01*
X11784468Y-15810174D02*
X11793991Y-15829222D01*
X11793991Y-15829222D02*
X11793991Y-15848269D01*
X11793991Y-15848269D02*
X11698753Y-15867317D01*
X11870182Y-15924460D02*
X11889230Y-15933984D01*
X11889230Y-15933984D02*
X11927325Y-15933984D01*
X11927325Y-15933984D02*
X11946372Y-15924460D01*
X11946372Y-15924460D02*
X11955896Y-15905412D01*
X11955896Y-15905412D02*
X11955896Y-15895888D01*
X11955896Y-15895888D02*
X11946372Y-15876841D01*
X11946372Y-15876841D02*
X11927325Y-15867317D01*
X11927325Y-15867317D02*
X11898753Y-15867317D01*
X11898753Y-15867317D02*
X11879706Y-15857793D01*
X11879706Y-15857793D02*
X11870182Y-15838746D01*
X11870182Y-15838746D02*
X11870182Y-15829222D01*
X11870182Y-15829222D02*
X11879706Y-15810174D01*
X11879706Y-15810174D02*
X11898753Y-15800650D01*
X11898753Y-15800650D02*
X11927325Y-15800650D01*
X11927325Y-15800650D02*
X11946372Y-15810174D01*
X12022563Y-16010174D02*
X12032087Y-16000650D01*
X12032087Y-16000650D02*
X12051134Y-15972079D01*
X12051134Y-15972079D02*
X12060658Y-15953031D01*
X12060658Y-15953031D02*
X12070182Y-15924460D01*
X12070182Y-15924460D02*
X12079706Y-15876841D01*
X12079706Y-15876841D02*
X12079706Y-15838746D01*
X12079706Y-15838746D02*
X12070182Y-15791127D01*
X12070182Y-15791127D02*
X12060658Y-15762555D01*
X12060658Y-15762555D02*
X12051134Y-15743508D01*
X12051134Y-15743508D02*
X12032087Y-15714936D01*
X12032087Y-15714936D02*
X12022563Y-15705412D01*
X12384468Y-16010174D02*
X12374944Y-16000650D01*
X12374944Y-16000650D02*
X12355896Y-15972079D01*
X12355896Y-15972079D02*
X12346372Y-15953031D01*
X12346372Y-15953031D02*
X12336849Y-15924460D01*
X12336849Y-15924460D02*
X12327325Y-15876841D01*
X12327325Y-15876841D02*
X12327325Y-15838746D01*
X12327325Y-15838746D02*
X12336849Y-15791127D01*
X12336849Y-15791127D02*
X12346372Y-15762555D01*
X12346372Y-15762555D02*
X12355896Y-15743508D01*
X12355896Y-15743508D02*
X12374944Y-15714936D01*
X12374944Y-15714936D02*
X12384468Y-15705412D01*
X12460658Y-15800650D02*
X12460658Y-15933984D01*
X12460658Y-15819698D02*
X12470182Y-15810174D01*
X12470182Y-15810174D02*
X12489230Y-15800650D01*
X12489230Y-15800650D02*
X12517801Y-15800650D01*
X12517801Y-15800650D02*
X12536849Y-15810174D01*
X12536849Y-15810174D02*
X12546372Y-15829222D01*
X12546372Y-15829222D02*
X12546372Y-15933984D01*
X12670182Y-15933984D02*
X12651134Y-15924460D01*
X12651134Y-15924460D02*
X12641611Y-15914936D01*
X12641611Y-15914936D02*
X12632087Y-15895888D01*
X12632087Y-15895888D02*
X12632087Y-15838746D01*
X12632087Y-15838746D02*
X12641611Y-15819698D01*
X12641611Y-15819698D02*
X12651134Y-15810174D01*
X12651134Y-15810174D02*
X12670182Y-15800650D01*
X12670182Y-15800650D02*
X12698753Y-15800650D01*
X12698753Y-15800650D02*
X12717801Y-15810174D01*
X12717801Y-15810174D02*
X12727325Y-15819698D01*
X12727325Y-15819698D02*
X12736849Y-15838746D01*
X12736849Y-15838746D02*
X12736849Y-15895888D01*
X12736849Y-15895888D02*
X12727325Y-15914936D01*
X12727325Y-15914936D02*
X12717801Y-15924460D01*
X12717801Y-15924460D02*
X12698753Y-15933984D01*
X12698753Y-15933984D02*
X12670182Y-15933984D01*
X12793992Y-15800650D02*
X12870182Y-15800650D01*
X12822563Y-15733984D02*
X12822563Y-15905412D01*
X12822563Y-15905412D02*
X12832087Y-15924460D01*
X12832087Y-15924460D02*
X12851134Y-15933984D01*
X12851134Y-15933984D02*
X12870182Y-15933984D01*
X13089230Y-15800650D02*
X13089230Y-16000650D01*
X13089230Y-15810174D02*
X13108277Y-15800650D01*
X13108277Y-15800650D02*
X13146373Y-15800650D01*
X13146373Y-15800650D02*
X13165420Y-15810174D01*
X13165420Y-15810174D02*
X13174944Y-15819698D01*
X13174944Y-15819698D02*
X13184468Y-15838746D01*
X13184468Y-15838746D02*
X13184468Y-15895888D01*
X13184468Y-15895888D02*
X13174944Y-15914936D01*
X13174944Y-15914936D02*
X13165420Y-15924460D01*
X13165420Y-15924460D02*
X13146373Y-15933984D01*
X13146373Y-15933984D02*
X13108277Y-15933984D01*
X13108277Y-15933984D02*
X13089230Y-15924460D01*
X13298753Y-15933984D02*
X13279706Y-15924460D01*
X13279706Y-15924460D02*
X13270182Y-15905412D01*
X13270182Y-15905412D02*
X13270182Y-15733984D01*
X13460658Y-15933984D02*
X13460658Y-15829222D01*
X13460658Y-15829222D02*
X13451134Y-15810174D01*
X13451134Y-15810174D02*
X13432087Y-15800650D01*
X13432087Y-15800650D02*
X13393992Y-15800650D01*
X13393992Y-15800650D02*
X13374944Y-15810174D01*
X13460658Y-15924460D02*
X13441611Y-15933984D01*
X13441611Y-15933984D02*
X13393992Y-15933984D01*
X13393992Y-15933984D02*
X13374944Y-15924460D01*
X13374944Y-15924460D02*
X13365420Y-15905412D01*
X13365420Y-15905412D02*
X13365420Y-15886365D01*
X13365420Y-15886365D02*
X13374944Y-15867317D01*
X13374944Y-15867317D02*
X13393992Y-15857793D01*
X13393992Y-15857793D02*
X13441611Y-15857793D01*
X13441611Y-15857793D02*
X13460658Y-15848269D01*
X13527325Y-15800650D02*
X13603515Y-15800650D01*
X13555896Y-15733984D02*
X13555896Y-15905412D01*
X13555896Y-15905412D02*
X13565420Y-15924460D01*
X13565420Y-15924460D02*
X13584468Y-15933984D01*
X13584468Y-15933984D02*
X13603515Y-15933984D01*
X13746373Y-15924460D02*
X13727325Y-15933984D01*
X13727325Y-15933984D02*
X13689230Y-15933984D01*
X13689230Y-15933984D02*
X13670182Y-15924460D01*
X13670182Y-15924460D02*
X13660658Y-15905412D01*
X13660658Y-15905412D02*
X13660658Y-15829222D01*
X13660658Y-15829222D02*
X13670182Y-15810174D01*
X13670182Y-15810174D02*
X13689230Y-15800650D01*
X13689230Y-15800650D02*
X13727325Y-15800650D01*
X13727325Y-15800650D02*
X13746373Y-15810174D01*
X13746373Y-15810174D02*
X13755896Y-15829222D01*
X13755896Y-15829222D02*
X13755896Y-15848269D01*
X13755896Y-15848269D02*
X13660658Y-15867317D01*
X13927325Y-15933984D02*
X13927325Y-15733984D01*
X13927325Y-15924460D02*
X13908277Y-15933984D01*
X13908277Y-15933984D02*
X13870182Y-15933984D01*
X13870182Y-15933984D02*
X13851134Y-15924460D01*
X13851134Y-15924460D02*
X13841611Y-15914936D01*
X13841611Y-15914936D02*
X13832087Y-15895888D01*
X13832087Y-15895888D02*
X13832087Y-15838746D01*
X13832087Y-15838746D02*
X13841611Y-15819698D01*
X13841611Y-15819698D02*
X13851134Y-15810174D01*
X13851134Y-15810174D02*
X13870182Y-15800650D01*
X13870182Y-15800650D02*
X13908277Y-15800650D01*
X13908277Y-15800650D02*
X13927325Y-15810174D01*
X14003515Y-16010174D02*
X14013039Y-16000650D01*
X14013039Y-16000650D02*
X14032087Y-15972079D01*
X14032087Y-15972079D02*
X14041611Y-15953031D01*
X14041611Y-15953031D02*
X14051134Y-15924460D01*
X14051134Y-15924460D02*
X14060658Y-15876841D01*
X14060658Y-15876841D02*
X14060658Y-15838746D01*
X14060658Y-15838746D02*
X14051134Y-15791127D01*
X14051134Y-15791127D02*
X14041611Y-15762555D01*
X14041611Y-15762555D02*
X14032087Y-15743508D01*
X14032087Y-15743508D02*
X14013039Y-15714936D01*
X14013039Y-15714936D02*
X14003515Y-15705412D01*
X7247500Y-16162500D02*
G75*
G02*
X7047500Y-16162500I-100000J0D01*
G01*
X7047500Y-16162500D02*
G75*
G02*
X7247500Y-16162500I100000J0D01*
G01*
X7489229Y-16053984D02*
X7613039Y-16053984D01*
X7613039Y-16053984D02*
X7546372Y-16130174D01*
X7546372Y-16130174D02*
X7574943Y-16130174D01*
X7574943Y-16130174D02*
X7593991Y-16139698D01*
X7593991Y-16139698D02*
X7603515Y-16149222D01*
X7603515Y-16149222D02*
X7613039Y-16168269D01*
X7613039Y-16168269D02*
X7613039Y-16215888D01*
X7613039Y-16215888D02*
X7603515Y-16234936D01*
X7603515Y-16234936D02*
X7593991Y-16244460D01*
X7593991Y-16244460D02*
X7574943Y-16253984D01*
X7574943Y-16253984D02*
X7517801Y-16253984D01*
X7517801Y-16253984D02*
X7498753Y-16244460D01*
X7498753Y-16244460D02*
X7489229Y-16234936D01*
X7698753Y-16234936D02*
X7708277Y-16244460D01*
X7708277Y-16244460D02*
X7698753Y-16253984D01*
X7698753Y-16253984D02*
X7689229Y-16244460D01*
X7689229Y-16244460D02*
X7698753Y-16234936D01*
X7698753Y-16234936D02*
X7698753Y-16253984D01*
X7879705Y-16120650D02*
X7879705Y-16253984D01*
X7832086Y-16044460D02*
X7784467Y-16187317D01*
X7784467Y-16187317D02*
X7908277Y-16187317D01*
X8079705Y-16053984D02*
X7984467Y-16053984D01*
X7984467Y-16053984D02*
X7974943Y-16149222D01*
X7974943Y-16149222D02*
X7984467Y-16139698D01*
X7984467Y-16139698D02*
X8003515Y-16130174D01*
X8003515Y-16130174D02*
X8051134Y-16130174D01*
X8051134Y-16130174D02*
X8070182Y-16139698D01*
X8070182Y-16139698D02*
X8079705Y-16149222D01*
X8079705Y-16149222D02*
X8089229Y-16168269D01*
X8089229Y-16168269D02*
X8089229Y-16215888D01*
X8089229Y-16215888D02*
X8079705Y-16234936D01*
X8079705Y-16234936D02*
X8070182Y-16244460D01*
X8070182Y-16244460D02*
X8051134Y-16253984D01*
X8051134Y-16253984D02*
X8003515Y-16253984D01*
X8003515Y-16253984D02*
X7984467Y-16244460D01*
X7984467Y-16244460D02*
X7974943Y-16234936D01*
X8213039Y-16053984D02*
X8232086Y-16053984D01*
X8232086Y-16053984D02*
X8251134Y-16063508D01*
X8251134Y-16063508D02*
X8260658Y-16073031D01*
X8260658Y-16073031D02*
X8270182Y-16092079D01*
X8270182Y-16092079D02*
X8279705Y-16130174D01*
X8279705Y-16130174D02*
X8279705Y-16177793D01*
X8279705Y-16177793D02*
X8270182Y-16215888D01*
X8270182Y-16215888D02*
X8260658Y-16234936D01*
X8260658Y-16234936D02*
X8251134Y-16244460D01*
X8251134Y-16244460D02*
X8232086Y-16253984D01*
X8232086Y-16253984D02*
X8213039Y-16253984D01*
X8213039Y-16253984D02*
X8193991Y-16244460D01*
X8193991Y-16244460D02*
X8184467Y-16234936D01*
X8184467Y-16234936D02*
X8174943Y-16215888D01*
X8174943Y-16215888D02*
X8165420Y-16177793D01*
X8165420Y-16177793D02*
X8165420Y-16130174D01*
X8165420Y-16130174D02*
X8174943Y-16092079D01*
X8174943Y-16092079D02*
X8184467Y-16073031D01*
X8184467Y-16073031D02*
X8193991Y-16063508D01*
X8193991Y-16063508D02*
X8213039Y-16053984D01*
X8365420Y-16253984D02*
X8365420Y-16120650D01*
X8365420Y-16139698D02*
X8374943Y-16130174D01*
X8374943Y-16130174D02*
X8393991Y-16120650D01*
X8393991Y-16120650D02*
X8422563Y-16120650D01*
X8422563Y-16120650D02*
X8441610Y-16130174D01*
X8441610Y-16130174D02*
X8451134Y-16149222D01*
X8451134Y-16149222D02*
X8451134Y-16253984D01*
X8451134Y-16149222D02*
X8460658Y-16130174D01*
X8460658Y-16130174D02*
X8479705Y-16120650D01*
X8479705Y-16120650D02*
X8508277Y-16120650D01*
X8508277Y-16120650D02*
X8527325Y-16130174D01*
X8527325Y-16130174D02*
X8536848Y-16149222D01*
X8536848Y-16149222D02*
X8536848Y-16253984D01*
X8632086Y-16253984D02*
X8632086Y-16120650D01*
X8632086Y-16139698D02*
X8641610Y-16130174D01*
X8641610Y-16130174D02*
X8660658Y-16120650D01*
X8660658Y-16120650D02*
X8689229Y-16120650D01*
X8689229Y-16120650D02*
X8708277Y-16130174D01*
X8708277Y-16130174D02*
X8717801Y-16149222D01*
X8717801Y-16149222D02*
X8717801Y-16253984D01*
X8717801Y-16149222D02*
X8727325Y-16130174D01*
X8727325Y-16130174D02*
X8746372Y-16120650D01*
X8746372Y-16120650D02*
X8774944Y-16120650D01*
X8774944Y-16120650D02*
X8793991Y-16130174D01*
X8793991Y-16130174D02*
X8803515Y-16149222D01*
X8803515Y-16149222D02*
X8803515Y-16253984D01*
X9193991Y-16044460D02*
X9022563Y-16301603D01*
X9451134Y-16053984D02*
X9470182Y-16053984D01*
X9470182Y-16053984D02*
X9489229Y-16063508D01*
X9489229Y-16063508D02*
X9498753Y-16073031D01*
X9498753Y-16073031D02*
X9508277Y-16092079D01*
X9508277Y-16092079D02*
X9517801Y-16130174D01*
X9517801Y-16130174D02*
X9517801Y-16177793D01*
X9517801Y-16177793D02*
X9508277Y-16215888D01*
X9508277Y-16215888D02*
X9498753Y-16234936D01*
X9498753Y-16234936D02*
X9489229Y-16244460D01*
X9489229Y-16244460D02*
X9470182Y-16253984D01*
X9470182Y-16253984D02*
X9451134Y-16253984D01*
X9451134Y-16253984D02*
X9432087Y-16244460D01*
X9432087Y-16244460D02*
X9422563Y-16234936D01*
X9422563Y-16234936D02*
X9413039Y-16215888D01*
X9413039Y-16215888D02*
X9403515Y-16177793D01*
X9403515Y-16177793D02*
X9403515Y-16130174D01*
X9403515Y-16130174D02*
X9413039Y-16092079D01*
X9413039Y-16092079D02*
X9422563Y-16073031D01*
X9422563Y-16073031D02*
X9432087Y-16063508D01*
X9432087Y-16063508D02*
X9451134Y-16053984D01*
X9603515Y-16234936D02*
X9613039Y-16244460D01*
X9613039Y-16244460D02*
X9603515Y-16253984D01*
X9603515Y-16253984D02*
X9593991Y-16244460D01*
X9593991Y-16244460D02*
X9603515Y-16234936D01*
X9603515Y-16234936D02*
X9603515Y-16253984D01*
X9803515Y-16253984D02*
X9689229Y-16253984D01*
X9746372Y-16253984D02*
X9746372Y-16053984D01*
X9746372Y-16053984D02*
X9727325Y-16082555D01*
X9727325Y-16082555D02*
X9708277Y-16101603D01*
X9708277Y-16101603D02*
X9689229Y-16111127D01*
X9870182Y-16053984D02*
X9993991Y-16053984D01*
X9993991Y-16053984D02*
X9927325Y-16130174D01*
X9927325Y-16130174D02*
X9955896Y-16130174D01*
X9955896Y-16130174D02*
X9974944Y-16139698D01*
X9974944Y-16139698D02*
X9984468Y-16149222D01*
X9984468Y-16149222D02*
X9993991Y-16168269D01*
X9993991Y-16168269D02*
X9993991Y-16215888D01*
X9993991Y-16215888D02*
X9984468Y-16234936D01*
X9984468Y-16234936D02*
X9974944Y-16244460D01*
X9974944Y-16244460D02*
X9955896Y-16253984D01*
X9955896Y-16253984D02*
X9898753Y-16253984D01*
X9898753Y-16253984D02*
X9879706Y-16244460D01*
X9879706Y-16244460D02*
X9870182Y-16234936D01*
X10174944Y-16053984D02*
X10079706Y-16053984D01*
X10079706Y-16053984D02*
X10070182Y-16149222D01*
X10070182Y-16149222D02*
X10079706Y-16139698D01*
X10079706Y-16139698D02*
X10098753Y-16130174D01*
X10098753Y-16130174D02*
X10146372Y-16130174D01*
X10146372Y-16130174D02*
X10165420Y-16139698D01*
X10165420Y-16139698D02*
X10174944Y-16149222D01*
X10174944Y-16149222D02*
X10184468Y-16168269D01*
X10184468Y-16168269D02*
X10184468Y-16215888D01*
X10184468Y-16215888D02*
X10174944Y-16234936D01*
X10174944Y-16234936D02*
X10165420Y-16244460D01*
X10165420Y-16244460D02*
X10146372Y-16253984D01*
X10146372Y-16253984D02*
X10098753Y-16253984D01*
X10098753Y-16253984D02*
X10079706Y-16244460D01*
X10079706Y-16244460D02*
X10070182Y-16234936D01*
X10298753Y-16139698D02*
X10279706Y-16130174D01*
X10279706Y-16130174D02*
X10270182Y-16120650D01*
X10270182Y-16120650D02*
X10260658Y-16101603D01*
X10260658Y-16101603D02*
X10260658Y-16092079D01*
X10260658Y-16092079D02*
X10270182Y-16073031D01*
X10270182Y-16073031D02*
X10279706Y-16063508D01*
X10279706Y-16063508D02*
X10298753Y-16053984D01*
X10298753Y-16053984D02*
X10336849Y-16053984D01*
X10336849Y-16053984D02*
X10355896Y-16063508D01*
X10355896Y-16063508D02*
X10365420Y-16073031D01*
X10365420Y-16073031D02*
X10374944Y-16092079D01*
X10374944Y-16092079D02*
X10374944Y-16101603D01*
X10374944Y-16101603D02*
X10365420Y-16120650D01*
X10365420Y-16120650D02*
X10355896Y-16130174D01*
X10355896Y-16130174D02*
X10336849Y-16139698D01*
X10336849Y-16139698D02*
X10298753Y-16139698D01*
X10298753Y-16139698D02*
X10279706Y-16149222D01*
X10279706Y-16149222D02*
X10270182Y-16158746D01*
X10270182Y-16158746D02*
X10260658Y-16177793D01*
X10260658Y-16177793D02*
X10260658Y-16215888D01*
X10260658Y-16215888D02*
X10270182Y-16234936D01*
X10270182Y-16234936D02*
X10279706Y-16244460D01*
X10279706Y-16244460D02*
X10298753Y-16253984D01*
X10298753Y-16253984D02*
X10336849Y-16253984D01*
X10336849Y-16253984D02*
X10355896Y-16244460D01*
X10355896Y-16244460D02*
X10365420Y-16234936D01*
X10365420Y-16234936D02*
X10374944Y-16215888D01*
X10374944Y-16215888D02*
X10374944Y-16177793D01*
X10374944Y-16177793D02*
X10365420Y-16158746D01*
X10365420Y-16158746D02*
X10355896Y-16149222D01*
X10355896Y-16149222D02*
X10336849Y-16139698D01*
X10451134Y-16053984D02*
X10451134Y-16092079D01*
X10527325Y-16053984D02*
X10527325Y-16092079D01*
X10822563Y-16330174D02*
X10813039Y-16320650D01*
X10813039Y-16320650D02*
X10793991Y-16292079D01*
X10793991Y-16292079D02*
X10784468Y-16273031D01*
X10784468Y-16273031D02*
X10774944Y-16244460D01*
X10774944Y-16244460D02*
X10765420Y-16196841D01*
X10765420Y-16196841D02*
X10765420Y-16158746D01*
X10765420Y-16158746D02*
X10774944Y-16111127D01*
X10774944Y-16111127D02*
X10784468Y-16082555D01*
X10784468Y-16082555D02*
X10793991Y-16063508D01*
X10793991Y-16063508D02*
X10813039Y-16034936D01*
X10813039Y-16034936D02*
X10822563Y-16025412D01*
X10984468Y-16053984D02*
X10946372Y-16053984D01*
X10946372Y-16053984D02*
X10927325Y-16063508D01*
X10927325Y-16063508D02*
X10917801Y-16073031D01*
X10917801Y-16073031D02*
X10898753Y-16101603D01*
X10898753Y-16101603D02*
X10889230Y-16139698D01*
X10889230Y-16139698D02*
X10889230Y-16215888D01*
X10889230Y-16215888D02*
X10898753Y-16234936D01*
X10898753Y-16234936D02*
X10908277Y-16244460D01*
X10908277Y-16244460D02*
X10927325Y-16253984D01*
X10927325Y-16253984D02*
X10965420Y-16253984D01*
X10965420Y-16253984D02*
X10984468Y-16244460D01*
X10984468Y-16244460D02*
X10993991Y-16234936D01*
X10993991Y-16234936D02*
X11003515Y-16215888D01*
X11003515Y-16215888D02*
X11003515Y-16168269D01*
X11003515Y-16168269D02*
X10993991Y-16149222D01*
X10993991Y-16149222D02*
X10984468Y-16139698D01*
X10984468Y-16139698D02*
X10965420Y-16130174D01*
X10965420Y-16130174D02*
X10927325Y-16130174D01*
X10927325Y-16130174D02*
X10908277Y-16139698D01*
X10908277Y-16139698D02*
X10898753Y-16149222D01*
X10898753Y-16149222D02*
X10889230Y-16168269D01*
X11241610Y-16253984D02*
X11241610Y-16053984D01*
X11327325Y-16253984D02*
X11327325Y-16149222D01*
X11327325Y-16149222D02*
X11317801Y-16130174D01*
X11317801Y-16130174D02*
X11298753Y-16120650D01*
X11298753Y-16120650D02*
X11270182Y-16120650D01*
X11270182Y-16120650D02*
X11251134Y-16130174D01*
X11251134Y-16130174D02*
X11241610Y-16139698D01*
X11451134Y-16253984D02*
X11432087Y-16244460D01*
X11432087Y-16244460D02*
X11422563Y-16234936D01*
X11422563Y-16234936D02*
X11413039Y-16215888D01*
X11413039Y-16215888D02*
X11413039Y-16158746D01*
X11413039Y-16158746D02*
X11422563Y-16139698D01*
X11422563Y-16139698D02*
X11432087Y-16130174D01*
X11432087Y-16130174D02*
X11451134Y-16120650D01*
X11451134Y-16120650D02*
X11479706Y-16120650D01*
X11479706Y-16120650D02*
X11498753Y-16130174D01*
X11498753Y-16130174D02*
X11508277Y-16139698D01*
X11508277Y-16139698D02*
X11517801Y-16158746D01*
X11517801Y-16158746D02*
X11517801Y-16215888D01*
X11517801Y-16215888D02*
X11508277Y-16234936D01*
X11508277Y-16234936D02*
X11498753Y-16244460D01*
X11498753Y-16244460D02*
X11479706Y-16253984D01*
X11479706Y-16253984D02*
X11451134Y-16253984D01*
X11632087Y-16253984D02*
X11613039Y-16244460D01*
X11613039Y-16244460D02*
X11603515Y-16225412D01*
X11603515Y-16225412D02*
X11603515Y-16053984D01*
X11784468Y-16244460D02*
X11765420Y-16253984D01*
X11765420Y-16253984D02*
X11727325Y-16253984D01*
X11727325Y-16253984D02*
X11708277Y-16244460D01*
X11708277Y-16244460D02*
X11698753Y-16225412D01*
X11698753Y-16225412D02*
X11698753Y-16149222D01*
X11698753Y-16149222D02*
X11708277Y-16130174D01*
X11708277Y-16130174D02*
X11727325Y-16120650D01*
X11727325Y-16120650D02*
X11765420Y-16120650D01*
X11765420Y-16120650D02*
X11784468Y-16130174D01*
X11784468Y-16130174D02*
X11793991Y-16149222D01*
X11793991Y-16149222D02*
X11793991Y-16168269D01*
X11793991Y-16168269D02*
X11698753Y-16187317D01*
X11870182Y-16244460D02*
X11889230Y-16253984D01*
X11889230Y-16253984D02*
X11927325Y-16253984D01*
X11927325Y-16253984D02*
X11946372Y-16244460D01*
X11946372Y-16244460D02*
X11955896Y-16225412D01*
X11955896Y-16225412D02*
X11955896Y-16215888D01*
X11955896Y-16215888D02*
X11946372Y-16196841D01*
X11946372Y-16196841D02*
X11927325Y-16187317D01*
X11927325Y-16187317D02*
X11898753Y-16187317D01*
X11898753Y-16187317D02*
X11879706Y-16177793D01*
X11879706Y-16177793D02*
X11870182Y-16158746D01*
X11870182Y-16158746D02*
X11870182Y-16149222D01*
X11870182Y-16149222D02*
X11879706Y-16130174D01*
X11879706Y-16130174D02*
X11898753Y-16120650D01*
X11898753Y-16120650D02*
X11927325Y-16120650D01*
X11927325Y-16120650D02*
X11946372Y-16130174D01*
X12022563Y-16330174D02*
X12032087Y-16320650D01*
X12032087Y-16320650D02*
X12051134Y-16292079D01*
X12051134Y-16292079D02*
X12060658Y-16273031D01*
X12060658Y-16273031D02*
X12070182Y-16244460D01*
X12070182Y-16244460D02*
X12079706Y-16196841D01*
X12079706Y-16196841D02*
X12079706Y-16158746D01*
X12079706Y-16158746D02*
X12070182Y-16111127D01*
X12070182Y-16111127D02*
X12060658Y-16082555D01*
X12060658Y-16082555D02*
X12051134Y-16063508D01*
X12051134Y-16063508D02*
X12032087Y-16034936D01*
X12032087Y-16034936D02*
X12022563Y-16025412D01*
X12384468Y-16330174D02*
X12374944Y-16320650D01*
X12374944Y-16320650D02*
X12355896Y-16292079D01*
X12355896Y-16292079D02*
X12346372Y-16273031D01*
X12346372Y-16273031D02*
X12336849Y-16244460D01*
X12336849Y-16244460D02*
X12327325Y-16196841D01*
X12327325Y-16196841D02*
X12327325Y-16158746D01*
X12327325Y-16158746D02*
X12336849Y-16111127D01*
X12336849Y-16111127D02*
X12346372Y-16082555D01*
X12346372Y-16082555D02*
X12355896Y-16063508D01*
X12355896Y-16063508D02*
X12374944Y-16034936D01*
X12374944Y-16034936D02*
X12384468Y-16025412D01*
X12460658Y-16120650D02*
X12460658Y-16253984D01*
X12460658Y-16139698D02*
X12470182Y-16130174D01*
X12470182Y-16130174D02*
X12489230Y-16120650D01*
X12489230Y-16120650D02*
X12517801Y-16120650D01*
X12517801Y-16120650D02*
X12536849Y-16130174D01*
X12536849Y-16130174D02*
X12546372Y-16149222D01*
X12546372Y-16149222D02*
X12546372Y-16253984D01*
X12670182Y-16253984D02*
X12651134Y-16244460D01*
X12651134Y-16244460D02*
X12641611Y-16234936D01*
X12641611Y-16234936D02*
X12632087Y-16215888D01*
X12632087Y-16215888D02*
X12632087Y-16158746D01*
X12632087Y-16158746D02*
X12641611Y-16139698D01*
X12641611Y-16139698D02*
X12651134Y-16130174D01*
X12651134Y-16130174D02*
X12670182Y-16120650D01*
X12670182Y-16120650D02*
X12698753Y-16120650D01*
X12698753Y-16120650D02*
X12717801Y-16130174D01*
X12717801Y-16130174D02*
X12727325Y-16139698D01*
X12727325Y-16139698D02*
X12736849Y-16158746D01*
X12736849Y-16158746D02*
X12736849Y-16215888D01*
X12736849Y-16215888D02*
X12727325Y-16234936D01*
X12727325Y-16234936D02*
X12717801Y-16244460D01*
X12717801Y-16244460D02*
X12698753Y-16253984D01*
X12698753Y-16253984D02*
X12670182Y-16253984D01*
X12793992Y-16120650D02*
X12870182Y-16120650D01*
X12822563Y-16053984D02*
X12822563Y-16225412D01*
X12822563Y-16225412D02*
X12832087Y-16244460D01*
X12832087Y-16244460D02*
X12851134Y-16253984D01*
X12851134Y-16253984D02*
X12870182Y-16253984D01*
X13089230Y-16120650D02*
X13089230Y-16320650D01*
X13089230Y-16130174D02*
X13108277Y-16120650D01*
X13108277Y-16120650D02*
X13146373Y-16120650D01*
X13146373Y-16120650D02*
X13165420Y-16130174D01*
X13165420Y-16130174D02*
X13174944Y-16139698D01*
X13174944Y-16139698D02*
X13184468Y-16158746D01*
X13184468Y-16158746D02*
X13184468Y-16215888D01*
X13184468Y-16215888D02*
X13174944Y-16234936D01*
X13174944Y-16234936D02*
X13165420Y-16244460D01*
X13165420Y-16244460D02*
X13146373Y-16253984D01*
X13146373Y-16253984D02*
X13108277Y-16253984D01*
X13108277Y-16253984D02*
X13089230Y-16244460D01*
X13298753Y-16253984D02*
X13279706Y-16244460D01*
X13279706Y-16244460D02*
X13270182Y-16225412D01*
X13270182Y-16225412D02*
X13270182Y-16053984D01*
X13460658Y-16253984D02*
X13460658Y-16149222D01*
X13460658Y-16149222D02*
X13451134Y-16130174D01*
X13451134Y-16130174D02*
X13432087Y-16120650D01*
X13432087Y-16120650D02*
X13393992Y-16120650D01*
X13393992Y-16120650D02*
X13374944Y-16130174D01*
X13460658Y-16244460D02*
X13441611Y-16253984D01*
X13441611Y-16253984D02*
X13393992Y-16253984D01*
X13393992Y-16253984D02*
X13374944Y-16244460D01*
X13374944Y-16244460D02*
X13365420Y-16225412D01*
X13365420Y-16225412D02*
X13365420Y-16206365D01*
X13365420Y-16206365D02*
X13374944Y-16187317D01*
X13374944Y-16187317D02*
X13393992Y-16177793D01*
X13393992Y-16177793D02*
X13441611Y-16177793D01*
X13441611Y-16177793D02*
X13460658Y-16168269D01*
X13527325Y-16120650D02*
X13603515Y-16120650D01*
X13555896Y-16053984D02*
X13555896Y-16225412D01*
X13555896Y-16225412D02*
X13565420Y-16244460D01*
X13565420Y-16244460D02*
X13584468Y-16253984D01*
X13584468Y-16253984D02*
X13603515Y-16253984D01*
X13746373Y-16244460D02*
X13727325Y-16253984D01*
X13727325Y-16253984D02*
X13689230Y-16253984D01*
X13689230Y-16253984D02*
X13670182Y-16244460D01*
X13670182Y-16244460D02*
X13660658Y-16225412D01*
X13660658Y-16225412D02*
X13660658Y-16149222D01*
X13660658Y-16149222D02*
X13670182Y-16130174D01*
X13670182Y-16130174D02*
X13689230Y-16120650D01*
X13689230Y-16120650D02*
X13727325Y-16120650D01*
X13727325Y-16120650D02*
X13746373Y-16130174D01*
X13746373Y-16130174D02*
X13755896Y-16149222D01*
X13755896Y-16149222D02*
X13755896Y-16168269D01*
X13755896Y-16168269D02*
X13660658Y-16187317D01*
X13927325Y-16253984D02*
X13927325Y-16053984D01*
X13927325Y-16244460D02*
X13908277Y-16253984D01*
X13908277Y-16253984D02*
X13870182Y-16253984D01*
X13870182Y-16253984D02*
X13851134Y-16244460D01*
X13851134Y-16244460D02*
X13841611Y-16234936D01*
X13841611Y-16234936D02*
X13832087Y-16215888D01*
X13832087Y-16215888D02*
X13832087Y-16158746D01*
X13832087Y-16158746D02*
X13841611Y-16139698D01*
X13841611Y-16139698D02*
X13851134Y-16130174D01*
X13851134Y-16130174D02*
X13870182Y-16120650D01*
X13870182Y-16120650D02*
X13908277Y-16120650D01*
X13908277Y-16120650D02*
X13927325Y-16130174D01*
X14003515Y-16330174D02*
X14013039Y-16320650D01*
X14013039Y-16320650D02*
X14032087Y-16292079D01*
X14032087Y-16292079D02*
X14041611Y-16273031D01*
X14041611Y-16273031D02*
X14051134Y-16244460D01*
X14051134Y-16244460D02*
X14060658Y-16196841D01*
X14060658Y-16196841D02*
X14060658Y-16158746D01*
X14060658Y-16158746D02*
X14051134Y-16111127D01*
X14051134Y-16111127D02*
X14041611Y-16082555D01*
X14041611Y-16082555D02*
X14032087Y-16063508D01*
X14032087Y-16063508D02*
X14013039Y-16034936D01*
X14013039Y-16034936D02*
X14003515Y-16025412D01*
X7147500Y-16382500D02*
X7147500Y-16582500D01*
X7047500Y-16482500D02*
X7247500Y-16482500D01*
X7593991Y-16440650D02*
X7593991Y-16573984D01*
X7546372Y-16364460D02*
X7498753Y-16507317D01*
X7498753Y-16507317D02*
X7622562Y-16507317D01*
X7698753Y-16554936D02*
X7708277Y-16564460D01*
X7708277Y-16564460D02*
X7698753Y-16573984D01*
X7698753Y-16573984D02*
X7689229Y-16564460D01*
X7689229Y-16564460D02*
X7698753Y-16554936D01*
X7698753Y-16554936D02*
X7698753Y-16573984D01*
X7774943Y-16373984D02*
X7898753Y-16373984D01*
X7898753Y-16373984D02*
X7832086Y-16450174D01*
X7832086Y-16450174D02*
X7860658Y-16450174D01*
X7860658Y-16450174D02*
X7879705Y-16459698D01*
X7879705Y-16459698D02*
X7889229Y-16469222D01*
X7889229Y-16469222D02*
X7898753Y-16488269D01*
X7898753Y-16488269D02*
X7898753Y-16535888D01*
X7898753Y-16535888D02*
X7889229Y-16554936D01*
X7889229Y-16554936D02*
X7879705Y-16564460D01*
X7879705Y-16564460D02*
X7860658Y-16573984D01*
X7860658Y-16573984D02*
X7803515Y-16573984D01*
X7803515Y-16573984D02*
X7784467Y-16564460D01*
X7784467Y-16564460D02*
X7774943Y-16554936D01*
X8022562Y-16373984D02*
X8041610Y-16373984D01*
X8041610Y-16373984D02*
X8060658Y-16383508D01*
X8060658Y-16383508D02*
X8070182Y-16393031D01*
X8070182Y-16393031D02*
X8079705Y-16412079D01*
X8079705Y-16412079D02*
X8089229Y-16450174D01*
X8089229Y-16450174D02*
X8089229Y-16497793D01*
X8089229Y-16497793D02*
X8079705Y-16535888D01*
X8079705Y-16535888D02*
X8070182Y-16554936D01*
X8070182Y-16554936D02*
X8060658Y-16564460D01*
X8060658Y-16564460D02*
X8041610Y-16573984D01*
X8041610Y-16573984D02*
X8022562Y-16573984D01*
X8022562Y-16573984D02*
X8003515Y-16564460D01*
X8003515Y-16564460D02*
X7993991Y-16554936D01*
X7993991Y-16554936D02*
X7984467Y-16535888D01*
X7984467Y-16535888D02*
X7974943Y-16497793D01*
X7974943Y-16497793D02*
X7974943Y-16450174D01*
X7974943Y-16450174D02*
X7984467Y-16412079D01*
X7984467Y-16412079D02*
X7993991Y-16393031D01*
X7993991Y-16393031D02*
X8003515Y-16383508D01*
X8003515Y-16383508D02*
X8022562Y-16373984D01*
X8213039Y-16373984D02*
X8232086Y-16373984D01*
X8232086Y-16373984D02*
X8251134Y-16383508D01*
X8251134Y-16383508D02*
X8260658Y-16393031D01*
X8260658Y-16393031D02*
X8270182Y-16412079D01*
X8270182Y-16412079D02*
X8279705Y-16450174D01*
X8279705Y-16450174D02*
X8279705Y-16497793D01*
X8279705Y-16497793D02*
X8270182Y-16535888D01*
X8270182Y-16535888D02*
X8260658Y-16554936D01*
X8260658Y-16554936D02*
X8251134Y-16564460D01*
X8251134Y-16564460D02*
X8232086Y-16573984D01*
X8232086Y-16573984D02*
X8213039Y-16573984D01*
X8213039Y-16573984D02*
X8193991Y-16564460D01*
X8193991Y-16564460D02*
X8184467Y-16554936D01*
X8184467Y-16554936D02*
X8174943Y-16535888D01*
X8174943Y-16535888D02*
X8165420Y-16497793D01*
X8165420Y-16497793D02*
X8165420Y-16450174D01*
X8165420Y-16450174D02*
X8174943Y-16412079D01*
X8174943Y-16412079D02*
X8184467Y-16393031D01*
X8184467Y-16393031D02*
X8193991Y-16383508D01*
X8193991Y-16383508D02*
X8213039Y-16373984D01*
X8365420Y-16573984D02*
X8365420Y-16440650D01*
X8365420Y-16459698D02*
X8374943Y-16450174D01*
X8374943Y-16450174D02*
X8393991Y-16440650D01*
X8393991Y-16440650D02*
X8422563Y-16440650D01*
X8422563Y-16440650D02*
X8441610Y-16450174D01*
X8441610Y-16450174D02*
X8451134Y-16469222D01*
X8451134Y-16469222D02*
X8451134Y-16573984D01*
X8451134Y-16469222D02*
X8460658Y-16450174D01*
X8460658Y-16450174D02*
X8479705Y-16440650D01*
X8479705Y-16440650D02*
X8508277Y-16440650D01*
X8508277Y-16440650D02*
X8527325Y-16450174D01*
X8527325Y-16450174D02*
X8536848Y-16469222D01*
X8536848Y-16469222D02*
X8536848Y-16573984D01*
X8632086Y-16573984D02*
X8632086Y-16440650D01*
X8632086Y-16459698D02*
X8641610Y-16450174D01*
X8641610Y-16450174D02*
X8660658Y-16440650D01*
X8660658Y-16440650D02*
X8689229Y-16440650D01*
X8689229Y-16440650D02*
X8708277Y-16450174D01*
X8708277Y-16450174D02*
X8717801Y-16469222D01*
X8717801Y-16469222D02*
X8717801Y-16573984D01*
X8717801Y-16469222D02*
X8727325Y-16450174D01*
X8727325Y-16450174D02*
X8746372Y-16440650D01*
X8746372Y-16440650D02*
X8774944Y-16440650D01*
X8774944Y-16440650D02*
X8793991Y-16450174D01*
X8793991Y-16450174D02*
X8803515Y-16469222D01*
X8803515Y-16469222D02*
X8803515Y-16573984D01*
X9193991Y-16364460D02*
X9022563Y-16621603D01*
X9451134Y-16373984D02*
X9470182Y-16373984D01*
X9470182Y-16373984D02*
X9489229Y-16383508D01*
X9489229Y-16383508D02*
X9498753Y-16393031D01*
X9498753Y-16393031D02*
X9508277Y-16412079D01*
X9508277Y-16412079D02*
X9517801Y-16450174D01*
X9517801Y-16450174D02*
X9517801Y-16497793D01*
X9517801Y-16497793D02*
X9508277Y-16535888D01*
X9508277Y-16535888D02*
X9498753Y-16554936D01*
X9498753Y-16554936D02*
X9489229Y-16564460D01*
X9489229Y-16564460D02*
X9470182Y-16573984D01*
X9470182Y-16573984D02*
X9451134Y-16573984D01*
X9451134Y-16573984D02*
X9432087Y-16564460D01*
X9432087Y-16564460D02*
X9422563Y-16554936D01*
X9422563Y-16554936D02*
X9413039Y-16535888D01*
X9413039Y-16535888D02*
X9403515Y-16497793D01*
X9403515Y-16497793D02*
X9403515Y-16450174D01*
X9403515Y-16450174D02*
X9413039Y-16412079D01*
X9413039Y-16412079D02*
X9422563Y-16393031D01*
X9422563Y-16393031D02*
X9432087Y-16383508D01*
X9432087Y-16383508D02*
X9451134Y-16373984D01*
X9603515Y-16554936D02*
X9613039Y-16564460D01*
X9613039Y-16564460D02*
X9603515Y-16573984D01*
X9603515Y-16573984D02*
X9593991Y-16564460D01*
X9593991Y-16564460D02*
X9603515Y-16554936D01*
X9603515Y-16554936D02*
X9603515Y-16573984D01*
X9803515Y-16573984D02*
X9689229Y-16573984D01*
X9746372Y-16573984D02*
X9746372Y-16373984D01*
X9746372Y-16373984D02*
X9727325Y-16402555D01*
X9727325Y-16402555D02*
X9708277Y-16421603D01*
X9708277Y-16421603D02*
X9689229Y-16431127D01*
X9974944Y-16373984D02*
X9936848Y-16373984D01*
X9936848Y-16373984D02*
X9917801Y-16383508D01*
X9917801Y-16383508D02*
X9908277Y-16393031D01*
X9908277Y-16393031D02*
X9889229Y-16421603D01*
X9889229Y-16421603D02*
X9879706Y-16459698D01*
X9879706Y-16459698D02*
X9879706Y-16535888D01*
X9879706Y-16535888D02*
X9889229Y-16554936D01*
X9889229Y-16554936D02*
X9898753Y-16564460D01*
X9898753Y-16564460D02*
X9917801Y-16573984D01*
X9917801Y-16573984D02*
X9955896Y-16573984D01*
X9955896Y-16573984D02*
X9974944Y-16564460D01*
X9974944Y-16564460D02*
X9984468Y-16554936D01*
X9984468Y-16554936D02*
X9993991Y-16535888D01*
X9993991Y-16535888D02*
X9993991Y-16488269D01*
X9993991Y-16488269D02*
X9984468Y-16469222D01*
X9984468Y-16469222D02*
X9974944Y-16459698D01*
X9974944Y-16459698D02*
X9955896Y-16450174D01*
X9955896Y-16450174D02*
X9917801Y-16450174D01*
X9917801Y-16450174D02*
X9898753Y-16459698D01*
X9898753Y-16459698D02*
X9889229Y-16469222D01*
X9889229Y-16469222D02*
X9879706Y-16488269D01*
X10089229Y-16573984D02*
X10127325Y-16573984D01*
X10127325Y-16573984D02*
X10146372Y-16564460D01*
X10146372Y-16564460D02*
X10155896Y-16554936D01*
X10155896Y-16554936D02*
X10174944Y-16526365D01*
X10174944Y-16526365D02*
X10184468Y-16488269D01*
X10184468Y-16488269D02*
X10184468Y-16412079D01*
X10184468Y-16412079D02*
X10174944Y-16393031D01*
X10174944Y-16393031D02*
X10165420Y-16383508D01*
X10165420Y-16383508D02*
X10146372Y-16373984D01*
X10146372Y-16373984D02*
X10108277Y-16373984D01*
X10108277Y-16373984D02*
X10089229Y-16383508D01*
X10089229Y-16383508D02*
X10079706Y-16393031D01*
X10079706Y-16393031D02*
X10070182Y-16412079D01*
X10070182Y-16412079D02*
X10070182Y-16459698D01*
X10070182Y-16459698D02*
X10079706Y-16478746D01*
X10079706Y-16478746D02*
X10089229Y-16488269D01*
X10089229Y-16488269D02*
X10108277Y-16497793D01*
X10108277Y-16497793D02*
X10146372Y-16497793D01*
X10146372Y-16497793D02*
X10165420Y-16488269D01*
X10165420Y-16488269D02*
X10174944Y-16478746D01*
X10174944Y-16478746D02*
X10184468Y-16459698D01*
X10251134Y-16373984D02*
X10374944Y-16373984D01*
X10374944Y-16373984D02*
X10308277Y-16450174D01*
X10308277Y-16450174D02*
X10336849Y-16450174D01*
X10336849Y-16450174D02*
X10355896Y-16459698D01*
X10355896Y-16459698D02*
X10365420Y-16469222D01*
X10365420Y-16469222D02*
X10374944Y-16488269D01*
X10374944Y-16488269D02*
X10374944Y-16535888D01*
X10374944Y-16535888D02*
X10365420Y-16554936D01*
X10365420Y-16554936D02*
X10355896Y-16564460D01*
X10355896Y-16564460D02*
X10336849Y-16573984D01*
X10336849Y-16573984D02*
X10279706Y-16573984D01*
X10279706Y-16573984D02*
X10260658Y-16564460D01*
X10260658Y-16564460D02*
X10251134Y-16554936D01*
X10451134Y-16373984D02*
X10451134Y-16412079D01*
X10527325Y-16373984D02*
X10527325Y-16412079D01*
X10822563Y-16650174D02*
X10813039Y-16640650D01*
X10813039Y-16640650D02*
X10793991Y-16612079D01*
X10793991Y-16612079D02*
X10784468Y-16593031D01*
X10784468Y-16593031D02*
X10774944Y-16564460D01*
X10774944Y-16564460D02*
X10765420Y-16516841D01*
X10765420Y-16516841D02*
X10765420Y-16478746D01*
X10765420Y-16478746D02*
X10774944Y-16431127D01*
X10774944Y-16431127D02*
X10784468Y-16402555D01*
X10784468Y-16402555D02*
X10793991Y-16383508D01*
X10793991Y-16383508D02*
X10813039Y-16354936D01*
X10813039Y-16354936D02*
X10822563Y-16345412D01*
X10984468Y-16440650D02*
X10984468Y-16573984D01*
X10936849Y-16364460D02*
X10889230Y-16507317D01*
X10889230Y-16507317D02*
X11013039Y-16507317D01*
X11241610Y-16573984D02*
X11241610Y-16373984D01*
X11327325Y-16573984D02*
X11327325Y-16469222D01*
X11327325Y-16469222D02*
X11317801Y-16450174D01*
X11317801Y-16450174D02*
X11298753Y-16440650D01*
X11298753Y-16440650D02*
X11270182Y-16440650D01*
X11270182Y-16440650D02*
X11251134Y-16450174D01*
X11251134Y-16450174D02*
X11241610Y-16459698D01*
X11451134Y-16573984D02*
X11432087Y-16564460D01*
X11432087Y-16564460D02*
X11422563Y-16554936D01*
X11422563Y-16554936D02*
X11413039Y-16535888D01*
X11413039Y-16535888D02*
X11413039Y-16478746D01*
X11413039Y-16478746D02*
X11422563Y-16459698D01*
X11422563Y-16459698D02*
X11432087Y-16450174D01*
X11432087Y-16450174D02*
X11451134Y-16440650D01*
X11451134Y-16440650D02*
X11479706Y-16440650D01*
X11479706Y-16440650D02*
X11498753Y-16450174D01*
X11498753Y-16450174D02*
X11508277Y-16459698D01*
X11508277Y-16459698D02*
X11517801Y-16478746D01*
X11517801Y-16478746D02*
X11517801Y-16535888D01*
X11517801Y-16535888D02*
X11508277Y-16554936D01*
X11508277Y-16554936D02*
X11498753Y-16564460D01*
X11498753Y-16564460D02*
X11479706Y-16573984D01*
X11479706Y-16573984D02*
X11451134Y-16573984D01*
X11632087Y-16573984D02*
X11613039Y-16564460D01*
X11613039Y-16564460D02*
X11603515Y-16545412D01*
X11603515Y-16545412D02*
X11603515Y-16373984D01*
X11784468Y-16564460D02*
X11765420Y-16573984D01*
X11765420Y-16573984D02*
X11727325Y-16573984D01*
X11727325Y-16573984D02*
X11708277Y-16564460D01*
X11708277Y-16564460D02*
X11698753Y-16545412D01*
X11698753Y-16545412D02*
X11698753Y-16469222D01*
X11698753Y-16469222D02*
X11708277Y-16450174D01*
X11708277Y-16450174D02*
X11727325Y-16440650D01*
X11727325Y-16440650D02*
X11765420Y-16440650D01*
X11765420Y-16440650D02*
X11784468Y-16450174D01*
X11784468Y-16450174D02*
X11793991Y-16469222D01*
X11793991Y-16469222D02*
X11793991Y-16488269D01*
X11793991Y-16488269D02*
X11698753Y-16507317D01*
X11870182Y-16564460D02*
X11889230Y-16573984D01*
X11889230Y-16573984D02*
X11927325Y-16573984D01*
X11927325Y-16573984D02*
X11946372Y-16564460D01*
X11946372Y-16564460D02*
X11955896Y-16545412D01*
X11955896Y-16545412D02*
X11955896Y-16535888D01*
X11955896Y-16535888D02*
X11946372Y-16516841D01*
X11946372Y-16516841D02*
X11927325Y-16507317D01*
X11927325Y-16507317D02*
X11898753Y-16507317D01*
X11898753Y-16507317D02*
X11879706Y-16497793D01*
X11879706Y-16497793D02*
X11870182Y-16478746D01*
X11870182Y-16478746D02*
X11870182Y-16469222D01*
X11870182Y-16469222D02*
X11879706Y-16450174D01*
X11879706Y-16450174D02*
X11898753Y-16440650D01*
X11898753Y-16440650D02*
X11927325Y-16440650D01*
X11927325Y-16440650D02*
X11946372Y-16450174D01*
X12022563Y-16650174D02*
X12032087Y-16640650D01*
X12032087Y-16640650D02*
X12051134Y-16612079D01*
X12051134Y-16612079D02*
X12060658Y-16593031D01*
X12060658Y-16593031D02*
X12070182Y-16564460D01*
X12070182Y-16564460D02*
X12079706Y-16516841D01*
X12079706Y-16516841D02*
X12079706Y-16478746D01*
X12079706Y-16478746D02*
X12070182Y-16431127D01*
X12070182Y-16431127D02*
X12060658Y-16402555D01*
X12060658Y-16402555D02*
X12051134Y-16383508D01*
X12051134Y-16383508D02*
X12032087Y-16354936D01*
X12032087Y-16354936D02*
X12022563Y-16345412D01*
X12384468Y-16650174D02*
X12374944Y-16640650D01*
X12374944Y-16640650D02*
X12355896Y-16612079D01*
X12355896Y-16612079D02*
X12346372Y-16593031D01*
X12346372Y-16593031D02*
X12336849Y-16564460D01*
X12336849Y-16564460D02*
X12327325Y-16516841D01*
X12327325Y-16516841D02*
X12327325Y-16478746D01*
X12327325Y-16478746D02*
X12336849Y-16431127D01*
X12336849Y-16431127D02*
X12346372Y-16402555D01*
X12346372Y-16402555D02*
X12355896Y-16383508D01*
X12355896Y-16383508D02*
X12374944Y-16354936D01*
X12374944Y-16354936D02*
X12384468Y-16345412D01*
X12460658Y-16440650D02*
X12460658Y-16573984D01*
X12460658Y-16459698D02*
X12470182Y-16450174D01*
X12470182Y-16450174D02*
X12489230Y-16440650D01*
X12489230Y-16440650D02*
X12517801Y-16440650D01*
X12517801Y-16440650D02*
X12536849Y-16450174D01*
X12536849Y-16450174D02*
X12546372Y-16469222D01*
X12546372Y-16469222D02*
X12546372Y-16573984D01*
X12670182Y-16573984D02*
X12651134Y-16564460D01*
X12651134Y-16564460D02*
X12641611Y-16554936D01*
X12641611Y-16554936D02*
X12632087Y-16535888D01*
X12632087Y-16535888D02*
X12632087Y-16478746D01*
X12632087Y-16478746D02*
X12641611Y-16459698D01*
X12641611Y-16459698D02*
X12651134Y-16450174D01*
X12651134Y-16450174D02*
X12670182Y-16440650D01*
X12670182Y-16440650D02*
X12698753Y-16440650D01*
X12698753Y-16440650D02*
X12717801Y-16450174D01*
X12717801Y-16450174D02*
X12727325Y-16459698D01*
X12727325Y-16459698D02*
X12736849Y-16478746D01*
X12736849Y-16478746D02*
X12736849Y-16535888D01*
X12736849Y-16535888D02*
X12727325Y-16554936D01*
X12727325Y-16554936D02*
X12717801Y-16564460D01*
X12717801Y-16564460D02*
X12698753Y-16573984D01*
X12698753Y-16573984D02*
X12670182Y-16573984D01*
X12793992Y-16440650D02*
X12870182Y-16440650D01*
X12822563Y-16373984D02*
X12822563Y-16545412D01*
X12822563Y-16545412D02*
X12832087Y-16564460D01*
X12832087Y-16564460D02*
X12851134Y-16573984D01*
X12851134Y-16573984D02*
X12870182Y-16573984D01*
X13089230Y-16440650D02*
X13089230Y-16640650D01*
X13089230Y-16450174D02*
X13108277Y-16440650D01*
X13108277Y-16440650D02*
X13146373Y-16440650D01*
X13146373Y-16440650D02*
X13165420Y-16450174D01*
X13165420Y-16450174D02*
X13174944Y-16459698D01*
X13174944Y-16459698D02*
X13184468Y-16478746D01*
X13184468Y-16478746D02*
X13184468Y-16535888D01*
X13184468Y-16535888D02*
X13174944Y-16554936D01*
X13174944Y-16554936D02*
X13165420Y-16564460D01*
X13165420Y-16564460D02*
X13146373Y-16573984D01*
X13146373Y-16573984D02*
X13108277Y-16573984D01*
X13108277Y-16573984D02*
X13089230Y-16564460D01*
X13298753Y-16573984D02*
X13279706Y-16564460D01*
X13279706Y-16564460D02*
X13270182Y-16545412D01*
X13270182Y-16545412D02*
X13270182Y-16373984D01*
X13460658Y-16573984D02*
X13460658Y-16469222D01*
X13460658Y-16469222D02*
X13451134Y-16450174D01*
X13451134Y-16450174D02*
X13432087Y-16440650D01*
X13432087Y-16440650D02*
X13393992Y-16440650D01*
X13393992Y-16440650D02*
X13374944Y-16450174D01*
X13460658Y-16564460D02*
X13441611Y-16573984D01*
X13441611Y-16573984D02*
X13393992Y-16573984D01*
X13393992Y-16573984D02*
X13374944Y-16564460D01*
X13374944Y-16564460D02*
X13365420Y-16545412D01*
X13365420Y-16545412D02*
X13365420Y-16526365D01*
X13365420Y-16526365D02*
X13374944Y-16507317D01*
X13374944Y-16507317D02*
X13393992Y-16497793D01*
X13393992Y-16497793D02*
X13441611Y-16497793D01*
X13441611Y-16497793D02*
X13460658Y-16488269D01*
X13527325Y-16440650D02*
X13603515Y-16440650D01*
X13555896Y-16373984D02*
X13555896Y-16545412D01*
X13555896Y-16545412D02*
X13565420Y-16564460D01*
X13565420Y-16564460D02*
X13584468Y-16573984D01*
X13584468Y-16573984D02*
X13603515Y-16573984D01*
X13746373Y-16564460D02*
X13727325Y-16573984D01*
X13727325Y-16573984D02*
X13689230Y-16573984D01*
X13689230Y-16573984D02*
X13670182Y-16564460D01*
X13670182Y-16564460D02*
X13660658Y-16545412D01*
X13660658Y-16545412D02*
X13660658Y-16469222D01*
X13660658Y-16469222D02*
X13670182Y-16450174D01*
X13670182Y-16450174D02*
X13689230Y-16440650D01*
X13689230Y-16440650D02*
X13727325Y-16440650D01*
X13727325Y-16440650D02*
X13746373Y-16450174D01*
X13746373Y-16450174D02*
X13755896Y-16469222D01*
X13755896Y-16469222D02*
X13755896Y-16488269D01*
X13755896Y-16488269D02*
X13660658Y-16507317D01*
X13927325Y-16573984D02*
X13927325Y-16373984D01*
X13927325Y-16564460D02*
X13908277Y-16573984D01*
X13908277Y-16573984D02*
X13870182Y-16573984D01*
X13870182Y-16573984D02*
X13851134Y-16564460D01*
X13851134Y-16564460D02*
X13841611Y-16554936D01*
X13841611Y-16554936D02*
X13832087Y-16535888D01*
X13832087Y-16535888D02*
X13832087Y-16478746D01*
X13832087Y-16478746D02*
X13841611Y-16459698D01*
X13841611Y-16459698D02*
X13851134Y-16450174D01*
X13851134Y-16450174D02*
X13870182Y-16440650D01*
X13870182Y-16440650D02*
X13908277Y-16440650D01*
X13908277Y-16440650D02*
X13927325Y-16450174D01*
X14003515Y-16650174D02*
X14013039Y-16640650D01*
X14013039Y-16640650D02*
X14032087Y-16612079D01*
X14032087Y-16612079D02*
X14041611Y-16593031D01*
X14041611Y-16593031D02*
X14051134Y-16564460D01*
X14051134Y-16564460D02*
X14060658Y-16516841D01*
X14060658Y-16516841D02*
X14060658Y-16478746D01*
X14060658Y-16478746D02*
X14051134Y-16431127D01*
X14051134Y-16431127D02*
X14041611Y-16402555D01*
X14041611Y-16402555D02*
X14032087Y-16383508D01*
X14032087Y-16383508D02*
X14013039Y-16354936D01*
X14013039Y-16354936D02*
X14003515Y-16345412D01*
M02*
