%TF.GenerationSoftware,KiCad,Pcbnew,8.0.5*%
%TF.CreationDate,2024-11-10T22:21:34+02:00*%
%TF.ProjectId,PowerBoard,506f7765-7242-46f6-9172-642e6b696361,rev?*%
%TF.SameCoordinates,Original*%
%TF.FileFunction,Drillmap*%
%TF.FilePolarity,Positive*%
%FSLAX45Y45*%
G04 Gerber Fmt 4.5, Leading zero omitted, Abs format (unit mm)*
G04 Created by KiCad (PCBNEW 8.0.5) date 2024-11-10 22:21:34*
%MOMM*%
%LPD*%
G01*
G04 APERTURE LIST*
%ADD10C,0.050000*%
%ADD11C,0.200000*%
%ADD12C,0.100000*%
%ADD13C,0.130000*%
G04 APERTURE END LIST*
D10*
X7250000Y-3200000D02*
X18250000Y-3200000D01*
X18250000Y-15200000D01*
X7250000Y-15200000D01*
X7250000Y-3200000D01*
D11*
D12*
X15535000Y-12662500D02*
X15615000Y-12742500D01*
X15615000Y-12662500D02*
X15535000Y-12742500D01*
X15535000Y-13424500D02*
X15615000Y-13504500D01*
X15615000Y-13424500D02*
X15535000Y-13504500D01*
X15620000Y-13846000D02*
G75*
G02*
X15530000Y-13846000I-45000J0D01*
G01*
X15530000Y-13846000D02*
G75*
G02*
X15620000Y-13846000I45000J0D01*
G01*
X15620000Y-14100000D02*
G75*
G02*
X15530000Y-14100000I-45000J0D01*
G01*
X15530000Y-14100000D02*
G75*
G02*
X15620000Y-14100000I45000J0D01*
G01*
X10850000Y-12700000D02*
X10850000Y-12800000D01*
X10800000Y-12750000D02*
X10900000Y-12750000D01*
X12650000Y-12700000D02*
X12650000Y-12800000D01*
X12600000Y-12750000D02*
X12700000Y-12750000D01*
X14450000Y-12700000D02*
X14450000Y-12800000D01*
X14400000Y-12750000D02*
X14500000Y-12750000D01*
X14450000Y-14000000D02*
X14450000Y-14100000D01*
X14400000Y-14050000D02*
X14500000Y-14050000D01*
X14950000Y-13096000D02*
X14950000Y-13196000D01*
X14900000Y-13146000D02*
X15000000Y-13146000D01*
X14950000Y-13604000D02*
X14950000Y-13704000D01*
X14900000Y-13654000D02*
X15000000Y-13654000D01*
X15100000Y-4330000D02*
X15100000Y-4430000D01*
X15050000Y-4380000D02*
X15150000Y-4380000D01*
X15100000Y-4580000D02*
X15100000Y-4680000D01*
X15050000Y-4630000D02*
X15150000Y-4630000D01*
X15100000Y-5320000D02*
X15100000Y-5420000D01*
X15050000Y-5370000D02*
X15150000Y-5370000D01*
X15100000Y-5570000D02*
X15100000Y-5670000D01*
X15050000Y-5620000D02*
X15150000Y-5620000D01*
D13*
X8865462Y-13216462D02*
X8865462Y-13124538D01*
X8773538Y-13124538D01*
X8773538Y-13216462D01*
X8865462Y-13216462D01*
X8865462Y-13724462D02*
X8865462Y-13632538D01*
X8773538Y-13632538D01*
X8773538Y-13724462D01*
X8865462Y-13724462D01*
X16639462Y-13192462D02*
X16639462Y-13100538D01*
X16547538Y-13100538D01*
X16547538Y-13192462D01*
X16639462Y-13192462D01*
X16639462Y-13700462D02*
X16639462Y-13608538D01*
X16547538Y-13608538D01*
X16547538Y-13700462D01*
X16639462Y-13700462D01*
D11*
X7508277Y-15513984D02*
X7508277Y-15313984D01*
X7508277Y-15313984D02*
X7555896Y-15313984D01*
X7555896Y-15313984D02*
X7584467Y-15323508D01*
X7584467Y-15323508D02*
X7603515Y-15342555D01*
X7603515Y-15342555D02*
X7613039Y-15361603D01*
X7613039Y-15361603D02*
X7622562Y-15399698D01*
X7622562Y-15399698D02*
X7622562Y-15428269D01*
X7622562Y-15428269D02*
X7613039Y-15466365D01*
X7613039Y-15466365D02*
X7603515Y-15485412D01*
X7603515Y-15485412D02*
X7584467Y-15504460D01*
X7584467Y-15504460D02*
X7555896Y-15513984D01*
X7555896Y-15513984D02*
X7508277Y-15513984D01*
X7708277Y-15513984D02*
X7708277Y-15380650D01*
X7708277Y-15418746D02*
X7717801Y-15399698D01*
X7717801Y-15399698D02*
X7727324Y-15390174D01*
X7727324Y-15390174D02*
X7746372Y-15380650D01*
X7746372Y-15380650D02*
X7765420Y-15380650D01*
X7832086Y-15513984D02*
X7832086Y-15380650D01*
X7832086Y-15313984D02*
X7822562Y-15323508D01*
X7822562Y-15323508D02*
X7832086Y-15333031D01*
X7832086Y-15333031D02*
X7841610Y-15323508D01*
X7841610Y-15323508D02*
X7832086Y-15313984D01*
X7832086Y-15313984D02*
X7832086Y-15333031D01*
X7955896Y-15513984D02*
X7936848Y-15504460D01*
X7936848Y-15504460D02*
X7927324Y-15485412D01*
X7927324Y-15485412D02*
X7927324Y-15313984D01*
X8060658Y-15513984D02*
X8041610Y-15504460D01*
X8041610Y-15504460D02*
X8032086Y-15485412D01*
X8032086Y-15485412D02*
X8032086Y-15313984D01*
X8289229Y-15513984D02*
X8289229Y-15313984D01*
X8289229Y-15313984D02*
X8355896Y-15456841D01*
X8355896Y-15456841D02*
X8422563Y-15313984D01*
X8422563Y-15313984D02*
X8422563Y-15513984D01*
X8603515Y-15513984D02*
X8603515Y-15409222D01*
X8603515Y-15409222D02*
X8593991Y-15390174D01*
X8593991Y-15390174D02*
X8574944Y-15380650D01*
X8574944Y-15380650D02*
X8536848Y-15380650D01*
X8536848Y-15380650D02*
X8517801Y-15390174D01*
X8603515Y-15504460D02*
X8584467Y-15513984D01*
X8584467Y-15513984D02*
X8536848Y-15513984D01*
X8536848Y-15513984D02*
X8517801Y-15504460D01*
X8517801Y-15504460D02*
X8508277Y-15485412D01*
X8508277Y-15485412D02*
X8508277Y-15466365D01*
X8508277Y-15466365D02*
X8517801Y-15447317D01*
X8517801Y-15447317D02*
X8536848Y-15437793D01*
X8536848Y-15437793D02*
X8584467Y-15437793D01*
X8584467Y-15437793D02*
X8603515Y-15428269D01*
X8698753Y-15380650D02*
X8698753Y-15580650D01*
X8698753Y-15390174D02*
X8717801Y-15380650D01*
X8717801Y-15380650D02*
X8755896Y-15380650D01*
X8755896Y-15380650D02*
X8774944Y-15390174D01*
X8774944Y-15390174D02*
X8784467Y-15399698D01*
X8784467Y-15399698D02*
X8793991Y-15418746D01*
X8793991Y-15418746D02*
X8793991Y-15475888D01*
X8793991Y-15475888D02*
X8784467Y-15494936D01*
X8784467Y-15494936D02*
X8774944Y-15504460D01*
X8774944Y-15504460D02*
X8755896Y-15513984D01*
X8755896Y-15513984D02*
X8717801Y-15513984D01*
X8717801Y-15513984D02*
X8698753Y-15504460D01*
X8879705Y-15494936D02*
X8889229Y-15504460D01*
X8889229Y-15504460D02*
X8879705Y-15513984D01*
X8879705Y-15513984D02*
X8870182Y-15504460D01*
X8870182Y-15504460D02*
X8879705Y-15494936D01*
X8879705Y-15494936D02*
X8879705Y-15513984D01*
X8879705Y-15390174D02*
X8889229Y-15399698D01*
X8889229Y-15399698D02*
X8879705Y-15409222D01*
X8879705Y-15409222D02*
X8870182Y-15399698D01*
X8870182Y-15399698D02*
X8879705Y-15390174D01*
X8879705Y-15390174D02*
X8879705Y-15409222D01*
D12*
X7167500Y-15802500D02*
X7247500Y-15882500D01*
X7247500Y-15802500D02*
X7167500Y-15882500D01*
D11*
X7546372Y-15733984D02*
X7565420Y-15733984D01*
X7565420Y-15733984D02*
X7584467Y-15743508D01*
X7584467Y-15743508D02*
X7593991Y-15753031D01*
X7593991Y-15753031D02*
X7603515Y-15772079D01*
X7603515Y-15772079D02*
X7613039Y-15810174D01*
X7613039Y-15810174D02*
X7613039Y-15857793D01*
X7613039Y-15857793D02*
X7603515Y-15895888D01*
X7603515Y-15895888D02*
X7593991Y-15914936D01*
X7593991Y-15914936D02*
X7584467Y-15924460D01*
X7584467Y-15924460D02*
X7565420Y-15933984D01*
X7565420Y-15933984D02*
X7546372Y-15933984D01*
X7546372Y-15933984D02*
X7527324Y-15924460D01*
X7527324Y-15924460D02*
X7517801Y-15914936D01*
X7517801Y-15914936D02*
X7508277Y-15895888D01*
X7508277Y-15895888D02*
X7498753Y-15857793D01*
X7498753Y-15857793D02*
X7498753Y-15810174D01*
X7498753Y-15810174D02*
X7508277Y-15772079D01*
X7508277Y-15772079D02*
X7517801Y-15753031D01*
X7517801Y-15753031D02*
X7527324Y-15743508D01*
X7527324Y-15743508D02*
X7546372Y-15733984D01*
X7698753Y-15914936D02*
X7708277Y-15924460D01*
X7708277Y-15924460D02*
X7698753Y-15933984D01*
X7698753Y-15933984D02*
X7689229Y-15924460D01*
X7689229Y-15924460D02*
X7698753Y-15914936D01*
X7698753Y-15914936D02*
X7698753Y-15933984D01*
X7822562Y-15819698D02*
X7803515Y-15810174D01*
X7803515Y-15810174D02*
X7793991Y-15800650D01*
X7793991Y-15800650D02*
X7784467Y-15781603D01*
X7784467Y-15781603D02*
X7784467Y-15772079D01*
X7784467Y-15772079D02*
X7793991Y-15753031D01*
X7793991Y-15753031D02*
X7803515Y-15743508D01*
X7803515Y-15743508D02*
X7822562Y-15733984D01*
X7822562Y-15733984D02*
X7860658Y-15733984D01*
X7860658Y-15733984D02*
X7879705Y-15743508D01*
X7879705Y-15743508D02*
X7889229Y-15753031D01*
X7889229Y-15753031D02*
X7898753Y-15772079D01*
X7898753Y-15772079D02*
X7898753Y-15781603D01*
X7898753Y-15781603D02*
X7889229Y-15800650D01*
X7889229Y-15800650D02*
X7879705Y-15810174D01*
X7879705Y-15810174D02*
X7860658Y-15819698D01*
X7860658Y-15819698D02*
X7822562Y-15819698D01*
X7822562Y-15819698D02*
X7803515Y-15829222D01*
X7803515Y-15829222D02*
X7793991Y-15838746D01*
X7793991Y-15838746D02*
X7784467Y-15857793D01*
X7784467Y-15857793D02*
X7784467Y-15895888D01*
X7784467Y-15895888D02*
X7793991Y-15914936D01*
X7793991Y-15914936D02*
X7803515Y-15924460D01*
X7803515Y-15924460D02*
X7822562Y-15933984D01*
X7822562Y-15933984D02*
X7860658Y-15933984D01*
X7860658Y-15933984D02*
X7879705Y-15924460D01*
X7879705Y-15924460D02*
X7889229Y-15914936D01*
X7889229Y-15914936D02*
X7898753Y-15895888D01*
X7898753Y-15895888D02*
X7898753Y-15857793D01*
X7898753Y-15857793D02*
X7889229Y-15838746D01*
X7889229Y-15838746D02*
X7879705Y-15829222D01*
X7879705Y-15829222D02*
X7860658Y-15819698D01*
X8022562Y-15733984D02*
X8041610Y-15733984D01*
X8041610Y-15733984D02*
X8060658Y-15743508D01*
X8060658Y-15743508D02*
X8070182Y-15753031D01*
X8070182Y-15753031D02*
X8079705Y-15772079D01*
X8079705Y-15772079D02*
X8089229Y-15810174D01*
X8089229Y-15810174D02*
X8089229Y-15857793D01*
X8089229Y-15857793D02*
X8079705Y-15895888D01*
X8079705Y-15895888D02*
X8070182Y-15914936D01*
X8070182Y-15914936D02*
X8060658Y-15924460D01*
X8060658Y-15924460D02*
X8041610Y-15933984D01*
X8041610Y-15933984D02*
X8022562Y-15933984D01*
X8022562Y-15933984D02*
X8003515Y-15924460D01*
X8003515Y-15924460D02*
X7993991Y-15914936D01*
X7993991Y-15914936D02*
X7984467Y-15895888D01*
X7984467Y-15895888D02*
X7974943Y-15857793D01*
X7974943Y-15857793D02*
X7974943Y-15810174D01*
X7974943Y-15810174D02*
X7984467Y-15772079D01*
X7984467Y-15772079D02*
X7993991Y-15753031D01*
X7993991Y-15753031D02*
X8003515Y-15743508D01*
X8003515Y-15743508D02*
X8022562Y-15733984D01*
X8213039Y-15733984D02*
X8232086Y-15733984D01*
X8232086Y-15733984D02*
X8251134Y-15743508D01*
X8251134Y-15743508D02*
X8260658Y-15753031D01*
X8260658Y-15753031D02*
X8270182Y-15772079D01*
X8270182Y-15772079D02*
X8279705Y-15810174D01*
X8279705Y-15810174D02*
X8279705Y-15857793D01*
X8279705Y-15857793D02*
X8270182Y-15895888D01*
X8270182Y-15895888D02*
X8260658Y-15914936D01*
X8260658Y-15914936D02*
X8251134Y-15924460D01*
X8251134Y-15924460D02*
X8232086Y-15933984D01*
X8232086Y-15933984D02*
X8213039Y-15933984D01*
X8213039Y-15933984D02*
X8193991Y-15924460D01*
X8193991Y-15924460D02*
X8184467Y-15914936D01*
X8184467Y-15914936D02*
X8174943Y-15895888D01*
X8174943Y-15895888D02*
X8165420Y-15857793D01*
X8165420Y-15857793D02*
X8165420Y-15810174D01*
X8165420Y-15810174D02*
X8174943Y-15772079D01*
X8174943Y-15772079D02*
X8184467Y-15753031D01*
X8184467Y-15753031D02*
X8193991Y-15743508D01*
X8193991Y-15743508D02*
X8213039Y-15733984D01*
X8365420Y-15933984D02*
X8365420Y-15800650D01*
X8365420Y-15819698D02*
X8374943Y-15810174D01*
X8374943Y-15810174D02*
X8393991Y-15800650D01*
X8393991Y-15800650D02*
X8422563Y-15800650D01*
X8422563Y-15800650D02*
X8441610Y-15810174D01*
X8441610Y-15810174D02*
X8451134Y-15829222D01*
X8451134Y-15829222D02*
X8451134Y-15933984D01*
X8451134Y-15829222D02*
X8460658Y-15810174D01*
X8460658Y-15810174D02*
X8479705Y-15800650D01*
X8479705Y-15800650D02*
X8508277Y-15800650D01*
X8508277Y-15800650D02*
X8527325Y-15810174D01*
X8527325Y-15810174D02*
X8536848Y-15829222D01*
X8536848Y-15829222D02*
X8536848Y-15933984D01*
X8632086Y-15933984D02*
X8632086Y-15800650D01*
X8632086Y-15819698D02*
X8641610Y-15810174D01*
X8641610Y-15810174D02*
X8660658Y-15800650D01*
X8660658Y-15800650D02*
X8689229Y-15800650D01*
X8689229Y-15800650D02*
X8708277Y-15810174D01*
X8708277Y-15810174D02*
X8717801Y-15829222D01*
X8717801Y-15829222D02*
X8717801Y-15933984D01*
X8717801Y-15829222D02*
X8727325Y-15810174D01*
X8727325Y-15810174D02*
X8746372Y-15800650D01*
X8746372Y-15800650D02*
X8774944Y-15800650D01*
X8774944Y-15800650D02*
X8793991Y-15810174D01*
X8793991Y-15810174D02*
X8803515Y-15829222D01*
X8803515Y-15829222D02*
X8803515Y-15933984D01*
X9193991Y-15724460D02*
X9022563Y-15981603D01*
X9451134Y-15733984D02*
X9470182Y-15733984D01*
X9470182Y-15733984D02*
X9489229Y-15743508D01*
X9489229Y-15743508D02*
X9498753Y-15753031D01*
X9498753Y-15753031D02*
X9508277Y-15772079D01*
X9508277Y-15772079D02*
X9517801Y-15810174D01*
X9517801Y-15810174D02*
X9517801Y-15857793D01*
X9517801Y-15857793D02*
X9508277Y-15895888D01*
X9508277Y-15895888D02*
X9498753Y-15914936D01*
X9498753Y-15914936D02*
X9489229Y-15924460D01*
X9489229Y-15924460D02*
X9470182Y-15933984D01*
X9470182Y-15933984D02*
X9451134Y-15933984D01*
X9451134Y-15933984D02*
X9432087Y-15924460D01*
X9432087Y-15924460D02*
X9422563Y-15914936D01*
X9422563Y-15914936D02*
X9413039Y-15895888D01*
X9413039Y-15895888D02*
X9403515Y-15857793D01*
X9403515Y-15857793D02*
X9403515Y-15810174D01*
X9403515Y-15810174D02*
X9413039Y-15772079D01*
X9413039Y-15772079D02*
X9422563Y-15753031D01*
X9422563Y-15753031D02*
X9432087Y-15743508D01*
X9432087Y-15743508D02*
X9451134Y-15733984D01*
X9603515Y-15914936D02*
X9613039Y-15924460D01*
X9613039Y-15924460D02*
X9603515Y-15933984D01*
X9603515Y-15933984D02*
X9593991Y-15924460D01*
X9593991Y-15924460D02*
X9603515Y-15914936D01*
X9603515Y-15914936D02*
X9603515Y-15933984D01*
X9736848Y-15733984D02*
X9755896Y-15733984D01*
X9755896Y-15733984D02*
X9774944Y-15743508D01*
X9774944Y-15743508D02*
X9784468Y-15753031D01*
X9784468Y-15753031D02*
X9793991Y-15772079D01*
X9793991Y-15772079D02*
X9803515Y-15810174D01*
X9803515Y-15810174D02*
X9803515Y-15857793D01*
X9803515Y-15857793D02*
X9793991Y-15895888D01*
X9793991Y-15895888D02*
X9784468Y-15914936D01*
X9784468Y-15914936D02*
X9774944Y-15924460D01*
X9774944Y-15924460D02*
X9755896Y-15933984D01*
X9755896Y-15933984D02*
X9736848Y-15933984D01*
X9736848Y-15933984D02*
X9717801Y-15924460D01*
X9717801Y-15924460D02*
X9708277Y-15914936D01*
X9708277Y-15914936D02*
X9698753Y-15895888D01*
X9698753Y-15895888D02*
X9689229Y-15857793D01*
X9689229Y-15857793D02*
X9689229Y-15810174D01*
X9689229Y-15810174D02*
X9698753Y-15772079D01*
X9698753Y-15772079D02*
X9708277Y-15753031D01*
X9708277Y-15753031D02*
X9717801Y-15743508D01*
X9717801Y-15743508D02*
X9736848Y-15733984D01*
X9870182Y-15733984D02*
X9993991Y-15733984D01*
X9993991Y-15733984D02*
X9927325Y-15810174D01*
X9927325Y-15810174D02*
X9955896Y-15810174D01*
X9955896Y-15810174D02*
X9974944Y-15819698D01*
X9974944Y-15819698D02*
X9984468Y-15829222D01*
X9984468Y-15829222D02*
X9993991Y-15848269D01*
X9993991Y-15848269D02*
X9993991Y-15895888D01*
X9993991Y-15895888D02*
X9984468Y-15914936D01*
X9984468Y-15914936D02*
X9974944Y-15924460D01*
X9974944Y-15924460D02*
X9955896Y-15933984D01*
X9955896Y-15933984D02*
X9898753Y-15933984D01*
X9898753Y-15933984D02*
X9879706Y-15924460D01*
X9879706Y-15924460D02*
X9870182Y-15914936D01*
X10184468Y-15933984D02*
X10070182Y-15933984D01*
X10127325Y-15933984D02*
X10127325Y-15733984D01*
X10127325Y-15733984D02*
X10108277Y-15762555D01*
X10108277Y-15762555D02*
X10089229Y-15781603D01*
X10089229Y-15781603D02*
X10070182Y-15791127D01*
X10365420Y-15733984D02*
X10270182Y-15733984D01*
X10270182Y-15733984D02*
X10260658Y-15829222D01*
X10260658Y-15829222D02*
X10270182Y-15819698D01*
X10270182Y-15819698D02*
X10289229Y-15810174D01*
X10289229Y-15810174D02*
X10336849Y-15810174D01*
X10336849Y-15810174D02*
X10355896Y-15819698D01*
X10355896Y-15819698D02*
X10365420Y-15829222D01*
X10365420Y-15829222D02*
X10374944Y-15848269D01*
X10374944Y-15848269D02*
X10374944Y-15895888D01*
X10374944Y-15895888D02*
X10365420Y-15914936D01*
X10365420Y-15914936D02*
X10355896Y-15924460D01*
X10355896Y-15924460D02*
X10336849Y-15933984D01*
X10336849Y-15933984D02*
X10289229Y-15933984D01*
X10289229Y-15933984D02*
X10270182Y-15924460D01*
X10270182Y-15924460D02*
X10260658Y-15914936D01*
X10451134Y-15733984D02*
X10451134Y-15772079D01*
X10527325Y-15733984D02*
X10527325Y-15772079D01*
X10822563Y-16010174D02*
X10813039Y-16000650D01*
X10813039Y-16000650D02*
X10793991Y-15972079D01*
X10793991Y-15972079D02*
X10784468Y-15953031D01*
X10784468Y-15953031D02*
X10774944Y-15924460D01*
X10774944Y-15924460D02*
X10765420Y-15876841D01*
X10765420Y-15876841D02*
X10765420Y-15838746D01*
X10765420Y-15838746D02*
X10774944Y-15791127D01*
X10774944Y-15791127D02*
X10784468Y-15762555D01*
X10784468Y-15762555D02*
X10793991Y-15743508D01*
X10793991Y-15743508D02*
X10813039Y-15714936D01*
X10813039Y-15714936D02*
X10822563Y-15705412D01*
X10889230Y-15753031D02*
X10898753Y-15743508D01*
X10898753Y-15743508D02*
X10917801Y-15733984D01*
X10917801Y-15733984D02*
X10965420Y-15733984D01*
X10965420Y-15733984D02*
X10984468Y-15743508D01*
X10984468Y-15743508D02*
X10993991Y-15753031D01*
X10993991Y-15753031D02*
X11003515Y-15772079D01*
X11003515Y-15772079D02*
X11003515Y-15791127D01*
X11003515Y-15791127D02*
X10993991Y-15819698D01*
X10993991Y-15819698D02*
X10879706Y-15933984D01*
X10879706Y-15933984D02*
X11003515Y-15933984D01*
X11241610Y-15933984D02*
X11241610Y-15733984D01*
X11327325Y-15933984D02*
X11327325Y-15829222D01*
X11327325Y-15829222D02*
X11317801Y-15810174D01*
X11317801Y-15810174D02*
X11298753Y-15800650D01*
X11298753Y-15800650D02*
X11270182Y-15800650D01*
X11270182Y-15800650D02*
X11251134Y-15810174D01*
X11251134Y-15810174D02*
X11241610Y-15819698D01*
X11451134Y-15933984D02*
X11432087Y-15924460D01*
X11432087Y-15924460D02*
X11422563Y-15914936D01*
X11422563Y-15914936D02*
X11413039Y-15895888D01*
X11413039Y-15895888D02*
X11413039Y-15838746D01*
X11413039Y-15838746D02*
X11422563Y-15819698D01*
X11422563Y-15819698D02*
X11432087Y-15810174D01*
X11432087Y-15810174D02*
X11451134Y-15800650D01*
X11451134Y-15800650D02*
X11479706Y-15800650D01*
X11479706Y-15800650D02*
X11498753Y-15810174D01*
X11498753Y-15810174D02*
X11508277Y-15819698D01*
X11508277Y-15819698D02*
X11517801Y-15838746D01*
X11517801Y-15838746D02*
X11517801Y-15895888D01*
X11517801Y-15895888D02*
X11508277Y-15914936D01*
X11508277Y-15914936D02*
X11498753Y-15924460D01*
X11498753Y-15924460D02*
X11479706Y-15933984D01*
X11479706Y-15933984D02*
X11451134Y-15933984D01*
X11632087Y-15933984D02*
X11613039Y-15924460D01*
X11613039Y-15924460D02*
X11603515Y-15905412D01*
X11603515Y-15905412D02*
X11603515Y-15733984D01*
X11784468Y-15924460D02*
X11765420Y-15933984D01*
X11765420Y-15933984D02*
X11727325Y-15933984D01*
X11727325Y-15933984D02*
X11708277Y-15924460D01*
X11708277Y-15924460D02*
X11698753Y-15905412D01*
X11698753Y-15905412D02*
X11698753Y-15829222D01*
X11698753Y-15829222D02*
X11708277Y-15810174D01*
X11708277Y-15810174D02*
X11727325Y-15800650D01*
X11727325Y-15800650D02*
X11765420Y-15800650D01*
X11765420Y-15800650D02*
X11784468Y-15810174D01*
X11784468Y-15810174D02*
X11793991Y-15829222D01*
X11793991Y-15829222D02*
X11793991Y-15848269D01*
X11793991Y-15848269D02*
X11698753Y-15867317D01*
X11870182Y-15924460D02*
X11889230Y-15933984D01*
X11889230Y-15933984D02*
X11927325Y-15933984D01*
X11927325Y-15933984D02*
X11946372Y-15924460D01*
X11946372Y-15924460D02*
X11955896Y-15905412D01*
X11955896Y-15905412D02*
X11955896Y-15895888D01*
X11955896Y-15895888D02*
X11946372Y-15876841D01*
X11946372Y-15876841D02*
X11927325Y-15867317D01*
X11927325Y-15867317D02*
X11898753Y-15867317D01*
X11898753Y-15867317D02*
X11879706Y-15857793D01*
X11879706Y-15857793D02*
X11870182Y-15838746D01*
X11870182Y-15838746D02*
X11870182Y-15829222D01*
X11870182Y-15829222D02*
X11879706Y-15810174D01*
X11879706Y-15810174D02*
X11898753Y-15800650D01*
X11898753Y-15800650D02*
X11927325Y-15800650D01*
X11927325Y-15800650D02*
X11946372Y-15810174D01*
X12022563Y-16010174D02*
X12032087Y-16000650D01*
X12032087Y-16000650D02*
X12051134Y-15972079D01*
X12051134Y-15972079D02*
X12060658Y-15953031D01*
X12060658Y-15953031D02*
X12070182Y-15924460D01*
X12070182Y-15924460D02*
X12079706Y-15876841D01*
X12079706Y-15876841D02*
X12079706Y-15838746D01*
X12079706Y-15838746D02*
X12070182Y-15791127D01*
X12070182Y-15791127D02*
X12060658Y-15762555D01*
X12060658Y-15762555D02*
X12051134Y-15743508D01*
X12051134Y-15743508D02*
X12032087Y-15714936D01*
X12032087Y-15714936D02*
X12022563Y-15705412D01*
D12*
X7247500Y-16106500D02*
G75*
G02*
X7157500Y-16106500I-45000J0D01*
G01*
X7157500Y-16106500D02*
G75*
G02*
X7247500Y-16106500I45000J0D01*
G01*
D11*
X7546372Y-15997984D02*
X7565420Y-15997984D01*
X7565420Y-15997984D02*
X7584467Y-16007508D01*
X7584467Y-16007508D02*
X7593991Y-16017031D01*
X7593991Y-16017031D02*
X7603515Y-16036079D01*
X7603515Y-16036079D02*
X7613039Y-16074174D01*
X7613039Y-16074174D02*
X7613039Y-16121793D01*
X7613039Y-16121793D02*
X7603515Y-16159888D01*
X7603515Y-16159888D02*
X7593991Y-16178936D01*
X7593991Y-16178936D02*
X7584467Y-16188460D01*
X7584467Y-16188460D02*
X7565420Y-16197984D01*
X7565420Y-16197984D02*
X7546372Y-16197984D01*
X7546372Y-16197984D02*
X7527324Y-16188460D01*
X7527324Y-16188460D02*
X7517801Y-16178936D01*
X7517801Y-16178936D02*
X7508277Y-16159888D01*
X7508277Y-16159888D02*
X7498753Y-16121793D01*
X7498753Y-16121793D02*
X7498753Y-16074174D01*
X7498753Y-16074174D02*
X7508277Y-16036079D01*
X7508277Y-16036079D02*
X7517801Y-16017031D01*
X7517801Y-16017031D02*
X7527324Y-16007508D01*
X7527324Y-16007508D02*
X7546372Y-15997984D01*
X7698753Y-16178936D02*
X7708277Y-16188460D01*
X7708277Y-16188460D02*
X7698753Y-16197984D01*
X7698753Y-16197984D02*
X7689229Y-16188460D01*
X7689229Y-16188460D02*
X7698753Y-16178936D01*
X7698753Y-16178936D02*
X7698753Y-16197984D01*
X7803515Y-16197984D02*
X7841610Y-16197984D01*
X7841610Y-16197984D02*
X7860658Y-16188460D01*
X7860658Y-16188460D02*
X7870182Y-16178936D01*
X7870182Y-16178936D02*
X7889229Y-16150365D01*
X7889229Y-16150365D02*
X7898753Y-16112269D01*
X7898753Y-16112269D02*
X7898753Y-16036079D01*
X7898753Y-16036079D02*
X7889229Y-16017031D01*
X7889229Y-16017031D02*
X7879705Y-16007508D01*
X7879705Y-16007508D02*
X7860658Y-15997984D01*
X7860658Y-15997984D02*
X7822562Y-15997984D01*
X7822562Y-15997984D02*
X7803515Y-16007508D01*
X7803515Y-16007508D02*
X7793991Y-16017031D01*
X7793991Y-16017031D02*
X7784467Y-16036079D01*
X7784467Y-16036079D02*
X7784467Y-16083698D01*
X7784467Y-16083698D02*
X7793991Y-16102746D01*
X7793991Y-16102746D02*
X7803515Y-16112269D01*
X7803515Y-16112269D02*
X7822562Y-16121793D01*
X7822562Y-16121793D02*
X7860658Y-16121793D01*
X7860658Y-16121793D02*
X7879705Y-16112269D01*
X7879705Y-16112269D02*
X7889229Y-16102746D01*
X7889229Y-16102746D02*
X7898753Y-16083698D01*
X8022562Y-15997984D02*
X8041610Y-15997984D01*
X8041610Y-15997984D02*
X8060658Y-16007508D01*
X8060658Y-16007508D02*
X8070182Y-16017031D01*
X8070182Y-16017031D02*
X8079705Y-16036079D01*
X8079705Y-16036079D02*
X8089229Y-16074174D01*
X8089229Y-16074174D02*
X8089229Y-16121793D01*
X8089229Y-16121793D02*
X8079705Y-16159888D01*
X8079705Y-16159888D02*
X8070182Y-16178936D01*
X8070182Y-16178936D02*
X8060658Y-16188460D01*
X8060658Y-16188460D02*
X8041610Y-16197984D01*
X8041610Y-16197984D02*
X8022562Y-16197984D01*
X8022562Y-16197984D02*
X8003515Y-16188460D01*
X8003515Y-16188460D02*
X7993991Y-16178936D01*
X7993991Y-16178936D02*
X7984467Y-16159888D01*
X7984467Y-16159888D02*
X7974943Y-16121793D01*
X7974943Y-16121793D02*
X7974943Y-16074174D01*
X7974943Y-16074174D02*
X7984467Y-16036079D01*
X7984467Y-16036079D02*
X7993991Y-16017031D01*
X7993991Y-16017031D02*
X8003515Y-16007508D01*
X8003515Y-16007508D02*
X8022562Y-15997984D01*
X8213039Y-15997984D02*
X8232086Y-15997984D01*
X8232086Y-15997984D02*
X8251134Y-16007508D01*
X8251134Y-16007508D02*
X8260658Y-16017031D01*
X8260658Y-16017031D02*
X8270182Y-16036079D01*
X8270182Y-16036079D02*
X8279705Y-16074174D01*
X8279705Y-16074174D02*
X8279705Y-16121793D01*
X8279705Y-16121793D02*
X8270182Y-16159888D01*
X8270182Y-16159888D02*
X8260658Y-16178936D01*
X8260658Y-16178936D02*
X8251134Y-16188460D01*
X8251134Y-16188460D02*
X8232086Y-16197984D01*
X8232086Y-16197984D02*
X8213039Y-16197984D01*
X8213039Y-16197984D02*
X8193991Y-16188460D01*
X8193991Y-16188460D02*
X8184467Y-16178936D01*
X8184467Y-16178936D02*
X8174943Y-16159888D01*
X8174943Y-16159888D02*
X8165420Y-16121793D01*
X8165420Y-16121793D02*
X8165420Y-16074174D01*
X8165420Y-16074174D02*
X8174943Y-16036079D01*
X8174943Y-16036079D02*
X8184467Y-16017031D01*
X8184467Y-16017031D02*
X8193991Y-16007508D01*
X8193991Y-16007508D02*
X8213039Y-15997984D01*
X8365420Y-16197984D02*
X8365420Y-16064650D01*
X8365420Y-16083698D02*
X8374943Y-16074174D01*
X8374943Y-16074174D02*
X8393991Y-16064650D01*
X8393991Y-16064650D02*
X8422563Y-16064650D01*
X8422563Y-16064650D02*
X8441610Y-16074174D01*
X8441610Y-16074174D02*
X8451134Y-16093222D01*
X8451134Y-16093222D02*
X8451134Y-16197984D01*
X8451134Y-16093222D02*
X8460658Y-16074174D01*
X8460658Y-16074174D02*
X8479705Y-16064650D01*
X8479705Y-16064650D02*
X8508277Y-16064650D01*
X8508277Y-16064650D02*
X8527325Y-16074174D01*
X8527325Y-16074174D02*
X8536848Y-16093222D01*
X8536848Y-16093222D02*
X8536848Y-16197984D01*
X8632086Y-16197984D02*
X8632086Y-16064650D01*
X8632086Y-16083698D02*
X8641610Y-16074174D01*
X8641610Y-16074174D02*
X8660658Y-16064650D01*
X8660658Y-16064650D02*
X8689229Y-16064650D01*
X8689229Y-16064650D02*
X8708277Y-16074174D01*
X8708277Y-16074174D02*
X8717801Y-16093222D01*
X8717801Y-16093222D02*
X8717801Y-16197984D01*
X8717801Y-16093222D02*
X8727325Y-16074174D01*
X8727325Y-16074174D02*
X8746372Y-16064650D01*
X8746372Y-16064650D02*
X8774944Y-16064650D01*
X8774944Y-16064650D02*
X8793991Y-16074174D01*
X8793991Y-16074174D02*
X8803515Y-16093222D01*
X8803515Y-16093222D02*
X8803515Y-16197984D01*
X9193991Y-15988460D02*
X9022563Y-16245603D01*
X9451134Y-15997984D02*
X9470182Y-15997984D01*
X9470182Y-15997984D02*
X9489229Y-16007508D01*
X9489229Y-16007508D02*
X9498753Y-16017031D01*
X9498753Y-16017031D02*
X9508277Y-16036079D01*
X9508277Y-16036079D02*
X9517801Y-16074174D01*
X9517801Y-16074174D02*
X9517801Y-16121793D01*
X9517801Y-16121793D02*
X9508277Y-16159888D01*
X9508277Y-16159888D02*
X9498753Y-16178936D01*
X9498753Y-16178936D02*
X9489229Y-16188460D01*
X9489229Y-16188460D02*
X9470182Y-16197984D01*
X9470182Y-16197984D02*
X9451134Y-16197984D01*
X9451134Y-16197984D02*
X9432087Y-16188460D01*
X9432087Y-16188460D02*
X9422563Y-16178936D01*
X9422563Y-16178936D02*
X9413039Y-16159888D01*
X9413039Y-16159888D02*
X9403515Y-16121793D01*
X9403515Y-16121793D02*
X9403515Y-16074174D01*
X9403515Y-16074174D02*
X9413039Y-16036079D01*
X9413039Y-16036079D02*
X9422563Y-16017031D01*
X9422563Y-16017031D02*
X9432087Y-16007508D01*
X9432087Y-16007508D02*
X9451134Y-15997984D01*
X9603515Y-16178936D02*
X9613039Y-16188460D01*
X9613039Y-16188460D02*
X9603515Y-16197984D01*
X9603515Y-16197984D02*
X9593991Y-16188460D01*
X9593991Y-16188460D02*
X9603515Y-16178936D01*
X9603515Y-16178936D02*
X9603515Y-16197984D01*
X9736848Y-15997984D02*
X9755896Y-15997984D01*
X9755896Y-15997984D02*
X9774944Y-16007508D01*
X9774944Y-16007508D02*
X9784468Y-16017031D01*
X9784468Y-16017031D02*
X9793991Y-16036079D01*
X9793991Y-16036079D02*
X9803515Y-16074174D01*
X9803515Y-16074174D02*
X9803515Y-16121793D01*
X9803515Y-16121793D02*
X9793991Y-16159888D01*
X9793991Y-16159888D02*
X9784468Y-16178936D01*
X9784468Y-16178936D02*
X9774944Y-16188460D01*
X9774944Y-16188460D02*
X9755896Y-16197984D01*
X9755896Y-16197984D02*
X9736848Y-16197984D01*
X9736848Y-16197984D02*
X9717801Y-16188460D01*
X9717801Y-16188460D02*
X9708277Y-16178936D01*
X9708277Y-16178936D02*
X9698753Y-16159888D01*
X9698753Y-16159888D02*
X9689229Y-16121793D01*
X9689229Y-16121793D02*
X9689229Y-16074174D01*
X9689229Y-16074174D02*
X9698753Y-16036079D01*
X9698753Y-16036079D02*
X9708277Y-16017031D01*
X9708277Y-16017031D02*
X9717801Y-16007508D01*
X9717801Y-16007508D02*
X9736848Y-15997984D01*
X9870182Y-15997984D02*
X9993991Y-15997984D01*
X9993991Y-15997984D02*
X9927325Y-16074174D01*
X9927325Y-16074174D02*
X9955896Y-16074174D01*
X9955896Y-16074174D02*
X9974944Y-16083698D01*
X9974944Y-16083698D02*
X9984468Y-16093222D01*
X9984468Y-16093222D02*
X9993991Y-16112269D01*
X9993991Y-16112269D02*
X9993991Y-16159888D01*
X9993991Y-16159888D02*
X9984468Y-16178936D01*
X9984468Y-16178936D02*
X9974944Y-16188460D01*
X9974944Y-16188460D02*
X9955896Y-16197984D01*
X9955896Y-16197984D02*
X9898753Y-16197984D01*
X9898753Y-16197984D02*
X9879706Y-16188460D01*
X9879706Y-16188460D02*
X9870182Y-16178936D01*
X10174944Y-15997984D02*
X10079706Y-15997984D01*
X10079706Y-15997984D02*
X10070182Y-16093222D01*
X10070182Y-16093222D02*
X10079706Y-16083698D01*
X10079706Y-16083698D02*
X10098753Y-16074174D01*
X10098753Y-16074174D02*
X10146372Y-16074174D01*
X10146372Y-16074174D02*
X10165420Y-16083698D01*
X10165420Y-16083698D02*
X10174944Y-16093222D01*
X10174944Y-16093222D02*
X10184468Y-16112269D01*
X10184468Y-16112269D02*
X10184468Y-16159888D01*
X10184468Y-16159888D02*
X10174944Y-16178936D01*
X10174944Y-16178936D02*
X10165420Y-16188460D01*
X10165420Y-16188460D02*
X10146372Y-16197984D01*
X10146372Y-16197984D02*
X10098753Y-16197984D01*
X10098753Y-16197984D02*
X10079706Y-16188460D01*
X10079706Y-16188460D02*
X10070182Y-16178936D01*
X10355896Y-16064650D02*
X10355896Y-16197984D01*
X10308277Y-15988460D02*
X10260658Y-16131317D01*
X10260658Y-16131317D02*
X10384468Y-16131317D01*
X10451134Y-15997984D02*
X10451134Y-16036079D01*
X10527325Y-15997984D02*
X10527325Y-16036079D01*
X10822563Y-16274174D02*
X10813039Y-16264650D01*
X10813039Y-16264650D02*
X10793991Y-16236079D01*
X10793991Y-16236079D02*
X10784468Y-16217031D01*
X10784468Y-16217031D02*
X10774944Y-16188460D01*
X10774944Y-16188460D02*
X10765420Y-16140841D01*
X10765420Y-16140841D02*
X10765420Y-16102746D01*
X10765420Y-16102746D02*
X10774944Y-16055127D01*
X10774944Y-16055127D02*
X10784468Y-16026555D01*
X10784468Y-16026555D02*
X10793991Y-16007508D01*
X10793991Y-16007508D02*
X10813039Y-15978936D01*
X10813039Y-15978936D02*
X10822563Y-15969412D01*
X10889230Y-16017031D02*
X10898753Y-16007508D01*
X10898753Y-16007508D02*
X10917801Y-15997984D01*
X10917801Y-15997984D02*
X10965420Y-15997984D01*
X10965420Y-15997984D02*
X10984468Y-16007508D01*
X10984468Y-16007508D02*
X10993991Y-16017031D01*
X10993991Y-16017031D02*
X11003515Y-16036079D01*
X11003515Y-16036079D02*
X11003515Y-16055127D01*
X11003515Y-16055127D02*
X10993991Y-16083698D01*
X10993991Y-16083698D02*
X10879706Y-16197984D01*
X10879706Y-16197984D02*
X11003515Y-16197984D01*
X11241610Y-16197984D02*
X11241610Y-15997984D01*
X11327325Y-16197984D02*
X11327325Y-16093222D01*
X11327325Y-16093222D02*
X11317801Y-16074174D01*
X11317801Y-16074174D02*
X11298753Y-16064650D01*
X11298753Y-16064650D02*
X11270182Y-16064650D01*
X11270182Y-16064650D02*
X11251134Y-16074174D01*
X11251134Y-16074174D02*
X11241610Y-16083698D01*
X11451134Y-16197984D02*
X11432087Y-16188460D01*
X11432087Y-16188460D02*
X11422563Y-16178936D01*
X11422563Y-16178936D02*
X11413039Y-16159888D01*
X11413039Y-16159888D02*
X11413039Y-16102746D01*
X11413039Y-16102746D02*
X11422563Y-16083698D01*
X11422563Y-16083698D02*
X11432087Y-16074174D01*
X11432087Y-16074174D02*
X11451134Y-16064650D01*
X11451134Y-16064650D02*
X11479706Y-16064650D01*
X11479706Y-16064650D02*
X11498753Y-16074174D01*
X11498753Y-16074174D02*
X11508277Y-16083698D01*
X11508277Y-16083698D02*
X11517801Y-16102746D01*
X11517801Y-16102746D02*
X11517801Y-16159888D01*
X11517801Y-16159888D02*
X11508277Y-16178936D01*
X11508277Y-16178936D02*
X11498753Y-16188460D01*
X11498753Y-16188460D02*
X11479706Y-16197984D01*
X11479706Y-16197984D02*
X11451134Y-16197984D01*
X11632087Y-16197984D02*
X11613039Y-16188460D01*
X11613039Y-16188460D02*
X11603515Y-16169412D01*
X11603515Y-16169412D02*
X11603515Y-15997984D01*
X11784468Y-16188460D02*
X11765420Y-16197984D01*
X11765420Y-16197984D02*
X11727325Y-16197984D01*
X11727325Y-16197984D02*
X11708277Y-16188460D01*
X11708277Y-16188460D02*
X11698753Y-16169412D01*
X11698753Y-16169412D02*
X11698753Y-16093222D01*
X11698753Y-16093222D02*
X11708277Y-16074174D01*
X11708277Y-16074174D02*
X11727325Y-16064650D01*
X11727325Y-16064650D02*
X11765420Y-16064650D01*
X11765420Y-16064650D02*
X11784468Y-16074174D01*
X11784468Y-16074174D02*
X11793991Y-16093222D01*
X11793991Y-16093222D02*
X11793991Y-16112269D01*
X11793991Y-16112269D02*
X11698753Y-16131317D01*
X11870182Y-16188460D02*
X11889230Y-16197984D01*
X11889230Y-16197984D02*
X11927325Y-16197984D01*
X11927325Y-16197984D02*
X11946372Y-16188460D01*
X11946372Y-16188460D02*
X11955896Y-16169412D01*
X11955896Y-16169412D02*
X11955896Y-16159888D01*
X11955896Y-16159888D02*
X11946372Y-16140841D01*
X11946372Y-16140841D02*
X11927325Y-16131317D01*
X11927325Y-16131317D02*
X11898753Y-16131317D01*
X11898753Y-16131317D02*
X11879706Y-16121793D01*
X11879706Y-16121793D02*
X11870182Y-16102746D01*
X11870182Y-16102746D02*
X11870182Y-16093222D01*
X11870182Y-16093222D02*
X11879706Y-16074174D01*
X11879706Y-16074174D02*
X11898753Y-16064650D01*
X11898753Y-16064650D02*
X11927325Y-16064650D01*
X11927325Y-16064650D02*
X11946372Y-16074174D01*
X12022563Y-16274174D02*
X12032087Y-16264650D01*
X12032087Y-16264650D02*
X12051134Y-16236079D01*
X12051134Y-16236079D02*
X12060658Y-16217031D01*
X12060658Y-16217031D02*
X12070182Y-16188460D01*
X12070182Y-16188460D02*
X12079706Y-16140841D01*
X12079706Y-16140841D02*
X12079706Y-16102746D01*
X12079706Y-16102746D02*
X12070182Y-16055127D01*
X12070182Y-16055127D02*
X12060658Y-16026555D01*
X12060658Y-16026555D02*
X12051134Y-16007508D01*
X12051134Y-16007508D02*
X12032087Y-15978936D01*
X12032087Y-15978936D02*
X12022563Y-15969412D01*
D12*
X7197500Y-16320500D02*
X7197500Y-16420500D01*
X7147500Y-16370500D02*
X7247500Y-16370500D01*
D11*
X7613039Y-16461984D02*
X7498753Y-16461984D01*
X7555896Y-16461984D02*
X7555896Y-16261984D01*
X7555896Y-16261984D02*
X7536848Y-16290555D01*
X7536848Y-16290555D02*
X7517801Y-16309603D01*
X7517801Y-16309603D02*
X7498753Y-16319127D01*
X7698753Y-16442936D02*
X7708277Y-16452460D01*
X7708277Y-16452460D02*
X7698753Y-16461984D01*
X7698753Y-16461984D02*
X7689229Y-16452460D01*
X7689229Y-16452460D02*
X7698753Y-16442936D01*
X7698753Y-16442936D02*
X7698753Y-16461984D01*
X7832086Y-16261984D02*
X7851134Y-16261984D01*
X7851134Y-16261984D02*
X7870182Y-16271508D01*
X7870182Y-16271508D02*
X7879705Y-16281031D01*
X7879705Y-16281031D02*
X7889229Y-16300079D01*
X7889229Y-16300079D02*
X7898753Y-16338174D01*
X7898753Y-16338174D02*
X7898753Y-16385793D01*
X7898753Y-16385793D02*
X7889229Y-16423888D01*
X7889229Y-16423888D02*
X7879705Y-16442936D01*
X7879705Y-16442936D02*
X7870182Y-16452460D01*
X7870182Y-16452460D02*
X7851134Y-16461984D01*
X7851134Y-16461984D02*
X7832086Y-16461984D01*
X7832086Y-16461984D02*
X7813039Y-16452460D01*
X7813039Y-16452460D02*
X7803515Y-16442936D01*
X7803515Y-16442936D02*
X7793991Y-16423888D01*
X7793991Y-16423888D02*
X7784467Y-16385793D01*
X7784467Y-16385793D02*
X7784467Y-16338174D01*
X7784467Y-16338174D02*
X7793991Y-16300079D01*
X7793991Y-16300079D02*
X7803515Y-16281031D01*
X7803515Y-16281031D02*
X7813039Y-16271508D01*
X7813039Y-16271508D02*
X7832086Y-16261984D01*
X8022562Y-16261984D02*
X8041610Y-16261984D01*
X8041610Y-16261984D02*
X8060658Y-16271508D01*
X8060658Y-16271508D02*
X8070182Y-16281031D01*
X8070182Y-16281031D02*
X8079705Y-16300079D01*
X8079705Y-16300079D02*
X8089229Y-16338174D01*
X8089229Y-16338174D02*
X8089229Y-16385793D01*
X8089229Y-16385793D02*
X8079705Y-16423888D01*
X8079705Y-16423888D02*
X8070182Y-16442936D01*
X8070182Y-16442936D02*
X8060658Y-16452460D01*
X8060658Y-16452460D02*
X8041610Y-16461984D01*
X8041610Y-16461984D02*
X8022562Y-16461984D01*
X8022562Y-16461984D02*
X8003515Y-16452460D01*
X8003515Y-16452460D02*
X7993991Y-16442936D01*
X7993991Y-16442936D02*
X7984467Y-16423888D01*
X7984467Y-16423888D02*
X7974943Y-16385793D01*
X7974943Y-16385793D02*
X7974943Y-16338174D01*
X7974943Y-16338174D02*
X7984467Y-16300079D01*
X7984467Y-16300079D02*
X7993991Y-16281031D01*
X7993991Y-16281031D02*
X8003515Y-16271508D01*
X8003515Y-16271508D02*
X8022562Y-16261984D01*
X8213039Y-16261984D02*
X8232086Y-16261984D01*
X8232086Y-16261984D02*
X8251134Y-16271508D01*
X8251134Y-16271508D02*
X8260658Y-16281031D01*
X8260658Y-16281031D02*
X8270182Y-16300079D01*
X8270182Y-16300079D02*
X8279705Y-16338174D01*
X8279705Y-16338174D02*
X8279705Y-16385793D01*
X8279705Y-16385793D02*
X8270182Y-16423888D01*
X8270182Y-16423888D02*
X8260658Y-16442936D01*
X8260658Y-16442936D02*
X8251134Y-16452460D01*
X8251134Y-16452460D02*
X8232086Y-16461984D01*
X8232086Y-16461984D02*
X8213039Y-16461984D01*
X8213039Y-16461984D02*
X8193991Y-16452460D01*
X8193991Y-16452460D02*
X8184467Y-16442936D01*
X8184467Y-16442936D02*
X8174943Y-16423888D01*
X8174943Y-16423888D02*
X8165420Y-16385793D01*
X8165420Y-16385793D02*
X8165420Y-16338174D01*
X8165420Y-16338174D02*
X8174943Y-16300079D01*
X8174943Y-16300079D02*
X8184467Y-16281031D01*
X8184467Y-16281031D02*
X8193991Y-16271508D01*
X8193991Y-16271508D02*
X8213039Y-16261984D01*
X8365420Y-16461984D02*
X8365420Y-16328650D01*
X8365420Y-16347698D02*
X8374943Y-16338174D01*
X8374943Y-16338174D02*
X8393991Y-16328650D01*
X8393991Y-16328650D02*
X8422563Y-16328650D01*
X8422563Y-16328650D02*
X8441610Y-16338174D01*
X8441610Y-16338174D02*
X8451134Y-16357222D01*
X8451134Y-16357222D02*
X8451134Y-16461984D01*
X8451134Y-16357222D02*
X8460658Y-16338174D01*
X8460658Y-16338174D02*
X8479705Y-16328650D01*
X8479705Y-16328650D02*
X8508277Y-16328650D01*
X8508277Y-16328650D02*
X8527325Y-16338174D01*
X8527325Y-16338174D02*
X8536848Y-16357222D01*
X8536848Y-16357222D02*
X8536848Y-16461984D01*
X8632086Y-16461984D02*
X8632086Y-16328650D01*
X8632086Y-16347698D02*
X8641610Y-16338174D01*
X8641610Y-16338174D02*
X8660658Y-16328650D01*
X8660658Y-16328650D02*
X8689229Y-16328650D01*
X8689229Y-16328650D02*
X8708277Y-16338174D01*
X8708277Y-16338174D02*
X8717801Y-16357222D01*
X8717801Y-16357222D02*
X8717801Y-16461984D01*
X8717801Y-16357222D02*
X8727325Y-16338174D01*
X8727325Y-16338174D02*
X8746372Y-16328650D01*
X8746372Y-16328650D02*
X8774944Y-16328650D01*
X8774944Y-16328650D02*
X8793991Y-16338174D01*
X8793991Y-16338174D02*
X8803515Y-16357222D01*
X8803515Y-16357222D02*
X8803515Y-16461984D01*
X9193991Y-16252460D02*
X9022563Y-16509603D01*
X9451134Y-16261984D02*
X9470182Y-16261984D01*
X9470182Y-16261984D02*
X9489229Y-16271508D01*
X9489229Y-16271508D02*
X9498753Y-16281031D01*
X9498753Y-16281031D02*
X9508277Y-16300079D01*
X9508277Y-16300079D02*
X9517801Y-16338174D01*
X9517801Y-16338174D02*
X9517801Y-16385793D01*
X9517801Y-16385793D02*
X9508277Y-16423888D01*
X9508277Y-16423888D02*
X9498753Y-16442936D01*
X9498753Y-16442936D02*
X9489229Y-16452460D01*
X9489229Y-16452460D02*
X9470182Y-16461984D01*
X9470182Y-16461984D02*
X9451134Y-16461984D01*
X9451134Y-16461984D02*
X9432087Y-16452460D01*
X9432087Y-16452460D02*
X9422563Y-16442936D01*
X9422563Y-16442936D02*
X9413039Y-16423888D01*
X9413039Y-16423888D02*
X9403515Y-16385793D01*
X9403515Y-16385793D02*
X9403515Y-16338174D01*
X9403515Y-16338174D02*
X9413039Y-16300079D01*
X9413039Y-16300079D02*
X9422563Y-16281031D01*
X9422563Y-16281031D02*
X9432087Y-16271508D01*
X9432087Y-16271508D02*
X9451134Y-16261984D01*
X9603515Y-16442936D02*
X9613039Y-16452460D01*
X9613039Y-16452460D02*
X9603515Y-16461984D01*
X9603515Y-16461984D02*
X9593991Y-16452460D01*
X9593991Y-16452460D02*
X9603515Y-16442936D01*
X9603515Y-16442936D02*
X9603515Y-16461984D01*
X9736848Y-16261984D02*
X9755896Y-16261984D01*
X9755896Y-16261984D02*
X9774944Y-16271508D01*
X9774944Y-16271508D02*
X9784468Y-16281031D01*
X9784468Y-16281031D02*
X9793991Y-16300079D01*
X9793991Y-16300079D02*
X9803515Y-16338174D01*
X9803515Y-16338174D02*
X9803515Y-16385793D01*
X9803515Y-16385793D02*
X9793991Y-16423888D01*
X9793991Y-16423888D02*
X9784468Y-16442936D01*
X9784468Y-16442936D02*
X9774944Y-16452460D01*
X9774944Y-16452460D02*
X9755896Y-16461984D01*
X9755896Y-16461984D02*
X9736848Y-16461984D01*
X9736848Y-16461984D02*
X9717801Y-16452460D01*
X9717801Y-16452460D02*
X9708277Y-16442936D01*
X9708277Y-16442936D02*
X9698753Y-16423888D01*
X9698753Y-16423888D02*
X9689229Y-16385793D01*
X9689229Y-16385793D02*
X9689229Y-16338174D01*
X9689229Y-16338174D02*
X9698753Y-16300079D01*
X9698753Y-16300079D02*
X9708277Y-16281031D01*
X9708277Y-16281031D02*
X9717801Y-16271508D01*
X9717801Y-16271508D02*
X9736848Y-16261984D01*
X9870182Y-16261984D02*
X9993991Y-16261984D01*
X9993991Y-16261984D02*
X9927325Y-16338174D01*
X9927325Y-16338174D02*
X9955896Y-16338174D01*
X9955896Y-16338174D02*
X9974944Y-16347698D01*
X9974944Y-16347698D02*
X9984468Y-16357222D01*
X9984468Y-16357222D02*
X9993991Y-16376269D01*
X9993991Y-16376269D02*
X9993991Y-16423888D01*
X9993991Y-16423888D02*
X9984468Y-16442936D01*
X9984468Y-16442936D02*
X9974944Y-16452460D01*
X9974944Y-16452460D02*
X9955896Y-16461984D01*
X9955896Y-16461984D02*
X9898753Y-16461984D01*
X9898753Y-16461984D02*
X9879706Y-16452460D01*
X9879706Y-16452460D02*
X9870182Y-16442936D01*
X10089229Y-16461984D02*
X10127325Y-16461984D01*
X10127325Y-16461984D02*
X10146372Y-16452460D01*
X10146372Y-16452460D02*
X10155896Y-16442936D01*
X10155896Y-16442936D02*
X10174944Y-16414365D01*
X10174944Y-16414365D02*
X10184468Y-16376269D01*
X10184468Y-16376269D02*
X10184468Y-16300079D01*
X10184468Y-16300079D02*
X10174944Y-16281031D01*
X10174944Y-16281031D02*
X10165420Y-16271508D01*
X10165420Y-16271508D02*
X10146372Y-16261984D01*
X10146372Y-16261984D02*
X10108277Y-16261984D01*
X10108277Y-16261984D02*
X10089229Y-16271508D01*
X10089229Y-16271508D02*
X10079706Y-16281031D01*
X10079706Y-16281031D02*
X10070182Y-16300079D01*
X10070182Y-16300079D02*
X10070182Y-16347698D01*
X10070182Y-16347698D02*
X10079706Y-16366746D01*
X10079706Y-16366746D02*
X10089229Y-16376269D01*
X10089229Y-16376269D02*
X10108277Y-16385793D01*
X10108277Y-16385793D02*
X10146372Y-16385793D01*
X10146372Y-16385793D02*
X10165420Y-16376269D01*
X10165420Y-16376269D02*
X10174944Y-16366746D01*
X10174944Y-16366746D02*
X10184468Y-16347698D01*
X10355896Y-16328650D02*
X10355896Y-16461984D01*
X10308277Y-16252460D02*
X10260658Y-16395317D01*
X10260658Y-16395317D02*
X10384468Y-16395317D01*
X10451134Y-16261984D02*
X10451134Y-16300079D01*
X10527325Y-16261984D02*
X10527325Y-16300079D01*
X10822563Y-16538174D02*
X10813039Y-16528650D01*
X10813039Y-16528650D02*
X10793991Y-16500079D01*
X10793991Y-16500079D02*
X10784468Y-16481031D01*
X10784468Y-16481031D02*
X10774944Y-16452460D01*
X10774944Y-16452460D02*
X10765420Y-16404841D01*
X10765420Y-16404841D02*
X10765420Y-16366746D01*
X10765420Y-16366746D02*
X10774944Y-16319127D01*
X10774944Y-16319127D02*
X10784468Y-16290555D01*
X10784468Y-16290555D02*
X10793991Y-16271508D01*
X10793991Y-16271508D02*
X10813039Y-16242936D01*
X10813039Y-16242936D02*
X10822563Y-16233412D01*
X11003515Y-16461984D02*
X10889230Y-16461984D01*
X10946372Y-16461984D02*
X10946372Y-16261984D01*
X10946372Y-16261984D02*
X10927325Y-16290555D01*
X10927325Y-16290555D02*
X10908277Y-16309603D01*
X10908277Y-16309603D02*
X10889230Y-16319127D01*
X11127325Y-16261984D02*
X11146372Y-16261984D01*
X11146372Y-16261984D02*
X11165420Y-16271508D01*
X11165420Y-16271508D02*
X11174944Y-16281031D01*
X11174944Y-16281031D02*
X11184468Y-16300079D01*
X11184468Y-16300079D02*
X11193991Y-16338174D01*
X11193991Y-16338174D02*
X11193991Y-16385793D01*
X11193991Y-16385793D02*
X11184468Y-16423888D01*
X11184468Y-16423888D02*
X11174944Y-16442936D01*
X11174944Y-16442936D02*
X11165420Y-16452460D01*
X11165420Y-16452460D02*
X11146372Y-16461984D01*
X11146372Y-16461984D02*
X11127325Y-16461984D01*
X11127325Y-16461984D02*
X11108277Y-16452460D01*
X11108277Y-16452460D02*
X11098753Y-16442936D01*
X11098753Y-16442936D02*
X11089230Y-16423888D01*
X11089230Y-16423888D02*
X11079706Y-16385793D01*
X11079706Y-16385793D02*
X11079706Y-16338174D01*
X11079706Y-16338174D02*
X11089230Y-16300079D01*
X11089230Y-16300079D02*
X11098753Y-16281031D01*
X11098753Y-16281031D02*
X11108277Y-16271508D01*
X11108277Y-16271508D02*
X11127325Y-16261984D01*
X11432087Y-16461984D02*
X11432087Y-16261984D01*
X11517801Y-16461984D02*
X11517801Y-16357222D01*
X11517801Y-16357222D02*
X11508277Y-16338174D01*
X11508277Y-16338174D02*
X11489230Y-16328650D01*
X11489230Y-16328650D02*
X11460658Y-16328650D01*
X11460658Y-16328650D02*
X11441610Y-16338174D01*
X11441610Y-16338174D02*
X11432087Y-16347698D01*
X11641610Y-16461984D02*
X11622563Y-16452460D01*
X11622563Y-16452460D02*
X11613039Y-16442936D01*
X11613039Y-16442936D02*
X11603515Y-16423888D01*
X11603515Y-16423888D02*
X11603515Y-16366746D01*
X11603515Y-16366746D02*
X11613039Y-16347698D01*
X11613039Y-16347698D02*
X11622563Y-16338174D01*
X11622563Y-16338174D02*
X11641610Y-16328650D01*
X11641610Y-16328650D02*
X11670182Y-16328650D01*
X11670182Y-16328650D02*
X11689230Y-16338174D01*
X11689230Y-16338174D02*
X11698753Y-16347698D01*
X11698753Y-16347698D02*
X11708277Y-16366746D01*
X11708277Y-16366746D02*
X11708277Y-16423888D01*
X11708277Y-16423888D02*
X11698753Y-16442936D01*
X11698753Y-16442936D02*
X11689230Y-16452460D01*
X11689230Y-16452460D02*
X11670182Y-16461984D01*
X11670182Y-16461984D02*
X11641610Y-16461984D01*
X11822563Y-16461984D02*
X11803515Y-16452460D01*
X11803515Y-16452460D02*
X11793991Y-16433412D01*
X11793991Y-16433412D02*
X11793991Y-16261984D01*
X11974944Y-16452460D02*
X11955896Y-16461984D01*
X11955896Y-16461984D02*
X11917801Y-16461984D01*
X11917801Y-16461984D02*
X11898753Y-16452460D01*
X11898753Y-16452460D02*
X11889230Y-16433412D01*
X11889230Y-16433412D02*
X11889230Y-16357222D01*
X11889230Y-16357222D02*
X11898753Y-16338174D01*
X11898753Y-16338174D02*
X11917801Y-16328650D01*
X11917801Y-16328650D02*
X11955896Y-16328650D01*
X11955896Y-16328650D02*
X11974944Y-16338174D01*
X11974944Y-16338174D02*
X11984468Y-16357222D01*
X11984468Y-16357222D02*
X11984468Y-16376269D01*
X11984468Y-16376269D02*
X11889230Y-16395317D01*
X12060658Y-16452460D02*
X12079706Y-16461984D01*
X12079706Y-16461984D02*
X12117801Y-16461984D01*
X12117801Y-16461984D02*
X12136849Y-16452460D01*
X12136849Y-16452460D02*
X12146372Y-16433412D01*
X12146372Y-16433412D02*
X12146372Y-16423888D01*
X12146372Y-16423888D02*
X12136849Y-16404841D01*
X12136849Y-16404841D02*
X12117801Y-16395317D01*
X12117801Y-16395317D02*
X12089230Y-16395317D01*
X12089230Y-16395317D02*
X12070182Y-16385793D01*
X12070182Y-16385793D02*
X12060658Y-16366746D01*
X12060658Y-16366746D02*
X12060658Y-16357222D01*
X12060658Y-16357222D02*
X12070182Y-16338174D01*
X12070182Y-16338174D02*
X12089230Y-16328650D01*
X12089230Y-16328650D02*
X12117801Y-16328650D01*
X12117801Y-16328650D02*
X12136849Y-16338174D01*
X12213039Y-16538174D02*
X12222563Y-16528650D01*
X12222563Y-16528650D02*
X12241611Y-16500079D01*
X12241611Y-16500079D02*
X12251134Y-16481031D01*
X12251134Y-16481031D02*
X12260658Y-16452460D01*
X12260658Y-16452460D02*
X12270182Y-16404841D01*
X12270182Y-16404841D02*
X12270182Y-16366746D01*
X12270182Y-16366746D02*
X12260658Y-16319127D01*
X12260658Y-16319127D02*
X12251134Y-16290555D01*
X12251134Y-16290555D02*
X12241611Y-16271508D01*
X12241611Y-16271508D02*
X12222563Y-16242936D01*
X12222563Y-16242936D02*
X12213039Y-16233412D01*
D13*
X7228462Y-16680462D02*
X7228462Y-16588538D01*
X7136538Y-16588538D01*
X7136538Y-16680462D01*
X7228462Y-16680462D01*
D11*
X7613039Y-16725984D02*
X7498753Y-16725984D01*
X7555896Y-16725984D02*
X7555896Y-16525984D01*
X7555896Y-16525984D02*
X7536848Y-16554555D01*
X7536848Y-16554555D02*
X7517801Y-16573603D01*
X7517801Y-16573603D02*
X7498753Y-16583127D01*
X7698753Y-16706936D02*
X7708277Y-16716460D01*
X7708277Y-16716460D02*
X7698753Y-16725984D01*
X7698753Y-16725984D02*
X7689229Y-16716460D01*
X7689229Y-16716460D02*
X7698753Y-16706936D01*
X7698753Y-16706936D02*
X7698753Y-16725984D01*
X7774943Y-16525984D02*
X7898753Y-16525984D01*
X7898753Y-16525984D02*
X7832086Y-16602174D01*
X7832086Y-16602174D02*
X7860658Y-16602174D01*
X7860658Y-16602174D02*
X7879705Y-16611698D01*
X7879705Y-16611698D02*
X7889229Y-16621222D01*
X7889229Y-16621222D02*
X7898753Y-16640269D01*
X7898753Y-16640269D02*
X7898753Y-16687888D01*
X7898753Y-16687888D02*
X7889229Y-16706936D01*
X7889229Y-16706936D02*
X7879705Y-16716460D01*
X7879705Y-16716460D02*
X7860658Y-16725984D01*
X7860658Y-16725984D02*
X7803515Y-16725984D01*
X7803515Y-16725984D02*
X7784467Y-16716460D01*
X7784467Y-16716460D02*
X7774943Y-16706936D01*
X8022562Y-16525984D02*
X8041610Y-16525984D01*
X8041610Y-16525984D02*
X8060658Y-16535508D01*
X8060658Y-16535508D02*
X8070182Y-16545031D01*
X8070182Y-16545031D02*
X8079705Y-16564079D01*
X8079705Y-16564079D02*
X8089229Y-16602174D01*
X8089229Y-16602174D02*
X8089229Y-16649793D01*
X8089229Y-16649793D02*
X8079705Y-16687888D01*
X8079705Y-16687888D02*
X8070182Y-16706936D01*
X8070182Y-16706936D02*
X8060658Y-16716460D01*
X8060658Y-16716460D02*
X8041610Y-16725984D01*
X8041610Y-16725984D02*
X8022562Y-16725984D01*
X8022562Y-16725984D02*
X8003515Y-16716460D01*
X8003515Y-16716460D02*
X7993991Y-16706936D01*
X7993991Y-16706936D02*
X7984467Y-16687888D01*
X7984467Y-16687888D02*
X7974943Y-16649793D01*
X7974943Y-16649793D02*
X7974943Y-16602174D01*
X7974943Y-16602174D02*
X7984467Y-16564079D01*
X7984467Y-16564079D02*
X7993991Y-16545031D01*
X7993991Y-16545031D02*
X8003515Y-16535508D01*
X8003515Y-16535508D02*
X8022562Y-16525984D01*
X8213039Y-16525984D02*
X8232086Y-16525984D01*
X8232086Y-16525984D02*
X8251134Y-16535508D01*
X8251134Y-16535508D02*
X8260658Y-16545031D01*
X8260658Y-16545031D02*
X8270182Y-16564079D01*
X8270182Y-16564079D02*
X8279705Y-16602174D01*
X8279705Y-16602174D02*
X8279705Y-16649793D01*
X8279705Y-16649793D02*
X8270182Y-16687888D01*
X8270182Y-16687888D02*
X8260658Y-16706936D01*
X8260658Y-16706936D02*
X8251134Y-16716460D01*
X8251134Y-16716460D02*
X8232086Y-16725984D01*
X8232086Y-16725984D02*
X8213039Y-16725984D01*
X8213039Y-16725984D02*
X8193991Y-16716460D01*
X8193991Y-16716460D02*
X8184467Y-16706936D01*
X8184467Y-16706936D02*
X8174943Y-16687888D01*
X8174943Y-16687888D02*
X8165420Y-16649793D01*
X8165420Y-16649793D02*
X8165420Y-16602174D01*
X8165420Y-16602174D02*
X8174943Y-16564079D01*
X8174943Y-16564079D02*
X8184467Y-16545031D01*
X8184467Y-16545031D02*
X8193991Y-16535508D01*
X8193991Y-16535508D02*
X8213039Y-16525984D01*
X8365420Y-16725984D02*
X8365420Y-16592650D01*
X8365420Y-16611698D02*
X8374943Y-16602174D01*
X8374943Y-16602174D02*
X8393991Y-16592650D01*
X8393991Y-16592650D02*
X8422563Y-16592650D01*
X8422563Y-16592650D02*
X8441610Y-16602174D01*
X8441610Y-16602174D02*
X8451134Y-16621222D01*
X8451134Y-16621222D02*
X8451134Y-16725984D01*
X8451134Y-16621222D02*
X8460658Y-16602174D01*
X8460658Y-16602174D02*
X8479705Y-16592650D01*
X8479705Y-16592650D02*
X8508277Y-16592650D01*
X8508277Y-16592650D02*
X8527325Y-16602174D01*
X8527325Y-16602174D02*
X8536848Y-16621222D01*
X8536848Y-16621222D02*
X8536848Y-16725984D01*
X8632086Y-16725984D02*
X8632086Y-16592650D01*
X8632086Y-16611698D02*
X8641610Y-16602174D01*
X8641610Y-16602174D02*
X8660658Y-16592650D01*
X8660658Y-16592650D02*
X8689229Y-16592650D01*
X8689229Y-16592650D02*
X8708277Y-16602174D01*
X8708277Y-16602174D02*
X8717801Y-16621222D01*
X8717801Y-16621222D02*
X8717801Y-16725984D01*
X8717801Y-16621222D02*
X8727325Y-16602174D01*
X8727325Y-16602174D02*
X8746372Y-16592650D01*
X8746372Y-16592650D02*
X8774944Y-16592650D01*
X8774944Y-16592650D02*
X8793991Y-16602174D01*
X8793991Y-16602174D02*
X8803515Y-16621222D01*
X8803515Y-16621222D02*
X8803515Y-16725984D01*
X9193991Y-16516460D02*
X9022563Y-16773603D01*
X9451134Y-16525984D02*
X9470182Y-16525984D01*
X9470182Y-16525984D02*
X9489229Y-16535508D01*
X9489229Y-16535508D02*
X9498753Y-16545031D01*
X9498753Y-16545031D02*
X9508277Y-16564079D01*
X9508277Y-16564079D02*
X9517801Y-16602174D01*
X9517801Y-16602174D02*
X9517801Y-16649793D01*
X9517801Y-16649793D02*
X9508277Y-16687888D01*
X9508277Y-16687888D02*
X9498753Y-16706936D01*
X9498753Y-16706936D02*
X9489229Y-16716460D01*
X9489229Y-16716460D02*
X9470182Y-16725984D01*
X9470182Y-16725984D02*
X9451134Y-16725984D01*
X9451134Y-16725984D02*
X9432087Y-16716460D01*
X9432087Y-16716460D02*
X9422563Y-16706936D01*
X9422563Y-16706936D02*
X9413039Y-16687888D01*
X9413039Y-16687888D02*
X9403515Y-16649793D01*
X9403515Y-16649793D02*
X9403515Y-16602174D01*
X9403515Y-16602174D02*
X9413039Y-16564079D01*
X9413039Y-16564079D02*
X9422563Y-16545031D01*
X9422563Y-16545031D02*
X9432087Y-16535508D01*
X9432087Y-16535508D02*
X9451134Y-16525984D01*
X9603515Y-16706936D02*
X9613039Y-16716460D01*
X9613039Y-16716460D02*
X9603515Y-16725984D01*
X9603515Y-16725984D02*
X9593991Y-16716460D01*
X9593991Y-16716460D02*
X9603515Y-16706936D01*
X9603515Y-16706936D02*
X9603515Y-16725984D01*
X9736848Y-16525984D02*
X9755896Y-16525984D01*
X9755896Y-16525984D02*
X9774944Y-16535508D01*
X9774944Y-16535508D02*
X9784468Y-16545031D01*
X9784468Y-16545031D02*
X9793991Y-16564079D01*
X9793991Y-16564079D02*
X9803515Y-16602174D01*
X9803515Y-16602174D02*
X9803515Y-16649793D01*
X9803515Y-16649793D02*
X9793991Y-16687888D01*
X9793991Y-16687888D02*
X9784468Y-16706936D01*
X9784468Y-16706936D02*
X9774944Y-16716460D01*
X9774944Y-16716460D02*
X9755896Y-16725984D01*
X9755896Y-16725984D02*
X9736848Y-16725984D01*
X9736848Y-16725984D02*
X9717801Y-16716460D01*
X9717801Y-16716460D02*
X9708277Y-16706936D01*
X9708277Y-16706936D02*
X9698753Y-16687888D01*
X9698753Y-16687888D02*
X9689229Y-16649793D01*
X9689229Y-16649793D02*
X9689229Y-16602174D01*
X9689229Y-16602174D02*
X9698753Y-16564079D01*
X9698753Y-16564079D02*
X9708277Y-16545031D01*
X9708277Y-16545031D02*
X9717801Y-16535508D01*
X9717801Y-16535508D02*
X9736848Y-16525984D01*
X9984468Y-16525984D02*
X9889229Y-16525984D01*
X9889229Y-16525984D02*
X9879706Y-16621222D01*
X9879706Y-16621222D02*
X9889229Y-16611698D01*
X9889229Y-16611698D02*
X9908277Y-16602174D01*
X9908277Y-16602174D02*
X9955896Y-16602174D01*
X9955896Y-16602174D02*
X9974944Y-16611698D01*
X9974944Y-16611698D02*
X9984468Y-16621222D01*
X9984468Y-16621222D02*
X9993991Y-16640269D01*
X9993991Y-16640269D02*
X9993991Y-16687888D01*
X9993991Y-16687888D02*
X9984468Y-16706936D01*
X9984468Y-16706936D02*
X9974944Y-16716460D01*
X9974944Y-16716460D02*
X9955896Y-16725984D01*
X9955896Y-16725984D02*
X9908277Y-16725984D01*
X9908277Y-16725984D02*
X9889229Y-16716460D01*
X9889229Y-16716460D02*
X9879706Y-16706936D01*
X10184468Y-16725984D02*
X10070182Y-16725984D01*
X10127325Y-16725984D02*
X10127325Y-16525984D01*
X10127325Y-16525984D02*
X10108277Y-16554555D01*
X10108277Y-16554555D02*
X10089229Y-16573603D01*
X10089229Y-16573603D02*
X10070182Y-16583127D01*
X10260658Y-16545031D02*
X10270182Y-16535508D01*
X10270182Y-16535508D02*
X10289229Y-16525984D01*
X10289229Y-16525984D02*
X10336849Y-16525984D01*
X10336849Y-16525984D02*
X10355896Y-16535508D01*
X10355896Y-16535508D02*
X10365420Y-16545031D01*
X10365420Y-16545031D02*
X10374944Y-16564079D01*
X10374944Y-16564079D02*
X10374944Y-16583127D01*
X10374944Y-16583127D02*
X10365420Y-16611698D01*
X10365420Y-16611698D02*
X10251134Y-16725984D01*
X10251134Y-16725984D02*
X10374944Y-16725984D01*
X10451134Y-16525984D02*
X10451134Y-16564079D01*
X10527325Y-16525984D02*
X10527325Y-16564079D01*
X10822563Y-16802174D02*
X10813039Y-16792650D01*
X10813039Y-16792650D02*
X10793991Y-16764079D01*
X10793991Y-16764079D02*
X10784468Y-16745031D01*
X10784468Y-16745031D02*
X10774944Y-16716460D01*
X10774944Y-16716460D02*
X10765420Y-16668841D01*
X10765420Y-16668841D02*
X10765420Y-16630746D01*
X10765420Y-16630746D02*
X10774944Y-16583127D01*
X10774944Y-16583127D02*
X10784468Y-16554555D01*
X10784468Y-16554555D02*
X10793991Y-16535508D01*
X10793991Y-16535508D02*
X10813039Y-16506936D01*
X10813039Y-16506936D02*
X10822563Y-16497412D01*
X10984468Y-16592650D02*
X10984468Y-16725984D01*
X10936849Y-16516460D02*
X10889230Y-16659317D01*
X10889230Y-16659317D02*
X11013039Y-16659317D01*
X11241610Y-16725984D02*
X11241610Y-16525984D01*
X11327325Y-16725984D02*
X11327325Y-16621222D01*
X11327325Y-16621222D02*
X11317801Y-16602174D01*
X11317801Y-16602174D02*
X11298753Y-16592650D01*
X11298753Y-16592650D02*
X11270182Y-16592650D01*
X11270182Y-16592650D02*
X11251134Y-16602174D01*
X11251134Y-16602174D02*
X11241610Y-16611698D01*
X11451134Y-16725984D02*
X11432087Y-16716460D01*
X11432087Y-16716460D02*
X11422563Y-16706936D01*
X11422563Y-16706936D02*
X11413039Y-16687888D01*
X11413039Y-16687888D02*
X11413039Y-16630746D01*
X11413039Y-16630746D02*
X11422563Y-16611698D01*
X11422563Y-16611698D02*
X11432087Y-16602174D01*
X11432087Y-16602174D02*
X11451134Y-16592650D01*
X11451134Y-16592650D02*
X11479706Y-16592650D01*
X11479706Y-16592650D02*
X11498753Y-16602174D01*
X11498753Y-16602174D02*
X11508277Y-16611698D01*
X11508277Y-16611698D02*
X11517801Y-16630746D01*
X11517801Y-16630746D02*
X11517801Y-16687888D01*
X11517801Y-16687888D02*
X11508277Y-16706936D01*
X11508277Y-16706936D02*
X11498753Y-16716460D01*
X11498753Y-16716460D02*
X11479706Y-16725984D01*
X11479706Y-16725984D02*
X11451134Y-16725984D01*
X11632087Y-16725984D02*
X11613039Y-16716460D01*
X11613039Y-16716460D02*
X11603515Y-16697412D01*
X11603515Y-16697412D02*
X11603515Y-16525984D01*
X11784468Y-16716460D02*
X11765420Y-16725984D01*
X11765420Y-16725984D02*
X11727325Y-16725984D01*
X11727325Y-16725984D02*
X11708277Y-16716460D01*
X11708277Y-16716460D02*
X11698753Y-16697412D01*
X11698753Y-16697412D02*
X11698753Y-16621222D01*
X11698753Y-16621222D02*
X11708277Y-16602174D01*
X11708277Y-16602174D02*
X11727325Y-16592650D01*
X11727325Y-16592650D02*
X11765420Y-16592650D01*
X11765420Y-16592650D02*
X11784468Y-16602174D01*
X11784468Y-16602174D02*
X11793991Y-16621222D01*
X11793991Y-16621222D02*
X11793991Y-16640269D01*
X11793991Y-16640269D02*
X11698753Y-16659317D01*
X11870182Y-16716460D02*
X11889230Y-16725984D01*
X11889230Y-16725984D02*
X11927325Y-16725984D01*
X11927325Y-16725984D02*
X11946372Y-16716460D01*
X11946372Y-16716460D02*
X11955896Y-16697412D01*
X11955896Y-16697412D02*
X11955896Y-16687888D01*
X11955896Y-16687888D02*
X11946372Y-16668841D01*
X11946372Y-16668841D02*
X11927325Y-16659317D01*
X11927325Y-16659317D02*
X11898753Y-16659317D01*
X11898753Y-16659317D02*
X11879706Y-16649793D01*
X11879706Y-16649793D02*
X11870182Y-16630746D01*
X11870182Y-16630746D02*
X11870182Y-16621222D01*
X11870182Y-16621222D02*
X11879706Y-16602174D01*
X11879706Y-16602174D02*
X11898753Y-16592650D01*
X11898753Y-16592650D02*
X11927325Y-16592650D01*
X11927325Y-16592650D02*
X11946372Y-16602174D01*
X12022563Y-16802174D02*
X12032087Y-16792650D01*
X12032087Y-16792650D02*
X12051134Y-16764079D01*
X12051134Y-16764079D02*
X12060658Y-16745031D01*
X12060658Y-16745031D02*
X12070182Y-16716460D01*
X12070182Y-16716460D02*
X12079706Y-16668841D01*
X12079706Y-16668841D02*
X12079706Y-16630746D01*
X12079706Y-16630746D02*
X12070182Y-16583127D01*
X12070182Y-16583127D02*
X12060658Y-16554555D01*
X12060658Y-16554555D02*
X12051134Y-16535508D01*
X12051134Y-16535508D02*
X12032087Y-16506936D01*
X12032087Y-16506936D02*
X12022563Y-16497412D01*
M02*
