%TF.GenerationSoftware,KiCad,Pcbnew,8.0.5*%
%TF.CreationDate,2024-11-10T22:21:36+02:00*%
%TF.ProjectId,PowerBoard,506f7765-7242-46f6-9172-642e6b696361,rev?*%
%TF.SameCoordinates,Original*%
%TF.FileFunction,Legend,Bot*%
%TF.FilePolarity,Positive*%
%FSLAX46Y46*%
G04 Gerber Fmt 4.6, Leading zero omitted, Abs format (unit mm)*
G04 Created by KiCad (PCBNEW 8.0.5) date 2024-11-10 22:21:36*
%MOMM*%
%LPD*%
G01*
G04 APERTURE LIST*
%ADD10C,0.150000*%
%ADD11C,0.120000*%
G04 APERTURE END LIST*
D10*
X121285714Y-114681009D02*
X121142857Y-114728628D01*
X121142857Y-114728628D02*
X121095238Y-114776247D01*
X121095238Y-114776247D02*
X121047619Y-114871485D01*
X121047619Y-114871485D02*
X121047619Y-115014342D01*
X121047619Y-115014342D02*
X121095238Y-115109580D01*
X121095238Y-115109580D02*
X121142857Y-115157200D01*
X121142857Y-115157200D02*
X121238095Y-115204819D01*
X121238095Y-115204819D02*
X121619047Y-115204819D01*
X121619047Y-115204819D02*
X121619047Y-114204819D01*
X121619047Y-114204819D02*
X121285714Y-114204819D01*
X121285714Y-114204819D02*
X121190476Y-114252438D01*
X121190476Y-114252438D02*
X121142857Y-114300057D01*
X121142857Y-114300057D02*
X121095238Y-114395295D01*
X121095238Y-114395295D02*
X121095238Y-114490533D01*
X121095238Y-114490533D02*
X121142857Y-114585771D01*
X121142857Y-114585771D02*
X121190476Y-114633390D01*
X121190476Y-114633390D02*
X121285714Y-114681009D01*
X121285714Y-114681009D02*
X121619047Y-114681009D01*
X120761904Y-114204819D02*
X120190476Y-114204819D01*
X120476190Y-115204819D02*
X120476190Y-114204819D01*
X119952380Y-114204819D02*
X119333333Y-114204819D01*
X119333333Y-114204819D02*
X119666666Y-114585771D01*
X119666666Y-114585771D02*
X119523809Y-114585771D01*
X119523809Y-114585771D02*
X119428571Y-114633390D01*
X119428571Y-114633390D02*
X119380952Y-114681009D01*
X119380952Y-114681009D02*
X119333333Y-114776247D01*
X119333333Y-114776247D02*
X119333333Y-115014342D01*
X119333333Y-115014342D02*
X119380952Y-115109580D01*
X119380952Y-115109580D02*
X119428571Y-115157200D01*
X119428571Y-115157200D02*
X119523809Y-115204819D01*
X119523809Y-115204819D02*
X119809523Y-115204819D01*
X119809523Y-115204819D02*
X119904761Y-115157200D01*
X119904761Y-115157200D02*
X119952380Y-115109580D01*
X123035714Y-71681009D02*
X122892857Y-71728628D01*
X122892857Y-71728628D02*
X122845238Y-71776247D01*
X122845238Y-71776247D02*
X122797619Y-71871485D01*
X122797619Y-71871485D02*
X122797619Y-72014342D01*
X122797619Y-72014342D02*
X122845238Y-72109580D01*
X122845238Y-72109580D02*
X122892857Y-72157200D01*
X122892857Y-72157200D02*
X122988095Y-72204819D01*
X122988095Y-72204819D02*
X123369047Y-72204819D01*
X123369047Y-72204819D02*
X123369047Y-71204819D01*
X123369047Y-71204819D02*
X123035714Y-71204819D01*
X123035714Y-71204819D02*
X122940476Y-71252438D01*
X122940476Y-71252438D02*
X122892857Y-71300057D01*
X122892857Y-71300057D02*
X122845238Y-71395295D01*
X122845238Y-71395295D02*
X122845238Y-71490533D01*
X122845238Y-71490533D02*
X122892857Y-71585771D01*
X122892857Y-71585771D02*
X122940476Y-71633390D01*
X122940476Y-71633390D02*
X123035714Y-71681009D01*
X123035714Y-71681009D02*
X123369047Y-71681009D01*
X122511904Y-71204819D02*
X121940476Y-71204819D01*
X122226190Y-72204819D02*
X122226190Y-71204819D01*
X121654761Y-71300057D02*
X121607142Y-71252438D01*
X121607142Y-71252438D02*
X121511904Y-71204819D01*
X121511904Y-71204819D02*
X121273809Y-71204819D01*
X121273809Y-71204819D02*
X121178571Y-71252438D01*
X121178571Y-71252438D02*
X121130952Y-71300057D01*
X121130952Y-71300057D02*
X121083333Y-71395295D01*
X121083333Y-71395295D02*
X121083333Y-71490533D01*
X121083333Y-71490533D02*
X121130952Y-71633390D01*
X121130952Y-71633390D02*
X121702380Y-72204819D01*
X121702380Y-72204819D02*
X121083333Y-72204819D01*
X123285714Y-92181009D02*
X123142857Y-92228628D01*
X123142857Y-92228628D02*
X123095238Y-92276247D01*
X123095238Y-92276247D02*
X123047619Y-92371485D01*
X123047619Y-92371485D02*
X123047619Y-92514342D01*
X123047619Y-92514342D02*
X123095238Y-92609580D01*
X123095238Y-92609580D02*
X123142857Y-92657200D01*
X123142857Y-92657200D02*
X123238095Y-92704819D01*
X123238095Y-92704819D02*
X123619047Y-92704819D01*
X123619047Y-92704819D02*
X123619047Y-91704819D01*
X123619047Y-91704819D02*
X123285714Y-91704819D01*
X123285714Y-91704819D02*
X123190476Y-91752438D01*
X123190476Y-91752438D02*
X123142857Y-91800057D01*
X123142857Y-91800057D02*
X123095238Y-91895295D01*
X123095238Y-91895295D02*
X123095238Y-91990533D01*
X123095238Y-91990533D02*
X123142857Y-92085771D01*
X123142857Y-92085771D02*
X123190476Y-92133390D01*
X123190476Y-92133390D02*
X123285714Y-92181009D01*
X123285714Y-92181009D02*
X123619047Y-92181009D01*
X122761904Y-91704819D02*
X122190476Y-91704819D01*
X122476190Y-92704819D02*
X122476190Y-91704819D01*
X121333333Y-92704819D02*
X121904761Y-92704819D01*
X121619047Y-92704819D02*
X121619047Y-91704819D01*
X121619047Y-91704819D02*
X121714285Y-91847676D01*
X121714285Y-91847676D02*
X121809523Y-91942914D01*
X121809523Y-91942914D02*
X121904761Y-91990533D01*
D11*
%TO.C,BT3*%
X84350000Y-117440000D02*
X88710000Y-117440000D01*
X84850000Y-121250000D02*
X84850000Y-118750000D01*
X86100000Y-120000000D02*
X83600000Y-120000000D01*
X88710000Y-103560000D02*
X165990000Y-103560000D01*
X88710000Y-110560000D02*
X88710000Y-103560000D01*
X88710000Y-117440000D02*
X88710000Y-124440000D01*
X88710000Y-124440000D02*
X165990000Y-124440000D01*
X165990000Y-103560000D02*
X165990000Y-110560000D01*
X165990000Y-124420000D02*
X165990000Y-117440000D01*
X168600000Y-120000000D02*
X171100000Y-120000000D01*
%TO.C,BT2*%
X86100000Y-86250000D02*
X83600000Y-86250000D01*
X88710000Y-81830000D02*
X88710000Y-88810000D01*
X88710000Y-102690000D02*
X88710000Y-95690000D01*
X165990000Y-81810000D02*
X88710000Y-81810000D01*
X165990000Y-88810000D02*
X165990000Y-81810000D01*
X165990000Y-95690000D02*
X165990000Y-102690000D01*
X165990000Y-102690000D02*
X88710000Y-102690000D01*
X168600000Y-86250000D02*
X171100000Y-86250000D01*
X169850000Y-85000000D02*
X169850000Y-87500000D01*
X170350000Y-88810000D02*
X165990000Y-88810000D01*
%TO.C,BT1*%
X84350000Y-73940000D02*
X88710000Y-73940000D01*
X84850000Y-77750000D02*
X84850000Y-75250000D01*
X86100000Y-76500000D02*
X83600000Y-76500000D01*
X88710000Y-60060000D02*
X165990000Y-60060000D01*
X88710000Y-67060000D02*
X88710000Y-60060000D01*
X88710000Y-73940000D02*
X88710000Y-80940000D01*
X88710000Y-80940000D02*
X165990000Y-80940000D01*
X165990000Y-60060000D02*
X165990000Y-67060000D01*
X165990000Y-80920000D02*
X165990000Y-73940000D01*
X168600000Y-76500000D02*
X171100000Y-76500000D01*
%TD*%
M02*
