%TF.GenerationSoftware,KiCad,Pcbnew,8.0.5*%
%TF.CreationDate,2024-11-10T22:21:36+02:00*%
%TF.ProjectId,PowerBoard,506f7765-7242-46f6-9172-642e6b696361,rev?*%
%TF.SameCoordinates,Original*%
%TF.FileFunction,Copper,L2,Bot*%
%TF.FilePolarity,Positive*%
%FSLAX46Y46*%
G04 Gerber Fmt 4.6, Leading zero omitted, Abs format (unit mm)*
G04 Created by KiCad (PCBNEW 8.0.5) date 2024-11-10 22:21:36*
%MOMM*%
%LPD*%
G01*
G04 APERTURE LIST*
%TA.AperFunction,ComponentPad*%
%ADD10R,2.600000X2.600000*%
%TD*%
%TA.AperFunction,ComponentPad*%
%ADD11C,2.600000*%
%TD*%
%TA.AperFunction,ComponentPad*%
%ADD12R,4.000000X3.000000*%
%TD*%
%TA.AperFunction,ComponentPad*%
%ADD13R,1.800000X1.800000*%
%TD*%
%TA.AperFunction,ComponentPad*%
%ADD14C,1.800000*%
%TD*%
%TA.AperFunction,ComponentPad*%
%ADD15C,1.600000*%
%TD*%
%TA.AperFunction,ComponentPad*%
%ADD16O,1.600000X1.600000*%
%TD*%
%TA.AperFunction,ComponentPad*%
%ADD17R,3.000000X2.000000*%
%TD*%
%TA.AperFunction,SMDPad,CuDef*%
%ADD18R,7.340000X6.350000*%
%TD*%
%TA.AperFunction,Conductor*%
%ADD19C,3.000000*%
%TD*%
%TA.AperFunction,Conductor*%
%ADD20C,0.800000*%
%TD*%
G04 APERTURE END LIST*
D10*
%TO.P,OUUTPUT 12V,1,Pin_1*%
%TO.N,+12V*%
X88195000Y-131705000D03*
D11*
%TO.P,OUUTPUT 12V,2,Pin_2*%
%TO.N,GND*%
X88195000Y-136785000D03*
%TD*%
D10*
%TO.P,INPUT 12V,1,Pin_1*%
%TO.N,+12V*%
X165935000Y-136545000D03*
D11*
%TO.P,INPUT 12V,2,Pin_2*%
%TO.N,GND*%
X165935000Y-131465000D03*
%TD*%
D12*
%TO.P,BMS_3S1,1,B-*%
%TO.N,Net-(BMS_3S1-B-)*%
X144500000Y-140500000D03*
%TO.P,BMS_3S1,2,B1*%
%TO.N,Net-(BMS_3S1-B1)*%
X144500000Y-127500000D03*
%TO.P,BMS_3S1,3,B2*%
%TO.N,Net-(BMS_3S1-B2)*%
X126500000Y-127500000D03*
%TO.P,BMS_3S1,4,B+*%
%TO.N,Net-(BMS_3S1-B+)*%
X108500000Y-127500000D03*
%TO.P,BMS_3S1,5,P-*%
%TO.N,GND*%
X149500000Y-131460000D03*
%TO.P,BMS_3S1,6,P+*%
%TO.N,+12V*%
X149500000Y-136540000D03*
%TD*%
D13*
%TO.P,D1,1,A*%
%TO.N,+12V*%
X155750000Y-141000000D03*
D14*
%TO.P,D1,2,K*%
%TO.N,Net-(D1-K)*%
X155750000Y-138460000D03*
%TD*%
D15*
%TO.P,R1,1*%
%TO.N,Net-(D1-K)*%
X155750000Y-134645000D03*
D16*
%TO.P,R1,2*%
%TO.N,GND*%
X155750000Y-127025000D03*
%TD*%
D17*
%TO.P,DC_DC_STEP_DWON_12V-5V1,1,in+*%
%TO.N,+12V*%
X151000000Y-43800000D03*
X151000000Y-46300000D03*
%TO.P,DC_DC_STEP_DWON_12V-5V1,2,in-*%
%TO.N,GND*%
X151000000Y-53700000D03*
X151000000Y-56200000D03*
%TD*%
D18*
%TO.P,BT3,1,+*%
%TO.N,Net-(BMS_3S1-B+)*%
X88020000Y-114000000D03*
%TO.P,BT3,2,-*%
%TO.N,Net-(BMS_3S1-B2)*%
X166680000Y-114000000D03*
%TD*%
%TO.P,BT2,1,+*%
%TO.N,Net-(BMS_3S1-B2)*%
X166680000Y-92250000D03*
%TO.P,BT2,2,-*%
%TO.N,Net-(BMS_3S1-B1)*%
X88020000Y-92250000D03*
%TD*%
%TO.P,BT1,1,+*%
%TO.N,Net-(BMS_3S1-B1)*%
X88020000Y-70500000D03*
%TO.P,BT1,2,-*%
%TO.N,Net-(BMS_3S1-B-)*%
X166680000Y-70500000D03*
%TD*%
D19*
%TO.N,Net-(BMS_3S1-B1)*%
X138000000Y-134000000D02*
X144500000Y-127500000D01*
X163000000Y-78000000D02*
X120750000Y-120250000D01*
X88020000Y-92250000D02*
X88020000Y-70500000D01*
X174750000Y-76750000D02*
X173500000Y-78000000D01*
X172500000Y-60500000D02*
X174750000Y-62750000D01*
X174750000Y-62750000D02*
X174750000Y-76750000D01*
X120750000Y-69750000D02*
X124750000Y-65750000D01*
X122500000Y-134000000D02*
X138000000Y-134000000D01*
X120750000Y-120250000D02*
X120750000Y-132250000D01*
X88020000Y-70500000D02*
X88770000Y-69750000D01*
X120750000Y-132250000D02*
X122500000Y-134000000D01*
X124750000Y-65750000D02*
X150000000Y-65750000D01*
X150000000Y-65750000D02*
X155250000Y-60500000D01*
X155250000Y-60500000D02*
X172500000Y-60500000D01*
X173500000Y-78000000D02*
X163000000Y-78000000D01*
X88770000Y-69750000D02*
X120750000Y-69750000D01*
%TO.N,Net-(BMS_3S1-B-)*%
X118000000Y-140250000D02*
X120000000Y-140250000D01*
X120000000Y-140250000D02*
X120250000Y-140500000D01*
X115500000Y-137750000D02*
X118000000Y-140250000D01*
X166680000Y-70500000D02*
X133500000Y-70500000D01*
X120250000Y-140500000D02*
X144500000Y-140500000D01*
X115500000Y-88500000D02*
X115500000Y-137750000D01*
X133500000Y-70500000D02*
X115500000Y-88500000D01*
%TO.N,Net-(BMS_3S1-B2)*%
X126500000Y-127500000D02*
X140000000Y-114000000D01*
X166680000Y-92250000D02*
X166680000Y-114000000D01*
X140000000Y-114000000D02*
X166680000Y-114000000D01*
%TO.N,Net-(BMS_3S1-B+)*%
X88020000Y-114000000D02*
X95000000Y-114000000D01*
X95000000Y-114000000D02*
X108500000Y-127500000D01*
%TO.N,+12V*%
X151750000Y-145250000D02*
X154000000Y-145250000D01*
X165935000Y-142315000D02*
X165935000Y-136545000D01*
X101740000Y-145250000D02*
X154000000Y-145250000D01*
X151000000Y-46300000D02*
X151000000Y-43800000D01*
X163000000Y-145250000D02*
X165935000Y-142315000D01*
X156500000Y-145250000D02*
X163000000Y-145250000D01*
X148800000Y-42550000D02*
X150050000Y-43800000D01*
X149500000Y-136540000D02*
X149500000Y-143000000D01*
X79000000Y-57000000D02*
X79000000Y-123347359D01*
X149500000Y-143000000D02*
X151750000Y-145250000D01*
X93450000Y-42550000D02*
X148800000Y-42550000D01*
X150050000Y-43800000D02*
X151000000Y-43800000D01*
D20*
X155750000Y-144500000D02*
X156500000Y-145250000D01*
D19*
X154000000Y-145250000D02*
X156500000Y-145250000D01*
X79000000Y-123347359D02*
X87357641Y-131705000D01*
X79000000Y-57000000D02*
X93450000Y-42550000D01*
D20*
X155750000Y-141000000D02*
X155750000Y-144500000D01*
D19*
X87357641Y-131705000D02*
X88195000Y-131705000D01*
X88195000Y-131705000D02*
X101740000Y-145250000D01*
D20*
%TO.N,Net-(D1-K)*%
X155750000Y-138460000D02*
X155750000Y-134645000D01*
%TD*%
%TA.AperFunction,Conductor*%
%TO.N,GND*%
G36*
X181942539Y-32520185D02*
G01*
X181988294Y-32572989D01*
X181999500Y-32624500D01*
X181999500Y-151375500D01*
X181979815Y-151442539D01*
X181927011Y-151488294D01*
X181875500Y-151499500D01*
X73124500Y-151499500D01*
X73057461Y-151479815D01*
X73011706Y-151427011D01*
X73000500Y-151375500D01*
X73000500Y-145865186D01*
X76099500Y-145865186D01*
X76099500Y-146134813D01*
X76129686Y-146402719D01*
X76129688Y-146402731D01*
X76189684Y-146665594D01*
X76189687Y-146665602D01*
X76278734Y-146920082D01*
X76395714Y-147162994D01*
X76395716Y-147162997D01*
X76539162Y-147391289D01*
X76707266Y-147602085D01*
X76897915Y-147792734D01*
X77108711Y-147960838D01*
X77337003Y-148104284D01*
X77579921Y-148221267D01*
X77771049Y-148288145D01*
X77834397Y-148310312D01*
X77834405Y-148310315D01*
X77834408Y-148310315D01*
X77834409Y-148310316D01*
X78097268Y-148370312D01*
X78365187Y-148400499D01*
X78365188Y-148400500D01*
X78365191Y-148400500D01*
X78634812Y-148400500D01*
X78634812Y-148400499D01*
X78902732Y-148370312D01*
X79165591Y-148310316D01*
X79420079Y-148221267D01*
X79662997Y-148104284D01*
X79891289Y-147960838D01*
X80102085Y-147792734D01*
X80292734Y-147602085D01*
X80460838Y-147391289D01*
X80604284Y-147162997D01*
X80721267Y-146920079D01*
X80810316Y-146665591D01*
X80870312Y-146402732D01*
X80900500Y-146134809D01*
X80900500Y-145865191D01*
X80870312Y-145597268D01*
X80810316Y-145334409D01*
X80721267Y-145079921D01*
X80604284Y-144837003D01*
X80460838Y-144608711D01*
X80292734Y-144397915D01*
X80102085Y-144207266D01*
X79891289Y-144039162D01*
X79662997Y-143895716D01*
X79662994Y-143895714D01*
X79420082Y-143778734D01*
X79165602Y-143689687D01*
X79165594Y-143689684D01*
X78968446Y-143644687D01*
X78902732Y-143629688D01*
X78902728Y-143629687D01*
X78902719Y-143629686D01*
X78634813Y-143599500D01*
X78634809Y-143599500D01*
X78365191Y-143599500D01*
X78365186Y-143599500D01*
X78097280Y-143629686D01*
X78097268Y-143629688D01*
X77834405Y-143689684D01*
X77834397Y-143689687D01*
X77579917Y-143778734D01*
X77337005Y-143895714D01*
X77108712Y-144039161D01*
X76897915Y-144207265D01*
X76707265Y-144397915D01*
X76539161Y-144608712D01*
X76395714Y-144837005D01*
X76278734Y-145079917D01*
X76189687Y-145334397D01*
X76189684Y-145334405D01*
X76129688Y-145597268D01*
X76129686Y-145597280D01*
X76099500Y-145865186D01*
X73000500Y-145865186D01*
X73000500Y-56868872D01*
X76999500Y-56868872D01*
X76999500Y-123478486D01*
X77016615Y-123608477D01*
X77016615Y-123608478D01*
X77033728Y-123738473D01*
X77088182Y-123941698D01*
X77101599Y-123991771D01*
X77101600Y-123991774D01*
X77201954Y-124234049D01*
X77201958Y-124234059D01*
X77333073Y-124461157D01*
X77333076Y-124461162D01*
X77402388Y-124551490D01*
X77492715Y-124669208D01*
X77492721Y-124669215D01*
X86035782Y-133212276D01*
X86035787Y-133212280D01*
X86035790Y-133212283D01*
X86081465Y-133247330D01*
X86081466Y-133247332D01*
X86243838Y-133371924D01*
X86464099Y-133499091D01*
X86470944Y-133503043D01*
X86713222Y-133603398D01*
X86966525Y-133671271D01*
X87096523Y-133688385D01*
X87226521Y-133705500D01*
X87315004Y-133705500D01*
X87382043Y-133725185D01*
X87402685Y-133741819D01*
X100418143Y-146757278D01*
X100418150Y-146757284D01*
X100535868Y-146847611D01*
X100535869Y-146847612D01*
X100626186Y-146916916D01*
X100626189Y-146916918D01*
X100626197Y-146916924D01*
X100762460Y-146995595D01*
X100853299Y-147048041D01*
X100853314Y-147048048D01*
X100957721Y-147091294D01*
X101095581Y-147148398D01*
X101348885Y-147216271D01*
X101461766Y-147231130D01*
X101461767Y-147231131D01*
X101461768Y-147231131D01*
X101608880Y-147250500D01*
X163131113Y-147250500D01*
X163131120Y-147250500D01*
X163261118Y-147233385D01*
X163391116Y-147216271D01*
X163644419Y-147148398D01*
X163886697Y-147048043D01*
X164113803Y-146916924D01*
X164204131Y-146847611D01*
X164321851Y-146757283D01*
X165213948Y-145865186D01*
X174099500Y-145865186D01*
X174099500Y-146134813D01*
X174129686Y-146402719D01*
X174129688Y-146402731D01*
X174189684Y-146665594D01*
X174189687Y-146665602D01*
X174278734Y-146920082D01*
X174395714Y-147162994D01*
X174395716Y-147162997D01*
X174539162Y-147391289D01*
X174707266Y-147602085D01*
X174897915Y-147792734D01*
X175108711Y-147960838D01*
X175337003Y-148104284D01*
X175579921Y-148221267D01*
X175771049Y-148288145D01*
X175834397Y-148310312D01*
X175834405Y-148310315D01*
X175834408Y-148310315D01*
X175834409Y-148310316D01*
X176097268Y-148370312D01*
X176365187Y-148400499D01*
X176365188Y-148400500D01*
X176365191Y-148400500D01*
X176634812Y-148400500D01*
X176634812Y-148400499D01*
X176902732Y-148370312D01*
X177165591Y-148310316D01*
X177420079Y-148221267D01*
X177662997Y-148104284D01*
X177891289Y-147960838D01*
X178102085Y-147792734D01*
X178292734Y-147602085D01*
X178460838Y-147391289D01*
X178604284Y-147162997D01*
X178721267Y-146920079D01*
X178810316Y-146665591D01*
X178870312Y-146402732D01*
X178900500Y-146134809D01*
X178900500Y-145865191D01*
X178870312Y-145597268D01*
X178810316Y-145334409D01*
X178721267Y-145079921D01*
X178604284Y-144837003D01*
X178460838Y-144608711D01*
X178292734Y-144397915D01*
X178102085Y-144207266D01*
X177891289Y-144039162D01*
X177662997Y-143895716D01*
X177662994Y-143895714D01*
X177420082Y-143778734D01*
X177165602Y-143689687D01*
X177165594Y-143689684D01*
X176968446Y-143644687D01*
X176902732Y-143629688D01*
X176902728Y-143629687D01*
X176902719Y-143629686D01*
X176634813Y-143599500D01*
X176634809Y-143599500D01*
X176365191Y-143599500D01*
X176365186Y-143599500D01*
X176097280Y-143629686D01*
X176097268Y-143629688D01*
X175834405Y-143689684D01*
X175834397Y-143689687D01*
X175579917Y-143778734D01*
X175337005Y-143895714D01*
X175108712Y-144039161D01*
X174897915Y-144207265D01*
X174707265Y-144397915D01*
X174539161Y-144608712D01*
X174395714Y-144837005D01*
X174278734Y-145079917D01*
X174189687Y-145334397D01*
X174189684Y-145334405D01*
X174129688Y-145597268D01*
X174129686Y-145597280D01*
X174099500Y-145865186D01*
X165213948Y-145865186D01*
X167442283Y-143636851D01*
X167584157Y-143451957D01*
X167601924Y-143428803D01*
X167733043Y-143201697D01*
X167833398Y-142959419D01*
X167857658Y-142868880D01*
X167901271Y-142706115D01*
X167916131Y-142593232D01*
X167935500Y-142446120D01*
X167935500Y-136413880D01*
X167901270Y-136153884D01*
X167833398Y-135900581D01*
X167832494Y-135898398D01*
X167744938Y-135687019D01*
X167735499Y-135639566D01*
X167735499Y-135197129D01*
X167735498Y-135197123D01*
X167735497Y-135197116D01*
X167729091Y-135137517D01*
X167711926Y-135091496D01*
X167678797Y-135002671D01*
X167678793Y-135002664D01*
X167592547Y-134887455D01*
X167592544Y-134887452D01*
X167477335Y-134801206D01*
X167477328Y-134801202D01*
X167342482Y-134750908D01*
X167342483Y-134750908D01*
X167282883Y-134744501D01*
X167282881Y-134744500D01*
X167282873Y-134744500D01*
X167282865Y-134744500D01*
X166840430Y-134744500D01*
X166792977Y-134735061D01*
X166579419Y-134646602D01*
X166326116Y-134578730D01*
X166268339Y-134571123D01*
X166066127Y-134544500D01*
X166066120Y-134544500D01*
X165803880Y-134544500D01*
X165803872Y-134544500D01*
X165572772Y-134574926D01*
X165543884Y-134578730D01*
X165296567Y-134644998D01*
X165290581Y-134646602D01*
X165290565Y-134646607D01*
X165077019Y-134735061D01*
X165029567Y-134744500D01*
X164587129Y-134744500D01*
X164587123Y-134744501D01*
X164527516Y-134750908D01*
X164392671Y-134801202D01*
X164392664Y-134801206D01*
X164277455Y-134887452D01*
X164277452Y-134887455D01*
X164191206Y-135002664D01*
X164191202Y-135002671D01*
X164140908Y-135137517D01*
X164134501Y-135197116D01*
X164134501Y-135197123D01*
X164134500Y-135197135D01*
X164134500Y-135639568D01*
X164125061Y-135687021D01*
X164036605Y-135900571D01*
X164036602Y-135900581D01*
X163968730Y-136153885D01*
X163934500Y-136413872D01*
X163934500Y-141435004D01*
X163914815Y-141502043D01*
X163898181Y-141522685D01*
X162207685Y-143213181D01*
X162146362Y-143246666D01*
X162120004Y-143249500D01*
X156774500Y-143249500D01*
X156707461Y-143229815D01*
X156661706Y-143177011D01*
X156650500Y-143125500D01*
X156650500Y-142516976D01*
X156670185Y-142449937D01*
X156722989Y-142404182D01*
X156750135Y-142396736D01*
X156749932Y-142395876D01*
X156757479Y-142394092D01*
X156757481Y-142394091D01*
X156757483Y-142394091D01*
X156892331Y-142343796D01*
X157007546Y-142257546D01*
X157093796Y-142142331D01*
X157144091Y-142007483D01*
X157150500Y-141947873D01*
X157150499Y-140052128D01*
X157144091Y-139992517D01*
X157093796Y-139857669D01*
X157093795Y-139857668D01*
X157093793Y-139857664D01*
X157007547Y-139742455D01*
X157007544Y-139742452D01*
X156892335Y-139656206D01*
X156892328Y-139656202D01*
X156812094Y-139626277D01*
X156756160Y-139584406D01*
X156731743Y-139518941D01*
X156746595Y-139450668D01*
X156764190Y-139426121D01*
X156858979Y-139323153D01*
X156985924Y-139128849D01*
X157079157Y-138916300D01*
X157136134Y-138691305D01*
X157140659Y-138636697D01*
X157155300Y-138460006D01*
X157155300Y-138459993D01*
X157136135Y-138228702D01*
X157136133Y-138228691D01*
X157079157Y-138003699D01*
X156985924Y-137791151D01*
X156858983Y-137596852D01*
X156858980Y-137596849D01*
X156858979Y-137596847D01*
X156701784Y-137426087D01*
X156698336Y-137423403D01*
X156657524Y-137366692D01*
X156650500Y-137325551D01*
X156650500Y-135635048D01*
X156670185Y-135568009D01*
X156686814Y-135547371D01*
X156750047Y-135484139D01*
X156880568Y-135297734D01*
X156976739Y-135091496D01*
X157035635Y-134871692D01*
X157055468Y-134645000D01*
X157035635Y-134418308D01*
X156976739Y-134198504D01*
X156880568Y-133992266D01*
X156750047Y-133805861D01*
X156750045Y-133805858D01*
X156589141Y-133644954D01*
X156402734Y-133514432D01*
X156402732Y-133514431D01*
X156196497Y-133418261D01*
X156196488Y-133418258D01*
X155976697Y-133359366D01*
X155976693Y-133359365D01*
X155976692Y-133359365D01*
X155976691Y-133359364D01*
X155976686Y-133359364D01*
X155750002Y-133339532D01*
X155749998Y-133339532D01*
X155523313Y-133359364D01*
X155523302Y-133359366D01*
X155303511Y-133418258D01*
X155303502Y-133418261D01*
X155097267Y-133514431D01*
X155097265Y-133514432D01*
X154910858Y-133644954D01*
X154749954Y-133805858D01*
X154619432Y-133992265D01*
X154619431Y-133992267D01*
X154523261Y-134198502D01*
X154523258Y-134198511D01*
X154464366Y-134418302D01*
X154464364Y-134418313D01*
X154444532Y-134644998D01*
X154444532Y-134645001D01*
X154464364Y-134871686D01*
X154464366Y-134871697D01*
X154523258Y-135091488D01*
X154523261Y-135091497D01*
X154619431Y-135297732D01*
X154619432Y-135297734D01*
X154749951Y-135484137D01*
X154749952Y-135484138D01*
X154749953Y-135484139D01*
X154813182Y-135547368D01*
X154846666Y-135608689D01*
X154849500Y-135635048D01*
X154849500Y-137325551D01*
X154829815Y-137392590D01*
X154801664Y-137423403D01*
X154798219Y-137426084D01*
X154641016Y-137596852D01*
X154514075Y-137791151D01*
X154420842Y-138003699D01*
X154363866Y-138228691D01*
X154363864Y-138228702D01*
X154344700Y-138459993D01*
X154344700Y-138460006D01*
X154363864Y-138691297D01*
X154363866Y-138691308D01*
X154420842Y-138916300D01*
X154514075Y-139128848D01*
X154641016Y-139323147D01*
X154641019Y-139323151D01*
X154641021Y-139323153D01*
X154735803Y-139426114D01*
X154766724Y-139488767D01*
X154758864Y-139558193D01*
X154714716Y-139612348D01*
X154687906Y-139626277D01*
X154607669Y-139656203D01*
X154607664Y-139656206D01*
X154492455Y-139742452D01*
X154492452Y-139742455D01*
X154406206Y-139857664D01*
X154406202Y-139857671D01*
X154355908Y-139992517D01*
X154349501Y-140052116D01*
X154349501Y-140052123D01*
X154349500Y-140052135D01*
X154349500Y-141947870D01*
X154349501Y-141947876D01*
X154355908Y-142007483D01*
X154406202Y-142142328D01*
X154406206Y-142142335D01*
X154492452Y-142257544D01*
X154492455Y-142257547D01*
X154607664Y-142343793D01*
X154607671Y-142343797D01*
X154742517Y-142394091D01*
X154750062Y-142395874D01*
X154749523Y-142398151D01*
X154803287Y-142420408D01*
X154843147Y-142477793D01*
X154849500Y-142516975D01*
X154849500Y-143125500D01*
X154829815Y-143192539D01*
X154777011Y-143238294D01*
X154725500Y-143249500D01*
X152629996Y-143249500D01*
X152562957Y-143229815D01*
X152542315Y-143213181D01*
X151536819Y-142207685D01*
X151503334Y-142146362D01*
X151500500Y-142120004D01*
X151500500Y-138656976D01*
X151520185Y-138589937D01*
X151572989Y-138544182D01*
X151600135Y-138536736D01*
X151599932Y-138535876D01*
X151607479Y-138534092D01*
X151607481Y-138534091D01*
X151607483Y-138534091D01*
X151742331Y-138483796D01*
X151857546Y-138397546D01*
X151943796Y-138282331D01*
X151994091Y-138147483D01*
X152000500Y-138087873D01*
X152000499Y-134992128D01*
X151994091Y-134932517D01*
X151945114Y-134801204D01*
X151943797Y-134797671D01*
X151943793Y-134797664D01*
X151857547Y-134682455D01*
X151857544Y-134682452D01*
X151742335Y-134596206D01*
X151742328Y-134596202D01*
X151607482Y-134545908D01*
X151607483Y-134545908D01*
X151547883Y-134539501D01*
X151547881Y-134539500D01*
X151547873Y-134539500D01*
X149631123Y-134539500D01*
X149631120Y-134539500D01*
X149368880Y-134539500D01*
X149368875Y-134539500D01*
X147452129Y-134539500D01*
X147452123Y-134539501D01*
X147392516Y-134545908D01*
X147257671Y-134596202D01*
X147257664Y-134596206D01*
X147142455Y-134682452D01*
X147142452Y-134682455D01*
X147056206Y-134797664D01*
X147056202Y-134797671D01*
X147005908Y-134932517D01*
X146999501Y-134992116D01*
X146999501Y-134992123D01*
X146999500Y-134992135D01*
X146999500Y-138087870D01*
X146999501Y-138087876D01*
X147005908Y-138147483D01*
X147056202Y-138282328D01*
X147056206Y-138282335D01*
X147142452Y-138397544D01*
X147142455Y-138397547D01*
X147257664Y-138483793D01*
X147257671Y-138483797D01*
X147392517Y-138534091D01*
X147400062Y-138535874D01*
X147399523Y-138538151D01*
X147453287Y-138560408D01*
X147493147Y-138617793D01*
X147499500Y-138656975D01*
X147499500Y-143125500D01*
X147479815Y-143192539D01*
X147427011Y-143238294D01*
X147375500Y-143249500D01*
X102619996Y-143249500D01*
X102552957Y-143229815D01*
X102532315Y-143213181D01*
X90031818Y-130712684D01*
X89998333Y-130651361D01*
X89995499Y-130625003D01*
X89995499Y-130357129D01*
X89995498Y-130357123D01*
X89989091Y-130297516D01*
X89938797Y-130162671D01*
X89938793Y-130162664D01*
X89852547Y-130047455D01*
X89852544Y-130047452D01*
X89737335Y-129961206D01*
X89737328Y-129961202D01*
X89602482Y-129910908D01*
X89602483Y-129910908D01*
X89542883Y-129904501D01*
X89542881Y-129904500D01*
X89542873Y-129904500D01*
X89542865Y-129904500D01*
X89100430Y-129904500D01*
X89052977Y-129895061D01*
X88839419Y-129806602D01*
X88586112Y-129738728D01*
X88456118Y-129721615D01*
X88326127Y-129704500D01*
X88326120Y-129704500D01*
X88237637Y-129704500D01*
X88170598Y-129684815D01*
X88149956Y-129668181D01*
X81036819Y-122555044D01*
X81003334Y-122493721D01*
X81000500Y-122467363D01*
X81000500Y-121886231D01*
X89974500Y-121886231D01*
X89974500Y-122113768D01*
X90010093Y-122338490D01*
X90080400Y-122554876D01*
X90080401Y-122554879D01*
X90183697Y-122757607D01*
X90317434Y-122941680D01*
X90478320Y-123102566D01*
X90662393Y-123236303D01*
X90761825Y-123286966D01*
X90865120Y-123339598D01*
X90865123Y-123339599D01*
X90973316Y-123374752D01*
X91081511Y-123409907D01*
X91185591Y-123426391D01*
X91306232Y-123445500D01*
X91306237Y-123445500D01*
X91533768Y-123445500D01*
X91642710Y-123428244D01*
X91758489Y-123409907D01*
X91974879Y-123339598D01*
X92177607Y-123236303D01*
X92361680Y-123102566D01*
X92522566Y-122941680D01*
X92656303Y-122757607D01*
X92759598Y-122554879D01*
X92829907Y-122338489D01*
X92848244Y-122222710D01*
X92865500Y-122113768D01*
X92865500Y-121886231D01*
X92844793Y-121755499D01*
X92829907Y-121661511D01*
X92759598Y-121445121D01*
X92759598Y-121445120D01*
X92656302Y-121242392D01*
X92522566Y-121058320D01*
X92361680Y-120897434D01*
X92177607Y-120763697D01*
X91974879Y-120660401D01*
X91974876Y-120660400D01*
X91758490Y-120590093D01*
X91533768Y-120554500D01*
X91533763Y-120554500D01*
X91306237Y-120554500D01*
X91306232Y-120554500D01*
X91081509Y-120590093D01*
X90865123Y-120660400D01*
X90865120Y-120660401D01*
X90662392Y-120763697D01*
X90557372Y-120839998D01*
X90478320Y-120897434D01*
X90478318Y-120897436D01*
X90478317Y-120897436D01*
X90317436Y-121058317D01*
X90317436Y-121058318D01*
X90317434Y-121058320D01*
X90302675Y-121078634D01*
X90183697Y-121242392D01*
X90080401Y-121445120D01*
X90080400Y-121445123D01*
X90010093Y-121661509D01*
X89974500Y-121886231D01*
X81000500Y-121886231D01*
X81000500Y-110777135D01*
X83849500Y-110777135D01*
X83849500Y-117222870D01*
X83849501Y-117222876D01*
X83855908Y-117282483D01*
X83906202Y-117417328D01*
X83906206Y-117417335D01*
X83992452Y-117532544D01*
X83992455Y-117532547D01*
X84107664Y-117618793D01*
X84107671Y-117618797D01*
X84242517Y-117669091D01*
X84242516Y-117669091D01*
X84249444Y-117669835D01*
X84302127Y-117675500D01*
X91737872Y-117675499D01*
X91797483Y-117669091D01*
X91932331Y-117618796D01*
X92047546Y-117532546D01*
X92133796Y-117417331D01*
X92184091Y-117282483D01*
X92190500Y-117222873D01*
X92190500Y-116124500D01*
X92210185Y-116057461D01*
X92262989Y-116011706D01*
X92314500Y-116000500D01*
X94120004Y-116000500D01*
X94187043Y-116020185D01*
X94207685Y-116036819D01*
X105963181Y-127792315D01*
X105996666Y-127853638D01*
X105999500Y-127879996D01*
X105999500Y-129047870D01*
X105999501Y-129047876D01*
X106005908Y-129107483D01*
X106056202Y-129242328D01*
X106056206Y-129242335D01*
X106142452Y-129357544D01*
X106142455Y-129357547D01*
X106257664Y-129443793D01*
X106257671Y-129443797D01*
X106392517Y-129494091D01*
X106392516Y-129494091D01*
X106399444Y-129494835D01*
X106452127Y-129500500D01*
X110547872Y-129500499D01*
X110607483Y-129494091D01*
X110742331Y-129443796D01*
X110857546Y-129357546D01*
X110943796Y-129242331D01*
X110994091Y-129107483D01*
X111000500Y-129047873D01*
X111000499Y-125952128D01*
X110994091Y-125892517D01*
X110943796Y-125757669D01*
X110943795Y-125757668D01*
X110943793Y-125757664D01*
X110857547Y-125642455D01*
X110857544Y-125642452D01*
X110742335Y-125556206D01*
X110742328Y-125556202D01*
X110607482Y-125505908D01*
X110607483Y-125505908D01*
X110547883Y-125499501D01*
X110547881Y-125499500D01*
X110547873Y-125499500D01*
X110547865Y-125499500D01*
X109379996Y-125499500D01*
X109312957Y-125479815D01*
X109292315Y-125463181D01*
X96321856Y-112492721D01*
X96321849Y-112492715D01*
X96204131Y-112402388D01*
X96204130Y-112402387D01*
X96113803Y-112333075D01*
X95886700Y-112201958D01*
X95886690Y-112201954D01*
X95644419Y-112101602D01*
X95391112Y-112033728D01*
X95261118Y-112016615D01*
X95131127Y-111999500D01*
X95131120Y-111999500D01*
X92314499Y-111999500D01*
X92247460Y-111979815D01*
X92201705Y-111927011D01*
X92190499Y-111875500D01*
X92190499Y-110777129D01*
X92190498Y-110777123D01*
X92190497Y-110777116D01*
X92184091Y-110717517D01*
X92133796Y-110582669D01*
X92133795Y-110582668D01*
X92133793Y-110582664D01*
X92047547Y-110467455D01*
X92047544Y-110467452D01*
X91932335Y-110381206D01*
X91932328Y-110381202D01*
X91797482Y-110330908D01*
X91797483Y-110330908D01*
X91737883Y-110324501D01*
X91737881Y-110324500D01*
X91737873Y-110324500D01*
X91737864Y-110324500D01*
X84302129Y-110324500D01*
X84302123Y-110324501D01*
X84242516Y-110330908D01*
X84107671Y-110381202D01*
X84107664Y-110381206D01*
X83992455Y-110467452D01*
X83992452Y-110467455D01*
X83906206Y-110582664D01*
X83906202Y-110582671D01*
X83855908Y-110717517D01*
X83849501Y-110777116D01*
X83849501Y-110777123D01*
X83849500Y-110777135D01*
X81000500Y-110777135D01*
X81000500Y-105870525D01*
X97774500Y-105870525D01*
X97774500Y-106129474D01*
X97774501Y-106129491D01*
X97808299Y-106386217D01*
X97808300Y-106386222D01*
X97808301Y-106386228D01*
X97808302Y-106386230D01*
X97875324Y-106636364D01*
X97974423Y-106875609D01*
X97974427Y-106875619D01*
X98103906Y-107099883D01*
X98261551Y-107305331D01*
X98261557Y-107305338D01*
X98444661Y-107488442D01*
X98444668Y-107488448D01*
X98650116Y-107646093D01*
X98874380Y-107775572D01*
X98874381Y-107775572D01*
X98874384Y-107775574D01*
X99113634Y-107874675D01*
X99363772Y-107941699D01*
X99620519Y-107975500D01*
X99620526Y-107975500D01*
X99879474Y-107975500D01*
X99879481Y-107975500D01*
X100136228Y-107941699D01*
X100386366Y-107874675D01*
X100625616Y-107775574D01*
X100849884Y-107646093D01*
X101055333Y-107488447D01*
X101238447Y-107305333D01*
X101396093Y-107099884D01*
X101525574Y-106875616D01*
X101624675Y-106636366D01*
X101691699Y-106386228D01*
X101725500Y-106129481D01*
X101725500Y-105870519D01*
X101691699Y-105613772D01*
X101624675Y-105363634D01*
X101525574Y-105124384D01*
X101396093Y-104900116D01*
X101238447Y-104694667D01*
X101238442Y-104694661D01*
X101055338Y-104511557D01*
X101055331Y-104511551D01*
X100849883Y-104353906D01*
X100625619Y-104224427D01*
X100625609Y-104224423D01*
X100386364Y-104125324D01*
X100261297Y-104091813D01*
X100136228Y-104058301D01*
X100136222Y-104058300D01*
X100136217Y-104058299D01*
X99879491Y-104024501D01*
X99879486Y-104024500D01*
X99879481Y-104024500D01*
X99620519Y-104024500D01*
X99620513Y-104024500D01*
X99620508Y-104024501D01*
X99363782Y-104058299D01*
X99363775Y-104058300D01*
X99363772Y-104058301D01*
X99310908Y-104072465D01*
X99113635Y-104125324D01*
X98874390Y-104224423D01*
X98874380Y-104224427D01*
X98650116Y-104353906D01*
X98444668Y-104511551D01*
X98444661Y-104511557D01*
X98261557Y-104694661D01*
X98261551Y-104694668D01*
X98103906Y-104900116D01*
X97974427Y-105124380D01*
X97974423Y-105124390D01*
X97875324Y-105363635D01*
X97808302Y-105613769D01*
X97808299Y-105613782D01*
X97774501Y-105870508D01*
X97774500Y-105870525D01*
X81000500Y-105870525D01*
X81000500Y-67277135D01*
X83849500Y-67277135D01*
X83849500Y-73722870D01*
X83849501Y-73722876D01*
X83855908Y-73782483D01*
X83906202Y-73917328D01*
X83906206Y-73917335D01*
X83992452Y-74032544D01*
X83992455Y-74032547D01*
X84107664Y-74118793D01*
X84107671Y-74118797D01*
X84242517Y-74169091D01*
X84242516Y-74169091D01*
X84249444Y-74169835D01*
X84302127Y-74175500D01*
X85895500Y-74175499D01*
X85962539Y-74195184D01*
X86008294Y-74247987D01*
X86019500Y-74299499D01*
X86019500Y-88450500D01*
X85999815Y-88517539D01*
X85947011Y-88563294D01*
X85895500Y-88574500D01*
X84302129Y-88574500D01*
X84302123Y-88574501D01*
X84242516Y-88580908D01*
X84107671Y-88631202D01*
X84107664Y-88631206D01*
X83992455Y-88717452D01*
X83992452Y-88717455D01*
X83906206Y-88832664D01*
X83906202Y-88832671D01*
X83855908Y-88967517D01*
X83849501Y-89027116D01*
X83849501Y-89027123D01*
X83849500Y-89027135D01*
X83849500Y-95472870D01*
X83849501Y-95472876D01*
X83855908Y-95532483D01*
X83906202Y-95667328D01*
X83906206Y-95667335D01*
X83992452Y-95782544D01*
X83992455Y-95782547D01*
X84107664Y-95868793D01*
X84107671Y-95868797D01*
X84242517Y-95919091D01*
X84242516Y-95919091D01*
X84249444Y-95919835D01*
X84302127Y-95925500D01*
X91737872Y-95925499D01*
X91797483Y-95919091D01*
X91932331Y-95868796D01*
X92047546Y-95782546D01*
X92133796Y-95667331D01*
X92184091Y-95532483D01*
X92190500Y-95472873D01*
X92190499Y-89027128D01*
X92184091Y-88967517D01*
X92133796Y-88832669D01*
X92133795Y-88832668D01*
X92133793Y-88832664D01*
X92047547Y-88717455D01*
X92047544Y-88717452D01*
X91932335Y-88631206D01*
X91932328Y-88631202D01*
X91797482Y-88580908D01*
X91797483Y-88580908D01*
X91737883Y-88574501D01*
X91737881Y-88574500D01*
X91737873Y-88574500D01*
X91737865Y-88574500D01*
X90144500Y-88574500D01*
X90077461Y-88554815D01*
X90031706Y-88502011D01*
X90020500Y-88450500D01*
X90020500Y-88368872D01*
X113499500Y-88368872D01*
X113499500Y-137881127D01*
X113513620Y-137988377D01*
X113515638Y-138003700D01*
X113533729Y-138141116D01*
X113586777Y-138339091D01*
X113601602Y-138394419D01*
X113601603Y-138394423D01*
X113601604Y-138394424D01*
X113601605Y-138394428D01*
X113701953Y-138636690D01*
X113701958Y-138636700D01*
X113833072Y-138863796D01*
X113833084Y-138863815D01*
X113868700Y-138910228D01*
X113868701Y-138910231D01*
X113868702Y-138910231D01*
X113992715Y-139071849D01*
X113992721Y-139071856D01*
X116678143Y-141757278D01*
X116678150Y-141757284D01*
X116762295Y-141821850D01*
X116762296Y-141821852D01*
X116886199Y-141916926D01*
X116886201Y-141916927D01*
X117043050Y-142007483D01*
X117043051Y-142007483D01*
X117113303Y-142048043D01*
X117355581Y-142148398D01*
X117608884Y-142216271D01*
X117730853Y-142232328D01*
X117806831Y-142242331D01*
X117868880Y-142250500D01*
X119247731Y-142250500D01*
X119309730Y-142267112D01*
X119363303Y-142298043D01*
X119605581Y-142398398D01*
X119858884Y-142466271D01*
X119988882Y-142483385D01*
X120118864Y-142500498D01*
X120118880Y-142500500D01*
X120118887Y-142500500D01*
X144638716Y-142500500D01*
X144638732Y-142500499D01*
X146547871Y-142500499D01*
X146547872Y-142500499D01*
X146607483Y-142494091D01*
X146742331Y-142443796D01*
X146857546Y-142357546D01*
X146943796Y-142242331D01*
X146994091Y-142107483D01*
X147000500Y-142047873D01*
X147000499Y-138952128D01*
X146994091Y-138892517D01*
X146983381Y-138863803D01*
X146943797Y-138757671D01*
X146943793Y-138757664D01*
X146857547Y-138642455D01*
X146857544Y-138642452D01*
X146742335Y-138556206D01*
X146742328Y-138556202D01*
X146607482Y-138505908D01*
X146607483Y-138505908D01*
X146547883Y-138499501D01*
X146547881Y-138499500D01*
X146547873Y-138499500D01*
X146547865Y-138499500D01*
X121002269Y-138499500D01*
X120940269Y-138482887D01*
X120886699Y-138451958D01*
X120886685Y-138451951D01*
X120722032Y-138383750D01*
X120644419Y-138351602D01*
X120644415Y-138351601D01*
X120644413Y-138351600D01*
X120644414Y-138351600D01*
X120621646Y-138345499D01*
X120621646Y-138345500D01*
X120391116Y-138283729D01*
X120391115Y-138283728D01*
X120391112Y-138283728D01*
X120261118Y-138266615D01*
X120131127Y-138249500D01*
X120131120Y-138249500D01*
X118879996Y-138249500D01*
X118812957Y-138229815D01*
X118792315Y-138213181D01*
X117536819Y-136957685D01*
X117503334Y-136896362D01*
X117500500Y-136870004D01*
X117500500Y-89379996D01*
X117520185Y-89312957D01*
X117536819Y-89292315D01*
X128458609Y-78370525D01*
X152974500Y-78370525D01*
X152974500Y-78629474D01*
X152974501Y-78629491D01*
X153008299Y-78886217D01*
X153008300Y-78886222D01*
X153008301Y-78886228D01*
X153008302Y-78886230D01*
X153075324Y-79136364D01*
X153174423Y-79375609D01*
X153174427Y-79375619D01*
X153303906Y-79599883D01*
X153461551Y-79805331D01*
X153461557Y-79805338D01*
X153644661Y-79988442D01*
X153644668Y-79988448D01*
X153850116Y-80146093D01*
X154074380Y-80275572D01*
X154074381Y-80275572D01*
X154074384Y-80275574D01*
X154313634Y-80374675D01*
X154563772Y-80441699D01*
X154820519Y-80475500D01*
X154820526Y-80475500D01*
X155079474Y-80475500D01*
X155079481Y-80475500D01*
X155336228Y-80441699D01*
X155586366Y-80374675D01*
X155825616Y-80275574D01*
X156049884Y-80146093D01*
X156255333Y-79988447D01*
X156438447Y-79805333D01*
X156596093Y-79599884D01*
X156725574Y-79375616D01*
X156824675Y-79136366D01*
X156891699Y-78886228D01*
X156925500Y-78629481D01*
X156925500Y-78370519D01*
X156891699Y-78113772D01*
X156824675Y-77863634D01*
X156725574Y-77624384D01*
X156719270Y-77613466D01*
X156596093Y-77400116D01*
X156438448Y-77194668D01*
X156438442Y-77194661D01*
X156255338Y-77011557D01*
X156255331Y-77011551D01*
X156049883Y-76853906D01*
X155825619Y-76724427D01*
X155825609Y-76724423D01*
X155586364Y-76625324D01*
X155461297Y-76591813D01*
X155336228Y-76558301D01*
X155336222Y-76558300D01*
X155336217Y-76558299D01*
X155079491Y-76524501D01*
X155079486Y-76524500D01*
X155079481Y-76524500D01*
X154820519Y-76524500D01*
X154820513Y-76524500D01*
X154820508Y-76524501D01*
X154563782Y-76558299D01*
X154563775Y-76558300D01*
X154563772Y-76558301D01*
X154510908Y-76572465D01*
X154313635Y-76625324D01*
X154074390Y-76724423D01*
X154074380Y-76724427D01*
X153850116Y-76853906D01*
X153644668Y-77011551D01*
X153644661Y-77011557D01*
X153461557Y-77194661D01*
X153461551Y-77194668D01*
X153303906Y-77400116D01*
X153174427Y-77624380D01*
X153174423Y-77624390D01*
X153075324Y-77863635D01*
X153008302Y-78113769D01*
X153008299Y-78113782D01*
X152974501Y-78370508D01*
X152974500Y-78370525D01*
X128458609Y-78370525D01*
X134292315Y-72536819D01*
X134353638Y-72503334D01*
X134379996Y-72500500D01*
X162385501Y-72500500D01*
X162452540Y-72520185D01*
X162498295Y-72572989D01*
X162509501Y-72624500D01*
X162509501Y-73722876D01*
X162515908Y-73782483D01*
X162566202Y-73917328D01*
X162566206Y-73917335D01*
X162652452Y-74032544D01*
X162652455Y-74032547D01*
X162767664Y-74118793D01*
X162767671Y-74118797D01*
X162902517Y-74169091D01*
X162902516Y-74169091D01*
X162909444Y-74169835D01*
X162962127Y-74175500D01*
X170397872Y-74175499D01*
X170457483Y-74169091D01*
X170592331Y-74118796D01*
X170707546Y-74032546D01*
X170793796Y-73917331D01*
X170844091Y-73782483D01*
X170850500Y-73722873D01*
X170850499Y-67277128D01*
X170844091Y-67217517D01*
X170793796Y-67082669D01*
X170793795Y-67082668D01*
X170793793Y-67082664D01*
X170707547Y-66967455D01*
X170707544Y-66967452D01*
X170592335Y-66881206D01*
X170592328Y-66881202D01*
X170457482Y-66830908D01*
X170457483Y-66830908D01*
X170397883Y-66824501D01*
X170397881Y-66824500D01*
X170397873Y-66824500D01*
X170397864Y-66824500D01*
X162962129Y-66824500D01*
X162962123Y-66824501D01*
X162902516Y-66830908D01*
X162767671Y-66881202D01*
X162767664Y-66881206D01*
X162652455Y-66967452D01*
X162652452Y-66967455D01*
X162566206Y-67082664D01*
X162566202Y-67082671D01*
X162515908Y-67217517D01*
X162509501Y-67277116D01*
X162509501Y-67277123D01*
X162509500Y-67277135D01*
X162509500Y-68375500D01*
X162489815Y-68442539D01*
X162437011Y-68488294D01*
X162385500Y-68499500D01*
X133368872Y-68499500D01*
X133238882Y-68516615D01*
X133238881Y-68516615D01*
X133108887Y-68533728D01*
X132855580Y-68601602D01*
X132613309Y-68701954D01*
X132613299Y-68701958D01*
X132386203Y-68833072D01*
X132386186Y-68833083D01*
X132346806Y-68863302D01*
X132346805Y-68863303D01*
X132178150Y-68992715D01*
X132178143Y-68992721D01*
X113992721Y-87178143D01*
X113992715Y-87178150D01*
X113902388Y-87295868D01*
X113871064Y-87336689D01*
X113833072Y-87386201D01*
X113701958Y-87613299D01*
X113701954Y-87613309D01*
X113601602Y-87855580D01*
X113533728Y-88108887D01*
X113516615Y-88238881D01*
X113516615Y-88238882D01*
X113499500Y-88368872D01*
X90020500Y-88368872D01*
X90020500Y-84120525D01*
X97774500Y-84120525D01*
X97774500Y-84379474D01*
X97774501Y-84379491D01*
X97808299Y-84636217D01*
X97808300Y-84636222D01*
X97808301Y-84636228D01*
X97808302Y-84636230D01*
X97875324Y-84886364D01*
X97974423Y-85125609D01*
X97974427Y-85125619D01*
X98103906Y-85349883D01*
X98261551Y-85555331D01*
X98261557Y-85555338D01*
X98444661Y-85738442D01*
X98444668Y-85738448D01*
X98650116Y-85896093D01*
X98874380Y-86025572D01*
X98874381Y-86025572D01*
X98874384Y-86025574D01*
X99113634Y-86124675D01*
X99363772Y-86191699D01*
X99620519Y-86225500D01*
X99620526Y-86225500D01*
X99879474Y-86225500D01*
X99879481Y-86225500D01*
X100136228Y-86191699D01*
X100386366Y-86124675D01*
X100625616Y-86025574D01*
X100849884Y-85896093D01*
X101055333Y-85738447D01*
X101238447Y-85555333D01*
X101396093Y-85349884D01*
X101525574Y-85125616D01*
X101624675Y-84886366D01*
X101691699Y-84636228D01*
X101725500Y-84379481D01*
X101725500Y-84120519D01*
X101691699Y-83863772D01*
X101624675Y-83613634D01*
X101525574Y-83374384D01*
X101396093Y-83150116D01*
X101394035Y-83147434D01*
X101238448Y-82944668D01*
X101238442Y-82944661D01*
X101055338Y-82761557D01*
X101055331Y-82761551D01*
X100849883Y-82603906D01*
X100625619Y-82474427D01*
X100625609Y-82474423D01*
X100386364Y-82375324D01*
X100261297Y-82341813D01*
X100136228Y-82308301D01*
X100136222Y-82308300D01*
X100136217Y-82308299D01*
X99879491Y-82274501D01*
X99879486Y-82274500D01*
X99879481Y-82274500D01*
X99620519Y-82274500D01*
X99620513Y-82274500D01*
X99620508Y-82274501D01*
X99363782Y-82308299D01*
X99363775Y-82308300D01*
X99363772Y-82308301D01*
X99310908Y-82322465D01*
X99113635Y-82375324D01*
X98874390Y-82474423D01*
X98874380Y-82474427D01*
X98650116Y-82603906D01*
X98444668Y-82761551D01*
X98444661Y-82761557D01*
X98261557Y-82944661D01*
X98261551Y-82944668D01*
X98103906Y-83150116D01*
X97974427Y-83374380D01*
X97974423Y-83374390D01*
X97875324Y-83613635D01*
X97808302Y-83863769D01*
X97808299Y-83863782D01*
X97774501Y-84120508D01*
X97774500Y-84120525D01*
X90020500Y-84120525D01*
X90020500Y-79414618D01*
X90040185Y-79347579D01*
X90092989Y-79301824D01*
X90162147Y-79291880D01*
X90225703Y-79320905D01*
X90244815Y-79341729D01*
X90317434Y-79441680D01*
X90478320Y-79602566D01*
X90662393Y-79736303D01*
X90761825Y-79786966D01*
X90865120Y-79839598D01*
X90865123Y-79839599D01*
X90973316Y-79874752D01*
X91081511Y-79909907D01*
X91185591Y-79926391D01*
X91306232Y-79945500D01*
X91306237Y-79945500D01*
X91533768Y-79945500D01*
X91642710Y-79928244D01*
X91758489Y-79909907D01*
X91974879Y-79839598D01*
X92177607Y-79736303D01*
X92361680Y-79602566D01*
X92522566Y-79441680D01*
X92656303Y-79257607D01*
X92759598Y-79054879D01*
X92829907Y-78838489D01*
X92848244Y-78722710D01*
X92865500Y-78613768D01*
X92865500Y-78386231D01*
X92844793Y-78255499D01*
X92829907Y-78161511D01*
X92759598Y-77945121D01*
X92759598Y-77945120D01*
X92656302Y-77742392D01*
X92522566Y-77558320D01*
X92361680Y-77397434D01*
X92177607Y-77263697D01*
X91974879Y-77160401D01*
X91974876Y-77160400D01*
X91758490Y-77090093D01*
X91533768Y-77054500D01*
X91533763Y-77054500D01*
X91306237Y-77054500D01*
X91306232Y-77054500D01*
X91081509Y-77090093D01*
X90865123Y-77160400D01*
X90865120Y-77160401D01*
X90662392Y-77263697D01*
X90557372Y-77339998D01*
X90478320Y-77397434D01*
X90478318Y-77397436D01*
X90478317Y-77397436D01*
X90317435Y-77558318D01*
X90244818Y-77658267D01*
X90189487Y-77700932D01*
X90119874Y-77706911D01*
X90058079Y-77674305D01*
X90023722Y-77613466D01*
X90020500Y-77585381D01*
X90020500Y-74299499D01*
X90040185Y-74232460D01*
X90092989Y-74186705D01*
X90144500Y-74175499D01*
X91737871Y-74175499D01*
X91737872Y-74175499D01*
X91797483Y-74169091D01*
X91932331Y-74118796D01*
X92047546Y-74032546D01*
X92133796Y-73917331D01*
X92184091Y-73782483D01*
X92190500Y-73722873D01*
X92190500Y-71874500D01*
X92210185Y-71807461D01*
X92262989Y-71761706D01*
X92314500Y-71750500D01*
X120881113Y-71750500D01*
X120881120Y-71750500D01*
X121011118Y-71733385D01*
X121141116Y-71716271D01*
X121394419Y-71648398D01*
X121636697Y-71548043D01*
X121863803Y-71416924D01*
X121954131Y-71347611D01*
X122071851Y-71257283D01*
X125542315Y-67786819D01*
X125603638Y-67753334D01*
X125629996Y-67750500D01*
X150131113Y-67750500D01*
X150131120Y-67750500D01*
X150261118Y-67733385D01*
X150391116Y-67716271D01*
X150644419Y-67648398D01*
X150886697Y-67548043D01*
X151113803Y-67416924D01*
X151204131Y-67347611D01*
X151321851Y-67257283D01*
X156042315Y-62536819D01*
X156103638Y-62503334D01*
X156129996Y-62500500D01*
X171620004Y-62500500D01*
X171687043Y-62520185D01*
X171707685Y-62536819D01*
X172713181Y-63542315D01*
X172746666Y-63603638D01*
X172749500Y-63629996D01*
X172749500Y-75870004D01*
X172729815Y-75937043D01*
X172713181Y-75957685D01*
X172707685Y-75963181D01*
X172646362Y-75996666D01*
X172620004Y-75999500D01*
X162868872Y-75999500D01*
X162738882Y-76016615D01*
X162738881Y-76016615D01*
X162608887Y-76033728D01*
X162355580Y-76101602D01*
X162113309Y-76201954D01*
X162113299Y-76201958D01*
X161886193Y-76333077D01*
X161852567Y-76358882D01*
X161852564Y-76358884D01*
X161678150Y-76492715D01*
X161678143Y-76492721D01*
X119242721Y-118928143D01*
X119242715Y-118928150D01*
X119152388Y-119045868D01*
X119121064Y-119086689D01*
X119083072Y-119136201D01*
X118951958Y-119363299D01*
X118951954Y-119363309D01*
X118851602Y-119605580D01*
X118783728Y-119858887D01*
X118766615Y-119988881D01*
X118766615Y-119988882D01*
X118749500Y-120118872D01*
X118749500Y-132381127D01*
X118759161Y-132454501D01*
X118759161Y-132454502D01*
X118783728Y-132641112D01*
X118831341Y-132818803D01*
X118851603Y-132894421D01*
X118851605Y-132894428D01*
X118951953Y-133136690D01*
X118951958Y-133136700D01*
X119083073Y-133363799D01*
X119083075Y-133363802D01*
X119083076Y-133363803D01*
X119148294Y-133448796D01*
X119242715Y-133571849D01*
X119242721Y-133571856D01*
X121178141Y-135507276D01*
X121178144Y-135507278D01*
X121178149Y-135507283D01*
X121227954Y-135545499D01*
X121227955Y-135545501D01*
X121386199Y-135666926D01*
X121386201Y-135666927D01*
X121552365Y-135762861D01*
X121552366Y-135762861D01*
X121613303Y-135798043D01*
X121613306Y-135798044D01*
X121613311Y-135798047D01*
X121744015Y-135852186D01*
X121855581Y-135898398D01*
X122108885Y-135966271D01*
X122221766Y-135981130D01*
X122221767Y-135981131D01*
X122221768Y-135981131D01*
X122368880Y-136000500D01*
X138131113Y-136000500D01*
X138131120Y-136000500D01*
X138261118Y-135983385D01*
X138391116Y-135966271D01*
X138644419Y-135898398D01*
X138886697Y-135798043D01*
X138947634Y-135762861D01*
X138947635Y-135762861D01*
X139113798Y-135666927D01*
X139113800Y-135666926D01*
X139117309Y-135664234D01*
X139272045Y-135545500D01*
X139321851Y-135507283D01*
X145292315Y-129536817D01*
X145353638Y-129503333D01*
X145379996Y-129500499D01*
X146547871Y-129500499D01*
X146547872Y-129500499D01*
X146607483Y-129494091D01*
X146742331Y-129443796D01*
X146857546Y-129357546D01*
X146943796Y-129242331D01*
X146994091Y-129107483D01*
X147000500Y-129047873D01*
X147000499Y-125952128D01*
X146994091Y-125892517D01*
X146943796Y-125757669D01*
X146943795Y-125757668D01*
X146943793Y-125757664D01*
X146857547Y-125642455D01*
X146857544Y-125642452D01*
X146742335Y-125556206D01*
X146742328Y-125556202D01*
X146607482Y-125505908D01*
X146607483Y-125505908D01*
X146547883Y-125499501D01*
X146547881Y-125499500D01*
X146547873Y-125499500D01*
X146547864Y-125499500D01*
X142452129Y-125499500D01*
X142452123Y-125499501D01*
X142392516Y-125505908D01*
X142257671Y-125556202D01*
X142257664Y-125556206D01*
X142142455Y-125642452D01*
X142142452Y-125642455D01*
X142056206Y-125757664D01*
X142056202Y-125757671D01*
X142005908Y-125892517D01*
X141999501Y-125952116D01*
X141999501Y-125952123D01*
X141999500Y-125952135D01*
X141999500Y-127120003D01*
X141979815Y-127187042D01*
X141963181Y-127207684D01*
X137207685Y-131963181D01*
X137146362Y-131996666D01*
X137120004Y-131999500D01*
X123379996Y-131999500D01*
X123312957Y-131979815D01*
X123292315Y-131963181D01*
X122786819Y-131457685D01*
X122753334Y-131396362D01*
X122750500Y-131370004D01*
X122750500Y-125952135D01*
X123999500Y-125952135D01*
X123999500Y-129047870D01*
X123999501Y-129047876D01*
X124005908Y-129107483D01*
X124056202Y-129242328D01*
X124056206Y-129242335D01*
X124142452Y-129357544D01*
X124142455Y-129357547D01*
X124257664Y-129443793D01*
X124257671Y-129443797D01*
X124392517Y-129494091D01*
X124392516Y-129494091D01*
X124399444Y-129494835D01*
X124452127Y-129500500D01*
X128547872Y-129500499D01*
X128607483Y-129494091D01*
X128742331Y-129443796D01*
X128857546Y-129357546D01*
X128943796Y-129242331D01*
X128994091Y-129107483D01*
X129000500Y-129047873D01*
X129000499Y-127879994D01*
X129020184Y-127812956D01*
X129036813Y-127792319D01*
X134958608Y-121870525D01*
X152974500Y-121870525D01*
X152974500Y-122129474D01*
X152974501Y-122129491D01*
X153008299Y-122386217D01*
X153008300Y-122386222D01*
X153008301Y-122386228D01*
X153008302Y-122386230D01*
X153075324Y-122636364D01*
X153174423Y-122875609D01*
X153174427Y-122875619D01*
X153303906Y-123099883D01*
X153461551Y-123305331D01*
X153461557Y-123305338D01*
X153644661Y-123488442D01*
X153644668Y-123488448D01*
X153850116Y-123646093D01*
X154074380Y-123775572D01*
X154074381Y-123775572D01*
X154074384Y-123775574D01*
X154313634Y-123874675D01*
X154563772Y-123941699D01*
X154820519Y-123975500D01*
X154820526Y-123975500D01*
X155079474Y-123975500D01*
X155079481Y-123975500D01*
X155336228Y-123941699D01*
X155586366Y-123874675D01*
X155825616Y-123775574D01*
X156049884Y-123646093D01*
X156255333Y-123488447D01*
X156438447Y-123305333D01*
X156596093Y-123099884D01*
X156725574Y-122875616D01*
X156824675Y-122636366D01*
X156891699Y-122386228D01*
X156925500Y-122129481D01*
X156925500Y-121870519D01*
X156891699Y-121613772D01*
X156824675Y-121363634D01*
X156725574Y-121124384D01*
X156699160Y-121078634D01*
X156596093Y-120900116D01*
X156438448Y-120694668D01*
X156438442Y-120694661D01*
X156255338Y-120511557D01*
X156255331Y-120511551D01*
X156049883Y-120353906D01*
X155825619Y-120224427D01*
X155825609Y-120224423D01*
X155586364Y-120125324D01*
X155461297Y-120091813D01*
X155336228Y-120058301D01*
X155336222Y-120058300D01*
X155336217Y-120058299D01*
X155079491Y-120024501D01*
X155079486Y-120024500D01*
X155079481Y-120024500D01*
X154820519Y-120024500D01*
X154820513Y-120024500D01*
X154820508Y-120024501D01*
X154563782Y-120058299D01*
X154563775Y-120058300D01*
X154563772Y-120058301D01*
X154510908Y-120072465D01*
X154313635Y-120125324D01*
X154074390Y-120224423D01*
X154074380Y-120224427D01*
X153850116Y-120353906D01*
X153644668Y-120511551D01*
X153644661Y-120511557D01*
X153461557Y-120694661D01*
X153461551Y-120694668D01*
X153303906Y-120900116D01*
X153174427Y-121124380D01*
X153174423Y-121124390D01*
X153075324Y-121363635D01*
X153008302Y-121613769D01*
X153008299Y-121613782D01*
X152974501Y-121870508D01*
X152974500Y-121870525D01*
X134958608Y-121870525D01*
X140792315Y-116036819D01*
X140853638Y-116003334D01*
X140879996Y-116000500D01*
X162385501Y-116000500D01*
X162452540Y-116020185D01*
X162498295Y-116072989D01*
X162509501Y-116124500D01*
X162509501Y-117222876D01*
X162515908Y-117282483D01*
X162566202Y-117417328D01*
X162566206Y-117417335D01*
X162652452Y-117532544D01*
X162652455Y-117532547D01*
X162767664Y-117618793D01*
X162767671Y-117618797D01*
X162902517Y-117669091D01*
X162902516Y-117669091D01*
X162909444Y-117669835D01*
X162962127Y-117675500D01*
X170397872Y-117675499D01*
X170457483Y-117669091D01*
X170592331Y-117618796D01*
X170707546Y-117532546D01*
X170793796Y-117417331D01*
X170844091Y-117282483D01*
X170850500Y-117222873D01*
X170850499Y-110777128D01*
X170844091Y-110717517D01*
X170793796Y-110582669D01*
X170793795Y-110582668D01*
X170793793Y-110582664D01*
X170707547Y-110467455D01*
X170707544Y-110467452D01*
X170592335Y-110381206D01*
X170592328Y-110381202D01*
X170457482Y-110330908D01*
X170457483Y-110330908D01*
X170397883Y-110324501D01*
X170397881Y-110324500D01*
X170397873Y-110324500D01*
X170397865Y-110324500D01*
X168804500Y-110324500D01*
X168737461Y-110304815D01*
X168691706Y-110252011D01*
X168680500Y-110200500D01*
X168680500Y-96049499D01*
X168700185Y-95982460D01*
X168752989Y-95936705D01*
X168804500Y-95925499D01*
X170397871Y-95925499D01*
X170397872Y-95925499D01*
X170457483Y-95919091D01*
X170592331Y-95868796D01*
X170707546Y-95782546D01*
X170793796Y-95667331D01*
X170844091Y-95532483D01*
X170850500Y-95472873D01*
X170850499Y-89027128D01*
X170844091Y-88967517D01*
X170793796Y-88832669D01*
X170793795Y-88832668D01*
X170793793Y-88832664D01*
X170707547Y-88717455D01*
X170707544Y-88717452D01*
X170592335Y-88631206D01*
X170592328Y-88631202D01*
X170457482Y-88580908D01*
X170457483Y-88580908D01*
X170397883Y-88574501D01*
X170397881Y-88574500D01*
X170397873Y-88574500D01*
X170397864Y-88574500D01*
X162962129Y-88574500D01*
X162962123Y-88574501D01*
X162902516Y-88580908D01*
X162767671Y-88631202D01*
X162767664Y-88631206D01*
X162652455Y-88717452D01*
X162652452Y-88717455D01*
X162566206Y-88832664D01*
X162566202Y-88832671D01*
X162515908Y-88967517D01*
X162509501Y-89027116D01*
X162509501Y-89027123D01*
X162509500Y-89027135D01*
X162509500Y-95472870D01*
X162509501Y-95472876D01*
X162515908Y-95532483D01*
X162566202Y-95667328D01*
X162566206Y-95667335D01*
X162652452Y-95782544D01*
X162652455Y-95782547D01*
X162767664Y-95868793D01*
X162767671Y-95868797D01*
X162902517Y-95919091D01*
X162902516Y-95919091D01*
X162909444Y-95919835D01*
X162962127Y-95925500D01*
X164555500Y-95925499D01*
X164622539Y-95945184D01*
X164668294Y-95997987D01*
X164679500Y-96049499D01*
X164679500Y-110200500D01*
X164659815Y-110267539D01*
X164607011Y-110313294D01*
X164555500Y-110324500D01*
X162962129Y-110324500D01*
X162962123Y-110324501D01*
X162902516Y-110330908D01*
X162767671Y-110381202D01*
X162767664Y-110381206D01*
X162652455Y-110467452D01*
X162652452Y-110467455D01*
X162566206Y-110582664D01*
X162566202Y-110582671D01*
X162515908Y-110717517D01*
X162509501Y-110777116D01*
X162509501Y-110777123D01*
X162509500Y-110777135D01*
X162509500Y-111875500D01*
X162489815Y-111942539D01*
X162437011Y-111988294D01*
X162385500Y-111999500D01*
X139868872Y-111999500D01*
X139738882Y-112016615D01*
X139738881Y-112016615D01*
X139608887Y-112033728D01*
X139355580Y-112101602D01*
X139113309Y-112201954D01*
X139113299Y-112201958D01*
X138886201Y-112333072D01*
X138836689Y-112371064D01*
X138795868Y-112402388D01*
X138678150Y-112492715D01*
X138678143Y-112492721D01*
X125707683Y-125463181D01*
X125646360Y-125496666D01*
X125620002Y-125499500D01*
X124452129Y-125499500D01*
X124452123Y-125499501D01*
X124392516Y-125505908D01*
X124257671Y-125556202D01*
X124257664Y-125556206D01*
X124142455Y-125642452D01*
X124142452Y-125642455D01*
X124056206Y-125757664D01*
X124056202Y-125757671D01*
X124005908Y-125892517D01*
X123999501Y-125952116D01*
X123999501Y-125952123D01*
X123999500Y-125952135D01*
X122750500Y-125952135D01*
X122750500Y-121129996D01*
X122770185Y-121062957D01*
X122786819Y-121042315D01*
X143708609Y-100120525D01*
X152974500Y-100120525D01*
X152974500Y-100379474D01*
X152974501Y-100379491D01*
X153008299Y-100636217D01*
X153008300Y-100636222D01*
X153008301Y-100636228D01*
X153008302Y-100636230D01*
X153075324Y-100886364D01*
X153174423Y-101125609D01*
X153174427Y-101125619D01*
X153303906Y-101349883D01*
X153461551Y-101555331D01*
X153461557Y-101555338D01*
X153644661Y-101738442D01*
X153644668Y-101738448D01*
X153850116Y-101896093D01*
X154074380Y-102025572D01*
X154074381Y-102025572D01*
X154074384Y-102025574D01*
X154313634Y-102124675D01*
X154563772Y-102191699D01*
X154820519Y-102225500D01*
X154820526Y-102225500D01*
X155079474Y-102225500D01*
X155079481Y-102225500D01*
X155336228Y-102191699D01*
X155586366Y-102124675D01*
X155825616Y-102025574D01*
X156049884Y-101896093D01*
X156255333Y-101738447D01*
X156438447Y-101555333D01*
X156596093Y-101349884D01*
X156725574Y-101125616D01*
X156824675Y-100886366D01*
X156891699Y-100636228D01*
X156925500Y-100379481D01*
X156925500Y-100120519D01*
X156891699Y-99863772D01*
X156824675Y-99613634D01*
X156725574Y-99374384D01*
X156596093Y-99150116D01*
X156438447Y-98944667D01*
X156438442Y-98944661D01*
X156255338Y-98761557D01*
X156255331Y-98761551D01*
X156049883Y-98603906D01*
X155825619Y-98474427D01*
X155825609Y-98474423D01*
X155586364Y-98375324D01*
X155461297Y-98341813D01*
X155336228Y-98308301D01*
X155336222Y-98308300D01*
X155336217Y-98308299D01*
X155079491Y-98274501D01*
X155079486Y-98274500D01*
X155079481Y-98274500D01*
X154820519Y-98274500D01*
X154820513Y-98274500D01*
X154820508Y-98274501D01*
X154563782Y-98308299D01*
X154563775Y-98308300D01*
X154563772Y-98308301D01*
X154510908Y-98322465D01*
X154313635Y-98375324D01*
X154074390Y-98474423D01*
X154074380Y-98474427D01*
X153850116Y-98603906D01*
X153644668Y-98761551D01*
X153644661Y-98761557D01*
X153461557Y-98944661D01*
X153461551Y-98944668D01*
X153303906Y-99150116D01*
X153174427Y-99374380D01*
X153174423Y-99374390D01*
X153075324Y-99613635D01*
X153008302Y-99863769D01*
X153008299Y-99863782D01*
X152974501Y-100120508D01*
X152974500Y-100120525D01*
X143708609Y-100120525D01*
X159692903Y-84136231D01*
X161834500Y-84136231D01*
X161834500Y-84363768D01*
X161870093Y-84588490D01*
X161940400Y-84804876D01*
X161940401Y-84804879D01*
X162043697Y-85007607D01*
X162177434Y-85191680D01*
X162338320Y-85352566D01*
X162522393Y-85486303D01*
X162621825Y-85536966D01*
X162725120Y-85589598D01*
X162725123Y-85589599D01*
X162833316Y-85624752D01*
X162941511Y-85659907D01*
X163045591Y-85676391D01*
X163166232Y-85695500D01*
X163166237Y-85695500D01*
X163393768Y-85695500D01*
X163502710Y-85678244D01*
X163618489Y-85659907D01*
X163834879Y-85589598D01*
X164037607Y-85486303D01*
X164221680Y-85352566D01*
X164382566Y-85191680D01*
X164516303Y-85007607D01*
X164619598Y-84804879D01*
X164689907Y-84588489D01*
X164708244Y-84472710D01*
X164725500Y-84363768D01*
X164725500Y-84136231D01*
X164704793Y-84005499D01*
X164689907Y-83911511D01*
X164619598Y-83695121D01*
X164619598Y-83695120D01*
X164516302Y-83492392D01*
X164382566Y-83308320D01*
X164221680Y-83147434D01*
X164037607Y-83013697D01*
X163834879Y-82910401D01*
X163834876Y-82910400D01*
X163618490Y-82840093D01*
X163393768Y-82804500D01*
X163393763Y-82804500D01*
X163166237Y-82804500D01*
X163166232Y-82804500D01*
X162941509Y-82840093D01*
X162725123Y-82910400D01*
X162725120Y-82910401D01*
X162522392Y-83013697D01*
X162417372Y-83089998D01*
X162338320Y-83147434D01*
X162338318Y-83147436D01*
X162338317Y-83147436D01*
X162177436Y-83308317D01*
X162177436Y-83308318D01*
X162177434Y-83308320D01*
X162129439Y-83374380D01*
X162043697Y-83492392D01*
X161940401Y-83695120D01*
X161940400Y-83695123D01*
X161870093Y-83911509D01*
X161834500Y-84136231D01*
X159692903Y-84136231D01*
X163792315Y-80036819D01*
X163853638Y-80003334D01*
X163879996Y-80000500D01*
X173631113Y-80000500D01*
X173631120Y-80000500D01*
X173761118Y-79983385D01*
X173891116Y-79966271D01*
X174144419Y-79898398D01*
X174386697Y-79798043D01*
X174493634Y-79736303D01*
X174613803Y-79666924D01*
X174704131Y-79597611D01*
X174821851Y-79507283D01*
X176257283Y-78071851D01*
X176413028Y-77868880D01*
X176416924Y-77863803D01*
X176548043Y-77636697D01*
X176648398Y-77394419D01*
X176683425Y-77263697D01*
X176716271Y-77141116D01*
X176733328Y-77011553D01*
X176750500Y-76881120D01*
X176750500Y-62618880D01*
X176730408Y-62466270D01*
X176716271Y-62358885D01*
X176648398Y-62105581D01*
X176548181Y-61863635D01*
X176548048Y-61863314D01*
X176548045Y-61863308D01*
X176548043Y-61863303D01*
X176548037Y-61863292D01*
X176524111Y-61821850D01*
X176524111Y-61821851D01*
X176416924Y-61636197D01*
X176407859Y-61624384D01*
X176347611Y-61545868D01*
X176257283Y-61428149D01*
X176257280Y-61428146D01*
X176257277Y-61428142D01*
X173821856Y-58992721D01*
X173821849Y-58992715D01*
X173698932Y-58898398D01*
X173698930Y-58898396D01*
X173613802Y-58833075D01*
X173386700Y-58701958D01*
X173386690Y-58701954D01*
X173144419Y-58601602D01*
X172891112Y-58533728D01*
X172761118Y-58516615D01*
X172631127Y-58499500D01*
X172631120Y-58499500D01*
X155118880Y-58499500D01*
X155118872Y-58499500D01*
X154988882Y-58516615D01*
X154988881Y-58516615D01*
X154858887Y-58533728D01*
X154605580Y-58601602D01*
X154363309Y-58701954D01*
X154363299Y-58701958D01*
X154136197Y-58833075D01*
X154003329Y-58935027D01*
X154003330Y-58935028D01*
X153928141Y-58992723D01*
X153928140Y-58992724D01*
X149207685Y-63713181D01*
X149146362Y-63746666D01*
X149120004Y-63749500D01*
X124618872Y-63749500D01*
X124488882Y-63766615D01*
X124488881Y-63766615D01*
X124358887Y-63783728D01*
X124105580Y-63851602D01*
X123863309Y-63951954D01*
X123863299Y-63951958D01*
X123636197Y-64083075D01*
X123503329Y-64185027D01*
X123503330Y-64185028D01*
X123428141Y-64242723D01*
X123428140Y-64242724D01*
X119957685Y-67713181D01*
X119896362Y-67746666D01*
X119870004Y-67749500D01*
X92314499Y-67749500D01*
X92247460Y-67729815D01*
X92201705Y-67677011D01*
X92190499Y-67625500D01*
X92190499Y-67277129D01*
X92190498Y-67277123D01*
X92190497Y-67277116D01*
X92184091Y-67217517D01*
X92133796Y-67082669D01*
X92133795Y-67082668D01*
X92133793Y-67082664D01*
X92047547Y-66967455D01*
X92047544Y-66967452D01*
X91932335Y-66881206D01*
X91932328Y-66881202D01*
X91797482Y-66830908D01*
X91797483Y-66830908D01*
X91737883Y-66824501D01*
X91737881Y-66824500D01*
X91737873Y-66824500D01*
X91737864Y-66824500D01*
X84302129Y-66824500D01*
X84302123Y-66824501D01*
X84242516Y-66830908D01*
X84107671Y-66881202D01*
X84107664Y-66881206D01*
X83992455Y-66967452D01*
X83992452Y-66967455D01*
X83906206Y-67082664D01*
X83906202Y-67082671D01*
X83855908Y-67217517D01*
X83849501Y-67277116D01*
X83849501Y-67277123D01*
X83849500Y-67277135D01*
X81000500Y-67277135D01*
X81000500Y-62370525D01*
X97774500Y-62370525D01*
X97774500Y-62629474D01*
X97774501Y-62629491D01*
X97808299Y-62886217D01*
X97808300Y-62886222D01*
X97808301Y-62886228D01*
X97808302Y-62886230D01*
X97875324Y-63136364D01*
X97974423Y-63375609D01*
X97974427Y-63375619D01*
X98103906Y-63599883D01*
X98261551Y-63805331D01*
X98261557Y-63805338D01*
X98444661Y-63988442D01*
X98444668Y-63988448D01*
X98650116Y-64146093D01*
X98874380Y-64275572D01*
X98874381Y-64275572D01*
X98874384Y-64275574D01*
X99113634Y-64374675D01*
X99363772Y-64441699D01*
X99620519Y-64475500D01*
X99620526Y-64475500D01*
X99879474Y-64475500D01*
X99879481Y-64475500D01*
X100136228Y-64441699D01*
X100386366Y-64374675D01*
X100625616Y-64275574D01*
X100849884Y-64146093D01*
X101055333Y-63988447D01*
X101238447Y-63805333D01*
X101396093Y-63599884D01*
X101525574Y-63375616D01*
X101624675Y-63136366D01*
X101691699Y-62886228D01*
X101725500Y-62629481D01*
X101725500Y-62370519D01*
X101691699Y-62113772D01*
X101624675Y-61863634D01*
X101525574Y-61624384D01*
X101396093Y-61400116D01*
X101238447Y-61194667D01*
X101238442Y-61194661D01*
X101055338Y-61011557D01*
X101055331Y-61011551D01*
X100849883Y-60853906D01*
X100625619Y-60724427D01*
X100625609Y-60724423D01*
X100386364Y-60625324D01*
X100261297Y-60591813D01*
X100136228Y-60558301D01*
X100136222Y-60558300D01*
X100136217Y-60558299D01*
X99879491Y-60524501D01*
X99879486Y-60524500D01*
X99879481Y-60524500D01*
X99620519Y-60524500D01*
X99620513Y-60524500D01*
X99620508Y-60524501D01*
X99363782Y-60558299D01*
X99363775Y-60558300D01*
X99363772Y-60558301D01*
X99310908Y-60572465D01*
X99113635Y-60625324D01*
X98874390Y-60724423D01*
X98874380Y-60724427D01*
X98650116Y-60853906D01*
X98444668Y-61011551D01*
X98444661Y-61011557D01*
X98261557Y-61194661D01*
X98261551Y-61194668D01*
X98103906Y-61400116D01*
X97974427Y-61624380D01*
X97974423Y-61624390D01*
X97875324Y-61863635D01*
X97808302Y-62113769D01*
X97808299Y-62113782D01*
X97774501Y-62370508D01*
X97774500Y-62370525D01*
X81000500Y-62370525D01*
X81000500Y-57879996D01*
X81020185Y-57812957D01*
X81036819Y-57792315D01*
X94242315Y-44586819D01*
X94303638Y-44553334D01*
X94329996Y-44550500D01*
X147920004Y-44550500D01*
X147987043Y-44570185D01*
X148007685Y-44586819D01*
X148728143Y-45307278D01*
X148728149Y-45307283D01*
X148845868Y-45397611D01*
X148936197Y-45466924D01*
X148937490Y-45467671D01*
X148937801Y-45467996D01*
X148939574Y-45469181D01*
X148939309Y-45469577D01*
X148985710Y-45518231D01*
X148999500Y-45575063D01*
X148999500Y-47347870D01*
X148999501Y-47347876D01*
X149005908Y-47407483D01*
X149056202Y-47542328D01*
X149056206Y-47542335D01*
X149142452Y-47657544D01*
X149142455Y-47657547D01*
X149257664Y-47743793D01*
X149257671Y-47743797D01*
X149302618Y-47760561D01*
X149392517Y-47794091D01*
X149452127Y-47800500D01*
X149627216Y-47800499D01*
X149694256Y-47820183D01*
X149702704Y-47826124D01*
X149886196Y-47966924D01*
X150113299Y-48098041D01*
X150113309Y-48098046D01*
X150355571Y-48198394D01*
X150355581Y-48198398D01*
X150608884Y-48266270D01*
X150868880Y-48300500D01*
X150868887Y-48300500D01*
X151131113Y-48300500D01*
X151131120Y-48300500D01*
X151391116Y-48266270D01*
X151644419Y-48198398D01*
X151886697Y-48098043D01*
X152113803Y-47966924D01*
X152297296Y-47826124D01*
X152362465Y-47800929D01*
X152372783Y-47800499D01*
X152547871Y-47800499D01*
X152547872Y-47800499D01*
X152607483Y-47794091D01*
X152742331Y-47743796D01*
X152857546Y-47657546D01*
X152943796Y-47542331D01*
X152994091Y-47407483D01*
X153000500Y-47347873D01*
X153000500Y-46398541D01*
X153000500Y-43668880D01*
X153000500Y-43662767D01*
X153000499Y-43662745D01*
X153000499Y-42752129D01*
X153000498Y-42752123D01*
X152994091Y-42692516D01*
X152943797Y-42557671D01*
X152943793Y-42557664D01*
X152857547Y-42442455D01*
X152857544Y-42442452D01*
X152742335Y-42356206D01*
X152742328Y-42356202D01*
X152607482Y-42305908D01*
X152607483Y-42305908D01*
X152547883Y-42299501D01*
X152547881Y-42299500D01*
X152547873Y-42299500D01*
X152547865Y-42299500D01*
X152372781Y-42299500D01*
X152305742Y-42279815D01*
X152297299Y-42273879D01*
X152246272Y-42234724D01*
X152113803Y-42133075D01*
X151886700Y-42001958D01*
X151886690Y-42001953D01*
X151644428Y-41901605D01*
X151644421Y-41901603D01*
X151644419Y-41901602D01*
X151391116Y-41833730D01*
X151333339Y-41826123D01*
X151131127Y-41799500D01*
X151131120Y-41799500D01*
X150929996Y-41799500D01*
X150862957Y-41779815D01*
X150842315Y-41763181D01*
X150121856Y-41042721D01*
X150121849Y-41042715D01*
X150004131Y-40952388D01*
X150004130Y-40952387D01*
X149913803Y-40883075D01*
X149686700Y-40751958D01*
X149686690Y-40751954D01*
X149444419Y-40651602D01*
X149191112Y-40583728D01*
X149061118Y-40566615D01*
X148931127Y-40549500D01*
X148931120Y-40549500D01*
X93318880Y-40549500D01*
X93318872Y-40549500D01*
X93188882Y-40566615D01*
X93188881Y-40566615D01*
X93058887Y-40583728D01*
X92805580Y-40651602D01*
X92563309Y-40751954D01*
X92563299Y-40751958D01*
X92336201Y-40883072D01*
X92286689Y-40921064D01*
X92245868Y-40952388D01*
X92128150Y-41042715D01*
X92128143Y-41042721D01*
X77492721Y-55678143D01*
X77492715Y-55678150D01*
X77402388Y-55795868D01*
X77371064Y-55836689D01*
X77333072Y-55886201D01*
X77201958Y-56113299D01*
X77201954Y-56113309D01*
X77101602Y-56355580D01*
X77033728Y-56608887D01*
X77016615Y-56738881D01*
X77016615Y-56738882D01*
X76999500Y-56868872D01*
X73000500Y-56868872D01*
X73000500Y-37865186D01*
X76099500Y-37865186D01*
X76099500Y-38134813D01*
X76129686Y-38402719D01*
X76129688Y-38402731D01*
X76189684Y-38665594D01*
X76189687Y-38665602D01*
X76278734Y-38920082D01*
X76395714Y-39162994D01*
X76395716Y-39162997D01*
X76539162Y-39391289D01*
X76707266Y-39602085D01*
X76897915Y-39792734D01*
X77108711Y-39960838D01*
X77337003Y-40104284D01*
X77579921Y-40221267D01*
X77771049Y-40288145D01*
X77834397Y-40310312D01*
X77834405Y-40310315D01*
X77834408Y-40310315D01*
X77834409Y-40310316D01*
X78097268Y-40370312D01*
X78365187Y-40400499D01*
X78365188Y-40400500D01*
X78365191Y-40400500D01*
X78634812Y-40400500D01*
X78634812Y-40400499D01*
X78902732Y-40370312D01*
X79165591Y-40310316D01*
X79420079Y-40221267D01*
X79662997Y-40104284D01*
X79891289Y-39960838D01*
X80102085Y-39792734D01*
X80292734Y-39602085D01*
X80460838Y-39391289D01*
X80604284Y-39162997D01*
X80721267Y-38920079D01*
X80810316Y-38665591D01*
X80870312Y-38402732D01*
X80900500Y-38134809D01*
X80900500Y-37865191D01*
X80900499Y-37865186D01*
X174099500Y-37865186D01*
X174099500Y-38134813D01*
X174129686Y-38402719D01*
X174129688Y-38402731D01*
X174189684Y-38665594D01*
X174189687Y-38665602D01*
X174278734Y-38920082D01*
X174395714Y-39162994D01*
X174395716Y-39162997D01*
X174539162Y-39391289D01*
X174707266Y-39602085D01*
X174897915Y-39792734D01*
X175108711Y-39960838D01*
X175337003Y-40104284D01*
X175579921Y-40221267D01*
X175771049Y-40288145D01*
X175834397Y-40310312D01*
X175834405Y-40310315D01*
X175834408Y-40310315D01*
X175834409Y-40310316D01*
X176097268Y-40370312D01*
X176365187Y-40400499D01*
X176365188Y-40400500D01*
X176365191Y-40400500D01*
X176634812Y-40400500D01*
X176634812Y-40400499D01*
X176902732Y-40370312D01*
X177165591Y-40310316D01*
X177420079Y-40221267D01*
X177662997Y-40104284D01*
X177891289Y-39960838D01*
X178102085Y-39792734D01*
X178292734Y-39602085D01*
X178460838Y-39391289D01*
X178604284Y-39162997D01*
X178721267Y-38920079D01*
X178810316Y-38665591D01*
X178870312Y-38402732D01*
X178900500Y-38134809D01*
X178900500Y-37865191D01*
X178870312Y-37597268D01*
X178810316Y-37334409D01*
X178721267Y-37079921D01*
X178604284Y-36837003D01*
X178460838Y-36608711D01*
X178292734Y-36397915D01*
X178102085Y-36207266D01*
X177891289Y-36039162D01*
X177662997Y-35895716D01*
X177662994Y-35895714D01*
X177420082Y-35778734D01*
X177165602Y-35689687D01*
X177165594Y-35689684D01*
X176968446Y-35644687D01*
X176902732Y-35629688D01*
X176902728Y-35629687D01*
X176902719Y-35629686D01*
X176634813Y-35599500D01*
X176634809Y-35599500D01*
X176365191Y-35599500D01*
X176365186Y-35599500D01*
X176097280Y-35629686D01*
X176097268Y-35629688D01*
X175834405Y-35689684D01*
X175834397Y-35689687D01*
X175579917Y-35778734D01*
X175337005Y-35895714D01*
X175108712Y-36039161D01*
X174897915Y-36207265D01*
X174707265Y-36397915D01*
X174539161Y-36608712D01*
X174395714Y-36837005D01*
X174278734Y-37079917D01*
X174189687Y-37334397D01*
X174189684Y-37334405D01*
X174129688Y-37597268D01*
X174129686Y-37597280D01*
X174099500Y-37865186D01*
X80900499Y-37865186D01*
X80870312Y-37597268D01*
X80810316Y-37334409D01*
X80721267Y-37079921D01*
X80604284Y-36837003D01*
X80460838Y-36608711D01*
X80292734Y-36397915D01*
X80102085Y-36207266D01*
X79891289Y-36039162D01*
X79662997Y-35895716D01*
X79662994Y-35895714D01*
X79420082Y-35778734D01*
X79165602Y-35689687D01*
X79165594Y-35689684D01*
X78968446Y-35644687D01*
X78902732Y-35629688D01*
X78902728Y-35629687D01*
X78902719Y-35629686D01*
X78634813Y-35599500D01*
X78634809Y-35599500D01*
X78365191Y-35599500D01*
X78365186Y-35599500D01*
X78097280Y-35629686D01*
X78097268Y-35629688D01*
X77834405Y-35689684D01*
X77834397Y-35689687D01*
X77579917Y-35778734D01*
X77337005Y-35895714D01*
X77108712Y-36039161D01*
X76897915Y-36207265D01*
X76707265Y-36397915D01*
X76539161Y-36608712D01*
X76395714Y-36837005D01*
X76278734Y-37079917D01*
X76189687Y-37334397D01*
X76189684Y-37334405D01*
X76129688Y-37597268D01*
X76129686Y-37597280D01*
X76099500Y-37865186D01*
X73000500Y-37865186D01*
X73000500Y-32624500D01*
X73020185Y-32557461D01*
X73072989Y-32511706D01*
X73124500Y-32500500D01*
X181875500Y-32500500D01*
X181942539Y-32520185D01*
G37*
%TD.AperFunction*%
%TD*%
M02*
