%TF.GenerationSoftware,KiCad,Pcbnew,8.0.5*%
%TF.CreationDate,2024-11-10T22:18:10+02:00*%
%TF.ProjectId,LockBoard,4c6f636b-426f-4617-9264-2e6b69636164,rev?*%
%TF.SameCoordinates,Original*%
%TF.FileFunction,Drillmap*%
%TF.FilePolarity,Positive*%
%FSLAX45Y45*%
G04 Gerber Fmt 4.5, Leading zero omitted, Abs format (unit mm)*
G04 Created by KiCad (PCBNEW 8.0.5) date 2024-11-10 22:18:10*
%MOMM*%
%LPD*%
G01*
G04 APERTURE LIST*
%ADD10C,0.050000*%
%ADD11C,0.200000*%
%ADD12C,0.100000*%
%ADD13C,0.110000*%
%ADD14C,0.130000*%
%ADD15C,0.160000*%
G04 APERTURE END LIST*
D10*
X6250000Y-6400000D02*
X19250000Y-6400000D01*
X19250000Y-13900000D01*
X6250000Y-13900000D01*
X6250000Y-6400000D01*
D11*
D12*
X16250000Y-8498500D02*
X16325000Y-8573500D01*
X16325000Y-8498500D02*
X16250000Y-8573500D01*
X16250000Y-10048500D02*
X16325000Y-10123500D01*
X16325000Y-10048500D02*
X16250000Y-10123500D01*
X16377000Y-8498500D02*
X16452000Y-8573500D01*
X16452000Y-8498500D02*
X16377000Y-8573500D01*
X16377000Y-10048500D02*
X16452000Y-10123500D01*
X16452000Y-10048500D02*
X16377000Y-10123500D01*
X16504000Y-8498500D02*
X16579000Y-8573500D01*
X16579000Y-8498500D02*
X16504000Y-8573500D01*
X16504000Y-10048500D02*
X16579000Y-10123500D01*
X16579000Y-10048500D02*
X16504000Y-10123500D01*
X7753100Y-10050000D02*
G75*
G02*
X7676900Y-10050000I-38100J0D01*
G01*
X7676900Y-10050000D02*
G75*
G02*
X7753100Y-10050000I38100J0D01*
G01*
X8007100Y-10050000D02*
G75*
G02*
X7930900Y-10050000I-38100J0D01*
G01*
X7930900Y-10050000D02*
G75*
G02*
X8007100Y-10050000I38100J0D01*
G01*
X8261100Y-10050000D02*
G75*
G02*
X8184900Y-10050000I-38100J0D01*
G01*
X8184900Y-10050000D02*
G75*
G02*
X8261100Y-10050000I38100J0D01*
G01*
X8515100Y-10050000D02*
G75*
G02*
X8438900Y-10050000I-38100J0D01*
G01*
X8438900Y-10050000D02*
G75*
G02*
X8515100Y-10050000I38100J0D01*
G01*
X8769100Y-10050000D02*
G75*
G02*
X8692900Y-10050000I-38100J0D01*
G01*
X8692900Y-10050000D02*
G75*
G02*
X8769100Y-10050000I38100J0D01*
G01*
X9023100Y-10050000D02*
G75*
G02*
X8946900Y-10050000I-38100J0D01*
G01*
X8946900Y-10050000D02*
G75*
G02*
X9023100Y-10050000I38100J0D01*
G01*
X9619000Y-10010000D02*
X9619000Y-10090000D01*
X9579000Y-10050000D02*
X9659000Y-10050000D01*
X10381000Y-10010000D02*
X10381000Y-10090000D01*
X10341000Y-10050000D02*
X10421000Y-10050000D01*
X10400000Y-12906000D02*
X10400000Y-12986000D01*
X10360000Y-12946000D02*
X10440000Y-12946000D01*
X10400000Y-13156000D02*
X10400000Y-13236000D01*
X10360000Y-13196000D02*
X10440000Y-13196000D01*
X10425000Y-8979000D02*
X10425000Y-9059000D01*
X10385000Y-9019000D02*
X10465000Y-9019000D01*
X10425000Y-9741000D02*
X10425000Y-9821000D01*
X10385000Y-9781000D02*
X10465000Y-9781000D01*
X10900000Y-10991000D02*
X10900000Y-11071000D01*
X10860000Y-11031000D02*
X10940000Y-11031000D01*
X10900000Y-11753000D02*
X10900000Y-11833000D01*
X10860000Y-11793000D02*
X10940000Y-11793000D01*
X10973000Y-8979000D02*
X10973000Y-9059000D01*
X10933000Y-9019000D02*
X11013000Y-9019000D01*
X10973000Y-9741000D02*
X10973000Y-9821000D01*
X10933000Y-9781000D02*
X11013000Y-9781000D01*
X11227000Y-8979000D02*
X11227000Y-9059000D01*
X11187000Y-9019000D02*
X11267000Y-9019000D01*
X11227000Y-9741000D02*
X11227000Y-9821000D01*
X11187000Y-9781000D02*
X11267000Y-9781000D01*
X11481000Y-8979000D02*
X11481000Y-9059000D01*
X11441000Y-9019000D02*
X11521000Y-9019000D01*
X11481000Y-9741000D02*
X11481000Y-9821000D01*
X11441000Y-9781000D02*
X11521000Y-9781000D01*
X11532037Y-10991000D02*
X11532037Y-11071000D01*
X11492037Y-11031000D02*
X11572037Y-11031000D01*
X11532037Y-11753000D02*
X11532037Y-11833000D01*
X11492037Y-11793000D02*
X11572037Y-11793000D01*
X11735000Y-8979000D02*
X11735000Y-9059000D01*
X11695000Y-9019000D02*
X11775000Y-9019000D01*
X11735000Y-9741000D02*
X11735000Y-9821000D01*
X11695000Y-9781000D02*
X11775000Y-9781000D01*
X11989000Y-8979000D02*
X11989000Y-9059000D01*
X11949000Y-9019000D02*
X12029000Y-9019000D01*
X11989000Y-9741000D02*
X11989000Y-9821000D01*
X11949000Y-9781000D02*
X12029000Y-9781000D01*
X12000000Y-13025265D02*
X12000000Y-13105265D01*
X11960000Y-13065265D02*
X12040000Y-13065265D01*
X12000000Y-13275265D02*
X12000000Y-13355265D01*
X11960000Y-13315265D02*
X12040000Y-13315265D01*
X12164075Y-10991000D02*
X12164075Y-11071000D01*
X12124075Y-11031000D02*
X12204075Y-11031000D01*
X12164075Y-11753000D02*
X12164075Y-11833000D01*
X12124075Y-11793000D02*
X12204075Y-11793000D01*
X12243000Y-8979000D02*
X12243000Y-9059000D01*
X12203000Y-9019000D02*
X12283000Y-9019000D01*
X12243000Y-9741000D02*
X12243000Y-9821000D01*
X12203000Y-9781000D02*
X12283000Y-9781000D01*
X12497000Y-8979000D02*
X12497000Y-9059000D01*
X12457000Y-9019000D02*
X12537000Y-9019000D01*
X12497000Y-9741000D02*
X12497000Y-9821000D01*
X12457000Y-9781000D02*
X12537000Y-9781000D01*
X12675000Y-7235000D02*
X12675000Y-7315000D01*
X12635000Y-7275000D02*
X12715000Y-7275000D01*
X12675000Y-7997000D02*
X12675000Y-8077000D01*
X12635000Y-8037000D02*
X12715000Y-8037000D01*
X12751000Y-8979000D02*
X12751000Y-9059000D01*
X12711000Y-9019000D02*
X12791000Y-9019000D01*
X12751000Y-9741000D02*
X12751000Y-9821000D01*
X12711000Y-9781000D02*
X12791000Y-9781000D01*
X12849000Y-10748000D02*
X12849000Y-10828000D01*
X12809000Y-10788000D02*
X12889000Y-10788000D01*
X12849000Y-11248000D02*
X12849000Y-11328000D01*
X12809000Y-11288000D02*
X12889000Y-11288000D01*
X12850000Y-10310000D02*
X12850000Y-10390000D01*
X12810000Y-10350000D02*
X12890000Y-10350000D01*
X13005000Y-8979000D02*
X13005000Y-9059000D01*
X12965000Y-9019000D02*
X13045000Y-9019000D01*
X13005000Y-9741000D02*
X13005000Y-9821000D01*
X12965000Y-9781000D02*
X13045000Y-9781000D01*
X13259000Y-8979000D02*
X13259000Y-9059000D01*
X13219000Y-9019000D02*
X13299000Y-9019000D01*
X13259000Y-9741000D02*
X13259000Y-9821000D01*
X13219000Y-9781000D02*
X13299000Y-9781000D01*
X13338000Y-10310000D02*
X13338000Y-10390000D01*
X13298000Y-10350000D02*
X13378000Y-10350000D01*
X13349000Y-10748000D02*
X13349000Y-10828000D01*
X13309000Y-10788000D02*
X13389000Y-10788000D01*
X13349000Y-11248000D02*
X13349000Y-11328000D01*
X13309000Y-11288000D02*
X13389000Y-11288000D01*
X13513000Y-8979000D02*
X13513000Y-9059000D01*
X13473000Y-9019000D02*
X13553000Y-9019000D01*
X13513000Y-9741000D02*
X13513000Y-9821000D01*
X13473000Y-9781000D02*
X13553000Y-9781000D01*
X13767000Y-8979000D02*
X13767000Y-9059000D01*
X13727000Y-9019000D02*
X13807000Y-9019000D01*
X13767000Y-9741000D02*
X13767000Y-9821000D01*
X13727000Y-9781000D02*
X13807000Y-9781000D01*
X14021000Y-8979000D02*
X14021000Y-9059000D01*
X13981000Y-9019000D02*
X14061000Y-9019000D01*
X14021000Y-9741000D02*
X14021000Y-9821000D01*
X13981000Y-9781000D02*
X14061000Y-9781000D01*
X14250000Y-13164000D02*
X14250000Y-13244000D01*
X14210000Y-13204000D02*
X14290000Y-13204000D01*
X14250000Y-13414000D02*
X14250000Y-13494000D01*
X14210000Y-13454000D02*
X14290000Y-13454000D01*
X14275000Y-8979000D02*
X14275000Y-9059000D01*
X14235000Y-9019000D02*
X14315000Y-9019000D01*
X14275000Y-9741000D02*
X14275000Y-9821000D01*
X14235000Y-9781000D02*
X14315000Y-9781000D01*
X15900000Y-12906000D02*
X15900000Y-12986000D01*
X15860000Y-12946000D02*
X15940000Y-12946000D01*
X15900000Y-13156000D02*
X15900000Y-13236000D01*
X15860000Y-13196000D02*
X15940000Y-13196000D01*
X16416500Y-8829000D02*
X16416500Y-8909000D01*
X16376500Y-8869000D02*
X16456500Y-8869000D01*
X16416500Y-9591000D02*
X16416500Y-9671000D01*
X16376500Y-9631000D02*
X16456500Y-9631000D01*
X16849000Y-8910000D02*
X16849000Y-8990000D01*
X16809000Y-8950000D02*
X16889000Y-8950000D01*
X16849000Y-9164000D02*
X16849000Y-9244000D01*
X16809000Y-9204000D02*
X16889000Y-9204000D01*
X16852000Y-8360000D02*
X16852000Y-8440000D01*
X16812000Y-8400000D02*
X16892000Y-8400000D01*
X16852000Y-9715000D02*
X16852000Y-9795000D01*
X16812000Y-9755000D02*
X16892000Y-9755000D01*
X17611000Y-8910000D02*
X17611000Y-8990000D01*
X17571000Y-8950000D02*
X17651000Y-8950000D01*
X17611000Y-9164000D02*
X17611000Y-9244000D01*
X17571000Y-9204000D02*
X17651000Y-9204000D01*
X17614000Y-8360000D02*
X17614000Y-8440000D01*
X17574000Y-8400000D02*
X17654000Y-8400000D01*
X17614000Y-9715000D02*
X17614000Y-9795000D01*
X17574000Y-9755000D02*
X17654000Y-9755000D01*
X10931820Y-12094820D02*
X10931820Y-12031180D01*
X10868180Y-12031180D01*
X10868180Y-12094820D01*
X10931820Y-12094820D01*
X10931820Y-12348820D02*
X10931820Y-12285180D01*
X10868180Y-12285180D01*
X10868180Y-12348820D01*
X10931820Y-12348820D01*
X11563858Y-12094820D02*
X11563858Y-12031180D01*
X11500217Y-12031180D01*
X11500217Y-12094820D01*
X11563858Y-12094820D01*
X11563858Y-12348820D02*
X11563858Y-12285180D01*
X11500217Y-12285180D01*
X11500217Y-12348820D01*
X11563858Y-12348820D01*
X12195895Y-12094820D02*
X12195895Y-12031180D01*
X12132255Y-12031180D01*
X12132255Y-12094820D01*
X12195895Y-12094820D01*
X12195895Y-12348820D02*
X12195895Y-12285180D01*
X12132255Y-12285180D01*
X12132255Y-12348820D01*
X12195895Y-12348820D01*
X10700000Y-7747500D02*
X10747500Y-7700000D01*
X10700000Y-7652500D01*
X10652500Y-7700000D01*
X10700000Y-7747500D01*
X10950000Y-7747500D02*
X10997500Y-7700000D01*
X10950000Y-7652500D01*
X10902500Y-7700000D01*
X10950000Y-7747500D01*
X11200000Y-7747500D02*
X11247500Y-7700000D01*
X11200000Y-7652500D01*
X11152500Y-7700000D01*
X11200000Y-7747500D01*
X11450000Y-7747500D02*
X11497500Y-7700000D01*
X11450000Y-7652500D01*
X11402500Y-7700000D01*
X11450000Y-7747500D01*
X11700000Y-7747500D02*
X11747500Y-7700000D01*
X11700000Y-7652500D01*
X11652500Y-7700000D01*
X11700000Y-7747500D01*
X11950000Y-7747500D02*
X11997500Y-7700000D01*
X11950000Y-7652500D01*
X11902500Y-7700000D01*
X11950000Y-7747500D01*
X12200000Y-7747500D02*
X12247500Y-7700000D01*
X12200000Y-7652500D01*
X12152500Y-7700000D01*
X12200000Y-7747500D01*
X13150000Y-7747500D02*
X13197500Y-7700000D01*
X13150000Y-7652500D01*
X13102500Y-7700000D01*
X13150000Y-7747500D01*
X13400000Y-7747500D02*
X13447500Y-7700000D01*
X13400000Y-7652500D01*
X13352500Y-7700000D01*
X13400000Y-7747500D01*
X13650000Y-7747500D02*
X13697500Y-7700000D01*
X13650000Y-7652500D01*
X13602500Y-7700000D01*
X13650000Y-7747500D01*
X13900000Y-7747500D02*
X13947500Y-7700000D01*
X13900000Y-7652500D01*
X13852500Y-7700000D01*
X13900000Y-7747500D01*
X14150000Y-7747500D02*
X14197500Y-7700000D01*
X14150000Y-7652500D01*
X14102500Y-7700000D01*
X14150000Y-7747500D01*
X14400000Y-7747500D02*
X14447500Y-7700000D01*
X14400000Y-7652500D01*
X14352500Y-7700000D01*
X14400000Y-7747500D01*
X14650000Y-7747500D02*
X14697500Y-7700000D01*
X14650000Y-7652500D01*
X14602500Y-7700000D01*
X14650000Y-7747500D01*
X14900000Y-7747500D02*
X14947500Y-7700000D01*
X14900000Y-7652500D01*
X14852500Y-7700000D01*
X14900000Y-7747500D01*
X7503000Y-7126000D02*
X7603000Y-7226000D01*
X7603000Y-7126000D02*
X7503000Y-7226000D01*
X7603000Y-7176000D02*
G75*
G02*
X7503000Y-7176000I-50000J0D01*
G01*
X7503000Y-7176000D02*
G75*
G02*
X7603000Y-7176000I50000J0D01*
G01*
X7503000Y-7380000D02*
X7603000Y-7480000D01*
X7603000Y-7380000D02*
X7503000Y-7480000D01*
X7603000Y-7430000D02*
G75*
G02*
X7503000Y-7430000I-50000J0D01*
G01*
X7503000Y-7430000D02*
G75*
G02*
X7603000Y-7430000I50000J0D01*
G01*
X7503000Y-7634000D02*
X7603000Y-7734000D01*
X7603000Y-7634000D02*
X7503000Y-7734000D01*
X7603000Y-7684000D02*
G75*
G02*
X7503000Y-7684000I-50000J0D01*
G01*
X7503000Y-7684000D02*
G75*
G02*
X7603000Y-7684000I50000J0D01*
G01*
X7503000Y-7888000D02*
X7603000Y-7988000D01*
X7603000Y-7888000D02*
X7503000Y-7988000D01*
X7603000Y-7938000D02*
G75*
G02*
X7503000Y-7938000I-50000J0D01*
G01*
X7503000Y-7938000D02*
G75*
G02*
X7603000Y-7938000I50000J0D01*
G01*
X7503000Y-8142000D02*
X7603000Y-8242000D01*
X7603000Y-8142000D02*
X7503000Y-8242000D01*
X7603000Y-8192000D02*
G75*
G02*
X7503000Y-8192000I-50000J0D01*
G01*
X7503000Y-8192000D02*
G75*
G02*
X7603000Y-8192000I50000J0D01*
G01*
X7503000Y-8396000D02*
X7603000Y-8496000D01*
X7603000Y-8396000D02*
X7503000Y-8496000D01*
X7603000Y-8446000D02*
G75*
G02*
X7503000Y-8446000I-50000J0D01*
G01*
X7503000Y-8446000D02*
G75*
G02*
X7603000Y-8446000I50000J0D01*
G01*
X7503000Y-8650000D02*
X7603000Y-8750000D01*
X7603000Y-8650000D02*
X7503000Y-8750000D01*
X7603000Y-8700000D02*
G75*
G02*
X7503000Y-8700000I-50000J0D01*
G01*
X7503000Y-8700000D02*
G75*
G02*
X7603000Y-8700000I50000J0D01*
G01*
X9893000Y-7634000D02*
X9993000Y-7734000D01*
X9993000Y-7634000D02*
X9893000Y-7734000D01*
X9993000Y-7684000D02*
G75*
G02*
X9893000Y-7684000I-50000J0D01*
G01*
X9893000Y-7684000D02*
G75*
G02*
X9993000Y-7684000I50000J0D01*
G01*
X9893000Y-7888000D02*
X9993000Y-7988000D01*
X9993000Y-7888000D02*
X9893000Y-7988000D01*
X9993000Y-7938000D02*
G75*
G02*
X9893000Y-7938000I-50000J0D01*
G01*
X9893000Y-7938000D02*
G75*
G02*
X9993000Y-7938000I50000J0D01*
G01*
X9893000Y-8142000D02*
X9993000Y-8242000D01*
X9993000Y-8142000D02*
X9893000Y-8242000D01*
X9993000Y-8192000D02*
G75*
G02*
X9893000Y-8192000I-50000J0D01*
G01*
X9893000Y-8192000D02*
G75*
G02*
X9993000Y-8192000I50000J0D01*
G01*
X9893000Y-8396000D02*
X9993000Y-8496000D01*
X9993000Y-8396000D02*
X9893000Y-8496000D01*
X9993000Y-8446000D02*
G75*
G02*
X9893000Y-8446000I-50000J0D01*
G01*
X9893000Y-8446000D02*
G75*
G02*
X9993000Y-8446000I50000J0D01*
G01*
X9893000Y-8650000D02*
X9993000Y-8750000D01*
X9993000Y-8650000D02*
X9893000Y-8750000D01*
X9993000Y-8700000D02*
G75*
G02*
X9893000Y-8700000I-50000J0D01*
G01*
X9893000Y-8700000D02*
G75*
G02*
X9993000Y-8700000I50000J0D01*
G01*
X13000000Y-12450000D02*
X13100000Y-12550000D01*
X13100000Y-12450000D02*
X13000000Y-12550000D01*
X13100000Y-12500000D02*
G75*
G02*
X13000000Y-12500000I-50000J0D01*
G01*
X13000000Y-12500000D02*
G75*
G02*
X13100000Y-12500000I50000J0D01*
G01*
X12950000Y-12550000D02*
X13150000Y-12550000D01*
X13150000Y-12450000D02*
G75*
G02*
X13150000Y-12550000I0J-50000D01*
G01*
X13150000Y-12450000D02*
X12950000Y-12450000D01*
X12950000Y-12450000D02*
G75*
G03*
X12950000Y-12550000I0J-50000D01*
G01*
X13000000Y-13050000D02*
X13100000Y-13150000D01*
X13100000Y-13050000D02*
X13000000Y-13150000D01*
X13100000Y-13100000D02*
G75*
G02*
X13000000Y-13100000I-50000J0D01*
G01*
X13000000Y-13100000D02*
G75*
G02*
X13100000Y-13100000I50000J0D01*
G01*
X12950000Y-13150000D02*
X13150000Y-13150000D01*
X13150000Y-13050000D02*
G75*
G02*
X13150000Y-13150000I0J-50000D01*
G01*
X13150000Y-13050000D02*
X12950000Y-13050000D01*
X12950000Y-13050000D02*
G75*
G03*
X12950000Y-13150000I0J-50000D01*
G01*
X13470000Y-12750000D02*
X13570000Y-12850000D01*
X13570000Y-12750000D02*
X13470000Y-12850000D01*
X13570000Y-12800000D02*
G75*
G02*
X13470000Y-12800000I-50000J0D01*
G01*
X13470000Y-12800000D02*
G75*
G02*
X13570000Y-12800000I50000J0D01*
G01*
X13570000Y-12900000D02*
X13570000Y-12700000D01*
X13470000Y-12700000D02*
G75*
G02*
X13570000Y-12700000I50000J0D01*
G01*
X13470000Y-12700000D02*
X13470000Y-12900000D01*
X13470000Y-12900000D02*
G75*
G03*
X13570000Y-12900000I50000J0D01*
G01*
X15250000Y-8850000D02*
X15350000Y-8950000D01*
X15350000Y-8850000D02*
X15250000Y-8950000D01*
X15350000Y-8900000D02*
G75*
G02*
X15250000Y-8900000I-50000J0D01*
G01*
X15250000Y-8900000D02*
G75*
G02*
X15350000Y-8900000I50000J0D01*
G01*
X15250000Y-9104000D02*
X15350000Y-9204000D01*
X15350000Y-9104000D02*
X15250000Y-9204000D01*
X15350000Y-9154000D02*
G75*
G02*
X15250000Y-9154000I-50000J0D01*
G01*
X15250000Y-9154000D02*
G75*
G02*
X15350000Y-9154000I50000J0D01*
G01*
X15250000Y-9358000D02*
X15350000Y-9458000D01*
X15350000Y-9358000D02*
X15250000Y-9458000D01*
X15350000Y-9408000D02*
G75*
G02*
X15250000Y-9408000I-50000J0D01*
G01*
X15250000Y-9408000D02*
G75*
G02*
X15350000Y-9408000I50000J0D01*
G01*
X15250000Y-9612000D02*
X15350000Y-9712000D01*
X15350000Y-9612000D02*
X15250000Y-9712000D01*
X15350000Y-9662000D02*
G75*
G02*
X15250000Y-9662000I-50000J0D01*
G01*
X15250000Y-9662000D02*
G75*
G02*
X15350000Y-9662000I50000J0D01*
G01*
X15250000Y-9866000D02*
X15350000Y-9966000D01*
X15350000Y-9866000D02*
X15250000Y-9966000D01*
X15350000Y-9916000D02*
G75*
G02*
X15250000Y-9916000I-50000J0D01*
G01*
X15250000Y-9916000D02*
G75*
G02*
X15350000Y-9916000I50000J0D01*
G01*
X15504000Y-8850000D02*
X15604000Y-8950000D01*
X15604000Y-8850000D02*
X15504000Y-8950000D01*
X15604000Y-8900000D02*
G75*
G02*
X15504000Y-8900000I-50000J0D01*
G01*
X15504000Y-8900000D02*
G75*
G02*
X15604000Y-8900000I50000J0D01*
G01*
X15504000Y-9104000D02*
X15604000Y-9204000D01*
X15604000Y-9104000D02*
X15504000Y-9204000D01*
X15604000Y-9154000D02*
G75*
G02*
X15504000Y-9154000I-50000J0D01*
G01*
X15504000Y-9154000D02*
G75*
G02*
X15604000Y-9154000I50000J0D01*
G01*
X15504000Y-9358000D02*
X15604000Y-9458000D01*
X15604000Y-9358000D02*
X15504000Y-9458000D01*
X15604000Y-9408000D02*
G75*
G02*
X15504000Y-9408000I-50000J0D01*
G01*
X15504000Y-9408000D02*
G75*
G02*
X15604000Y-9408000I50000J0D01*
G01*
X15504000Y-9612000D02*
X15604000Y-9712000D01*
X15604000Y-9612000D02*
X15504000Y-9712000D01*
X15604000Y-9662000D02*
G75*
G02*
X15504000Y-9662000I-50000J0D01*
G01*
X15504000Y-9662000D02*
G75*
G02*
X15604000Y-9662000I50000J0D01*
G01*
X15504000Y-9866000D02*
X15604000Y-9966000D01*
X15604000Y-9866000D02*
X15504000Y-9966000D01*
X15604000Y-9916000D02*
G75*
G02*
X15504000Y-9916000I-50000J0D01*
G01*
X15504000Y-9916000D02*
G75*
G02*
X15604000Y-9916000I50000J0D01*
G01*
X16650000Y-7020000D02*
X16750000Y-7120000D01*
X16750000Y-7020000D02*
X16650000Y-7120000D01*
X16750000Y-7070000D02*
G75*
G02*
X16650000Y-7070000I-50000J0D01*
G01*
X16650000Y-7070000D02*
G75*
G02*
X16750000Y-7070000I50000J0D01*
G01*
X16650000Y-7780000D02*
X16750000Y-7880000D01*
X16750000Y-7780000D02*
X16650000Y-7880000D01*
X16750000Y-7830000D02*
G75*
G02*
X16650000Y-7830000I-50000J0D01*
G01*
X16650000Y-7830000D02*
G75*
G02*
X16750000Y-7830000I50000J0D01*
G01*
D13*
X9620000Y-10320000D02*
X9730000Y-10430000D01*
X9730000Y-10320000D02*
X9620000Y-10430000D01*
X9675000Y-10320000D02*
X9675000Y-10430000D01*
X9620000Y-10375000D02*
X9730000Y-10375000D01*
X9620000Y-10970000D02*
X9730000Y-11080000D01*
X9730000Y-10970000D02*
X9620000Y-11080000D01*
X9675000Y-10970000D02*
X9675000Y-11080000D01*
X9620000Y-11025000D02*
X9730000Y-11025000D01*
X10070000Y-10320000D02*
X10180000Y-10430000D01*
X10180000Y-10320000D02*
X10070000Y-10430000D01*
X10125000Y-10320000D02*
X10125000Y-10430000D01*
X10070000Y-10375000D02*
X10180000Y-10375000D01*
X10070000Y-10970000D02*
X10180000Y-11080000D01*
X10180000Y-10970000D02*
X10070000Y-11080000D01*
X10125000Y-10970000D02*
X10125000Y-11080000D01*
X10070000Y-11025000D02*
X10180000Y-11025000D01*
X10845000Y-12891000D02*
X10955000Y-13001000D01*
X10955000Y-12891000D02*
X10845000Y-13001000D01*
X10900000Y-12891000D02*
X10900000Y-13001000D01*
X10845000Y-12946000D02*
X10955000Y-12946000D01*
X10845000Y-13145000D02*
X10955000Y-13255000D01*
X10955000Y-13145000D02*
X10845000Y-13255000D01*
X10900000Y-13145000D02*
X10900000Y-13255000D01*
X10845000Y-13200000D02*
X10955000Y-13200000D01*
X10845000Y-13399000D02*
X10955000Y-13509000D01*
X10955000Y-13399000D02*
X10845000Y-13509000D01*
X10900000Y-13399000D02*
X10900000Y-13509000D01*
X10845000Y-13454000D02*
X10955000Y-13454000D01*
X15245000Y-12891000D02*
X15355000Y-13001000D01*
X15355000Y-12891000D02*
X15245000Y-13001000D01*
X15300000Y-12891000D02*
X15300000Y-13001000D01*
X15245000Y-12946000D02*
X15355000Y-12946000D01*
X15245000Y-13145000D02*
X15355000Y-13255000D01*
X15355000Y-13145000D02*
X15245000Y-13255000D01*
X15300000Y-13145000D02*
X15300000Y-13255000D01*
X15245000Y-13200000D02*
X15355000Y-13200000D01*
X15245000Y-13399000D02*
X15355000Y-13509000D01*
X15355000Y-13399000D02*
X15245000Y-13509000D01*
X15300000Y-13399000D02*
X15300000Y-13509000D01*
X15245000Y-13454000D02*
X15355000Y-13454000D01*
X15618000Y-7015000D02*
X15728000Y-7125000D01*
X15728000Y-7015000D02*
X15618000Y-7125000D01*
X15673000Y-7015000D02*
X15673000Y-7125000D01*
X15618000Y-7070000D02*
X15728000Y-7070000D01*
X15618000Y-8031000D02*
X15728000Y-8141000D01*
X15728000Y-8031000D02*
X15618000Y-8141000D01*
X15673000Y-8031000D02*
X15673000Y-8141000D01*
X15618000Y-8086000D02*
X15728000Y-8086000D01*
X16395000Y-10537000D02*
X16505000Y-10647000D01*
X16505000Y-10537000D02*
X16395000Y-10647000D01*
X16450000Y-10537000D02*
X16450000Y-10647000D01*
X16395000Y-10592000D02*
X16505000Y-10592000D01*
X16395000Y-11553000D02*
X16505000Y-11663000D01*
X16505000Y-11553000D02*
X16395000Y-11663000D01*
X16450000Y-11553000D02*
X16450000Y-11663000D01*
X16395000Y-11608000D02*
X16505000Y-11608000D01*
D14*
X14385000Y-10885000D02*
X14515000Y-11015000D01*
X14515000Y-10885000D02*
X14385000Y-11015000D01*
X14495962Y-10995962D02*
X14495962Y-10904038D01*
X14404038Y-10904038D01*
X14404038Y-10995962D01*
X14495962Y-10995962D01*
X14385000Y-12085000D02*
X14515000Y-12215000D01*
X14515000Y-12085000D02*
X14385000Y-12215000D01*
X14495962Y-12195962D02*
X14495962Y-12104038D01*
X14404038Y-12104038D01*
X14404038Y-12195962D01*
X14495962Y-12195962D01*
X15605000Y-10885000D02*
X15735000Y-11015000D01*
X15735000Y-10885000D02*
X15605000Y-11015000D01*
X15715962Y-10995962D02*
X15715962Y-10904038D01*
X15624038Y-10904038D01*
X15624038Y-10995962D01*
X15715962Y-10995962D01*
X15605000Y-12085000D02*
X15735000Y-12215000D01*
X15735000Y-12085000D02*
X15605000Y-12215000D01*
X15715962Y-12195962D02*
X15715962Y-12104038D01*
X15624038Y-12104038D01*
X15624038Y-12195962D01*
X15715962Y-12195962D01*
X15805000Y-11485000D02*
X15935000Y-11615000D01*
X15935000Y-11485000D02*
X15805000Y-11615000D01*
X15915962Y-11595962D02*
X15915962Y-11504038D01*
X15824038Y-11504038D01*
X15824038Y-11595962D01*
X15915962Y-11595962D01*
X18390500Y-8085000D02*
X18520500Y-8215000D01*
X18520500Y-8085000D02*
X18390500Y-8215000D01*
X18501462Y-8195962D02*
X18501462Y-8104038D01*
X18409538Y-8104038D01*
X18409538Y-8195962D01*
X18501462Y-8195962D01*
X18390500Y-8585000D02*
X18520500Y-8715000D01*
X18520500Y-8585000D02*
X18390500Y-8715000D01*
X18501462Y-8695962D02*
X18501462Y-8604038D01*
X18409538Y-8604038D01*
X18409538Y-8695962D01*
X18501462Y-8695962D01*
X18390500Y-9301667D02*
X18520500Y-9431667D01*
X18520500Y-9301667D02*
X18390500Y-9431667D01*
X18501462Y-9412629D02*
X18501462Y-9320704D01*
X18409538Y-9320704D01*
X18409538Y-9412629D01*
X18501462Y-9412629D01*
X18390500Y-9801667D02*
X18520500Y-9931667D01*
X18520500Y-9801667D02*
X18390500Y-9931667D01*
X18501462Y-9912629D02*
X18501462Y-9820704D01*
X18409538Y-9820704D01*
X18409538Y-9912629D01*
X18501462Y-9912629D01*
X18390500Y-10518333D02*
X18520500Y-10648333D01*
X18520500Y-10518333D02*
X18390500Y-10648333D01*
X18501462Y-10629296D02*
X18501462Y-10537371D01*
X18409538Y-10537371D01*
X18409538Y-10629296D01*
X18501462Y-10629296D01*
X18390500Y-11018333D02*
X18520500Y-11148333D01*
X18520500Y-11018333D02*
X18390500Y-11148333D01*
X18501462Y-11129296D02*
X18501462Y-11037371D01*
X18409538Y-11037371D01*
X18409538Y-11129296D01*
X18501462Y-11129296D01*
X18390500Y-11735000D02*
X18520500Y-11865000D01*
X18520500Y-11735000D02*
X18390500Y-11865000D01*
X18501462Y-11845962D02*
X18501462Y-11754038D01*
X18409538Y-11754038D01*
X18409538Y-11845962D01*
X18501462Y-11845962D01*
X18390500Y-12235000D02*
X18520500Y-12365000D01*
X18520500Y-12235000D02*
X18390500Y-12365000D01*
X18501462Y-12345962D02*
X18501462Y-12254038D01*
X18409538Y-12254038D01*
X18409538Y-12345962D01*
X18501462Y-12345962D01*
D15*
X9705925Y-11758000D02*
X9865925Y-11918000D01*
X9865925Y-11758000D02*
X9705925Y-11918000D01*
X9785925Y-11918000D02*
X9865925Y-11838000D01*
X9785925Y-11758000D01*
X9705925Y-11838000D01*
X9785925Y-11918000D01*
X9705925Y-13282000D02*
X9865925Y-13442000D01*
X9865925Y-13282000D02*
X9705925Y-13442000D01*
X9785925Y-13442000D02*
X9865925Y-13362000D01*
X9785925Y-13282000D01*
X9705925Y-13362000D01*
X9785925Y-13442000D01*
X16470000Y-12035000D02*
X16630000Y-12195000D01*
X16630000Y-12035000D02*
X16470000Y-12195000D01*
X16550000Y-12195000D02*
X16630000Y-12115000D01*
X16550000Y-12035000D01*
X16470000Y-12115000D01*
X16550000Y-12195000D01*
X16470000Y-13559000D02*
X16630000Y-13719000D01*
X16630000Y-13559000D02*
X16470000Y-13719000D01*
X16550000Y-13719000D02*
X16630000Y-13639000D01*
X16550000Y-13559000D01*
X16470000Y-13639000D01*
X16550000Y-13719000D01*
D11*
X6508277Y-14213984D02*
X6508277Y-14013984D01*
X6508277Y-14013984D02*
X6555896Y-14013984D01*
X6555896Y-14013984D02*
X6584467Y-14023508D01*
X6584467Y-14023508D02*
X6603515Y-14042555D01*
X6603515Y-14042555D02*
X6613039Y-14061603D01*
X6613039Y-14061603D02*
X6622562Y-14099698D01*
X6622562Y-14099698D02*
X6622562Y-14128269D01*
X6622562Y-14128269D02*
X6613039Y-14166365D01*
X6613039Y-14166365D02*
X6603515Y-14185412D01*
X6603515Y-14185412D02*
X6584467Y-14204460D01*
X6584467Y-14204460D02*
X6555896Y-14213984D01*
X6555896Y-14213984D02*
X6508277Y-14213984D01*
X6708277Y-14213984D02*
X6708277Y-14080650D01*
X6708277Y-14118746D02*
X6717801Y-14099698D01*
X6717801Y-14099698D02*
X6727324Y-14090174D01*
X6727324Y-14090174D02*
X6746372Y-14080650D01*
X6746372Y-14080650D02*
X6765420Y-14080650D01*
X6832086Y-14213984D02*
X6832086Y-14080650D01*
X6832086Y-14013984D02*
X6822562Y-14023508D01*
X6822562Y-14023508D02*
X6832086Y-14033031D01*
X6832086Y-14033031D02*
X6841610Y-14023508D01*
X6841610Y-14023508D02*
X6832086Y-14013984D01*
X6832086Y-14013984D02*
X6832086Y-14033031D01*
X6955896Y-14213984D02*
X6936848Y-14204460D01*
X6936848Y-14204460D02*
X6927324Y-14185412D01*
X6927324Y-14185412D02*
X6927324Y-14013984D01*
X7060658Y-14213984D02*
X7041610Y-14204460D01*
X7041610Y-14204460D02*
X7032086Y-14185412D01*
X7032086Y-14185412D02*
X7032086Y-14013984D01*
X7289229Y-14213984D02*
X7289229Y-14013984D01*
X7289229Y-14013984D02*
X7355896Y-14156841D01*
X7355896Y-14156841D02*
X7422562Y-14013984D01*
X7422562Y-14013984D02*
X7422562Y-14213984D01*
X7603515Y-14213984D02*
X7603515Y-14109222D01*
X7603515Y-14109222D02*
X7593991Y-14090174D01*
X7593991Y-14090174D02*
X7574943Y-14080650D01*
X7574943Y-14080650D02*
X7536848Y-14080650D01*
X7536848Y-14080650D02*
X7517801Y-14090174D01*
X7603515Y-14204460D02*
X7584467Y-14213984D01*
X7584467Y-14213984D02*
X7536848Y-14213984D01*
X7536848Y-14213984D02*
X7517801Y-14204460D01*
X7517801Y-14204460D02*
X7508277Y-14185412D01*
X7508277Y-14185412D02*
X7508277Y-14166365D01*
X7508277Y-14166365D02*
X7517801Y-14147317D01*
X7517801Y-14147317D02*
X7536848Y-14137793D01*
X7536848Y-14137793D02*
X7584467Y-14137793D01*
X7584467Y-14137793D02*
X7603515Y-14128269D01*
X7698753Y-14080650D02*
X7698753Y-14280650D01*
X7698753Y-14090174D02*
X7717801Y-14080650D01*
X7717801Y-14080650D02*
X7755896Y-14080650D01*
X7755896Y-14080650D02*
X7774943Y-14090174D01*
X7774943Y-14090174D02*
X7784467Y-14099698D01*
X7784467Y-14099698D02*
X7793991Y-14118746D01*
X7793991Y-14118746D02*
X7793991Y-14175888D01*
X7793991Y-14175888D02*
X7784467Y-14194936D01*
X7784467Y-14194936D02*
X7774943Y-14204460D01*
X7774943Y-14204460D02*
X7755896Y-14213984D01*
X7755896Y-14213984D02*
X7717801Y-14213984D01*
X7717801Y-14213984D02*
X7698753Y-14204460D01*
X7879705Y-14194936D02*
X7889229Y-14204460D01*
X7889229Y-14204460D02*
X7879705Y-14213984D01*
X7879705Y-14213984D02*
X7870182Y-14204460D01*
X7870182Y-14204460D02*
X7879705Y-14194936D01*
X7879705Y-14194936D02*
X7879705Y-14213984D01*
X7879705Y-14090174D02*
X7889229Y-14099698D01*
X7889229Y-14099698D02*
X7879705Y-14109222D01*
X7879705Y-14109222D02*
X7870182Y-14099698D01*
X7870182Y-14099698D02*
X7879705Y-14090174D01*
X7879705Y-14090174D02*
X7879705Y-14109222D01*
D12*
X6172500Y-14505000D02*
X6247500Y-14580000D01*
X6247500Y-14505000D02*
X6172500Y-14580000D01*
D11*
X6546372Y-14433984D02*
X6565420Y-14433984D01*
X6565420Y-14433984D02*
X6584467Y-14443508D01*
X6584467Y-14443508D02*
X6593991Y-14453031D01*
X6593991Y-14453031D02*
X6603515Y-14472079D01*
X6603515Y-14472079D02*
X6613039Y-14510174D01*
X6613039Y-14510174D02*
X6613039Y-14557793D01*
X6613039Y-14557793D02*
X6603515Y-14595888D01*
X6603515Y-14595888D02*
X6593991Y-14614936D01*
X6593991Y-14614936D02*
X6584467Y-14624460D01*
X6584467Y-14624460D02*
X6565420Y-14633984D01*
X6565420Y-14633984D02*
X6546372Y-14633984D01*
X6546372Y-14633984D02*
X6527324Y-14624460D01*
X6527324Y-14624460D02*
X6517801Y-14614936D01*
X6517801Y-14614936D02*
X6508277Y-14595888D01*
X6508277Y-14595888D02*
X6498753Y-14557793D01*
X6498753Y-14557793D02*
X6498753Y-14510174D01*
X6498753Y-14510174D02*
X6508277Y-14472079D01*
X6508277Y-14472079D02*
X6517801Y-14453031D01*
X6517801Y-14453031D02*
X6527324Y-14443508D01*
X6527324Y-14443508D02*
X6546372Y-14433984D01*
X6698753Y-14614936D02*
X6708277Y-14624460D01*
X6708277Y-14624460D02*
X6698753Y-14633984D01*
X6698753Y-14633984D02*
X6689229Y-14624460D01*
X6689229Y-14624460D02*
X6698753Y-14614936D01*
X6698753Y-14614936D02*
X6698753Y-14633984D01*
X6774943Y-14433984D02*
X6908277Y-14433984D01*
X6908277Y-14433984D02*
X6822562Y-14633984D01*
X7079705Y-14433984D02*
X6984467Y-14433984D01*
X6984467Y-14433984D02*
X6974943Y-14529222D01*
X6974943Y-14529222D02*
X6984467Y-14519698D01*
X6984467Y-14519698D02*
X7003515Y-14510174D01*
X7003515Y-14510174D02*
X7051134Y-14510174D01*
X7051134Y-14510174D02*
X7070182Y-14519698D01*
X7070182Y-14519698D02*
X7079705Y-14529222D01*
X7079705Y-14529222D02*
X7089229Y-14548269D01*
X7089229Y-14548269D02*
X7089229Y-14595888D01*
X7089229Y-14595888D02*
X7079705Y-14614936D01*
X7079705Y-14614936D02*
X7070182Y-14624460D01*
X7070182Y-14624460D02*
X7051134Y-14633984D01*
X7051134Y-14633984D02*
X7003515Y-14633984D01*
X7003515Y-14633984D02*
X6984467Y-14624460D01*
X6984467Y-14624460D02*
X6974943Y-14614936D01*
X7213039Y-14433984D02*
X7232086Y-14433984D01*
X7232086Y-14433984D02*
X7251134Y-14443508D01*
X7251134Y-14443508D02*
X7260658Y-14453031D01*
X7260658Y-14453031D02*
X7270182Y-14472079D01*
X7270182Y-14472079D02*
X7279705Y-14510174D01*
X7279705Y-14510174D02*
X7279705Y-14557793D01*
X7279705Y-14557793D02*
X7270182Y-14595888D01*
X7270182Y-14595888D02*
X7260658Y-14614936D01*
X7260658Y-14614936D02*
X7251134Y-14624460D01*
X7251134Y-14624460D02*
X7232086Y-14633984D01*
X7232086Y-14633984D02*
X7213039Y-14633984D01*
X7213039Y-14633984D02*
X7193991Y-14624460D01*
X7193991Y-14624460D02*
X7184467Y-14614936D01*
X7184467Y-14614936D02*
X7174943Y-14595888D01*
X7174943Y-14595888D02*
X7165420Y-14557793D01*
X7165420Y-14557793D02*
X7165420Y-14510174D01*
X7165420Y-14510174D02*
X7174943Y-14472079D01*
X7174943Y-14472079D02*
X7184467Y-14453031D01*
X7184467Y-14453031D02*
X7193991Y-14443508D01*
X7193991Y-14443508D02*
X7213039Y-14433984D01*
X7365420Y-14633984D02*
X7365420Y-14500650D01*
X7365420Y-14519698D02*
X7374943Y-14510174D01*
X7374943Y-14510174D02*
X7393991Y-14500650D01*
X7393991Y-14500650D02*
X7422563Y-14500650D01*
X7422563Y-14500650D02*
X7441610Y-14510174D01*
X7441610Y-14510174D02*
X7451134Y-14529222D01*
X7451134Y-14529222D02*
X7451134Y-14633984D01*
X7451134Y-14529222D02*
X7460658Y-14510174D01*
X7460658Y-14510174D02*
X7479705Y-14500650D01*
X7479705Y-14500650D02*
X7508277Y-14500650D01*
X7508277Y-14500650D02*
X7527324Y-14510174D01*
X7527324Y-14510174D02*
X7536848Y-14529222D01*
X7536848Y-14529222D02*
X7536848Y-14633984D01*
X7632086Y-14633984D02*
X7632086Y-14500650D01*
X7632086Y-14519698D02*
X7641610Y-14510174D01*
X7641610Y-14510174D02*
X7660658Y-14500650D01*
X7660658Y-14500650D02*
X7689229Y-14500650D01*
X7689229Y-14500650D02*
X7708277Y-14510174D01*
X7708277Y-14510174D02*
X7717801Y-14529222D01*
X7717801Y-14529222D02*
X7717801Y-14633984D01*
X7717801Y-14529222D02*
X7727324Y-14510174D01*
X7727324Y-14510174D02*
X7746372Y-14500650D01*
X7746372Y-14500650D02*
X7774943Y-14500650D01*
X7774943Y-14500650D02*
X7793991Y-14510174D01*
X7793991Y-14510174D02*
X7803515Y-14529222D01*
X7803515Y-14529222D02*
X7803515Y-14633984D01*
X8193991Y-14424460D02*
X8022563Y-14681603D01*
X8451134Y-14433984D02*
X8470182Y-14433984D01*
X8470182Y-14433984D02*
X8489229Y-14443508D01*
X8489229Y-14443508D02*
X8498753Y-14453031D01*
X8498753Y-14453031D02*
X8508277Y-14472079D01*
X8508277Y-14472079D02*
X8517801Y-14510174D01*
X8517801Y-14510174D02*
X8517801Y-14557793D01*
X8517801Y-14557793D02*
X8508277Y-14595888D01*
X8508277Y-14595888D02*
X8498753Y-14614936D01*
X8498753Y-14614936D02*
X8489229Y-14624460D01*
X8489229Y-14624460D02*
X8470182Y-14633984D01*
X8470182Y-14633984D02*
X8451134Y-14633984D01*
X8451134Y-14633984D02*
X8432087Y-14624460D01*
X8432087Y-14624460D02*
X8422563Y-14614936D01*
X8422563Y-14614936D02*
X8413039Y-14595888D01*
X8413039Y-14595888D02*
X8403515Y-14557793D01*
X8403515Y-14557793D02*
X8403515Y-14510174D01*
X8403515Y-14510174D02*
X8413039Y-14472079D01*
X8413039Y-14472079D02*
X8422563Y-14453031D01*
X8422563Y-14453031D02*
X8432087Y-14443508D01*
X8432087Y-14443508D02*
X8451134Y-14433984D01*
X8603515Y-14614936D02*
X8613039Y-14624460D01*
X8613039Y-14624460D02*
X8603515Y-14633984D01*
X8603515Y-14633984D02*
X8593991Y-14624460D01*
X8593991Y-14624460D02*
X8603515Y-14614936D01*
X8603515Y-14614936D02*
X8603515Y-14633984D01*
X8736848Y-14433984D02*
X8755896Y-14433984D01*
X8755896Y-14433984D02*
X8774944Y-14443508D01*
X8774944Y-14443508D02*
X8784468Y-14453031D01*
X8784468Y-14453031D02*
X8793991Y-14472079D01*
X8793991Y-14472079D02*
X8803515Y-14510174D01*
X8803515Y-14510174D02*
X8803515Y-14557793D01*
X8803515Y-14557793D02*
X8793991Y-14595888D01*
X8793991Y-14595888D02*
X8784468Y-14614936D01*
X8784468Y-14614936D02*
X8774944Y-14624460D01*
X8774944Y-14624460D02*
X8755896Y-14633984D01*
X8755896Y-14633984D02*
X8736848Y-14633984D01*
X8736848Y-14633984D02*
X8717801Y-14624460D01*
X8717801Y-14624460D02*
X8708277Y-14614936D01*
X8708277Y-14614936D02*
X8698753Y-14595888D01*
X8698753Y-14595888D02*
X8689229Y-14557793D01*
X8689229Y-14557793D02*
X8689229Y-14510174D01*
X8689229Y-14510174D02*
X8698753Y-14472079D01*
X8698753Y-14472079D02*
X8708277Y-14453031D01*
X8708277Y-14453031D02*
X8717801Y-14443508D01*
X8717801Y-14443508D02*
X8736848Y-14433984D01*
X8879706Y-14453031D02*
X8889229Y-14443508D01*
X8889229Y-14443508D02*
X8908277Y-14433984D01*
X8908277Y-14433984D02*
X8955896Y-14433984D01*
X8955896Y-14433984D02*
X8974944Y-14443508D01*
X8974944Y-14443508D02*
X8984468Y-14453031D01*
X8984468Y-14453031D02*
X8993991Y-14472079D01*
X8993991Y-14472079D02*
X8993991Y-14491127D01*
X8993991Y-14491127D02*
X8984468Y-14519698D01*
X8984468Y-14519698D02*
X8870182Y-14633984D01*
X8870182Y-14633984D02*
X8993991Y-14633984D01*
X9089229Y-14633984D02*
X9127325Y-14633984D01*
X9127325Y-14633984D02*
X9146372Y-14624460D01*
X9146372Y-14624460D02*
X9155896Y-14614936D01*
X9155896Y-14614936D02*
X9174944Y-14586365D01*
X9174944Y-14586365D02*
X9184468Y-14548269D01*
X9184468Y-14548269D02*
X9184468Y-14472079D01*
X9184468Y-14472079D02*
X9174944Y-14453031D01*
X9174944Y-14453031D02*
X9165420Y-14443508D01*
X9165420Y-14443508D02*
X9146372Y-14433984D01*
X9146372Y-14433984D02*
X9108277Y-14433984D01*
X9108277Y-14433984D02*
X9089229Y-14443508D01*
X9089229Y-14443508D02*
X9079706Y-14453031D01*
X9079706Y-14453031D02*
X9070182Y-14472079D01*
X9070182Y-14472079D02*
X9070182Y-14519698D01*
X9070182Y-14519698D02*
X9079706Y-14538746D01*
X9079706Y-14538746D02*
X9089229Y-14548269D01*
X9089229Y-14548269D02*
X9108277Y-14557793D01*
X9108277Y-14557793D02*
X9146372Y-14557793D01*
X9146372Y-14557793D02*
X9165420Y-14548269D01*
X9165420Y-14548269D02*
X9174944Y-14538746D01*
X9174944Y-14538746D02*
X9184468Y-14519698D01*
X9365420Y-14433984D02*
X9270182Y-14433984D01*
X9270182Y-14433984D02*
X9260658Y-14529222D01*
X9260658Y-14529222D02*
X9270182Y-14519698D01*
X9270182Y-14519698D02*
X9289229Y-14510174D01*
X9289229Y-14510174D02*
X9336849Y-14510174D01*
X9336849Y-14510174D02*
X9355896Y-14519698D01*
X9355896Y-14519698D02*
X9365420Y-14529222D01*
X9365420Y-14529222D02*
X9374944Y-14548269D01*
X9374944Y-14548269D02*
X9374944Y-14595888D01*
X9374944Y-14595888D02*
X9365420Y-14614936D01*
X9365420Y-14614936D02*
X9355896Y-14624460D01*
X9355896Y-14624460D02*
X9336849Y-14633984D01*
X9336849Y-14633984D02*
X9289229Y-14633984D01*
X9289229Y-14633984D02*
X9270182Y-14624460D01*
X9270182Y-14624460D02*
X9260658Y-14614936D01*
X9451134Y-14433984D02*
X9451134Y-14472079D01*
X9527325Y-14433984D02*
X9527325Y-14472079D01*
X9822563Y-14710174D02*
X9813039Y-14700650D01*
X9813039Y-14700650D02*
X9793991Y-14672079D01*
X9793991Y-14672079D02*
X9784468Y-14653031D01*
X9784468Y-14653031D02*
X9774944Y-14624460D01*
X9774944Y-14624460D02*
X9765420Y-14576841D01*
X9765420Y-14576841D02*
X9765420Y-14538746D01*
X9765420Y-14538746D02*
X9774944Y-14491127D01*
X9774944Y-14491127D02*
X9784468Y-14462555D01*
X9784468Y-14462555D02*
X9793991Y-14443508D01*
X9793991Y-14443508D02*
X9813039Y-14414936D01*
X9813039Y-14414936D02*
X9822563Y-14405412D01*
X9984468Y-14433984D02*
X9946372Y-14433984D01*
X9946372Y-14433984D02*
X9927325Y-14443508D01*
X9927325Y-14443508D02*
X9917801Y-14453031D01*
X9917801Y-14453031D02*
X9898753Y-14481603D01*
X9898753Y-14481603D02*
X9889230Y-14519698D01*
X9889230Y-14519698D02*
X9889230Y-14595888D01*
X9889230Y-14595888D02*
X9898753Y-14614936D01*
X9898753Y-14614936D02*
X9908277Y-14624460D01*
X9908277Y-14624460D02*
X9927325Y-14633984D01*
X9927325Y-14633984D02*
X9965420Y-14633984D01*
X9965420Y-14633984D02*
X9984468Y-14624460D01*
X9984468Y-14624460D02*
X9993991Y-14614936D01*
X9993991Y-14614936D02*
X10003515Y-14595888D01*
X10003515Y-14595888D02*
X10003515Y-14548269D01*
X10003515Y-14548269D02*
X9993991Y-14529222D01*
X9993991Y-14529222D02*
X9984468Y-14519698D01*
X9984468Y-14519698D02*
X9965420Y-14510174D01*
X9965420Y-14510174D02*
X9927325Y-14510174D01*
X9927325Y-14510174D02*
X9908277Y-14519698D01*
X9908277Y-14519698D02*
X9898753Y-14529222D01*
X9898753Y-14529222D02*
X9889230Y-14548269D01*
X10241611Y-14633984D02*
X10241611Y-14433984D01*
X10327325Y-14633984D02*
X10327325Y-14529222D01*
X10327325Y-14529222D02*
X10317801Y-14510174D01*
X10317801Y-14510174D02*
X10298753Y-14500650D01*
X10298753Y-14500650D02*
X10270182Y-14500650D01*
X10270182Y-14500650D02*
X10251134Y-14510174D01*
X10251134Y-14510174D02*
X10241611Y-14519698D01*
X10451134Y-14633984D02*
X10432087Y-14624460D01*
X10432087Y-14624460D02*
X10422563Y-14614936D01*
X10422563Y-14614936D02*
X10413039Y-14595888D01*
X10413039Y-14595888D02*
X10413039Y-14538746D01*
X10413039Y-14538746D02*
X10422563Y-14519698D01*
X10422563Y-14519698D02*
X10432087Y-14510174D01*
X10432087Y-14510174D02*
X10451134Y-14500650D01*
X10451134Y-14500650D02*
X10479706Y-14500650D01*
X10479706Y-14500650D02*
X10498753Y-14510174D01*
X10498753Y-14510174D02*
X10508277Y-14519698D01*
X10508277Y-14519698D02*
X10517801Y-14538746D01*
X10517801Y-14538746D02*
X10517801Y-14595888D01*
X10517801Y-14595888D02*
X10508277Y-14614936D01*
X10508277Y-14614936D02*
X10498753Y-14624460D01*
X10498753Y-14624460D02*
X10479706Y-14633984D01*
X10479706Y-14633984D02*
X10451134Y-14633984D01*
X10632087Y-14633984D02*
X10613039Y-14624460D01*
X10613039Y-14624460D02*
X10603515Y-14605412D01*
X10603515Y-14605412D02*
X10603515Y-14433984D01*
X10784468Y-14624460D02*
X10765420Y-14633984D01*
X10765420Y-14633984D02*
X10727325Y-14633984D01*
X10727325Y-14633984D02*
X10708277Y-14624460D01*
X10708277Y-14624460D02*
X10698753Y-14605412D01*
X10698753Y-14605412D02*
X10698753Y-14529222D01*
X10698753Y-14529222D02*
X10708277Y-14510174D01*
X10708277Y-14510174D02*
X10727325Y-14500650D01*
X10727325Y-14500650D02*
X10765420Y-14500650D01*
X10765420Y-14500650D02*
X10784468Y-14510174D01*
X10784468Y-14510174D02*
X10793992Y-14529222D01*
X10793992Y-14529222D02*
X10793992Y-14548269D01*
X10793992Y-14548269D02*
X10698753Y-14567317D01*
X10870182Y-14624460D02*
X10889230Y-14633984D01*
X10889230Y-14633984D02*
X10927325Y-14633984D01*
X10927325Y-14633984D02*
X10946373Y-14624460D01*
X10946373Y-14624460D02*
X10955896Y-14605412D01*
X10955896Y-14605412D02*
X10955896Y-14595888D01*
X10955896Y-14595888D02*
X10946373Y-14576841D01*
X10946373Y-14576841D02*
X10927325Y-14567317D01*
X10927325Y-14567317D02*
X10898753Y-14567317D01*
X10898753Y-14567317D02*
X10879706Y-14557793D01*
X10879706Y-14557793D02*
X10870182Y-14538746D01*
X10870182Y-14538746D02*
X10870182Y-14529222D01*
X10870182Y-14529222D02*
X10879706Y-14510174D01*
X10879706Y-14510174D02*
X10898753Y-14500650D01*
X10898753Y-14500650D02*
X10927325Y-14500650D01*
X10927325Y-14500650D02*
X10946373Y-14510174D01*
X11022563Y-14710174D02*
X11032087Y-14700650D01*
X11032087Y-14700650D02*
X11051134Y-14672079D01*
X11051134Y-14672079D02*
X11060658Y-14653031D01*
X11060658Y-14653031D02*
X11070182Y-14624460D01*
X11070182Y-14624460D02*
X11079706Y-14576841D01*
X11079706Y-14576841D02*
X11079706Y-14538746D01*
X11079706Y-14538746D02*
X11070182Y-14491127D01*
X11070182Y-14491127D02*
X11060658Y-14462555D01*
X11060658Y-14462555D02*
X11051134Y-14443508D01*
X11051134Y-14443508D02*
X11032087Y-14414936D01*
X11032087Y-14414936D02*
X11022563Y-14405412D01*
D12*
X6247500Y-14806500D02*
G75*
G02*
X6171300Y-14806500I-38100J0D01*
G01*
X6171300Y-14806500D02*
G75*
G02*
X6247500Y-14806500I38100J0D01*
G01*
D11*
X6546372Y-14697984D02*
X6565420Y-14697984D01*
X6565420Y-14697984D02*
X6584467Y-14707508D01*
X6584467Y-14707508D02*
X6593991Y-14717031D01*
X6593991Y-14717031D02*
X6603515Y-14736079D01*
X6603515Y-14736079D02*
X6613039Y-14774174D01*
X6613039Y-14774174D02*
X6613039Y-14821793D01*
X6613039Y-14821793D02*
X6603515Y-14859888D01*
X6603515Y-14859888D02*
X6593991Y-14878936D01*
X6593991Y-14878936D02*
X6584467Y-14888460D01*
X6584467Y-14888460D02*
X6565420Y-14897984D01*
X6565420Y-14897984D02*
X6546372Y-14897984D01*
X6546372Y-14897984D02*
X6527324Y-14888460D01*
X6527324Y-14888460D02*
X6517801Y-14878936D01*
X6517801Y-14878936D02*
X6508277Y-14859888D01*
X6508277Y-14859888D02*
X6498753Y-14821793D01*
X6498753Y-14821793D02*
X6498753Y-14774174D01*
X6498753Y-14774174D02*
X6508277Y-14736079D01*
X6508277Y-14736079D02*
X6517801Y-14717031D01*
X6517801Y-14717031D02*
X6527324Y-14707508D01*
X6527324Y-14707508D02*
X6546372Y-14697984D01*
X6698753Y-14878936D02*
X6708277Y-14888460D01*
X6708277Y-14888460D02*
X6698753Y-14897984D01*
X6698753Y-14897984D02*
X6689229Y-14888460D01*
X6689229Y-14888460D02*
X6698753Y-14878936D01*
X6698753Y-14878936D02*
X6698753Y-14897984D01*
X6774943Y-14697984D02*
X6908277Y-14697984D01*
X6908277Y-14697984D02*
X6822562Y-14897984D01*
X7070182Y-14697984D02*
X7032086Y-14697984D01*
X7032086Y-14697984D02*
X7013039Y-14707508D01*
X7013039Y-14707508D02*
X7003515Y-14717031D01*
X7003515Y-14717031D02*
X6984467Y-14745603D01*
X6984467Y-14745603D02*
X6974943Y-14783698D01*
X6974943Y-14783698D02*
X6974943Y-14859888D01*
X6974943Y-14859888D02*
X6984467Y-14878936D01*
X6984467Y-14878936D02*
X6993991Y-14888460D01*
X6993991Y-14888460D02*
X7013039Y-14897984D01*
X7013039Y-14897984D02*
X7051134Y-14897984D01*
X7051134Y-14897984D02*
X7070182Y-14888460D01*
X7070182Y-14888460D02*
X7079705Y-14878936D01*
X7079705Y-14878936D02*
X7089229Y-14859888D01*
X7089229Y-14859888D02*
X7089229Y-14812269D01*
X7089229Y-14812269D02*
X7079705Y-14793222D01*
X7079705Y-14793222D02*
X7070182Y-14783698D01*
X7070182Y-14783698D02*
X7051134Y-14774174D01*
X7051134Y-14774174D02*
X7013039Y-14774174D01*
X7013039Y-14774174D02*
X6993991Y-14783698D01*
X6993991Y-14783698D02*
X6984467Y-14793222D01*
X6984467Y-14793222D02*
X6974943Y-14812269D01*
X7165420Y-14717031D02*
X7174943Y-14707508D01*
X7174943Y-14707508D02*
X7193991Y-14697984D01*
X7193991Y-14697984D02*
X7241610Y-14697984D01*
X7241610Y-14697984D02*
X7260658Y-14707508D01*
X7260658Y-14707508D02*
X7270182Y-14717031D01*
X7270182Y-14717031D02*
X7279705Y-14736079D01*
X7279705Y-14736079D02*
X7279705Y-14755127D01*
X7279705Y-14755127D02*
X7270182Y-14783698D01*
X7270182Y-14783698D02*
X7155896Y-14897984D01*
X7155896Y-14897984D02*
X7279705Y-14897984D01*
X7365420Y-14897984D02*
X7365420Y-14764650D01*
X7365420Y-14783698D02*
X7374943Y-14774174D01*
X7374943Y-14774174D02*
X7393991Y-14764650D01*
X7393991Y-14764650D02*
X7422563Y-14764650D01*
X7422563Y-14764650D02*
X7441610Y-14774174D01*
X7441610Y-14774174D02*
X7451134Y-14793222D01*
X7451134Y-14793222D02*
X7451134Y-14897984D01*
X7451134Y-14793222D02*
X7460658Y-14774174D01*
X7460658Y-14774174D02*
X7479705Y-14764650D01*
X7479705Y-14764650D02*
X7508277Y-14764650D01*
X7508277Y-14764650D02*
X7527324Y-14774174D01*
X7527324Y-14774174D02*
X7536848Y-14793222D01*
X7536848Y-14793222D02*
X7536848Y-14897984D01*
X7632086Y-14897984D02*
X7632086Y-14764650D01*
X7632086Y-14783698D02*
X7641610Y-14774174D01*
X7641610Y-14774174D02*
X7660658Y-14764650D01*
X7660658Y-14764650D02*
X7689229Y-14764650D01*
X7689229Y-14764650D02*
X7708277Y-14774174D01*
X7708277Y-14774174D02*
X7717801Y-14793222D01*
X7717801Y-14793222D02*
X7717801Y-14897984D01*
X7717801Y-14793222D02*
X7727324Y-14774174D01*
X7727324Y-14774174D02*
X7746372Y-14764650D01*
X7746372Y-14764650D02*
X7774943Y-14764650D01*
X7774943Y-14764650D02*
X7793991Y-14774174D01*
X7793991Y-14774174D02*
X7803515Y-14793222D01*
X7803515Y-14793222D02*
X7803515Y-14897984D01*
X8193991Y-14688460D02*
X8022563Y-14945603D01*
X8451134Y-14697984D02*
X8470182Y-14697984D01*
X8470182Y-14697984D02*
X8489229Y-14707508D01*
X8489229Y-14707508D02*
X8498753Y-14717031D01*
X8498753Y-14717031D02*
X8508277Y-14736079D01*
X8508277Y-14736079D02*
X8517801Y-14774174D01*
X8517801Y-14774174D02*
X8517801Y-14821793D01*
X8517801Y-14821793D02*
X8508277Y-14859888D01*
X8508277Y-14859888D02*
X8498753Y-14878936D01*
X8498753Y-14878936D02*
X8489229Y-14888460D01*
X8489229Y-14888460D02*
X8470182Y-14897984D01*
X8470182Y-14897984D02*
X8451134Y-14897984D01*
X8451134Y-14897984D02*
X8432087Y-14888460D01*
X8432087Y-14888460D02*
X8422563Y-14878936D01*
X8422563Y-14878936D02*
X8413039Y-14859888D01*
X8413039Y-14859888D02*
X8403515Y-14821793D01*
X8403515Y-14821793D02*
X8403515Y-14774174D01*
X8403515Y-14774174D02*
X8413039Y-14736079D01*
X8413039Y-14736079D02*
X8422563Y-14717031D01*
X8422563Y-14717031D02*
X8432087Y-14707508D01*
X8432087Y-14707508D02*
X8451134Y-14697984D01*
X8603515Y-14878936D02*
X8613039Y-14888460D01*
X8613039Y-14888460D02*
X8603515Y-14897984D01*
X8603515Y-14897984D02*
X8593991Y-14888460D01*
X8593991Y-14888460D02*
X8603515Y-14878936D01*
X8603515Y-14878936D02*
X8603515Y-14897984D01*
X8736848Y-14697984D02*
X8755896Y-14697984D01*
X8755896Y-14697984D02*
X8774944Y-14707508D01*
X8774944Y-14707508D02*
X8784468Y-14717031D01*
X8784468Y-14717031D02*
X8793991Y-14736079D01*
X8793991Y-14736079D02*
X8803515Y-14774174D01*
X8803515Y-14774174D02*
X8803515Y-14821793D01*
X8803515Y-14821793D02*
X8793991Y-14859888D01*
X8793991Y-14859888D02*
X8784468Y-14878936D01*
X8784468Y-14878936D02*
X8774944Y-14888460D01*
X8774944Y-14888460D02*
X8755896Y-14897984D01*
X8755896Y-14897984D02*
X8736848Y-14897984D01*
X8736848Y-14897984D02*
X8717801Y-14888460D01*
X8717801Y-14888460D02*
X8708277Y-14878936D01*
X8708277Y-14878936D02*
X8698753Y-14859888D01*
X8698753Y-14859888D02*
X8689229Y-14821793D01*
X8689229Y-14821793D02*
X8689229Y-14774174D01*
X8689229Y-14774174D02*
X8698753Y-14736079D01*
X8698753Y-14736079D02*
X8708277Y-14717031D01*
X8708277Y-14717031D02*
X8717801Y-14707508D01*
X8717801Y-14707508D02*
X8736848Y-14697984D01*
X8870182Y-14697984D02*
X8993991Y-14697984D01*
X8993991Y-14697984D02*
X8927325Y-14774174D01*
X8927325Y-14774174D02*
X8955896Y-14774174D01*
X8955896Y-14774174D02*
X8974944Y-14783698D01*
X8974944Y-14783698D02*
X8984468Y-14793222D01*
X8984468Y-14793222D02*
X8993991Y-14812269D01*
X8993991Y-14812269D02*
X8993991Y-14859888D01*
X8993991Y-14859888D02*
X8984468Y-14878936D01*
X8984468Y-14878936D02*
X8974944Y-14888460D01*
X8974944Y-14888460D02*
X8955896Y-14897984D01*
X8955896Y-14897984D02*
X8898753Y-14897984D01*
X8898753Y-14897984D02*
X8879706Y-14888460D01*
X8879706Y-14888460D02*
X8870182Y-14878936D01*
X9117801Y-14697984D02*
X9136849Y-14697984D01*
X9136849Y-14697984D02*
X9155896Y-14707508D01*
X9155896Y-14707508D02*
X9165420Y-14717031D01*
X9165420Y-14717031D02*
X9174944Y-14736079D01*
X9174944Y-14736079D02*
X9184468Y-14774174D01*
X9184468Y-14774174D02*
X9184468Y-14821793D01*
X9184468Y-14821793D02*
X9174944Y-14859888D01*
X9174944Y-14859888D02*
X9165420Y-14878936D01*
X9165420Y-14878936D02*
X9155896Y-14888460D01*
X9155896Y-14888460D02*
X9136849Y-14897984D01*
X9136849Y-14897984D02*
X9117801Y-14897984D01*
X9117801Y-14897984D02*
X9098753Y-14888460D01*
X9098753Y-14888460D02*
X9089229Y-14878936D01*
X9089229Y-14878936D02*
X9079706Y-14859888D01*
X9079706Y-14859888D02*
X9070182Y-14821793D01*
X9070182Y-14821793D02*
X9070182Y-14774174D01*
X9070182Y-14774174D02*
X9079706Y-14736079D01*
X9079706Y-14736079D02*
X9089229Y-14717031D01*
X9089229Y-14717031D02*
X9098753Y-14707508D01*
X9098753Y-14707508D02*
X9117801Y-14697984D01*
X9308277Y-14697984D02*
X9327325Y-14697984D01*
X9327325Y-14697984D02*
X9346372Y-14707508D01*
X9346372Y-14707508D02*
X9355896Y-14717031D01*
X9355896Y-14717031D02*
X9365420Y-14736079D01*
X9365420Y-14736079D02*
X9374944Y-14774174D01*
X9374944Y-14774174D02*
X9374944Y-14821793D01*
X9374944Y-14821793D02*
X9365420Y-14859888D01*
X9365420Y-14859888D02*
X9355896Y-14878936D01*
X9355896Y-14878936D02*
X9346372Y-14888460D01*
X9346372Y-14888460D02*
X9327325Y-14897984D01*
X9327325Y-14897984D02*
X9308277Y-14897984D01*
X9308277Y-14897984D02*
X9289229Y-14888460D01*
X9289229Y-14888460D02*
X9279706Y-14878936D01*
X9279706Y-14878936D02*
X9270182Y-14859888D01*
X9270182Y-14859888D02*
X9260658Y-14821793D01*
X9260658Y-14821793D02*
X9260658Y-14774174D01*
X9260658Y-14774174D02*
X9270182Y-14736079D01*
X9270182Y-14736079D02*
X9279706Y-14717031D01*
X9279706Y-14717031D02*
X9289229Y-14707508D01*
X9289229Y-14707508D02*
X9308277Y-14697984D01*
X9451134Y-14697984D02*
X9451134Y-14736079D01*
X9527325Y-14697984D02*
X9527325Y-14736079D01*
X9822563Y-14974174D02*
X9813039Y-14964650D01*
X9813039Y-14964650D02*
X9793991Y-14936079D01*
X9793991Y-14936079D02*
X9784468Y-14917031D01*
X9784468Y-14917031D02*
X9774944Y-14888460D01*
X9774944Y-14888460D02*
X9765420Y-14840841D01*
X9765420Y-14840841D02*
X9765420Y-14802746D01*
X9765420Y-14802746D02*
X9774944Y-14755127D01*
X9774944Y-14755127D02*
X9784468Y-14726555D01*
X9784468Y-14726555D02*
X9793991Y-14707508D01*
X9793991Y-14707508D02*
X9813039Y-14678936D01*
X9813039Y-14678936D02*
X9822563Y-14669412D01*
X9984468Y-14697984D02*
X9946372Y-14697984D01*
X9946372Y-14697984D02*
X9927325Y-14707508D01*
X9927325Y-14707508D02*
X9917801Y-14717031D01*
X9917801Y-14717031D02*
X9898753Y-14745603D01*
X9898753Y-14745603D02*
X9889230Y-14783698D01*
X9889230Y-14783698D02*
X9889230Y-14859888D01*
X9889230Y-14859888D02*
X9898753Y-14878936D01*
X9898753Y-14878936D02*
X9908277Y-14888460D01*
X9908277Y-14888460D02*
X9927325Y-14897984D01*
X9927325Y-14897984D02*
X9965420Y-14897984D01*
X9965420Y-14897984D02*
X9984468Y-14888460D01*
X9984468Y-14888460D02*
X9993991Y-14878936D01*
X9993991Y-14878936D02*
X10003515Y-14859888D01*
X10003515Y-14859888D02*
X10003515Y-14812269D01*
X10003515Y-14812269D02*
X9993991Y-14793222D01*
X9993991Y-14793222D02*
X9984468Y-14783698D01*
X9984468Y-14783698D02*
X9965420Y-14774174D01*
X9965420Y-14774174D02*
X9927325Y-14774174D01*
X9927325Y-14774174D02*
X9908277Y-14783698D01*
X9908277Y-14783698D02*
X9898753Y-14793222D01*
X9898753Y-14793222D02*
X9889230Y-14812269D01*
X10241611Y-14897984D02*
X10241611Y-14697984D01*
X10327325Y-14897984D02*
X10327325Y-14793222D01*
X10327325Y-14793222D02*
X10317801Y-14774174D01*
X10317801Y-14774174D02*
X10298753Y-14764650D01*
X10298753Y-14764650D02*
X10270182Y-14764650D01*
X10270182Y-14764650D02*
X10251134Y-14774174D01*
X10251134Y-14774174D02*
X10241611Y-14783698D01*
X10451134Y-14897984D02*
X10432087Y-14888460D01*
X10432087Y-14888460D02*
X10422563Y-14878936D01*
X10422563Y-14878936D02*
X10413039Y-14859888D01*
X10413039Y-14859888D02*
X10413039Y-14802746D01*
X10413039Y-14802746D02*
X10422563Y-14783698D01*
X10422563Y-14783698D02*
X10432087Y-14774174D01*
X10432087Y-14774174D02*
X10451134Y-14764650D01*
X10451134Y-14764650D02*
X10479706Y-14764650D01*
X10479706Y-14764650D02*
X10498753Y-14774174D01*
X10498753Y-14774174D02*
X10508277Y-14783698D01*
X10508277Y-14783698D02*
X10517801Y-14802746D01*
X10517801Y-14802746D02*
X10517801Y-14859888D01*
X10517801Y-14859888D02*
X10508277Y-14878936D01*
X10508277Y-14878936D02*
X10498753Y-14888460D01*
X10498753Y-14888460D02*
X10479706Y-14897984D01*
X10479706Y-14897984D02*
X10451134Y-14897984D01*
X10632087Y-14897984D02*
X10613039Y-14888460D01*
X10613039Y-14888460D02*
X10603515Y-14869412D01*
X10603515Y-14869412D02*
X10603515Y-14697984D01*
X10784468Y-14888460D02*
X10765420Y-14897984D01*
X10765420Y-14897984D02*
X10727325Y-14897984D01*
X10727325Y-14897984D02*
X10708277Y-14888460D01*
X10708277Y-14888460D02*
X10698753Y-14869412D01*
X10698753Y-14869412D02*
X10698753Y-14793222D01*
X10698753Y-14793222D02*
X10708277Y-14774174D01*
X10708277Y-14774174D02*
X10727325Y-14764650D01*
X10727325Y-14764650D02*
X10765420Y-14764650D01*
X10765420Y-14764650D02*
X10784468Y-14774174D01*
X10784468Y-14774174D02*
X10793992Y-14793222D01*
X10793992Y-14793222D02*
X10793992Y-14812269D01*
X10793992Y-14812269D02*
X10698753Y-14831317D01*
X10870182Y-14888460D02*
X10889230Y-14897984D01*
X10889230Y-14897984D02*
X10927325Y-14897984D01*
X10927325Y-14897984D02*
X10946373Y-14888460D01*
X10946373Y-14888460D02*
X10955896Y-14869412D01*
X10955896Y-14869412D02*
X10955896Y-14859888D01*
X10955896Y-14859888D02*
X10946373Y-14840841D01*
X10946373Y-14840841D02*
X10927325Y-14831317D01*
X10927325Y-14831317D02*
X10898753Y-14831317D01*
X10898753Y-14831317D02*
X10879706Y-14821793D01*
X10879706Y-14821793D02*
X10870182Y-14802746D01*
X10870182Y-14802746D02*
X10870182Y-14793222D01*
X10870182Y-14793222D02*
X10879706Y-14774174D01*
X10879706Y-14774174D02*
X10898753Y-14764650D01*
X10898753Y-14764650D02*
X10927325Y-14764650D01*
X10927325Y-14764650D02*
X10946373Y-14774174D01*
X11022563Y-14974174D02*
X11032087Y-14964650D01*
X11032087Y-14964650D02*
X11051134Y-14936079D01*
X11051134Y-14936079D02*
X11060658Y-14917031D01*
X11060658Y-14917031D02*
X11070182Y-14888460D01*
X11070182Y-14888460D02*
X11079706Y-14840841D01*
X11079706Y-14840841D02*
X11079706Y-14802746D01*
X11079706Y-14802746D02*
X11070182Y-14755127D01*
X11070182Y-14755127D02*
X11060658Y-14726555D01*
X11060658Y-14726555D02*
X11051134Y-14707508D01*
X11051134Y-14707508D02*
X11032087Y-14678936D01*
X11032087Y-14678936D02*
X11022563Y-14669412D01*
D12*
X6207500Y-15030500D02*
X6207500Y-15110500D01*
X6167500Y-15070500D02*
X6247500Y-15070500D01*
D11*
X6546372Y-14961984D02*
X6565420Y-14961984D01*
X6565420Y-14961984D02*
X6584467Y-14971508D01*
X6584467Y-14971508D02*
X6593991Y-14981031D01*
X6593991Y-14981031D02*
X6603515Y-15000079D01*
X6603515Y-15000079D02*
X6613039Y-15038174D01*
X6613039Y-15038174D02*
X6613039Y-15085793D01*
X6613039Y-15085793D02*
X6603515Y-15123888D01*
X6603515Y-15123888D02*
X6593991Y-15142936D01*
X6593991Y-15142936D02*
X6584467Y-15152460D01*
X6584467Y-15152460D02*
X6565420Y-15161984D01*
X6565420Y-15161984D02*
X6546372Y-15161984D01*
X6546372Y-15161984D02*
X6527324Y-15152460D01*
X6527324Y-15152460D02*
X6517801Y-15142936D01*
X6517801Y-15142936D02*
X6508277Y-15123888D01*
X6508277Y-15123888D02*
X6498753Y-15085793D01*
X6498753Y-15085793D02*
X6498753Y-15038174D01*
X6498753Y-15038174D02*
X6508277Y-15000079D01*
X6508277Y-15000079D02*
X6517801Y-14981031D01*
X6517801Y-14981031D02*
X6527324Y-14971508D01*
X6527324Y-14971508D02*
X6546372Y-14961984D01*
X6698753Y-15142936D02*
X6708277Y-15152460D01*
X6708277Y-15152460D02*
X6698753Y-15161984D01*
X6698753Y-15161984D02*
X6689229Y-15152460D01*
X6689229Y-15152460D02*
X6698753Y-15142936D01*
X6698753Y-15142936D02*
X6698753Y-15161984D01*
X6822562Y-15047698D02*
X6803515Y-15038174D01*
X6803515Y-15038174D02*
X6793991Y-15028650D01*
X6793991Y-15028650D02*
X6784467Y-15009603D01*
X6784467Y-15009603D02*
X6784467Y-15000079D01*
X6784467Y-15000079D02*
X6793991Y-14981031D01*
X6793991Y-14981031D02*
X6803515Y-14971508D01*
X6803515Y-14971508D02*
X6822562Y-14961984D01*
X6822562Y-14961984D02*
X6860658Y-14961984D01*
X6860658Y-14961984D02*
X6879705Y-14971508D01*
X6879705Y-14971508D02*
X6889229Y-14981031D01*
X6889229Y-14981031D02*
X6898753Y-15000079D01*
X6898753Y-15000079D02*
X6898753Y-15009603D01*
X6898753Y-15009603D02*
X6889229Y-15028650D01*
X6889229Y-15028650D02*
X6879705Y-15038174D01*
X6879705Y-15038174D02*
X6860658Y-15047698D01*
X6860658Y-15047698D02*
X6822562Y-15047698D01*
X6822562Y-15047698D02*
X6803515Y-15057222D01*
X6803515Y-15057222D02*
X6793991Y-15066746D01*
X6793991Y-15066746D02*
X6784467Y-15085793D01*
X6784467Y-15085793D02*
X6784467Y-15123888D01*
X6784467Y-15123888D02*
X6793991Y-15142936D01*
X6793991Y-15142936D02*
X6803515Y-15152460D01*
X6803515Y-15152460D02*
X6822562Y-15161984D01*
X6822562Y-15161984D02*
X6860658Y-15161984D01*
X6860658Y-15161984D02*
X6879705Y-15152460D01*
X6879705Y-15152460D02*
X6889229Y-15142936D01*
X6889229Y-15142936D02*
X6898753Y-15123888D01*
X6898753Y-15123888D02*
X6898753Y-15085793D01*
X6898753Y-15085793D02*
X6889229Y-15066746D01*
X6889229Y-15066746D02*
X6879705Y-15057222D01*
X6879705Y-15057222D02*
X6860658Y-15047698D01*
X7022562Y-14961984D02*
X7041610Y-14961984D01*
X7041610Y-14961984D02*
X7060658Y-14971508D01*
X7060658Y-14971508D02*
X7070182Y-14981031D01*
X7070182Y-14981031D02*
X7079705Y-15000079D01*
X7079705Y-15000079D02*
X7089229Y-15038174D01*
X7089229Y-15038174D02*
X7089229Y-15085793D01*
X7089229Y-15085793D02*
X7079705Y-15123888D01*
X7079705Y-15123888D02*
X7070182Y-15142936D01*
X7070182Y-15142936D02*
X7060658Y-15152460D01*
X7060658Y-15152460D02*
X7041610Y-15161984D01*
X7041610Y-15161984D02*
X7022562Y-15161984D01*
X7022562Y-15161984D02*
X7003515Y-15152460D01*
X7003515Y-15152460D02*
X6993991Y-15142936D01*
X6993991Y-15142936D02*
X6984467Y-15123888D01*
X6984467Y-15123888D02*
X6974943Y-15085793D01*
X6974943Y-15085793D02*
X6974943Y-15038174D01*
X6974943Y-15038174D02*
X6984467Y-15000079D01*
X6984467Y-15000079D02*
X6993991Y-14981031D01*
X6993991Y-14981031D02*
X7003515Y-14971508D01*
X7003515Y-14971508D02*
X7022562Y-14961984D01*
X7213039Y-14961984D02*
X7232086Y-14961984D01*
X7232086Y-14961984D02*
X7251134Y-14971508D01*
X7251134Y-14971508D02*
X7260658Y-14981031D01*
X7260658Y-14981031D02*
X7270182Y-15000079D01*
X7270182Y-15000079D02*
X7279705Y-15038174D01*
X7279705Y-15038174D02*
X7279705Y-15085793D01*
X7279705Y-15085793D02*
X7270182Y-15123888D01*
X7270182Y-15123888D02*
X7260658Y-15142936D01*
X7260658Y-15142936D02*
X7251134Y-15152460D01*
X7251134Y-15152460D02*
X7232086Y-15161984D01*
X7232086Y-15161984D02*
X7213039Y-15161984D01*
X7213039Y-15161984D02*
X7193991Y-15152460D01*
X7193991Y-15152460D02*
X7184467Y-15142936D01*
X7184467Y-15142936D02*
X7174943Y-15123888D01*
X7174943Y-15123888D02*
X7165420Y-15085793D01*
X7165420Y-15085793D02*
X7165420Y-15038174D01*
X7165420Y-15038174D02*
X7174943Y-15000079D01*
X7174943Y-15000079D02*
X7184467Y-14981031D01*
X7184467Y-14981031D02*
X7193991Y-14971508D01*
X7193991Y-14971508D02*
X7213039Y-14961984D01*
X7365420Y-15161984D02*
X7365420Y-15028650D01*
X7365420Y-15047698D02*
X7374943Y-15038174D01*
X7374943Y-15038174D02*
X7393991Y-15028650D01*
X7393991Y-15028650D02*
X7422563Y-15028650D01*
X7422563Y-15028650D02*
X7441610Y-15038174D01*
X7441610Y-15038174D02*
X7451134Y-15057222D01*
X7451134Y-15057222D02*
X7451134Y-15161984D01*
X7451134Y-15057222D02*
X7460658Y-15038174D01*
X7460658Y-15038174D02*
X7479705Y-15028650D01*
X7479705Y-15028650D02*
X7508277Y-15028650D01*
X7508277Y-15028650D02*
X7527324Y-15038174D01*
X7527324Y-15038174D02*
X7536848Y-15057222D01*
X7536848Y-15057222D02*
X7536848Y-15161984D01*
X7632086Y-15161984D02*
X7632086Y-15028650D01*
X7632086Y-15047698D02*
X7641610Y-15038174D01*
X7641610Y-15038174D02*
X7660658Y-15028650D01*
X7660658Y-15028650D02*
X7689229Y-15028650D01*
X7689229Y-15028650D02*
X7708277Y-15038174D01*
X7708277Y-15038174D02*
X7717801Y-15057222D01*
X7717801Y-15057222D02*
X7717801Y-15161984D01*
X7717801Y-15057222D02*
X7727324Y-15038174D01*
X7727324Y-15038174D02*
X7746372Y-15028650D01*
X7746372Y-15028650D02*
X7774943Y-15028650D01*
X7774943Y-15028650D02*
X7793991Y-15038174D01*
X7793991Y-15038174D02*
X7803515Y-15057222D01*
X7803515Y-15057222D02*
X7803515Y-15161984D01*
X8193991Y-14952460D02*
X8022563Y-15209603D01*
X8451134Y-14961984D02*
X8470182Y-14961984D01*
X8470182Y-14961984D02*
X8489229Y-14971508D01*
X8489229Y-14971508D02*
X8498753Y-14981031D01*
X8498753Y-14981031D02*
X8508277Y-15000079D01*
X8508277Y-15000079D02*
X8517801Y-15038174D01*
X8517801Y-15038174D02*
X8517801Y-15085793D01*
X8517801Y-15085793D02*
X8508277Y-15123888D01*
X8508277Y-15123888D02*
X8498753Y-15142936D01*
X8498753Y-15142936D02*
X8489229Y-15152460D01*
X8489229Y-15152460D02*
X8470182Y-15161984D01*
X8470182Y-15161984D02*
X8451134Y-15161984D01*
X8451134Y-15161984D02*
X8432087Y-15152460D01*
X8432087Y-15152460D02*
X8422563Y-15142936D01*
X8422563Y-15142936D02*
X8413039Y-15123888D01*
X8413039Y-15123888D02*
X8403515Y-15085793D01*
X8403515Y-15085793D02*
X8403515Y-15038174D01*
X8403515Y-15038174D02*
X8413039Y-15000079D01*
X8413039Y-15000079D02*
X8422563Y-14981031D01*
X8422563Y-14981031D02*
X8432087Y-14971508D01*
X8432087Y-14971508D02*
X8451134Y-14961984D01*
X8603515Y-15142936D02*
X8613039Y-15152460D01*
X8613039Y-15152460D02*
X8603515Y-15161984D01*
X8603515Y-15161984D02*
X8593991Y-15152460D01*
X8593991Y-15152460D02*
X8603515Y-15142936D01*
X8603515Y-15142936D02*
X8603515Y-15161984D01*
X8736848Y-14961984D02*
X8755896Y-14961984D01*
X8755896Y-14961984D02*
X8774944Y-14971508D01*
X8774944Y-14971508D02*
X8784468Y-14981031D01*
X8784468Y-14981031D02*
X8793991Y-15000079D01*
X8793991Y-15000079D02*
X8803515Y-15038174D01*
X8803515Y-15038174D02*
X8803515Y-15085793D01*
X8803515Y-15085793D02*
X8793991Y-15123888D01*
X8793991Y-15123888D02*
X8784468Y-15142936D01*
X8784468Y-15142936D02*
X8774944Y-15152460D01*
X8774944Y-15152460D02*
X8755896Y-15161984D01*
X8755896Y-15161984D02*
X8736848Y-15161984D01*
X8736848Y-15161984D02*
X8717801Y-15152460D01*
X8717801Y-15152460D02*
X8708277Y-15142936D01*
X8708277Y-15142936D02*
X8698753Y-15123888D01*
X8698753Y-15123888D02*
X8689229Y-15085793D01*
X8689229Y-15085793D02*
X8689229Y-15038174D01*
X8689229Y-15038174D02*
X8698753Y-15000079D01*
X8698753Y-15000079D02*
X8708277Y-14981031D01*
X8708277Y-14981031D02*
X8717801Y-14971508D01*
X8717801Y-14971508D02*
X8736848Y-14961984D01*
X8870182Y-14961984D02*
X8993991Y-14961984D01*
X8993991Y-14961984D02*
X8927325Y-15038174D01*
X8927325Y-15038174D02*
X8955896Y-15038174D01*
X8955896Y-15038174D02*
X8974944Y-15047698D01*
X8974944Y-15047698D02*
X8984468Y-15057222D01*
X8984468Y-15057222D02*
X8993991Y-15076269D01*
X8993991Y-15076269D02*
X8993991Y-15123888D01*
X8993991Y-15123888D02*
X8984468Y-15142936D01*
X8984468Y-15142936D02*
X8974944Y-15152460D01*
X8974944Y-15152460D02*
X8955896Y-15161984D01*
X8955896Y-15161984D02*
X8898753Y-15161984D01*
X8898753Y-15161984D02*
X8879706Y-15152460D01*
X8879706Y-15152460D02*
X8870182Y-15142936D01*
X9184468Y-15161984D02*
X9070182Y-15161984D01*
X9127325Y-15161984D02*
X9127325Y-14961984D01*
X9127325Y-14961984D02*
X9108277Y-14990555D01*
X9108277Y-14990555D02*
X9089229Y-15009603D01*
X9089229Y-15009603D02*
X9070182Y-15019127D01*
X9365420Y-14961984D02*
X9270182Y-14961984D01*
X9270182Y-14961984D02*
X9260658Y-15057222D01*
X9260658Y-15057222D02*
X9270182Y-15047698D01*
X9270182Y-15047698D02*
X9289229Y-15038174D01*
X9289229Y-15038174D02*
X9336849Y-15038174D01*
X9336849Y-15038174D02*
X9355896Y-15047698D01*
X9355896Y-15047698D02*
X9365420Y-15057222D01*
X9365420Y-15057222D02*
X9374944Y-15076269D01*
X9374944Y-15076269D02*
X9374944Y-15123888D01*
X9374944Y-15123888D02*
X9365420Y-15142936D01*
X9365420Y-15142936D02*
X9355896Y-15152460D01*
X9355896Y-15152460D02*
X9336849Y-15161984D01*
X9336849Y-15161984D02*
X9289229Y-15161984D01*
X9289229Y-15161984D02*
X9270182Y-15152460D01*
X9270182Y-15152460D02*
X9260658Y-15142936D01*
X9451134Y-14961984D02*
X9451134Y-15000079D01*
X9527325Y-14961984D02*
X9527325Y-15000079D01*
X9822563Y-15238174D02*
X9813039Y-15228650D01*
X9813039Y-15228650D02*
X9793991Y-15200079D01*
X9793991Y-15200079D02*
X9784468Y-15181031D01*
X9784468Y-15181031D02*
X9774944Y-15152460D01*
X9774944Y-15152460D02*
X9765420Y-15104841D01*
X9765420Y-15104841D02*
X9765420Y-15066746D01*
X9765420Y-15066746D02*
X9774944Y-15019127D01*
X9774944Y-15019127D02*
X9784468Y-14990555D01*
X9784468Y-14990555D02*
X9793991Y-14971508D01*
X9793991Y-14971508D02*
X9813039Y-14942936D01*
X9813039Y-14942936D02*
X9822563Y-14933412D01*
X9984468Y-14961984D02*
X9946372Y-14961984D01*
X9946372Y-14961984D02*
X9927325Y-14971508D01*
X9927325Y-14971508D02*
X9917801Y-14981031D01*
X9917801Y-14981031D02*
X9898753Y-15009603D01*
X9898753Y-15009603D02*
X9889230Y-15047698D01*
X9889230Y-15047698D02*
X9889230Y-15123888D01*
X9889230Y-15123888D02*
X9898753Y-15142936D01*
X9898753Y-15142936D02*
X9908277Y-15152460D01*
X9908277Y-15152460D02*
X9927325Y-15161984D01*
X9927325Y-15161984D02*
X9965420Y-15161984D01*
X9965420Y-15161984D02*
X9984468Y-15152460D01*
X9984468Y-15152460D02*
X9993991Y-15142936D01*
X9993991Y-15142936D02*
X10003515Y-15123888D01*
X10003515Y-15123888D02*
X10003515Y-15076269D01*
X10003515Y-15076269D02*
X9993991Y-15057222D01*
X9993991Y-15057222D02*
X9984468Y-15047698D01*
X9984468Y-15047698D02*
X9965420Y-15038174D01*
X9965420Y-15038174D02*
X9927325Y-15038174D01*
X9927325Y-15038174D02*
X9908277Y-15047698D01*
X9908277Y-15047698D02*
X9898753Y-15057222D01*
X9898753Y-15057222D02*
X9889230Y-15076269D01*
X10174944Y-15028650D02*
X10174944Y-15161984D01*
X10127325Y-14952460D02*
X10079706Y-15095317D01*
X10079706Y-15095317D02*
X10203515Y-15095317D01*
X10432087Y-15161984D02*
X10432087Y-14961984D01*
X10517801Y-15161984D02*
X10517801Y-15057222D01*
X10517801Y-15057222D02*
X10508277Y-15038174D01*
X10508277Y-15038174D02*
X10489230Y-15028650D01*
X10489230Y-15028650D02*
X10460658Y-15028650D01*
X10460658Y-15028650D02*
X10441611Y-15038174D01*
X10441611Y-15038174D02*
X10432087Y-15047698D01*
X10641611Y-15161984D02*
X10622563Y-15152460D01*
X10622563Y-15152460D02*
X10613039Y-15142936D01*
X10613039Y-15142936D02*
X10603515Y-15123888D01*
X10603515Y-15123888D02*
X10603515Y-15066746D01*
X10603515Y-15066746D02*
X10613039Y-15047698D01*
X10613039Y-15047698D02*
X10622563Y-15038174D01*
X10622563Y-15038174D02*
X10641611Y-15028650D01*
X10641611Y-15028650D02*
X10670182Y-15028650D01*
X10670182Y-15028650D02*
X10689230Y-15038174D01*
X10689230Y-15038174D02*
X10698753Y-15047698D01*
X10698753Y-15047698D02*
X10708277Y-15066746D01*
X10708277Y-15066746D02*
X10708277Y-15123888D01*
X10708277Y-15123888D02*
X10698753Y-15142936D01*
X10698753Y-15142936D02*
X10689230Y-15152460D01*
X10689230Y-15152460D02*
X10670182Y-15161984D01*
X10670182Y-15161984D02*
X10641611Y-15161984D01*
X10822563Y-15161984D02*
X10803515Y-15152460D01*
X10803515Y-15152460D02*
X10793992Y-15133412D01*
X10793992Y-15133412D02*
X10793992Y-14961984D01*
X10974944Y-15152460D02*
X10955896Y-15161984D01*
X10955896Y-15161984D02*
X10917801Y-15161984D01*
X10917801Y-15161984D02*
X10898753Y-15152460D01*
X10898753Y-15152460D02*
X10889230Y-15133412D01*
X10889230Y-15133412D02*
X10889230Y-15057222D01*
X10889230Y-15057222D02*
X10898753Y-15038174D01*
X10898753Y-15038174D02*
X10917801Y-15028650D01*
X10917801Y-15028650D02*
X10955896Y-15028650D01*
X10955896Y-15028650D02*
X10974944Y-15038174D01*
X10974944Y-15038174D02*
X10984468Y-15057222D01*
X10984468Y-15057222D02*
X10984468Y-15076269D01*
X10984468Y-15076269D02*
X10889230Y-15095317D01*
X11060658Y-15152460D02*
X11079706Y-15161984D01*
X11079706Y-15161984D02*
X11117801Y-15161984D01*
X11117801Y-15161984D02*
X11136849Y-15152460D01*
X11136849Y-15152460D02*
X11146373Y-15133412D01*
X11146373Y-15133412D02*
X11146373Y-15123888D01*
X11146373Y-15123888D02*
X11136849Y-15104841D01*
X11136849Y-15104841D02*
X11117801Y-15095317D01*
X11117801Y-15095317D02*
X11089230Y-15095317D01*
X11089230Y-15095317D02*
X11070182Y-15085793D01*
X11070182Y-15085793D02*
X11060658Y-15066746D01*
X11060658Y-15066746D02*
X11060658Y-15057222D01*
X11060658Y-15057222D02*
X11070182Y-15038174D01*
X11070182Y-15038174D02*
X11089230Y-15028650D01*
X11089230Y-15028650D02*
X11117801Y-15028650D01*
X11117801Y-15028650D02*
X11136849Y-15038174D01*
X11213039Y-15238174D02*
X11222563Y-15228650D01*
X11222563Y-15228650D02*
X11241611Y-15200079D01*
X11241611Y-15200079D02*
X11251134Y-15181031D01*
X11251134Y-15181031D02*
X11260658Y-15152460D01*
X11260658Y-15152460D02*
X11270182Y-15104841D01*
X11270182Y-15104841D02*
X11270182Y-15066746D01*
X11270182Y-15066746D02*
X11260658Y-15019127D01*
X11260658Y-15019127D02*
X11251134Y-14990555D01*
X11251134Y-14990555D02*
X11241611Y-14971508D01*
X11241611Y-14971508D02*
X11222563Y-14942936D01*
X11222563Y-14942936D02*
X11213039Y-14933412D01*
D12*
X6234320Y-15366320D02*
X6234320Y-15302680D01*
X6170680Y-15302680D01*
X6170680Y-15366320D01*
X6234320Y-15366320D01*
D11*
X6546372Y-15225984D02*
X6565420Y-15225984D01*
X6565420Y-15225984D02*
X6584467Y-15235508D01*
X6584467Y-15235508D02*
X6593991Y-15245031D01*
X6593991Y-15245031D02*
X6603515Y-15264079D01*
X6603515Y-15264079D02*
X6613039Y-15302174D01*
X6613039Y-15302174D02*
X6613039Y-15349793D01*
X6613039Y-15349793D02*
X6603515Y-15387888D01*
X6603515Y-15387888D02*
X6593991Y-15406936D01*
X6593991Y-15406936D02*
X6584467Y-15416460D01*
X6584467Y-15416460D02*
X6565420Y-15425984D01*
X6565420Y-15425984D02*
X6546372Y-15425984D01*
X6546372Y-15425984D02*
X6527324Y-15416460D01*
X6527324Y-15416460D02*
X6517801Y-15406936D01*
X6517801Y-15406936D02*
X6508277Y-15387888D01*
X6508277Y-15387888D02*
X6498753Y-15349793D01*
X6498753Y-15349793D02*
X6498753Y-15302174D01*
X6498753Y-15302174D02*
X6508277Y-15264079D01*
X6508277Y-15264079D02*
X6517801Y-15245031D01*
X6517801Y-15245031D02*
X6527324Y-15235508D01*
X6527324Y-15235508D02*
X6546372Y-15225984D01*
X6698753Y-15406936D02*
X6708277Y-15416460D01*
X6708277Y-15416460D02*
X6698753Y-15425984D01*
X6698753Y-15425984D02*
X6689229Y-15416460D01*
X6689229Y-15416460D02*
X6698753Y-15406936D01*
X6698753Y-15406936D02*
X6698753Y-15425984D01*
X6803515Y-15425984D02*
X6841610Y-15425984D01*
X6841610Y-15425984D02*
X6860658Y-15416460D01*
X6860658Y-15416460D02*
X6870182Y-15406936D01*
X6870182Y-15406936D02*
X6889229Y-15378365D01*
X6889229Y-15378365D02*
X6898753Y-15340269D01*
X6898753Y-15340269D02*
X6898753Y-15264079D01*
X6898753Y-15264079D02*
X6889229Y-15245031D01*
X6889229Y-15245031D02*
X6879705Y-15235508D01*
X6879705Y-15235508D02*
X6860658Y-15225984D01*
X6860658Y-15225984D02*
X6822562Y-15225984D01*
X6822562Y-15225984D02*
X6803515Y-15235508D01*
X6803515Y-15235508D02*
X6793991Y-15245031D01*
X6793991Y-15245031D02*
X6784467Y-15264079D01*
X6784467Y-15264079D02*
X6784467Y-15311698D01*
X6784467Y-15311698D02*
X6793991Y-15330746D01*
X6793991Y-15330746D02*
X6803515Y-15340269D01*
X6803515Y-15340269D02*
X6822562Y-15349793D01*
X6822562Y-15349793D02*
X6860658Y-15349793D01*
X6860658Y-15349793D02*
X6879705Y-15340269D01*
X6879705Y-15340269D02*
X6889229Y-15330746D01*
X6889229Y-15330746D02*
X6898753Y-15311698D01*
X7022562Y-15225984D02*
X7041610Y-15225984D01*
X7041610Y-15225984D02*
X7060658Y-15235508D01*
X7060658Y-15235508D02*
X7070182Y-15245031D01*
X7070182Y-15245031D02*
X7079705Y-15264079D01*
X7079705Y-15264079D02*
X7089229Y-15302174D01*
X7089229Y-15302174D02*
X7089229Y-15349793D01*
X7089229Y-15349793D02*
X7079705Y-15387888D01*
X7079705Y-15387888D02*
X7070182Y-15406936D01*
X7070182Y-15406936D02*
X7060658Y-15416460D01*
X7060658Y-15416460D02*
X7041610Y-15425984D01*
X7041610Y-15425984D02*
X7022562Y-15425984D01*
X7022562Y-15425984D02*
X7003515Y-15416460D01*
X7003515Y-15416460D02*
X6993991Y-15406936D01*
X6993991Y-15406936D02*
X6984467Y-15387888D01*
X6984467Y-15387888D02*
X6974943Y-15349793D01*
X6974943Y-15349793D02*
X6974943Y-15302174D01*
X6974943Y-15302174D02*
X6984467Y-15264079D01*
X6984467Y-15264079D02*
X6993991Y-15245031D01*
X6993991Y-15245031D02*
X7003515Y-15235508D01*
X7003515Y-15235508D02*
X7022562Y-15225984D01*
X7213039Y-15225984D02*
X7232086Y-15225984D01*
X7232086Y-15225984D02*
X7251134Y-15235508D01*
X7251134Y-15235508D02*
X7260658Y-15245031D01*
X7260658Y-15245031D02*
X7270182Y-15264079D01*
X7270182Y-15264079D02*
X7279705Y-15302174D01*
X7279705Y-15302174D02*
X7279705Y-15349793D01*
X7279705Y-15349793D02*
X7270182Y-15387888D01*
X7270182Y-15387888D02*
X7260658Y-15406936D01*
X7260658Y-15406936D02*
X7251134Y-15416460D01*
X7251134Y-15416460D02*
X7232086Y-15425984D01*
X7232086Y-15425984D02*
X7213039Y-15425984D01*
X7213039Y-15425984D02*
X7193991Y-15416460D01*
X7193991Y-15416460D02*
X7184467Y-15406936D01*
X7184467Y-15406936D02*
X7174943Y-15387888D01*
X7174943Y-15387888D02*
X7165420Y-15349793D01*
X7165420Y-15349793D02*
X7165420Y-15302174D01*
X7165420Y-15302174D02*
X7174943Y-15264079D01*
X7174943Y-15264079D02*
X7184467Y-15245031D01*
X7184467Y-15245031D02*
X7193991Y-15235508D01*
X7193991Y-15235508D02*
X7213039Y-15225984D01*
X7365420Y-15425984D02*
X7365420Y-15292650D01*
X7365420Y-15311698D02*
X7374943Y-15302174D01*
X7374943Y-15302174D02*
X7393991Y-15292650D01*
X7393991Y-15292650D02*
X7422563Y-15292650D01*
X7422563Y-15292650D02*
X7441610Y-15302174D01*
X7441610Y-15302174D02*
X7451134Y-15321222D01*
X7451134Y-15321222D02*
X7451134Y-15425984D01*
X7451134Y-15321222D02*
X7460658Y-15302174D01*
X7460658Y-15302174D02*
X7479705Y-15292650D01*
X7479705Y-15292650D02*
X7508277Y-15292650D01*
X7508277Y-15292650D02*
X7527324Y-15302174D01*
X7527324Y-15302174D02*
X7536848Y-15321222D01*
X7536848Y-15321222D02*
X7536848Y-15425984D01*
X7632086Y-15425984D02*
X7632086Y-15292650D01*
X7632086Y-15311698D02*
X7641610Y-15302174D01*
X7641610Y-15302174D02*
X7660658Y-15292650D01*
X7660658Y-15292650D02*
X7689229Y-15292650D01*
X7689229Y-15292650D02*
X7708277Y-15302174D01*
X7708277Y-15302174D02*
X7717801Y-15321222D01*
X7717801Y-15321222D02*
X7717801Y-15425984D01*
X7717801Y-15321222D02*
X7727324Y-15302174D01*
X7727324Y-15302174D02*
X7746372Y-15292650D01*
X7746372Y-15292650D02*
X7774943Y-15292650D01*
X7774943Y-15292650D02*
X7793991Y-15302174D01*
X7793991Y-15302174D02*
X7803515Y-15321222D01*
X7803515Y-15321222D02*
X7803515Y-15425984D01*
X8193991Y-15216460D02*
X8022563Y-15473603D01*
X8451134Y-15225984D02*
X8470182Y-15225984D01*
X8470182Y-15225984D02*
X8489229Y-15235508D01*
X8489229Y-15235508D02*
X8498753Y-15245031D01*
X8498753Y-15245031D02*
X8508277Y-15264079D01*
X8508277Y-15264079D02*
X8517801Y-15302174D01*
X8517801Y-15302174D02*
X8517801Y-15349793D01*
X8517801Y-15349793D02*
X8508277Y-15387888D01*
X8508277Y-15387888D02*
X8498753Y-15406936D01*
X8498753Y-15406936D02*
X8489229Y-15416460D01*
X8489229Y-15416460D02*
X8470182Y-15425984D01*
X8470182Y-15425984D02*
X8451134Y-15425984D01*
X8451134Y-15425984D02*
X8432087Y-15416460D01*
X8432087Y-15416460D02*
X8422563Y-15406936D01*
X8422563Y-15406936D02*
X8413039Y-15387888D01*
X8413039Y-15387888D02*
X8403515Y-15349793D01*
X8403515Y-15349793D02*
X8403515Y-15302174D01*
X8403515Y-15302174D02*
X8413039Y-15264079D01*
X8413039Y-15264079D02*
X8422563Y-15245031D01*
X8422563Y-15245031D02*
X8432087Y-15235508D01*
X8432087Y-15235508D02*
X8451134Y-15225984D01*
X8603515Y-15406936D02*
X8613039Y-15416460D01*
X8613039Y-15416460D02*
X8603515Y-15425984D01*
X8603515Y-15425984D02*
X8593991Y-15416460D01*
X8593991Y-15416460D02*
X8603515Y-15406936D01*
X8603515Y-15406936D02*
X8603515Y-15425984D01*
X8736848Y-15225984D02*
X8755896Y-15225984D01*
X8755896Y-15225984D02*
X8774944Y-15235508D01*
X8774944Y-15235508D02*
X8784468Y-15245031D01*
X8784468Y-15245031D02*
X8793991Y-15264079D01*
X8793991Y-15264079D02*
X8803515Y-15302174D01*
X8803515Y-15302174D02*
X8803515Y-15349793D01*
X8803515Y-15349793D02*
X8793991Y-15387888D01*
X8793991Y-15387888D02*
X8784468Y-15406936D01*
X8784468Y-15406936D02*
X8774944Y-15416460D01*
X8774944Y-15416460D02*
X8755896Y-15425984D01*
X8755896Y-15425984D02*
X8736848Y-15425984D01*
X8736848Y-15425984D02*
X8717801Y-15416460D01*
X8717801Y-15416460D02*
X8708277Y-15406936D01*
X8708277Y-15406936D02*
X8698753Y-15387888D01*
X8698753Y-15387888D02*
X8689229Y-15349793D01*
X8689229Y-15349793D02*
X8689229Y-15302174D01*
X8689229Y-15302174D02*
X8698753Y-15264079D01*
X8698753Y-15264079D02*
X8708277Y-15245031D01*
X8708277Y-15245031D02*
X8717801Y-15235508D01*
X8717801Y-15235508D02*
X8736848Y-15225984D01*
X8870182Y-15225984D02*
X8993991Y-15225984D01*
X8993991Y-15225984D02*
X8927325Y-15302174D01*
X8927325Y-15302174D02*
X8955896Y-15302174D01*
X8955896Y-15302174D02*
X8974944Y-15311698D01*
X8974944Y-15311698D02*
X8984468Y-15321222D01*
X8984468Y-15321222D02*
X8993991Y-15340269D01*
X8993991Y-15340269D02*
X8993991Y-15387888D01*
X8993991Y-15387888D02*
X8984468Y-15406936D01*
X8984468Y-15406936D02*
X8974944Y-15416460D01*
X8974944Y-15416460D02*
X8955896Y-15425984D01*
X8955896Y-15425984D02*
X8898753Y-15425984D01*
X8898753Y-15425984D02*
X8879706Y-15416460D01*
X8879706Y-15416460D02*
X8870182Y-15406936D01*
X9174944Y-15225984D02*
X9079706Y-15225984D01*
X9079706Y-15225984D02*
X9070182Y-15321222D01*
X9070182Y-15321222D02*
X9079706Y-15311698D01*
X9079706Y-15311698D02*
X9098753Y-15302174D01*
X9098753Y-15302174D02*
X9146372Y-15302174D01*
X9146372Y-15302174D02*
X9165420Y-15311698D01*
X9165420Y-15311698D02*
X9174944Y-15321222D01*
X9174944Y-15321222D02*
X9184468Y-15340269D01*
X9184468Y-15340269D02*
X9184468Y-15387888D01*
X9184468Y-15387888D02*
X9174944Y-15406936D01*
X9174944Y-15406936D02*
X9165420Y-15416460D01*
X9165420Y-15416460D02*
X9146372Y-15425984D01*
X9146372Y-15425984D02*
X9098753Y-15425984D01*
X9098753Y-15425984D02*
X9079706Y-15416460D01*
X9079706Y-15416460D02*
X9070182Y-15406936D01*
X9355896Y-15292650D02*
X9355896Y-15425984D01*
X9308277Y-15216460D02*
X9260658Y-15359317D01*
X9260658Y-15359317D02*
X9384468Y-15359317D01*
X9451134Y-15225984D02*
X9451134Y-15264079D01*
X9527325Y-15225984D02*
X9527325Y-15264079D01*
X9822563Y-15502174D02*
X9813039Y-15492650D01*
X9813039Y-15492650D02*
X9793991Y-15464079D01*
X9793991Y-15464079D02*
X9784468Y-15445031D01*
X9784468Y-15445031D02*
X9774944Y-15416460D01*
X9774944Y-15416460D02*
X9765420Y-15368841D01*
X9765420Y-15368841D02*
X9765420Y-15330746D01*
X9765420Y-15330746D02*
X9774944Y-15283127D01*
X9774944Y-15283127D02*
X9784468Y-15254555D01*
X9784468Y-15254555D02*
X9793991Y-15235508D01*
X9793991Y-15235508D02*
X9813039Y-15206936D01*
X9813039Y-15206936D02*
X9822563Y-15197412D01*
X9984468Y-15225984D02*
X9946372Y-15225984D01*
X9946372Y-15225984D02*
X9927325Y-15235508D01*
X9927325Y-15235508D02*
X9917801Y-15245031D01*
X9917801Y-15245031D02*
X9898753Y-15273603D01*
X9898753Y-15273603D02*
X9889230Y-15311698D01*
X9889230Y-15311698D02*
X9889230Y-15387888D01*
X9889230Y-15387888D02*
X9898753Y-15406936D01*
X9898753Y-15406936D02*
X9908277Y-15416460D01*
X9908277Y-15416460D02*
X9927325Y-15425984D01*
X9927325Y-15425984D02*
X9965420Y-15425984D01*
X9965420Y-15425984D02*
X9984468Y-15416460D01*
X9984468Y-15416460D02*
X9993991Y-15406936D01*
X9993991Y-15406936D02*
X10003515Y-15387888D01*
X10003515Y-15387888D02*
X10003515Y-15340269D01*
X10003515Y-15340269D02*
X9993991Y-15321222D01*
X9993991Y-15321222D02*
X9984468Y-15311698D01*
X9984468Y-15311698D02*
X9965420Y-15302174D01*
X9965420Y-15302174D02*
X9927325Y-15302174D01*
X9927325Y-15302174D02*
X9908277Y-15311698D01*
X9908277Y-15311698D02*
X9898753Y-15321222D01*
X9898753Y-15321222D02*
X9889230Y-15340269D01*
X10241611Y-15425984D02*
X10241611Y-15225984D01*
X10327325Y-15425984D02*
X10327325Y-15321222D01*
X10327325Y-15321222D02*
X10317801Y-15302174D01*
X10317801Y-15302174D02*
X10298753Y-15292650D01*
X10298753Y-15292650D02*
X10270182Y-15292650D01*
X10270182Y-15292650D02*
X10251134Y-15302174D01*
X10251134Y-15302174D02*
X10241611Y-15311698D01*
X10451134Y-15425984D02*
X10432087Y-15416460D01*
X10432087Y-15416460D02*
X10422563Y-15406936D01*
X10422563Y-15406936D02*
X10413039Y-15387888D01*
X10413039Y-15387888D02*
X10413039Y-15330746D01*
X10413039Y-15330746D02*
X10422563Y-15311698D01*
X10422563Y-15311698D02*
X10432087Y-15302174D01*
X10432087Y-15302174D02*
X10451134Y-15292650D01*
X10451134Y-15292650D02*
X10479706Y-15292650D01*
X10479706Y-15292650D02*
X10498753Y-15302174D01*
X10498753Y-15302174D02*
X10508277Y-15311698D01*
X10508277Y-15311698D02*
X10517801Y-15330746D01*
X10517801Y-15330746D02*
X10517801Y-15387888D01*
X10517801Y-15387888D02*
X10508277Y-15406936D01*
X10508277Y-15406936D02*
X10498753Y-15416460D01*
X10498753Y-15416460D02*
X10479706Y-15425984D01*
X10479706Y-15425984D02*
X10451134Y-15425984D01*
X10632087Y-15425984D02*
X10613039Y-15416460D01*
X10613039Y-15416460D02*
X10603515Y-15397412D01*
X10603515Y-15397412D02*
X10603515Y-15225984D01*
X10784468Y-15416460D02*
X10765420Y-15425984D01*
X10765420Y-15425984D02*
X10727325Y-15425984D01*
X10727325Y-15425984D02*
X10708277Y-15416460D01*
X10708277Y-15416460D02*
X10698753Y-15397412D01*
X10698753Y-15397412D02*
X10698753Y-15321222D01*
X10698753Y-15321222D02*
X10708277Y-15302174D01*
X10708277Y-15302174D02*
X10727325Y-15292650D01*
X10727325Y-15292650D02*
X10765420Y-15292650D01*
X10765420Y-15292650D02*
X10784468Y-15302174D01*
X10784468Y-15302174D02*
X10793992Y-15321222D01*
X10793992Y-15321222D02*
X10793992Y-15340269D01*
X10793992Y-15340269D02*
X10698753Y-15359317D01*
X10870182Y-15416460D02*
X10889230Y-15425984D01*
X10889230Y-15425984D02*
X10927325Y-15425984D01*
X10927325Y-15425984D02*
X10946373Y-15416460D01*
X10946373Y-15416460D02*
X10955896Y-15397412D01*
X10955896Y-15397412D02*
X10955896Y-15387888D01*
X10955896Y-15387888D02*
X10946373Y-15368841D01*
X10946373Y-15368841D02*
X10927325Y-15359317D01*
X10927325Y-15359317D02*
X10898753Y-15359317D01*
X10898753Y-15359317D02*
X10879706Y-15349793D01*
X10879706Y-15349793D02*
X10870182Y-15330746D01*
X10870182Y-15330746D02*
X10870182Y-15321222D01*
X10870182Y-15321222D02*
X10879706Y-15302174D01*
X10879706Y-15302174D02*
X10898753Y-15292650D01*
X10898753Y-15292650D02*
X10927325Y-15292650D01*
X10927325Y-15292650D02*
X10946373Y-15302174D01*
X11022563Y-15502174D02*
X11032087Y-15492650D01*
X11032087Y-15492650D02*
X11051134Y-15464079D01*
X11051134Y-15464079D02*
X11060658Y-15445031D01*
X11060658Y-15445031D02*
X11070182Y-15416460D01*
X11070182Y-15416460D02*
X11079706Y-15368841D01*
X11079706Y-15368841D02*
X11079706Y-15330746D01*
X11079706Y-15330746D02*
X11070182Y-15283127D01*
X11070182Y-15283127D02*
X11060658Y-15254555D01*
X11060658Y-15254555D02*
X11051134Y-15235508D01*
X11051134Y-15235508D02*
X11032087Y-15206936D01*
X11032087Y-15206936D02*
X11022563Y-15197412D01*
D12*
X6200000Y-15646000D02*
X6247500Y-15598500D01*
X6200000Y-15551000D01*
X6152500Y-15598500D01*
X6200000Y-15646000D01*
D11*
X6546372Y-15489984D02*
X6565420Y-15489984D01*
X6565420Y-15489984D02*
X6584467Y-15499508D01*
X6584467Y-15499508D02*
X6593991Y-15509031D01*
X6593991Y-15509031D02*
X6603515Y-15528079D01*
X6603515Y-15528079D02*
X6613039Y-15566174D01*
X6613039Y-15566174D02*
X6613039Y-15613793D01*
X6613039Y-15613793D02*
X6603515Y-15651888D01*
X6603515Y-15651888D02*
X6593991Y-15670936D01*
X6593991Y-15670936D02*
X6584467Y-15680460D01*
X6584467Y-15680460D02*
X6565420Y-15689984D01*
X6565420Y-15689984D02*
X6546372Y-15689984D01*
X6546372Y-15689984D02*
X6527324Y-15680460D01*
X6527324Y-15680460D02*
X6517801Y-15670936D01*
X6517801Y-15670936D02*
X6508277Y-15651888D01*
X6508277Y-15651888D02*
X6498753Y-15613793D01*
X6498753Y-15613793D02*
X6498753Y-15566174D01*
X6498753Y-15566174D02*
X6508277Y-15528079D01*
X6508277Y-15528079D02*
X6517801Y-15509031D01*
X6517801Y-15509031D02*
X6527324Y-15499508D01*
X6527324Y-15499508D02*
X6546372Y-15489984D01*
X6698753Y-15670936D02*
X6708277Y-15680460D01*
X6708277Y-15680460D02*
X6698753Y-15689984D01*
X6698753Y-15689984D02*
X6689229Y-15680460D01*
X6689229Y-15680460D02*
X6698753Y-15670936D01*
X6698753Y-15670936D02*
X6698753Y-15689984D01*
X6803515Y-15689984D02*
X6841610Y-15689984D01*
X6841610Y-15689984D02*
X6860658Y-15680460D01*
X6860658Y-15680460D02*
X6870182Y-15670936D01*
X6870182Y-15670936D02*
X6889229Y-15642365D01*
X6889229Y-15642365D02*
X6898753Y-15604269D01*
X6898753Y-15604269D02*
X6898753Y-15528079D01*
X6898753Y-15528079D02*
X6889229Y-15509031D01*
X6889229Y-15509031D02*
X6879705Y-15499508D01*
X6879705Y-15499508D02*
X6860658Y-15489984D01*
X6860658Y-15489984D02*
X6822562Y-15489984D01*
X6822562Y-15489984D02*
X6803515Y-15499508D01*
X6803515Y-15499508D02*
X6793991Y-15509031D01*
X6793991Y-15509031D02*
X6784467Y-15528079D01*
X6784467Y-15528079D02*
X6784467Y-15575698D01*
X6784467Y-15575698D02*
X6793991Y-15594746D01*
X6793991Y-15594746D02*
X6803515Y-15604269D01*
X6803515Y-15604269D02*
X6822562Y-15613793D01*
X6822562Y-15613793D02*
X6860658Y-15613793D01*
X6860658Y-15613793D02*
X6879705Y-15604269D01*
X6879705Y-15604269D02*
X6889229Y-15594746D01*
X6889229Y-15594746D02*
X6898753Y-15575698D01*
X7079705Y-15489984D02*
X6984467Y-15489984D01*
X6984467Y-15489984D02*
X6974943Y-15585222D01*
X6974943Y-15585222D02*
X6984467Y-15575698D01*
X6984467Y-15575698D02*
X7003515Y-15566174D01*
X7003515Y-15566174D02*
X7051134Y-15566174D01*
X7051134Y-15566174D02*
X7070182Y-15575698D01*
X7070182Y-15575698D02*
X7079705Y-15585222D01*
X7079705Y-15585222D02*
X7089229Y-15604269D01*
X7089229Y-15604269D02*
X7089229Y-15651888D01*
X7089229Y-15651888D02*
X7079705Y-15670936D01*
X7079705Y-15670936D02*
X7070182Y-15680460D01*
X7070182Y-15680460D02*
X7051134Y-15689984D01*
X7051134Y-15689984D02*
X7003515Y-15689984D01*
X7003515Y-15689984D02*
X6984467Y-15680460D01*
X6984467Y-15680460D02*
X6974943Y-15670936D01*
X7213039Y-15489984D02*
X7232086Y-15489984D01*
X7232086Y-15489984D02*
X7251134Y-15499508D01*
X7251134Y-15499508D02*
X7260658Y-15509031D01*
X7260658Y-15509031D02*
X7270182Y-15528079D01*
X7270182Y-15528079D02*
X7279705Y-15566174D01*
X7279705Y-15566174D02*
X7279705Y-15613793D01*
X7279705Y-15613793D02*
X7270182Y-15651888D01*
X7270182Y-15651888D02*
X7260658Y-15670936D01*
X7260658Y-15670936D02*
X7251134Y-15680460D01*
X7251134Y-15680460D02*
X7232086Y-15689984D01*
X7232086Y-15689984D02*
X7213039Y-15689984D01*
X7213039Y-15689984D02*
X7193991Y-15680460D01*
X7193991Y-15680460D02*
X7184467Y-15670936D01*
X7184467Y-15670936D02*
X7174943Y-15651888D01*
X7174943Y-15651888D02*
X7165420Y-15613793D01*
X7165420Y-15613793D02*
X7165420Y-15566174D01*
X7165420Y-15566174D02*
X7174943Y-15528079D01*
X7174943Y-15528079D02*
X7184467Y-15509031D01*
X7184467Y-15509031D02*
X7193991Y-15499508D01*
X7193991Y-15499508D02*
X7213039Y-15489984D01*
X7365420Y-15689984D02*
X7365420Y-15556650D01*
X7365420Y-15575698D02*
X7374943Y-15566174D01*
X7374943Y-15566174D02*
X7393991Y-15556650D01*
X7393991Y-15556650D02*
X7422563Y-15556650D01*
X7422563Y-15556650D02*
X7441610Y-15566174D01*
X7441610Y-15566174D02*
X7451134Y-15585222D01*
X7451134Y-15585222D02*
X7451134Y-15689984D01*
X7451134Y-15585222D02*
X7460658Y-15566174D01*
X7460658Y-15566174D02*
X7479705Y-15556650D01*
X7479705Y-15556650D02*
X7508277Y-15556650D01*
X7508277Y-15556650D02*
X7527324Y-15566174D01*
X7527324Y-15566174D02*
X7536848Y-15585222D01*
X7536848Y-15585222D02*
X7536848Y-15689984D01*
X7632086Y-15689984D02*
X7632086Y-15556650D01*
X7632086Y-15575698D02*
X7641610Y-15566174D01*
X7641610Y-15566174D02*
X7660658Y-15556650D01*
X7660658Y-15556650D02*
X7689229Y-15556650D01*
X7689229Y-15556650D02*
X7708277Y-15566174D01*
X7708277Y-15566174D02*
X7717801Y-15585222D01*
X7717801Y-15585222D02*
X7717801Y-15689984D01*
X7717801Y-15585222D02*
X7727324Y-15566174D01*
X7727324Y-15566174D02*
X7746372Y-15556650D01*
X7746372Y-15556650D02*
X7774943Y-15556650D01*
X7774943Y-15556650D02*
X7793991Y-15566174D01*
X7793991Y-15566174D02*
X7803515Y-15585222D01*
X7803515Y-15585222D02*
X7803515Y-15689984D01*
X8193991Y-15480460D02*
X8022563Y-15737603D01*
X8451134Y-15489984D02*
X8470182Y-15489984D01*
X8470182Y-15489984D02*
X8489229Y-15499508D01*
X8489229Y-15499508D02*
X8498753Y-15509031D01*
X8498753Y-15509031D02*
X8508277Y-15528079D01*
X8508277Y-15528079D02*
X8517801Y-15566174D01*
X8517801Y-15566174D02*
X8517801Y-15613793D01*
X8517801Y-15613793D02*
X8508277Y-15651888D01*
X8508277Y-15651888D02*
X8498753Y-15670936D01*
X8498753Y-15670936D02*
X8489229Y-15680460D01*
X8489229Y-15680460D02*
X8470182Y-15689984D01*
X8470182Y-15689984D02*
X8451134Y-15689984D01*
X8451134Y-15689984D02*
X8432087Y-15680460D01*
X8432087Y-15680460D02*
X8422563Y-15670936D01*
X8422563Y-15670936D02*
X8413039Y-15651888D01*
X8413039Y-15651888D02*
X8403515Y-15613793D01*
X8403515Y-15613793D02*
X8403515Y-15566174D01*
X8403515Y-15566174D02*
X8413039Y-15528079D01*
X8413039Y-15528079D02*
X8422563Y-15509031D01*
X8422563Y-15509031D02*
X8432087Y-15499508D01*
X8432087Y-15499508D02*
X8451134Y-15489984D01*
X8603515Y-15670936D02*
X8613039Y-15680460D01*
X8613039Y-15680460D02*
X8603515Y-15689984D01*
X8603515Y-15689984D02*
X8593991Y-15680460D01*
X8593991Y-15680460D02*
X8603515Y-15670936D01*
X8603515Y-15670936D02*
X8603515Y-15689984D01*
X8736848Y-15489984D02*
X8755896Y-15489984D01*
X8755896Y-15489984D02*
X8774944Y-15499508D01*
X8774944Y-15499508D02*
X8784468Y-15509031D01*
X8784468Y-15509031D02*
X8793991Y-15528079D01*
X8793991Y-15528079D02*
X8803515Y-15566174D01*
X8803515Y-15566174D02*
X8803515Y-15613793D01*
X8803515Y-15613793D02*
X8793991Y-15651888D01*
X8793991Y-15651888D02*
X8784468Y-15670936D01*
X8784468Y-15670936D02*
X8774944Y-15680460D01*
X8774944Y-15680460D02*
X8755896Y-15689984D01*
X8755896Y-15689984D02*
X8736848Y-15689984D01*
X8736848Y-15689984D02*
X8717801Y-15680460D01*
X8717801Y-15680460D02*
X8708277Y-15670936D01*
X8708277Y-15670936D02*
X8698753Y-15651888D01*
X8698753Y-15651888D02*
X8689229Y-15613793D01*
X8689229Y-15613793D02*
X8689229Y-15566174D01*
X8689229Y-15566174D02*
X8698753Y-15528079D01*
X8698753Y-15528079D02*
X8708277Y-15509031D01*
X8708277Y-15509031D02*
X8717801Y-15499508D01*
X8717801Y-15499508D02*
X8736848Y-15489984D01*
X8870182Y-15489984D02*
X8993991Y-15489984D01*
X8993991Y-15489984D02*
X8927325Y-15566174D01*
X8927325Y-15566174D02*
X8955896Y-15566174D01*
X8955896Y-15566174D02*
X8974944Y-15575698D01*
X8974944Y-15575698D02*
X8984468Y-15585222D01*
X8984468Y-15585222D02*
X8993991Y-15604269D01*
X8993991Y-15604269D02*
X8993991Y-15651888D01*
X8993991Y-15651888D02*
X8984468Y-15670936D01*
X8984468Y-15670936D02*
X8974944Y-15680460D01*
X8974944Y-15680460D02*
X8955896Y-15689984D01*
X8955896Y-15689984D02*
X8898753Y-15689984D01*
X8898753Y-15689984D02*
X8879706Y-15680460D01*
X8879706Y-15680460D02*
X8870182Y-15670936D01*
X9060658Y-15489984D02*
X9193991Y-15489984D01*
X9193991Y-15489984D02*
X9108277Y-15689984D01*
X9355896Y-15556650D02*
X9355896Y-15689984D01*
X9308277Y-15480460D02*
X9260658Y-15623317D01*
X9260658Y-15623317D02*
X9384468Y-15623317D01*
X9451134Y-15489984D02*
X9451134Y-15528079D01*
X9527325Y-15489984D02*
X9527325Y-15528079D01*
X9822563Y-15766174D02*
X9813039Y-15756650D01*
X9813039Y-15756650D02*
X9793991Y-15728079D01*
X9793991Y-15728079D02*
X9784468Y-15709031D01*
X9784468Y-15709031D02*
X9774944Y-15680460D01*
X9774944Y-15680460D02*
X9765420Y-15632841D01*
X9765420Y-15632841D02*
X9765420Y-15594746D01*
X9765420Y-15594746D02*
X9774944Y-15547127D01*
X9774944Y-15547127D02*
X9784468Y-15518555D01*
X9784468Y-15518555D02*
X9793991Y-15499508D01*
X9793991Y-15499508D02*
X9813039Y-15470936D01*
X9813039Y-15470936D02*
X9822563Y-15461412D01*
X10003515Y-15689984D02*
X9889230Y-15689984D01*
X9946372Y-15689984D02*
X9946372Y-15489984D01*
X9946372Y-15489984D02*
X9927325Y-15518555D01*
X9927325Y-15518555D02*
X9908277Y-15537603D01*
X9908277Y-15537603D02*
X9889230Y-15547127D01*
X10184468Y-15489984D02*
X10089230Y-15489984D01*
X10089230Y-15489984D02*
X10079706Y-15585222D01*
X10079706Y-15585222D02*
X10089230Y-15575698D01*
X10089230Y-15575698D02*
X10108277Y-15566174D01*
X10108277Y-15566174D02*
X10155896Y-15566174D01*
X10155896Y-15566174D02*
X10174944Y-15575698D01*
X10174944Y-15575698D02*
X10184468Y-15585222D01*
X10184468Y-15585222D02*
X10193991Y-15604269D01*
X10193991Y-15604269D02*
X10193991Y-15651888D01*
X10193991Y-15651888D02*
X10184468Y-15670936D01*
X10184468Y-15670936D02*
X10174944Y-15680460D01*
X10174944Y-15680460D02*
X10155896Y-15689984D01*
X10155896Y-15689984D02*
X10108277Y-15689984D01*
X10108277Y-15689984D02*
X10089230Y-15680460D01*
X10089230Y-15680460D02*
X10079706Y-15670936D01*
X10432087Y-15689984D02*
X10432087Y-15489984D01*
X10517801Y-15689984D02*
X10517801Y-15585222D01*
X10517801Y-15585222D02*
X10508277Y-15566174D01*
X10508277Y-15566174D02*
X10489230Y-15556650D01*
X10489230Y-15556650D02*
X10460658Y-15556650D01*
X10460658Y-15556650D02*
X10441611Y-15566174D01*
X10441611Y-15566174D02*
X10432087Y-15575698D01*
X10641611Y-15689984D02*
X10622563Y-15680460D01*
X10622563Y-15680460D02*
X10613039Y-15670936D01*
X10613039Y-15670936D02*
X10603515Y-15651888D01*
X10603515Y-15651888D02*
X10603515Y-15594746D01*
X10603515Y-15594746D02*
X10613039Y-15575698D01*
X10613039Y-15575698D02*
X10622563Y-15566174D01*
X10622563Y-15566174D02*
X10641611Y-15556650D01*
X10641611Y-15556650D02*
X10670182Y-15556650D01*
X10670182Y-15556650D02*
X10689230Y-15566174D01*
X10689230Y-15566174D02*
X10698753Y-15575698D01*
X10698753Y-15575698D02*
X10708277Y-15594746D01*
X10708277Y-15594746D02*
X10708277Y-15651888D01*
X10708277Y-15651888D02*
X10698753Y-15670936D01*
X10698753Y-15670936D02*
X10689230Y-15680460D01*
X10689230Y-15680460D02*
X10670182Y-15689984D01*
X10670182Y-15689984D02*
X10641611Y-15689984D01*
X10822563Y-15689984D02*
X10803515Y-15680460D01*
X10803515Y-15680460D02*
X10793992Y-15661412D01*
X10793992Y-15661412D02*
X10793992Y-15489984D01*
X10974944Y-15680460D02*
X10955896Y-15689984D01*
X10955896Y-15689984D02*
X10917801Y-15689984D01*
X10917801Y-15689984D02*
X10898753Y-15680460D01*
X10898753Y-15680460D02*
X10889230Y-15661412D01*
X10889230Y-15661412D02*
X10889230Y-15585222D01*
X10889230Y-15585222D02*
X10898753Y-15566174D01*
X10898753Y-15566174D02*
X10917801Y-15556650D01*
X10917801Y-15556650D02*
X10955896Y-15556650D01*
X10955896Y-15556650D02*
X10974944Y-15566174D01*
X10974944Y-15566174D02*
X10984468Y-15585222D01*
X10984468Y-15585222D02*
X10984468Y-15604269D01*
X10984468Y-15604269D02*
X10889230Y-15623317D01*
X11060658Y-15680460D02*
X11079706Y-15689984D01*
X11079706Y-15689984D02*
X11117801Y-15689984D01*
X11117801Y-15689984D02*
X11136849Y-15680460D01*
X11136849Y-15680460D02*
X11146373Y-15661412D01*
X11146373Y-15661412D02*
X11146373Y-15651888D01*
X11146373Y-15651888D02*
X11136849Y-15632841D01*
X11136849Y-15632841D02*
X11117801Y-15623317D01*
X11117801Y-15623317D02*
X11089230Y-15623317D01*
X11089230Y-15623317D02*
X11070182Y-15613793D01*
X11070182Y-15613793D02*
X11060658Y-15594746D01*
X11060658Y-15594746D02*
X11060658Y-15585222D01*
X11060658Y-15585222D02*
X11070182Y-15566174D01*
X11070182Y-15566174D02*
X11089230Y-15556650D01*
X11089230Y-15556650D02*
X11117801Y-15556650D01*
X11117801Y-15556650D02*
X11136849Y-15566174D01*
X11213039Y-15766174D02*
X11222563Y-15756650D01*
X11222563Y-15756650D02*
X11241611Y-15728079D01*
X11241611Y-15728079D02*
X11251134Y-15709031D01*
X11251134Y-15709031D02*
X11260658Y-15680460D01*
X11260658Y-15680460D02*
X11270182Y-15632841D01*
X11270182Y-15632841D02*
X11270182Y-15594746D01*
X11270182Y-15594746D02*
X11260658Y-15547127D01*
X11260658Y-15547127D02*
X11251134Y-15518555D01*
X11251134Y-15518555D02*
X11241611Y-15499508D01*
X11241611Y-15499508D02*
X11222563Y-15470936D01*
X11222563Y-15470936D02*
X11213039Y-15461412D01*
D12*
X6147500Y-15812500D02*
X6247500Y-15912500D01*
X6247500Y-15812500D02*
X6147500Y-15912500D01*
X6247500Y-15862500D02*
G75*
G02*
X6147500Y-15862500I-50000J0D01*
G01*
X6147500Y-15862500D02*
G75*
G02*
X6247500Y-15862500I50000J0D01*
G01*
D11*
X6613039Y-15953984D02*
X6498753Y-15953984D01*
X6555896Y-15953984D02*
X6555896Y-15753984D01*
X6555896Y-15753984D02*
X6536848Y-15782555D01*
X6536848Y-15782555D02*
X6517801Y-15801603D01*
X6517801Y-15801603D02*
X6498753Y-15811127D01*
X6698753Y-15934936D02*
X6708277Y-15944460D01*
X6708277Y-15944460D02*
X6698753Y-15953984D01*
X6698753Y-15953984D02*
X6689229Y-15944460D01*
X6689229Y-15944460D02*
X6698753Y-15934936D01*
X6698753Y-15934936D02*
X6698753Y-15953984D01*
X6832086Y-15753984D02*
X6851134Y-15753984D01*
X6851134Y-15753984D02*
X6870182Y-15763508D01*
X6870182Y-15763508D02*
X6879705Y-15773031D01*
X6879705Y-15773031D02*
X6889229Y-15792079D01*
X6889229Y-15792079D02*
X6898753Y-15830174D01*
X6898753Y-15830174D02*
X6898753Y-15877793D01*
X6898753Y-15877793D02*
X6889229Y-15915888D01*
X6889229Y-15915888D02*
X6879705Y-15934936D01*
X6879705Y-15934936D02*
X6870182Y-15944460D01*
X6870182Y-15944460D02*
X6851134Y-15953984D01*
X6851134Y-15953984D02*
X6832086Y-15953984D01*
X6832086Y-15953984D02*
X6813039Y-15944460D01*
X6813039Y-15944460D02*
X6803515Y-15934936D01*
X6803515Y-15934936D02*
X6793991Y-15915888D01*
X6793991Y-15915888D02*
X6784467Y-15877793D01*
X6784467Y-15877793D02*
X6784467Y-15830174D01*
X6784467Y-15830174D02*
X6793991Y-15792079D01*
X6793991Y-15792079D02*
X6803515Y-15773031D01*
X6803515Y-15773031D02*
X6813039Y-15763508D01*
X6813039Y-15763508D02*
X6832086Y-15753984D01*
X7022562Y-15753984D02*
X7041610Y-15753984D01*
X7041610Y-15753984D02*
X7060658Y-15763508D01*
X7060658Y-15763508D02*
X7070182Y-15773031D01*
X7070182Y-15773031D02*
X7079705Y-15792079D01*
X7079705Y-15792079D02*
X7089229Y-15830174D01*
X7089229Y-15830174D02*
X7089229Y-15877793D01*
X7089229Y-15877793D02*
X7079705Y-15915888D01*
X7079705Y-15915888D02*
X7070182Y-15934936D01*
X7070182Y-15934936D02*
X7060658Y-15944460D01*
X7060658Y-15944460D02*
X7041610Y-15953984D01*
X7041610Y-15953984D02*
X7022562Y-15953984D01*
X7022562Y-15953984D02*
X7003515Y-15944460D01*
X7003515Y-15944460D02*
X6993991Y-15934936D01*
X6993991Y-15934936D02*
X6984467Y-15915888D01*
X6984467Y-15915888D02*
X6974943Y-15877793D01*
X6974943Y-15877793D02*
X6974943Y-15830174D01*
X6974943Y-15830174D02*
X6984467Y-15792079D01*
X6984467Y-15792079D02*
X6993991Y-15773031D01*
X6993991Y-15773031D02*
X7003515Y-15763508D01*
X7003515Y-15763508D02*
X7022562Y-15753984D01*
X7213039Y-15753984D02*
X7232086Y-15753984D01*
X7232086Y-15753984D02*
X7251134Y-15763508D01*
X7251134Y-15763508D02*
X7260658Y-15773031D01*
X7260658Y-15773031D02*
X7270182Y-15792079D01*
X7270182Y-15792079D02*
X7279705Y-15830174D01*
X7279705Y-15830174D02*
X7279705Y-15877793D01*
X7279705Y-15877793D02*
X7270182Y-15915888D01*
X7270182Y-15915888D02*
X7260658Y-15934936D01*
X7260658Y-15934936D02*
X7251134Y-15944460D01*
X7251134Y-15944460D02*
X7232086Y-15953984D01*
X7232086Y-15953984D02*
X7213039Y-15953984D01*
X7213039Y-15953984D02*
X7193991Y-15944460D01*
X7193991Y-15944460D02*
X7184467Y-15934936D01*
X7184467Y-15934936D02*
X7174943Y-15915888D01*
X7174943Y-15915888D02*
X7165420Y-15877793D01*
X7165420Y-15877793D02*
X7165420Y-15830174D01*
X7165420Y-15830174D02*
X7174943Y-15792079D01*
X7174943Y-15792079D02*
X7184467Y-15773031D01*
X7184467Y-15773031D02*
X7193991Y-15763508D01*
X7193991Y-15763508D02*
X7213039Y-15753984D01*
X7365420Y-15953984D02*
X7365420Y-15820650D01*
X7365420Y-15839698D02*
X7374943Y-15830174D01*
X7374943Y-15830174D02*
X7393991Y-15820650D01*
X7393991Y-15820650D02*
X7422563Y-15820650D01*
X7422563Y-15820650D02*
X7441610Y-15830174D01*
X7441610Y-15830174D02*
X7451134Y-15849222D01*
X7451134Y-15849222D02*
X7451134Y-15953984D01*
X7451134Y-15849222D02*
X7460658Y-15830174D01*
X7460658Y-15830174D02*
X7479705Y-15820650D01*
X7479705Y-15820650D02*
X7508277Y-15820650D01*
X7508277Y-15820650D02*
X7527324Y-15830174D01*
X7527324Y-15830174D02*
X7536848Y-15849222D01*
X7536848Y-15849222D02*
X7536848Y-15953984D01*
X7632086Y-15953984D02*
X7632086Y-15820650D01*
X7632086Y-15839698D02*
X7641610Y-15830174D01*
X7641610Y-15830174D02*
X7660658Y-15820650D01*
X7660658Y-15820650D02*
X7689229Y-15820650D01*
X7689229Y-15820650D02*
X7708277Y-15830174D01*
X7708277Y-15830174D02*
X7717801Y-15849222D01*
X7717801Y-15849222D02*
X7717801Y-15953984D01*
X7717801Y-15849222D02*
X7727324Y-15830174D01*
X7727324Y-15830174D02*
X7746372Y-15820650D01*
X7746372Y-15820650D02*
X7774943Y-15820650D01*
X7774943Y-15820650D02*
X7793991Y-15830174D01*
X7793991Y-15830174D02*
X7803515Y-15849222D01*
X7803515Y-15849222D02*
X7803515Y-15953984D01*
X8193991Y-15744460D02*
X8022563Y-16001603D01*
X8451134Y-15753984D02*
X8470182Y-15753984D01*
X8470182Y-15753984D02*
X8489229Y-15763508D01*
X8489229Y-15763508D02*
X8498753Y-15773031D01*
X8498753Y-15773031D02*
X8508277Y-15792079D01*
X8508277Y-15792079D02*
X8517801Y-15830174D01*
X8517801Y-15830174D02*
X8517801Y-15877793D01*
X8517801Y-15877793D02*
X8508277Y-15915888D01*
X8508277Y-15915888D02*
X8498753Y-15934936D01*
X8498753Y-15934936D02*
X8489229Y-15944460D01*
X8489229Y-15944460D02*
X8470182Y-15953984D01*
X8470182Y-15953984D02*
X8451134Y-15953984D01*
X8451134Y-15953984D02*
X8432087Y-15944460D01*
X8432087Y-15944460D02*
X8422563Y-15934936D01*
X8422563Y-15934936D02*
X8413039Y-15915888D01*
X8413039Y-15915888D02*
X8403515Y-15877793D01*
X8403515Y-15877793D02*
X8403515Y-15830174D01*
X8403515Y-15830174D02*
X8413039Y-15792079D01*
X8413039Y-15792079D02*
X8422563Y-15773031D01*
X8422563Y-15773031D02*
X8432087Y-15763508D01*
X8432087Y-15763508D02*
X8451134Y-15753984D01*
X8603515Y-15934936D02*
X8613039Y-15944460D01*
X8613039Y-15944460D02*
X8603515Y-15953984D01*
X8603515Y-15953984D02*
X8593991Y-15944460D01*
X8593991Y-15944460D02*
X8603515Y-15934936D01*
X8603515Y-15934936D02*
X8603515Y-15953984D01*
X8736848Y-15753984D02*
X8755896Y-15753984D01*
X8755896Y-15753984D02*
X8774944Y-15763508D01*
X8774944Y-15763508D02*
X8784468Y-15773031D01*
X8784468Y-15773031D02*
X8793991Y-15792079D01*
X8793991Y-15792079D02*
X8803515Y-15830174D01*
X8803515Y-15830174D02*
X8803515Y-15877793D01*
X8803515Y-15877793D02*
X8793991Y-15915888D01*
X8793991Y-15915888D02*
X8784468Y-15934936D01*
X8784468Y-15934936D02*
X8774944Y-15944460D01*
X8774944Y-15944460D02*
X8755896Y-15953984D01*
X8755896Y-15953984D02*
X8736848Y-15953984D01*
X8736848Y-15953984D02*
X8717801Y-15944460D01*
X8717801Y-15944460D02*
X8708277Y-15934936D01*
X8708277Y-15934936D02*
X8698753Y-15915888D01*
X8698753Y-15915888D02*
X8689229Y-15877793D01*
X8689229Y-15877793D02*
X8689229Y-15830174D01*
X8689229Y-15830174D02*
X8698753Y-15792079D01*
X8698753Y-15792079D02*
X8708277Y-15773031D01*
X8708277Y-15773031D02*
X8717801Y-15763508D01*
X8717801Y-15763508D02*
X8736848Y-15753984D01*
X8870182Y-15753984D02*
X8993991Y-15753984D01*
X8993991Y-15753984D02*
X8927325Y-15830174D01*
X8927325Y-15830174D02*
X8955896Y-15830174D01*
X8955896Y-15830174D02*
X8974944Y-15839698D01*
X8974944Y-15839698D02*
X8984468Y-15849222D01*
X8984468Y-15849222D02*
X8993991Y-15868269D01*
X8993991Y-15868269D02*
X8993991Y-15915888D01*
X8993991Y-15915888D02*
X8984468Y-15934936D01*
X8984468Y-15934936D02*
X8974944Y-15944460D01*
X8974944Y-15944460D02*
X8955896Y-15953984D01*
X8955896Y-15953984D02*
X8898753Y-15953984D01*
X8898753Y-15953984D02*
X8879706Y-15944460D01*
X8879706Y-15944460D02*
X8870182Y-15934936D01*
X9089229Y-15953984D02*
X9127325Y-15953984D01*
X9127325Y-15953984D02*
X9146372Y-15944460D01*
X9146372Y-15944460D02*
X9155896Y-15934936D01*
X9155896Y-15934936D02*
X9174944Y-15906365D01*
X9174944Y-15906365D02*
X9184468Y-15868269D01*
X9184468Y-15868269D02*
X9184468Y-15792079D01*
X9184468Y-15792079D02*
X9174944Y-15773031D01*
X9174944Y-15773031D02*
X9165420Y-15763508D01*
X9165420Y-15763508D02*
X9146372Y-15753984D01*
X9146372Y-15753984D02*
X9108277Y-15753984D01*
X9108277Y-15753984D02*
X9089229Y-15763508D01*
X9089229Y-15763508D02*
X9079706Y-15773031D01*
X9079706Y-15773031D02*
X9070182Y-15792079D01*
X9070182Y-15792079D02*
X9070182Y-15839698D01*
X9070182Y-15839698D02*
X9079706Y-15858746D01*
X9079706Y-15858746D02*
X9089229Y-15868269D01*
X9089229Y-15868269D02*
X9108277Y-15877793D01*
X9108277Y-15877793D02*
X9146372Y-15877793D01*
X9146372Y-15877793D02*
X9165420Y-15868269D01*
X9165420Y-15868269D02*
X9174944Y-15858746D01*
X9174944Y-15858746D02*
X9184468Y-15839698D01*
X9355896Y-15820650D02*
X9355896Y-15953984D01*
X9308277Y-15744460D02*
X9260658Y-15887317D01*
X9260658Y-15887317D02*
X9384468Y-15887317D01*
X9451134Y-15753984D02*
X9451134Y-15792079D01*
X9527325Y-15753984D02*
X9527325Y-15792079D01*
X9822563Y-16030174D02*
X9813039Y-16020650D01*
X9813039Y-16020650D02*
X9793991Y-15992079D01*
X9793991Y-15992079D02*
X9784468Y-15973031D01*
X9784468Y-15973031D02*
X9774944Y-15944460D01*
X9774944Y-15944460D02*
X9765420Y-15896841D01*
X9765420Y-15896841D02*
X9765420Y-15858746D01*
X9765420Y-15858746D02*
X9774944Y-15811127D01*
X9774944Y-15811127D02*
X9784468Y-15782555D01*
X9784468Y-15782555D02*
X9793991Y-15763508D01*
X9793991Y-15763508D02*
X9813039Y-15734936D01*
X9813039Y-15734936D02*
X9822563Y-15725412D01*
X9889230Y-15773031D02*
X9898753Y-15763508D01*
X9898753Y-15763508D02*
X9917801Y-15753984D01*
X9917801Y-15753984D02*
X9965420Y-15753984D01*
X9965420Y-15753984D02*
X9984468Y-15763508D01*
X9984468Y-15763508D02*
X9993991Y-15773031D01*
X9993991Y-15773031D02*
X10003515Y-15792079D01*
X10003515Y-15792079D02*
X10003515Y-15811127D01*
X10003515Y-15811127D02*
X9993991Y-15839698D01*
X9993991Y-15839698D02*
X9879706Y-15953984D01*
X9879706Y-15953984D02*
X10003515Y-15953984D01*
X10174944Y-15820650D02*
X10174944Y-15953984D01*
X10127325Y-15744460D02*
X10079706Y-15887317D01*
X10079706Y-15887317D02*
X10203515Y-15887317D01*
X10432087Y-15953984D02*
X10432087Y-15753984D01*
X10517801Y-15953984D02*
X10517801Y-15849222D01*
X10517801Y-15849222D02*
X10508277Y-15830174D01*
X10508277Y-15830174D02*
X10489230Y-15820650D01*
X10489230Y-15820650D02*
X10460658Y-15820650D01*
X10460658Y-15820650D02*
X10441611Y-15830174D01*
X10441611Y-15830174D02*
X10432087Y-15839698D01*
X10641611Y-15953984D02*
X10622563Y-15944460D01*
X10622563Y-15944460D02*
X10613039Y-15934936D01*
X10613039Y-15934936D02*
X10603515Y-15915888D01*
X10603515Y-15915888D02*
X10603515Y-15858746D01*
X10603515Y-15858746D02*
X10613039Y-15839698D01*
X10613039Y-15839698D02*
X10622563Y-15830174D01*
X10622563Y-15830174D02*
X10641611Y-15820650D01*
X10641611Y-15820650D02*
X10670182Y-15820650D01*
X10670182Y-15820650D02*
X10689230Y-15830174D01*
X10689230Y-15830174D02*
X10698753Y-15839698D01*
X10698753Y-15839698D02*
X10708277Y-15858746D01*
X10708277Y-15858746D02*
X10708277Y-15915888D01*
X10708277Y-15915888D02*
X10698753Y-15934936D01*
X10698753Y-15934936D02*
X10689230Y-15944460D01*
X10689230Y-15944460D02*
X10670182Y-15953984D01*
X10670182Y-15953984D02*
X10641611Y-15953984D01*
X10822563Y-15953984D02*
X10803515Y-15944460D01*
X10803515Y-15944460D02*
X10793992Y-15925412D01*
X10793992Y-15925412D02*
X10793992Y-15753984D01*
X10974944Y-15944460D02*
X10955896Y-15953984D01*
X10955896Y-15953984D02*
X10917801Y-15953984D01*
X10917801Y-15953984D02*
X10898753Y-15944460D01*
X10898753Y-15944460D02*
X10889230Y-15925412D01*
X10889230Y-15925412D02*
X10889230Y-15849222D01*
X10889230Y-15849222D02*
X10898753Y-15830174D01*
X10898753Y-15830174D02*
X10917801Y-15820650D01*
X10917801Y-15820650D02*
X10955896Y-15820650D01*
X10955896Y-15820650D02*
X10974944Y-15830174D01*
X10974944Y-15830174D02*
X10984468Y-15849222D01*
X10984468Y-15849222D02*
X10984468Y-15868269D01*
X10984468Y-15868269D02*
X10889230Y-15887317D01*
X11060658Y-15944460D02*
X11079706Y-15953984D01*
X11079706Y-15953984D02*
X11117801Y-15953984D01*
X11117801Y-15953984D02*
X11136849Y-15944460D01*
X11136849Y-15944460D02*
X11146373Y-15925412D01*
X11146373Y-15925412D02*
X11146373Y-15915888D01*
X11146373Y-15915888D02*
X11136849Y-15896841D01*
X11136849Y-15896841D02*
X11117801Y-15887317D01*
X11117801Y-15887317D02*
X11089230Y-15887317D01*
X11089230Y-15887317D02*
X11070182Y-15877793D01*
X11070182Y-15877793D02*
X11060658Y-15858746D01*
X11060658Y-15858746D02*
X11060658Y-15849222D01*
X11060658Y-15849222D02*
X11070182Y-15830174D01*
X11070182Y-15830174D02*
X11089230Y-15820650D01*
X11089230Y-15820650D02*
X11117801Y-15820650D01*
X11117801Y-15820650D02*
X11136849Y-15830174D01*
X11384468Y-15877793D02*
X11536849Y-15877793D01*
X11460658Y-15953984D02*
X11460658Y-15801603D01*
X11765420Y-15753984D02*
X11889230Y-15753984D01*
X11889230Y-15753984D02*
X11822563Y-15830174D01*
X11822563Y-15830174D02*
X11851134Y-15830174D01*
X11851134Y-15830174D02*
X11870182Y-15839698D01*
X11870182Y-15839698D02*
X11879706Y-15849222D01*
X11879706Y-15849222D02*
X11889230Y-15868269D01*
X11889230Y-15868269D02*
X11889230Y-15915888D01*
X11889230Y-15915888D02*
X11879706Y-15934936D01*
X11879706Y-15934936D02*
X11870182Y-15944460D01*
X11870182Y-15944460D02*
X11851134Y-15953984D01*
X11851134Y-15953984D02*
X11793992Y-15953984D01*
X11793992Y-15953984D02*
X11774944Y-15944460D01*
X11774944Y-15944460D02*
X11765420Y-15934936D01*
X12117801Y-15944460D02*
X12136849Y-15953984D01*
X12136849Y-15953984D02*
X12174944Y-15953984D01*
X12174944Y-15953984D02*
X12193992Y-15944460D01*
X12193992Y-15944460D02*
X12203515Y-15925412D01*
X12203515Y-15925412D02*
X12203515Y-15915888D01*
X12203515Y-15915888D02*
X12193992Y-15896841D01*
X12193992Y-15896841D02*
X12174944Y-15887317D01*
X12174944Y-15887317D02*
X12146373Y-15887317D01*
X12146373Y-15887317D02*
X12127325Y-15877793D01*
X12127325Y-15877793D02*
X12117801Y-15858746D01*
X12117801Y-15858746D02*
X12117801Y-15849222D01*
X12117801Y-15849222D02*
X12127325Y-15830174D01*
X12127325Y-15830174D02*
X12146373Y-15820650D01*
X12146373Y-15820650D02*
X12174944Y-15820650D01*
X12174944Y-15820650D02*
X12193992Y-15830174D01*
X12317801Y-15953984D02*
X12298754Y-15944460D01*
X12298754Y-15944460D02*
X12289230Y-15925412D01*
X12289230Y-15925412D02*
X12289230Y-15753984D01*
X12422563Y-15953984D02*
X12403515Y-15944460D01*
X12403515Y-15944460D02*
X12393992Y-15934936D01*
X12393992Y-15934936D02*
X12384468Y-15915888D01*
X12384468Y-15915888D02*
X12384468Y-15858746D01*
X12384468Y-15858746D02*
X12393992Y-15839698D01*
X12393992Y-15839698D02*
X12403515Y-15830174D01*
X12403515Y-15830174D02*
X12422563Y-15820650D01*
X12422563Y-15820650D02*
X12451135Y-15820650D01*
X12451135Y-15820650D02*
X12470182Y-15830174D01*
X12470182Y-15830174D02*
X12479706Y-15839698D01*
X12479706Y-15839698D02*
X12489230Y-15858746D01*
X12489230Y-15858746D02*
X12489230Y-15915888D01*
X12489230Y-15915888D02*
X12479706Y-15934936D01*
X12479706Y-15934936D02*
X12470182Y-15944460D01*
X12470182Y-15944460D02*
X12451135Y-15953984D01*
X12451135Y-15953984D02*
X12422563Y-15953984D01*
X12546373Y-15820650D02*
X12622563Y-15820650D01*
X12574944Y-15753984D02*
X12574944Y-15925412D01*
X12574944Y-15925412D02*
X12584468Y-15944460D01*
X12584468Y-15944460D02*
X12603515Y-15953984D01*
X12603515Y-15953984D02*
X12622563Y-15953984D01*
X12679706Y-15944460D02*
X12698754Y-15953984D01*
X12698754Y-15953984D02*
X12736849Y-15953984D01*
X12736849Y-15953984D02*
X12755896Y-15944460D01*
X12755896Y-15944460D02*
X12765420Y-15925412D01*
X12765420Y-15925412D02*
X12765420Y-15915888D01*
X12765420Y-15915888D02*
X12755896Y-15896841D01*
X12755896Y-15896841D02*
X12736849Y-15887317D01*
X12736849Y-15887317D02*
X12708277Y-15887317D01*
X12708277Y-15887317D02*
X12689230Y-15877793D01*
X12689230Y-15877793D02*
X12679706Y-15858746D01*
X12679706Y-15858746D02*
X12679706Y-15849222D01*
X12679706Y-15849222D02*
X12689230Y-15830174D01*
X12689230Y-15830174D02*
X12708277Y-15820650D01*
X12708277Y-15820650D02*
X12736849Y-15820650D01*
X12736849Y-15820650D02*
X12755896Y-15830174D01*
X12832087Y-16030174D02*
X12841611Y-16020650D01*
X12841611Y-16020650D02*
X12860658Y-15992079D01*
X12860658Y-15992079D02*
X12870182Y-15973031D01*
X12870182Y-15973031D02*
X12879706Y-15944460D01*
X12879706Y-15944460D02*
X12889230Y-15896841D01*
X12889230Y-15896841D02*
X12889230Y-15858746D01*
X12889230Y-15858746D02*
X12879706Y-15811127D01*
X12879706Y-15811127D02*
X12870182Y-15782555D01*
X12870182Y-15782555D02*
X12860658Y-15763508D01*
X12860658Y-15763508D02*
X12841611Y-15734936D01*
X12841611Y-15734936D02*
X12832087Y-15725412D01*
D13*
X6137500Y-16071500D02*
X6247500Y-16181500D01*
X6247500Y-16071500D02*
X6137500Y-16181500D01*
X6192500Y-16071500D02*
X6192500Y-16181500D01*
X6137500Y-16126500D02*
X6247500Y-16126500D01*
D11*
X6613039Y-16217984D02*
X6498753Y-16217984D01*
X6555896Y-16217984D02*
X6555896Y-16017984D01*
X6555896Y-16017984D02*
X6536848Y-16046555D01*
X6536848Y-16046555D02*
X6517801Y-16065603D01*
X6517801Y-16065603D02*
X6498753Y-16075127D01*
X6698753Y-16198936D02*
X6708277Y-16208460D01*
X6708277Y-16208460D02*
X6698753Y-16217984D01*
X6698753Y-16217984D02*
X6689229Y-16208460D01*
X6689229Y-16208460D02*
X6698753Y-16198936D01*
X6698753Y-16198936D02*
X6698753Y-16217984D01*
X6898753Y-16217984D02*
X6784467Y-16217984D01*
X6841610Y-16217984D02*
X6841610Y-16017984D01*
X6841610Y-16017984D02*
X6822562Y-16046555D01*
X6822562Y-16046555D02*
X6803515Y-16065603D01*
X6803515Y-16065603D02*
X6784467Y-16075127D01*
X7022562Y-16017984D02*
X7041610Y-16017984D01*
X7041610Y-16017984D02*
X7060658Y-16027508D01*
X7060658Y-16027508D02*
X7070182Y-16037031D01*
X7070182Y-16037031D02*
X7079705Y-16056079D01*
X7079705Y-16056079D02*
X7089229Y-16094174D01*
X7089229Y-16094174D02*
X7089229Y-16141793D01*
X7089229Y-16141793D02*
X7079705Y-16179888D01*
X7079705Y-16179888D02*
X7070182Y-16198936D01*
X7070182Y-16198936D02*
X7060658Y-16208460D01*
X7060658Y-16208460D02*
X7041610Y-16217984D01*
X7041610Y-16217984D02*
X7022562Y-16217984D01*
X7022562Y-16217984D02*
X7003515Y-16208460D01*
X7003515Y-16208460D02*
X6993991Y-16198936D01*
X6993991Y-16198936D02*
X6984467Y-16179888D01*
X6984467Y-16179888D02*
X6974943Y-16141793D01*
X6974943Y-16141793D02*
X6974943Y-16094174D01*
X6974943Y-16094174D02*
X6984467Y-16056079D01*
X6984467Y-16056079D02*
X6993991Y-16037031D01*
X6993991Y-16037031D02*
X7003515Y-16027508D01*
X7003515Y-16027508D02*
X7022562Y-16017984D01*
X7213039Y-16017984D02*
X7232086Y-16017984D01*
X7232086Y-16017984D02*
X7251134Y-16027508D01*
X7251134Y-16027508D02*
X7260658Y-16037031D01*
X7260658Y-16037031D02*
X7270182Y-16056079D01*
X7270182Y-16056079D02*
X7279705Y-16094174D01*
X7279705Y-16094174D02*
X7279705Y-16141793D01*
X7279705Y-16141793D02*
X7270182Y-16179888D01*
X7270182Y-16179888D02*
X7260658Y-16198936D01*
X7260658Y-16198936D02*
X7251134Y-16208460D01*
X7251134Y-16208460D02*
X7232086Y-16217984D01*
X7232086Y-16217984D02*
X7213039Y-16217984D01*
X7213039Y-16217984D02*
X7193991Y-16208460D01*
X7193991Y-16208460D02*
X7184467Y-16198936D01*
X7184467Y-16198936D02*
X7174943Y-16179888D01*
X7174943Y-16179888D02*
X7165420Y-16141793D01*
X7165420Y-16141793D02*
X7165420Y-16094174D01*
X7165420Y-16094174D02*
X7174943Y-16056079D01*
X7174943Y-16056079D02*
X7184467Y-16037031D01*
X7184467Y-16037031D02*
X7193991Y-16027508D01*
X7193991Y-16027508D02*
X7213039Y-16017984D01*
X7365420Y-16217984D02*
X7365420Y-16084650D01*
X7365420Y-16103698D02*
X7374943Y-16094174D01*
X7374943Y-16094174D02*
X7393991Y-16084650D01*
X7393991Y-16084650D02*
X7422563Y-16084650D01*
X7422563Y-16084650D02*
X7441610Y-16094174D01*
X7441610Y-16094174D02*
X7451134Y-16113222D01*
X7451134Y-16113222D02*
X7451134Y-16217984D01*
X7451134Y-16113222D02*
X7460658Y-16094174D01*
X7460658Y-16094174D02*
X7479705Y-16084650D01*
X7479705Y-16084650D02*
X7508277Y-16084650D01*
X7508277Y-16084650D02*
X7527324Y-16094174D01*
X7527324Y-16094174D02*
X7536848Y-16113222D01*
X7536848Y-16113222D02*
X7536848Y-16217984D01*
X7632086Y-16217984D02*
X7632086Y-16084650D01*
X7632086Y-16103698D02*
X7641610Y-16094174D01*
X7641610Y-16094174D02*
X7660658Y-16084650D01*
X7660658Y-16084650D02*
X7689229Y-16084650D01*
X7689229Y-16084650D02*
X7708277Y-16094174D01*
X7708277Y-16094174D02*
X7717801Y-16113222D01*
X7717801Y-16113222D02*
X7717801Y-16217984D01*
X7717801Y-16113222D02*
X7727324Y-16094174D01*
X7727324Y-16094174D02*
X7746372Y-16084650D01*
X7746372Y-16084650D02*
X7774943Y-16084650D01*
X7774943Y-16084650D02*
X7793991Y-16094174D01*
X7793991Y-16094174D02*
X7803515Y-16113222D01*
X7803515Y-16113222D02*
X7803515Y-16217984D01*
X8193991Y-16008460D02*
X8022563Y-16265603D01*
X8451134Y-16017984D02*
X8470182Y-16017984D01*
X8470182Y-16017984D02*
X8489229Y-16027508D01*
X8489229Y-16027508D02*
X8498753Y-16037031D01*
X8498753Y-16037031D02*
X8508277Y-16056079D01*
X8508277Y-16056079D02*
X8517801Y-16094174D01*
X8517801Y-16094174D02*
X8517801Y-16141793D01*
X8517801Y-16141793D02*
X8508277Y-16179888D01*
X8508277Y-16179888D02*
X8498753Y-16198936D01*
X8498753Y-16198936D02*
X8489229Y-16208460D01*
X8489229Y-16208460D02*
X8470182Y-16217984D01*
X8470182Y-16217984D02*
X8451134Y-16217984D01*
X8451134Y-16217984D02*
X8432087Y-16208460D01*
X8432087Y-16208460D02*
X8422563Y-16198936D01*
X8422563Y-16198936D02*
X8413039Y-16179888D01*
X8413039Y-16179888D02*
X8403515Y-16141793D01*
X8403515Y-16141793D02*
X8403515Y-16094174D01*
X8403515Y-16094174D02*
X8413039Y-16056079D01*
X8413039Y-16056079D02*
X8422563Y-16037031D01*
X8422563Y-16037031D02*
X8432087Y-16027508D01*
X8432087Y-16027508D02*
X8451134Y-16017984D01*
X8603515Y-16198936D02*
X8613039Y-16208460D01*
X8613039Y-16208460D02*
X8603515Y-16217984D01*
X8603515Y-16217984D02*
X8593991Y-16208460D01*
X8593991Y-16208460D02*
X8603515Y-16198936D01*
X8603515Y-16198936D02*
X8603515Y-16217984D01*
X8736848Y-16017984D02*
X8755896Y-16017984D01*
X8755896Y-16017984D02*
X8774944Y-16027508D01*
X8774944Y-16027508D02*
X8784468Y-16037031D01*
X8784468Y-16037031D02*
X8793991Y-16056079D01*
X8793991Y-16056079D02*
X8803515Y-16094174D01*
X8803515Y-16094174D02*
X8803515Y-16141793D01*
X8803515Y-16141793D02*
X8793991Y-16179888D01*
X8793991Y-16179888D02*
X8784468Y-16198936D01*
X8784468Y-16198936D02*
X8774944Y-16208460D01*
X8774944Y-16208460D02*
X8755896Y-16217984D01*
X8755896Y-16217984D02*
X8736848Y-16217984D01*
X8736848Y-16217984D02*
X8717801Y-16208460D01*
X8717801Y-16208460D02*
X8708277Y-16198936D01*
X8708277Y-16198936D02*
X8698753Y-16179888D01*
X8698753Y-16179888D02*
X8689229Y-16141793D01*
X8689229Y-16141793D02*
X8689229Y-16094174D01*
X8689229Y-16094174D02*
X8698753Y-16056079D01*
X8698753Y-16056079D02*
X8708277Y-16037031D01*
X8708277Y-16037031D02*
X8717801Y-16027508D01*
X8717801Y-16027508D02*
X8736848Y-16017984D01*
X8974944Y-16084650D02*
X8974944Y-16217984D01*
X8927325Y-16008460D02*
X8879706Y-16151317D01*
X8879706Y-16151317D02*
X9003515Y-16151317D01*
X9060658Y-16017984D02*
X9184468Y-16017984D01*
X9184468Y-16017984D02*
X9117801Y-16094174D01*
X9117801Y-16094174D02*
X9146372Y-16094174D01*
X9146372Y-16094174D02*
X9165420Y-16103698D01*
X9165420Y-16103698D02*
X9174944Y-16113222D01*
X9174944Y-16113222D02*
X9184468Y-16132269D01*
X9184468Y-16132269D02*
X9184468Y-16179888D01*
X9184468Y-16179888D02*
X9174944Y-16198936D01*
X9174944Y-16198936D02*
X9165420Y-16208460D01*
X9165420Y-16208460D02*
X9146372Y-16217984D01*
X9146372Y-16217984D02*
X9089229Y-16217984D01*
X9089229Y-16217984D02*
X9070182Y-16208460D01*
X9070182Y-16208460D02*
X9060658Y-16198936D01*
X9251134Y-16017984D02*
X9374944Y-16017984D01*
X9374944Y-16017984D02*
X9308277Y-16094174D01*
X9308277Y-16094174D02*
X9336849Y-16094174D01*
X9336849Y-16094174D02*
X9355896Y-16103698D01*
X9355896Y-16103698D02*
X9365420Y-16113222D01*
X9365420Y-16113222D02*
X9374944Y-16132269D01*
X9374944Y-16132269D02*
X9374944Y-16179888D01*
X9374944Y-16179888D02*
X9365420Y-16198936D01*
X9365420Y-16198936D02*
X9355896Y-16208460D01*
X9355896Y-16208460D02*
X9336849Y-16217984D01*
X9336849Y-16217984D02*
X9279706Y-16217984D01*
X9279706Y-16217984D02*
X9260658Y-16208460D01*
X9260658Y-16208460D02*
X9251134Y-16198936D01*
X9451134Y-16017984D02*
X9451134Y-16056079D01*
X9527325Y-16017984D02*
X9527325Y-16056079D01*
X9822563Y-16294174D02*
X9813039Y-16284650D01*
X9813039Y-16284650D02*
X9793991Y-16256079D01*
X9793991Y-16256079D02*
X9784468Y-16237031D01*
X9784468Y-16237031D02*
X9774944Y-16208460D01*
X9774944Y-16208460D02*
X9765420Y-16160841D01*
X9765420Y-16160841D02*
X9765420Y-16122746D01*
X9765420Y-16122746D02*
X9774944Y-16075127D01*
X9774944Y-16075127D02*
X9784468Y-16046555D01*
X9784468Y-16046555D02*
X9793991Y-16027508D01*
X9793991Y-16027508D02*
X9813039Y-15998936D01*
X9813039Y-15998936D02*
X9822563Y-15989412D01*
X10003515Y-16217984D02*
X9889230Y-16217984D01*
X9946372Y-16217984D02*
X9946372Y-16017984D01*
X9946372Y-16017984D02*
X9927325Y-16046555D01*
X9927325Y-16046555D02*
X9908277Y-16065603D01*
X9908277Y-16065603D02*
X9889230Y-16075127D01*
X10174944Y-16084650D02*
X10174944Y-16217984D01*
X10127325Y-16008460D02*
X10079706Y-16151317D01*
X10079706Y-16151317D02*
X10203515Y-16151317D01*
X10432087Y-16217984D02*
X10432087Y-16017984D01*
X10517801Y-16217984D02*
X10517801Y-16113222D01*
X10517801Y-16113222D02*
X10508277Y-16094174D01*
X10508277Y-16094174D02*
X10489230Y-16084650D01*
X10489230Y-16084650D02*
X10460658Y-16084650D01*
X10460658Y-16084650D02*
X10441611Y-16094174D01*
X10441611Y-16094174D02*
X10432087Y-16103698D01*
X10641611Y-16217984D02*
X10622563Y-16208460D01*
X10622563Y-16208460D02*
X10613039Y-16198936D01*
X10613039Y-16198936D02*
X10603515Y-16179888D01*
X10603515Y-16179888D02*
X10603515Y-16122746D01*
X10603515Y-16122746D02*
X10613039Y-16103698D01*
X10613039Y-16103698D02*
X10622563Y-16094174D01*
X10622563Y-16094174D02*
X10641611Y-16084650D01*
X10641611Y-16084650D02*
X10670182Y-16084650D01*
X10670182Y-16084650D02*
X10689230Y-16094174D01*
X10689230Y-16094174D02*
X10698753Y-16103698D01*
X10698753Y-16103698D02*
X10708277Y-16122746D01*
X10708277Y-16122746D02*
X10708277Y-16179888D01*
X10708277Y-16179888D02*
X10698753Y-16198936D01*
X10698753Y-16198936D02*
X10689230Y-16208460D01*
X10689230Y-16208460D02*
X10670182Y-16217984D01*
X10670182Y-16217984D02*
X10641611Y-16217984D01*
X10822563Y-16217984D02*
X10803515Y-16208460D01*
X10803515Y-16208460D02*
X10793992Y-16189412D01*
X10793992Y-16189412D02*
X10793992Y-16017984D01*
X10974944Y-16208460D02*
X10955896Y-16217984D01*
X10955896Y-16217984D02*
X10917801Y-16217984D01*
X10917801Y-16217984D02*
X10898753Y-16208460D01*
X10898753Y-16208460D02*
X10889230Y-16189412D01*
X10889230Y-16189412D02*
X10889230Y-16113222D01*
X10889230Y-16113222D02*
X10898753Y-16094174D01*
X10898753Y-16094174D02*
X10917801Y-16084650D01*
X10917801Y-16084650D02*
X10955896Y-16084650D01*
X10955896Y-16084650D02*
X10974944Y-16094174D01*
X10974944Y-16094174D02*
X10984468Y-16113222D01*
X10984468Y-16113222D02*
X10984468Y-16132269D01*
X10984468Y-16132269D02*
X10889230Y-16151317D01*
X11060658Y-16208460D02*
X11079706Y-16217984D01*
X11079706Y-16217984D02*
X11117801Y-16217984D01*
X11117801Y-16217984D02*
X11136849Y-16208460D01*
X11136849Y-16208460D02*
X11146373Y-16189412D01*
X11146373Y-16189412D02*
X11146373Y-16179888D01*
X11146373Y-16179888D02*
X11136849Y-16160841D01*
X11136849Y-16160841D02*
X11117801Y-16151317D01*
X11117801Y-16151317D02*
X11089230Y-16151317D01*
X11089230Y-16151317D02*
X11070182Y-16141793D01*
X11070182Y-16141793D02*
X11060658Y-16122746D01*
X11060658Y-16122746D02*
X11060658Y-16113222D01*
X11060658Y-16113222D02*
X11070182Y-16094174D01*
X11070182Y-16094174D02*
X11089230Y-16084650D01*
X11089230Y-16084650D02*
X11117801Y-16084650D01*
X11117801Y-16084650D02*
X11136849Y-16094174D01*
X11213039Y-16294174D02*
X11222563Y-16284650D01*
X11222563Y-16284650D02*
X11241611Y-16256079D01*
X11241611Y-16256079D02*
X11251134Y-16237031D01*
X11251134Y-16237031D02*
X11260658Y-16208460D01*
X11260658Y-16208460D02*
X11270182Y-16160841D01*
X11270182Y-16160841D02*
X11270182Y-16122746D01*
X11270182Y-16122746D02*
X11260658Y-16075127D01*
X11260658Y-16075127D02*
X11251134Y-16046555D01*
X11251134Y-16046555D02*
X11241611Y-16027508D01*
X11241611Y-16027508D02*
X11222563Y-15998936D01*
X11222563Y-15998936D02*
X11213039Y-15989412D01*
D14*
X6117500Y-16325500D02*
X6247500Y-16455500D01*
X6247500Y-16325500D02*
X6117500Y-16455500D01*
X6228462Y-16436462D02*
X6228462Y-16344538D01*
X6136538Y-16344538D01*
X6136538Y-16436462D01*
X6228462Y-16436462D01*
D11*
X6613039Y-16481984D02*
X6498753Y-16481984D01*
X6555896Y-16481984D02*
X6555896Y-16281984D01*
X6555896Y-16281984D02*
X6536848Y-16310555D01*
X6536848Y-16310555D02*
X6517801Y-16329603D01*
X6517801Y-16329603D02*
X6498753Y-16339127D01*
X6698753Y-16462936D02*
X6708277Y-16472460D01*
X6708277Y-16472460D02*
X6698753Y-16481984D01*
X6698753Y-16481984D02*
X6689229Y-16472460D01*
X6689229Y-16472460D02*
X6698753Y-16462936D01*
X6698753Y-16462936D02*
X6698753Y-16481984D01*
X6774943Y-16281984D02*
X6898753Y-16281984D01*
X6898753Y-16281984D02*
X6832086Y-16358174D01*
X6832086Y-16358174D02*
X6860658Y-16358174D01*
X6860658Y-16358174D02*
X6879705Y-16367698D01*
X6879705Y-16367698D02*
X6889229Y-16377222D01*
X6889229Y-16377222D02*
X6898753Y-16396269D01*
X6898753Y-16396269D02*
X6898753Y-16443888D01*
X6898753Y-16443888D02*
X6889229Y-16462936D01*
X6889229Y-16462936D02*
X6879705Y-16472460D01*
X6879705Y-16472460D02*
X6860658Y-16481984D01*
X6860658Y-16481984D02*
X6803515Y-16481984D01*
X6803515Y-16481984D02*
X6784467Y-16472460D01*
X6784467Y-16472460D02*
X6774943Y-16462936D01*
X7022562Y-16281984D02*
X7041610Y-16281984D01*
X7041610Y-16281984D02*
X7060658Y-16291508D01*
X7060658Y-16291508D02*
X7070182Y-16301031D01*
X7070182Y-16301031D02*
X7079705Y-16320079D01*
X7079705Y-16320079D02*
X7089229Y-16358174D01*
X7089229Y-16358174D02*
X7089229Y-16405793D01*
X7089229Y-16405793D02*
X7079705Y-16443888D01*
X7079705Y-16443888D02*
X7070182Y-16462936D01*
X7070182Y-16462936D02*
X7060658Y-16472460D01*
X7060658Y-16472460D02*
X7041610Y-16481984D01*
X7041610Y-16481984D02*
X7022562Y-16481984D01*
X7022562Y-16481984D02*
X7003515Y-16472460D01*
X7003515Y-16472460D02*
X6993991Y-16462936D01*
X6993991Y-16462936D02*
X6984467Y-16443888D01*
X6984467Y-16443888D02*
X6974943Y-16405793D01*
X6974943Y-16405793D02*
X6974943Y-16358174D01*
X6974943Y-16358174D02*
X6984467Y-16320079D01*
X6984467Y-16320079D02*
X6993991Y-16301031D01*
X6993991Y-16301031D02*
X7003515Y-16291508D01*
X7003515Y-16291508D02*
X7022562Y-16281984D01*
X7213039Y-16281984D02*
X7232086Y-16281984D01*
X7232086Y-16281984D02*
X7251134Y-16291508D01*
X7251134Y-16291508D02*
X7260658Y-16301031D01*
X7260658Y-16301031D02*
X7270182Y-16320079D01*
X7270182Y-16320079D02*
X7279705Y-16358174D01*
X7279705Y-16358174D02*
X7279705Y-16405793D01*
X7279705Y-16405793D02*
X7270182Y-16443888D01*
X7270182Y-16443888D02*
X7260658Y-16462936D01*
X7260658Y-16462936D02*
X7251134Y-16472460D01*
X7251134Y-16472460D02*
X7232086Y-16481984D01*
X7232086Y-16481984D02*
X7213039Y-16481984D01*
X7213039Y-16481984D02*
X7193991Y-16472460D01*
X7193991Y-16472460D02*
X7184467Y-16462936D01*
X7184467Y-16462936D02*
X7174943Y-16443888D01*
X7174943Y-16443888D02*
X7165420Y-16405793D01*
X7165420Y-16405793D02*
X7165420Y-16358174D01*
X7165420Y-16358174D02*
X7174943Y-16320079D01*
X7174943Y-16320079D02*
X7184467Y-16301031D01*
X7184467Y-16301031D02*
X7193991Y-16291508D01*
X7193991Y-16291508D02*
X7213039Y-16281984D01*
X7365420Y-16481984D02*
X7365420Y-16348650D01*
X7365420Y-16367698D02*
X7374943Y-16358174D01*
X7374943Y-16358174D02*
X7393991Y-16348650D01*
X7393991Y-16348650D02*
X7422563Y-16348650D01*
X7422563Y-16348650D02*
X7441610Y-16358174D01*
X7441610Y-16358174D02*
X7451134Y-16377222D01*
X7451134Y-16377222D02*
X7451134Y-16481984D01*
X7451134Y-16377222D02*
X7460658Y-16358174D01*
X7460658Y-16358174D02*
X7479705Y-16348650D01*
X7479705Y-16348650D02*
X7508277Y-16348650D01*
X7508277Y-16348650D02*
X7527324Y-16358174D01*
X7527324Y-16358174D02*
X7536848Y-16377222D01*
X7536848Y-16377222D02*
X7536848Y-16481984D01*
X7632086Y-16481984D02*
X7632086Y-16348650D01*
X7632086Y-16367698D02*
X7641610Y-16358174D01*
X7641610Y-16358174D02*
X7660658Y-16348650D01*
X7660658Y-16348650D02*
X7689229Y-16348650D01*
X7689229Y-16348650D02*
X7708277Y-16358174D01*
X7708277Y-16358174D02*
X7717801Y-16377222D01*
X7717801Y-16377222D02*
X7717801Y-16481984D01*
X7717801Y-16377222D02*
X7727324Y-16358174D01*
X7727324Y-16358174D02*
X7746372Y-16348650D01*
X7746372Y-16348650D02*
X7774943Y-16348650D01*
X7774943Y-16348650D02*
X7793991Y-16358174D01*
X7793991Y-16358174D02*
X7803515Y-16377222D01*
X7803515Y-16377222D02*
X7803515Y-16481984D01*
X8193991Y-16272460D02*
X8022563Y-16529603D01*
X8451134Y-16281984D02*
X8470182Y-16281984D01*
X8470182Y-16281984D02*
X8489229Y-16291508D01*
X8489229Y-16291508D02*
X8498753Y-16301031D01*
X8498753Y-16301031D02*
X8508277Y-16320079D01*
X8508277Y-16320079D02*
X8517801Y-16358174D01*
X8517801Y-16358174D02*
X8517801Y-16405793D01*
X8517801Y-16405793D02*
X8508277Y-16443888D01*
X8508277Y-16443888D02*
X8498753Y-16462936D01*
X8498753Y-16462936D02*
X8489229Y-16472460D01*
X8489229Y-16472460D02*
X8470182Y-16481984D01*
X8470182Y-16481984D02*
X8451134Y-16481984D01*
X8451134Y-16481984D02*
X8432087Y-16472460D01*
X8432087Y-16472460D02*
X8422563Y-16462936D01*
X8422563Y-16462936D02*
X8413039Y-16443888D01*
X8413039Y-16443888D02*
X8403515Y-16405793D01*
X8403515Y-16405793D02*
X8403515Y-16358174D01*
X8403515Y-16358174D02*
X8413039Y-16320079D01*
X8413039Y-16320079D02*
X8422563Y-16301031D01*
X8422563Y-16301031D02*
X8432087Y-16291508D01*
X8432087Y-16291508D02*
X8451134Y-16281984D01*
X8603515Y-16462936D02*
X8613039Y-16472460D01*
X8613039Y-16472460D02*
X8603515Y-16481984D01*
X8603515Y-16481984D02*
X8593991Y-16472460D01*
X8593991Y-16472460D02*
X8603515Y-16462936D01*
X8603515Y-16462936D02*
X8603515Y-16481984D01*
X8736848Y-16281984D02*
X8755896Y-16281984D01*
X8755896Y-16281984D02*
X8774944Y-16291508D01*
X8774944Y-16291508D02*
X8784468Y-16301031D01*
X8784468Y-16301031D02*
X8793991Y-16320079D01*
X8793991Y-16320079D02*
X8803515Y-16358174D01*
X8803515Y-16358174D02*
X8803515Y-16405793D01*
X8803515Y-16405793D02*
X8793991Y-16443888D01*
X8793991Y-16443888D02*
X8784468Y-16462936D01*
X8784468Y-16462936D02*
X8774944Y-16472460D01*
X8774944Y-16472460D02*
X8755896Y-16481984D01*
X8755896Y-16481984D02*
X8736848Y-16481984D01*
X8736848Y-16481984D02*
X8717801Y-16472460D01*
X8717801Y-16472460D02*
X8708277Y-16462936D01*
X8708277Y-16462936D02*
X8698753Y-16443888D01*
X8698753Y-16443888D02*
X8689229Y-16405793D01*
X8689229Y-16405793D02*
X8689229Y-16358174D01*
X8689229Y-16358174D02*
X8698753Y-16320079D01*
X8698753Y-16320079D02*
X8708277Y-16301031D01*
X8708277Y-16301031D02*
X8717801Y-16291508D01*
X8717801Y-16291508D02*
X8736848Y-16281984D01*
X8984468Y-16281984D02*
X8889229Y-16281984D01*
X8889229Y-16281984D02*
X8879706Y-16377222D01*
X8879706Y-16377222D02*
X8889229Y-16367698D01*
X8889229Y-16367698D02*
X8908277Y-16358174D01*
X8908277Y-16358174D02*
X8955896Y-16358174D01*
X8955896Y-16358174D02*
X8974944Y-16367698D01*
X8974944Y-16367698D02*
X8984468Y-16377222D01*
X8984468Y-16377222D02*
X8993991Y-16396269D01*
X8993991Y-16396269D02*
X8993991Y-16443888D01*
X8993991Y-16443888D02*
X8984468Y-16462936D01*
X8984468Y-16462936D02*
X8974944Y-16472460D01*
X8974944Y-16472460D02*
X8955896Y-16481984D01*
X8955896Y-16481984D02*
X8908277Y-16481984D01*
X8908277Y-16481984D02*
X8889229Y-16472460D01*
X8889229Y-16472460D02*
X8879706Y-16462936D01*
X9184468Y-16481984D02*
X9070182Y-16481984D01*
X9127325Y-16481984D02*
X9127325Y-16281984D01*
X9127325Y-16281984D02*
X9108277Y-16310555D01*
X9108277Y-16310555D02*
X9089229Y-16329603D01*
X9089229Y-16329603D02*
X9070182Y-16339127D01*
X9260658Y-16301031D02*
X9270182Y-16291508D01*
X9270182Y-16291508D02*
X9289229Y-16281984D01*
X9289229Y-16281984D02*
X9336849Y-16281984D01*
X9336849Y-16281984D02*
X9355896Y-16291508D01*
X9355896Y-16291508D02*
X9365420Y-16301031D01*
X9365420Y-16301031D02*
X9374944Y-16320079D01*
X9374944Y-16320079D02*
X9374944Y-16339127D01*
X9374944Y-16339127D02*
X9365420Y-16367698D01*
X9365420Y-16367698D02*
X9251134Y-16481984D01*
X9251134Y-16481984D02*
X9374944Y-16481984D01*
X9451134Y-16281984D02*
X9451134Y-16320079D01*
X9527325Y-16281984D02*
X9527325Y-16320079D01*
X9822563Y-16558174D02*
X9813039Y-16548650D01*
X9813039Y-16548650D02*
X9793991Y-16520079D01*
X9793991Y-16520079D02*
X9784468Y-16501031D01*
X9784468Y-16501031D02*
X9774944Y-16472460D01*
X9774944Y-16472460D02*
X9765420Y-16424841D01*
X9765420Y-16424841D02*
X9765420Y-16386746D01*
X9765420Y-16386746D02*
X9774944Y-16339127D01*
X9774944Y-16339127D02*
X9784468Y-16310555D01*
X9784468Y-16310555D02*
X9793991Y-16291508D01*
X9793991Y-16291508D02*
X9813039Y-16262936D01*
X9813039Y-16262936D02*
X9822563Y-16253412D01*
X10003515Y-16481984D02*
X9889230Y-16481984D01*
X9946372Y-16481984D02*
X9946372Y-16281984D01*
X9946372Y-16281984D02*
X9927325Y-16310555D01*
X9927325Y-16310555D02*
X9908277Y-16329603D01*
X9908277Y-16329603D02*
X9889230Y-16339127D01*
X10070182Y-16281984D02*
X10193991Y-16281984D01*
X10193991Y-16281984D02*
X10127325Y-16358174D01*
X10127325Y-16358174D02*
X10155896Y-16358174D01*
X10155896Y-16358174D02*
X10174944Y-16367698D01*
X10174944Y-16367698D02*
X10184468Y-16377222D01*
X10184468Y-16377222D02*
X10193991Y-16396269D01*
X10193991Y-16396269D02*
X10193991Y-16443888D01*
X10193991Y-16443888D02*
X10184468Y-16462936D01*
X10184468Y-16462936D02*
X10174944Y-16472460D01*
X10174944Y-16472460D02*
X10155896Y-16481984D01*
X10155896Y-16481984D02*
X10098753Y-16481984D01*
X10098753Y-16481984D02*
X10079706Y-16472460D01*
X10079706Y-16472460D02*
X10070182Y-16462936D01*
X10432087Y-16481984D02*
X10432087Y-16281984D01*
X10517801Y-16481984D02*
X10517801Y-16377222D01*
X10517801Y-16377222D02*
X10508277Y-16358174D01*
X10508277Y-16358174D02*
X10489230Y-16348650D01*
X10489230Y-16348650D02*
X10460658Y-16348650D01*
X10460658Y-16348650D02*
X10441611Y-16358174D01*
X10441611Y-16358174D02*
X10432087Y-16367698D01*
X10641611Y-16481984D02*
X10622563Y-16472460D01*
X10622563Y-16472460D02*
X10613039Y-16462936D01*
X10613039Y-16462936D02*
X10603515Y-16443888D01*
X10603515Y-16443888D02*
X10603515Y-16386746D01*
X10603515Y-16386746D02*
X10613039Y-16367698D01*
X10613039Y-16367698D02*
X10622563Y-16358174D01*
X10622563Y-16358174D02*
X10641611Y-16348650D01*
X10641611Y-16348650D02*
X10670182Y-16348650D01*
X10670182Y-16348650D02*
X10689230Y-16358174D01*
X10689230Y-16358174D02*
X10698753Y-16367698D01*
X10698753Y-16367698D02*
X10708277Y-16386746D01*
X10708277Y-16386746D02*
X10708277Y-16443888D01*
X10708277Y-16443888D02*
X10698753Y-16462936D01*
X10698753Y-16462936D02*
X10689230Y-16472460D01*
X10689230Y-16472460D02*
X10670182Y-16481984D01*
X10670182Y-16481984D02*
X10641611Y-16481984D01*
X10822563Y-16481984D02*
X10803515Y-16472460D01*
X10803515Y-16472460D02*
X10793992Y-16453412D01*
X10793992Y-16453412D02*
X10793992Y-16281984D01*
X10974944Y-16472460D02*
X10955896Y-16481984D01*
X10955896Y-16481984D02*
X10917801Y-16481984D01*
X10917801Y-16481984D02*
X10898753Y-16472460D01*
X10898753Y-16472460D02*
X10889230Y-16453412D01*
X10889230Y-16453412D02*
X10889230Y-16377222D01*
X10889230Y-16377222D02*
X10898753Y-16358174D01*
X10898753Y-16358174D02*
X10917801Y-16348650D01*
X10917801Y-16348650D02*
X10955896Y-16348650D01*
X10955896Y-16348650D02*
X10974944Y-16358174D01*
X10974944Y-16358174D02*
X10984468Y-16377222D01*
X10984468Y-16377222D02*
X10984468Y-16396269D01*
X10984468Y-16396269D02*
X10889230Y-16415317D01*
X11060658Y-16472460D02*
X11079706Y-16481984D01*
X11079706Y-16481984D02*
X11117801Y-16481984D01*
X11117801Y-16481984D02*
X11136849Y-16472460D01*
X11136849Y-16472460D02*
X11146373Y-16453412D01*
X11146373Y-16453412D02*
X11146373Y-16443888D01*
X11146373Y-16443888D02*
X11136849Y-16424841D01*
X11136849Y-16424841D02*
X11117801Y-16415317D01*
X11117801Y-16415317D02*
X11089230Y-16415317D01*
X11089230Y-16415317D02*
X11070182Y-16405793D01*
X11070182Y-16405793D02*
X11060658Y-16386746D01*
X11060658Y-16386746D02*
X11060658Y-16377222D01*
X11060658Y-16377222D02*
X11070182Y-16358174D01*
X11070182Y-16358174D02*
X11089230Y-16348650D01*
X11089230Y-16348650D02*
X11117801Y-16348650D01*
X11117801Y-16348650D02*
X11136849Y-16358174D01*
X11213039Y-16558174D02*
X11222563Y-16548650D01*
X11222563Y-16548650D02*
X11241611Y-16520079D01*
X11241611Y-16520079D02*
X11251134Y-16501031D01*
X11251134Y-16501031D02*
X11260658Y-16472460D01*
X11260658Y-16472460D02*
X11270182Y-16424841D01*
X11270182Y-16424841D02*
X11270182Y-16386746D01*
X11270182Y-16386746D02*
X11260658Y-16339127D01*
X11260658Y-16339127D02*
X11251134Y-16310555D01*
X11251134Y-16310555D02*
X11241611Y-16291508D01*
X11241611Y-16291508D02*
X11222563Y-16262936D01*
X11222563Y-16262936D02*
X11213039Y-16253412D01*
D15*
X6087500Y-16574500D02*
X6247500Y-16734500D01*
X6247500Y-16574500D02*
X6087500Y-16734500D01*
X6167500Y-16734500D02*
X6247500Y-16654500D01*
X6167500Y-16574500D01*
X6087500Y-16654500D01*
X6167500Y-16734500D01*
D11*
X6613039Y-16745984D02*
X6498753Y-16745984D01*
X6555896Y-16745984D02*
X6555896Y-16545984D01*
X6555896Y-16545984D02*
X6536848Y-16574555D01*
X6536848Y-16574555D02*
X6517801Y-16593603D01*
X6517801Y-16593603D02*
X6498753Y-16603127D01*
X6698753Y-16726936D02*
X6708277Y-16736460D01*
X6708277Y-16736460D02*
X6698753Y-16745984D01*
X6698753Y-16745984D02*
X6689229Y-16736460D01*
X6689229Y-16736460D02*
X6698753Y-16726936D01*
X6698753Y-16726936D02*
X6698753Y-16745984D01*
X6879705Y-16545984D02*
X6841610Y-16545984D01*
X6841610Y-16545984D02*
X6822562Y-16555508D01*
X6822562Y-16555508D02*
X6813039Y-16565031D01*
X6813039Y-16565031D02*
X6793991Y-16593603D01*
X6793991Y-16593603D02*
X6784467Y-16631698D01*
X6784467Y-16631698D02*
X6784467Y-16707888D01*
X6784467Y-16707888D02*
X6793991Y-16726936D01*
X6793991Y-16726936D02*
X6803515Y-16736460D01*
X6803515Y-16736460D02*
X6822562Y-16745984D01*
X6822562Y-16745984D02*
X6860658Y-16745984D01*
X6860658Y-16745984D02*
X6879705Y-16736460D01*
X6879705Y-16736460D02*
X6889229Y-16726936D01*
X6889229Y-16726936D02*
X6898753Y-16707888D01*
X6898753Y-16707888D02*
X6898753Y-16660269D01*
X6898753Y-16660269D02*
X6889229Y-16641222D01*
X6889229Y-16641222D02*
X6879705Y-16631698D01*
X6879705Y-16631698D02*
X6860658Y-16622174D01*
X6860658Y-16622174D02*
X6822562Y-16622174D01*
X6822562Y-16622174D02*
X6803515Y-16631698D01*
X6803515Y-16631698D02*
X6793991Y-16641222D01*
X6793991Y-16641222D02*
X6784467Y-16660269D01*
X7022562Y-16545984D02*
X7041610Y-16545984D01*
X7041610Y-16545984D02*
X7060658Y-16555508D01*
X7060658Y-16555508D02*
X7070182Y-16565031D01*
X7070182Y-16565031D02*
X7079705Y-16584079D01*
X7079705Y-16584079D02*
X7089229Y-16622174D01*
X7089229Y-16622174D02*
X7089229Y-16669793D01*
X7089229Y-16669793D02*
X7079705Y-16707888D01*
X7079705Y-16707888D02*
X7070182Y-16726936D01*
X7070182Y-16726936D02*
X7060658Y-16736460D01*
X7060658Y-16736460D02*
X7041610Y-16745984D01*
X7041610Y-16745984D02*
X7022562Y-16745984D01*
X7022562Y-16745984D02*
X7003515Y-16736460D01*
X7003515Y-16736460D02*
X6993991Y-16726936D01*
X6993991Y-16726936D02*
X6984467Y-16707888D01*
X6984467Y-16707888D02*
X6974943Y-16669793D01*
X6974943Y-16669793D02*
X6974943Y-16622174D01*
X6974943Y-16622174D02*
X6984467Y-16584079D01*
X6984467Y-16584079D02*
X6993991Y-16565031D01*
X6993991Y-16565031D02*
X7003515Y-16555508D01*
X7003515Y-16555508D02*
X7022562Y-16545984D01*
X7213039Y-16545984D02*
X7232086Y-16545984D01*
X7232086Y-16545984D02*
X7251134Y-16555508D01*
X7251134Y-16555508D02*
X7260658Y-16565031D01*
X7260658Y-16565031D02*
X7270182Y-16584079D01*
X7270182Y-16584079D02*
X7279705Y-16622174D01*
X7279705Y-16622174D02*
X7279705Y-16669793D01*
X7279705Y-16669793D02*
X7270182Y-16707888D01*
X7270182Y-16707888D02*
X7260658Y-16726936D01*
X7260658Y-16726936D02*
X7251134Y-16736460D01*
X7251134Y-16736460D02*
X7232086Y-16745984D01*
X7232086Y-16745984D02*
X7213039Y-16745984D01*
X7213039Y-16745984D02*
X7193991Y-16736460D01*
X7193991Y-16736460D02*
X7184467Y-16726936D01*
X7184467Y-16726936D02*
X7174943Y-16707888D01*
X7174943Y-16707888D02*
X7165420Y-16669793D01*
X7165420Y-16669793D02*
X7165420Y-16622174D01*
X7165420Y-16622174D02*
X7174943Y-16584079D01*
X7174943Y-16584079D02*
X7184467Y-16565031D01*
X7184467Y-16565031D02*
X7193991Y-16555508D01*
X7193991Y-16555508D02*
X7213039Y-16545984D01*
X7365420Y-16745984D02*
X7365420Y-16612650D01*
X7365420Y-16631698D02*
X7374943Y-16622174D01*
X7374943Y-16622174D02*
X7393991Y-16612650D01*
X7393991Y-16612650D02*
X7422563Y-16612650D01*
X7422563Y-16612650D02*
X7441610Y-16622174D01*
X7441610Y-16622174D02*
X7451134Y-16641222D01*
X7451134Y-16641222D02*
X7451134Y-16745984D01*
X7451134Y-16641222D02*
X7460658Y-16622174D01*
X7460658Y-16622174D02*
X7479705Y-16612650D01*
X7479705Y-16612650D02*
X7508277Y-16612650D01*
X7508277Y-16612650D02*
X7527324Y-16622174D01*
X7527324Y-16622174D02*
X7536848Y-16641222D01*
X7536848Y-16641222D02*
X7536848Y-16745984D01*
X7632086Y-16745984D02*
X7632086Y-16612650D01*
X7632086Y-16631698D02*
X7641610Y-16622174D01*
X7641610Y-16622174D02*
X7660658Y-16612650D01*
X7660658Y-16612650D02*
X7689229Y-16612650D01*
X7689229Y-16612650D02*
X7708277Y-16622174D01*
X7708277Y-16622174D02*
X7717801Y-16641222D01*
X7717801Y-16641222D02*
X7717801Y-16745984D01*
X7717801Y-16641222D02*
X7727324Y-16622174D01*
X7727324Y-16622174D02*
X7746372Y-16612650D01*
X7746372Y-16612650D02*
X7774943Y-16612650D01*
X7774943Y-16612650D02*
X7793991Y-16622174D01*
X7793991Y-16622174D02*
X7803515Y-16641222D01*
X7803515Y-16641222D02*
X7803515Y-16745984D01*
X8193991Y-16536460D02*
X8022563Y-16793603D01*
X8451134Y-16545984D02*
X8470182Y-16545984D01*
X8470182Y-16545984D02*
X8489229Y-16555508D01*
X8489229Y-16555508D02*
X8498753Y-16565031D01*
X8498753Y-16565031D02*
X8508277Y-16584079D01*
X8508277Y-16584079D02*
X8517801Y-16622174D01*
X8517801Y-16622174D02*
X8517801Y-16669793D01*
X8517801Y-16669793D02*
X8508277Y-16707888D01*
X8508277Y-16707888D02*
X8498753Y-16726936D01*
X8498753Y-16726936D02*
X8489229Y-16736460D01*
X8489229Y-16736460D02*
X8470182Y-16745984D01*
X8470182Y-16745984D02*
X8451134Y-16745984D01*
X8451134Y-16745984D02*
X8432087Y-16736460D01*
X8432087Y-16736460D02*
X8422563Y-16726936D01*
X8422563Y-16726936D02*
X8413039Y-16707888D01*
X8413039Y-16707888D02*
X8403515Y-16669793D01*
X8403515Y-16669793D02*
X8403515Y-16622174D01*
X8403515Y-16622174D02*
X8413039Y-16584079D01*
X8413039Y-16584079D02*
X8422563Y-16565031D01*
X8422563Y-16565031D02*
X8432087Y-16555508D01*
X8432087Y-16555508D02*
X8451134Y-16545984D01*
X8603515Y-16726936D02*
X8613039Y-16736460D01*
X8613039Y-16736460D02*
X8603515Y-16745984D01*
X8603515Y-16745984D02*
X8593991Y-16736460D01*
X8593991Y-16736460D02*
X8603515Y-16726936D01*
X8603515Y-16726936D02*
X8603515Y-16745984D01*
X8736848Y-16545984D02*
X8755896Y-16545984D01*
X8755896Y-16545984D02*
X8774944Y-16555508D01*
X8774944Y-16555508D02*
X8784468Y-16565031D01*
X8784468Y-16565031D02*
X8793991Y-16584079D01*
X8793991Y-16584079D02*
X8803515Y-16622174D01*
X8803515Y-16622174D02*
X8803515Y-16669793D01*
X8803515Y-16669793D02*
X8793991Y-16707888D01*
X8793991Y-16707888D02*
X8784468Y-16726936D01*
X8784468Y-16726936D02*
X8774944Y-16736460D01*
X8774944Y-16736460D02*
X8755896Y-16745984D01*
X8755896Y-16745984D02*
X8736848Y-16745984D01*
X8736848Y-16745984D02*
X8717801Y-16736460D01*
X8717801Y-16736460D02*
X8708277Y-16726936D01*
X8708277Y-16726936D02*
X8698753Y-16707888D01*
X8698753Y-16707888D02*
X8689229Y-16669793D01*
X8689229Y-16669793D02*
X8689229Y-16622174D01*
X8689229Y-16622174D02*
X8698753Y-16584079D01*
X8698753Y-16584079D02*
X8708277Y-16565031D01*
X8708277Y-16565031D02*
X8717801Y-16555508D01*
X8717801Y-16555508D02*
X8736848Y-16545984D01*
X8974944Y-16545984D02*
X8936848Y-16545984D01*
X8936848Y-16545984D02*
X8917801Y-16555508D01*
X8917801Y-16555508D02*
X8908277Y-16565031D01*
X8908277Y-16565031D02*
X8889229Y-16593603D01*
X8889229Y-16593603D02*
X8879706Y-16631698D01*
X8879706Y-16631698D02*
X8879706Y-16707888D01*
X8879706Y-16707888D02*
X8889229Y-16726936D01*
X8889229Y-16726936D02*
X8898753Y-16736460D01*
X8898753Y-16736460D02*
X8917801Y-16745984D01*
X8917801Y-16745984D02*
X8955896Y-16745984D01*
X8955896Y-16745984D02*
X8974944Y-16736460D01*
X8974944Y-16736460D02*
X8984468Y-16726936D01*
X8984468Y-16726936D02*
X8993991Y-16707888D01*
X8993991Y-16707888D02*
X8993991Y-16660269D01*
X8993991Y-16660269D02*
X8984468Y-16641222D01*
X8984468Y-16641222D02*
X8974944Y-16631698D01*
X8974944Y-16631698D02*
X8955896Y-16622174D01*
X8955896Y-16622174D02*
X8917801Y-16622174D01*
X8917801Y-16622174D02*
X8898753Y-16631698D01*
X8898753Y-16631698D02*
X8889229Y-16641222D01*
X8889229Y-16641222D02*
X8879706Y-16660269D01*
X9060658Y-16545984D02*
X9184468Y-16545984D01*
X9184468Y-16545984D02*
X9117801Y-16622174D01*
X9117801Y-16622174D02*
X9146372Y-16622174D01*
X9146372Y-16622174D02*
X9165420Y-16631698D01*
X9165420Y-16631698D02*
X9174944Y-16641222D01*
X9174944Y-16641222D02*
X9184468Y-16660269D01*
X9184468Y-16660269D02*
X9184468Y-16707888D01*
X9184468Y-16707888D02*
X9174944Y-16726936D01*
X9174944Y-16726936D02*
X9165420Y-16736460D01*
X9165420Y-16736460D02*
X9146372Y-16745984D01*
X9146372Y-16745984D02*
X9089229Y-16745984D01*
X9089229Y-16745984D02*
X9070182Y-16736460D01*
X9070182Y-16736460D02*
X9060658Y-16726936D01*
X9308277Y-16545984D02*
X9327325Y-16545984D01*
X9327325Y-16545984D02*
X9346372Y-16555508D01*
X9346372Y-16555508D02*
X9355896Y-16565031D01*
X9355896Y-16565031D02*
X9365420Y-16584079D01*
X9365420Y-16584079D02*
X9374944Y-16622174D01*
X9374944Y-16622174D02*
X9374944Y-16669793D01*
X9374944Y-16669793D02*
X9365420Y-16707888D01*
X9365420Y-16707888D02*
X9355896Y-16726936D01*
X9355896Y-16726936D02*
X9346372Y-16736460D01*
X9346372Y-16736460D02*
X9327325Y-16745984D01*
X9327325Y-16745984D02*
X9308277Y-16745984D01*
X9308277Y-16745984D02*
X9289229Y-16736460D01*
X9289229Y-16736460D02*
X9279706Y-16726936D01*
X9279706Y-16726936D02*
X9270182Y-16707888D01*
X9270182Y-16707888D02*
X9260658Y-16669793D01*
X9260658Y-16669793D02*
X9260658Y-16622174D01*
X9260658Y-16622174D02*
X9270182Y-16584079D01*
X9270182Y-16584079D02*
X9279706Y-16565031D01*
X9279706Y-16565031D02*
X9289229Y-16555508D01*
X9289229Y-16555508D02*
X9308277Y-16545984D01*
X9451134Y-16545984D02*
X9451134Y-16584079D01*
X9527325Y-16545984D02*
X9527325Y-16584079D01*
X9822563Y-16822174D02*
X9813039Y-16812650D01*
X9813039Y-16812650D02*
X9793991Y-16784079D01*
X9793991Y-16784079D02*
X9784468Y-16765031D01*
X9784468Y-16765031D02*
X9774944Y-16736460D01*
X9774944Y-16736460D02*
X9765420Y-16688841D01*
X9765420Y-16688841D02*
X9765420Y-16650746D01*
X9765420Y-16650746D02*
X9774944Y-16603127D01*
X9774944Y-16603127D02*
X9784468Y-16574555D01*
X9784468Y-16574555D02*
X9793991Y-16555508D01*
X9793991Y-16555508D02*
X9813039Y-16526936D01*
X9813039Y-16526936D02*
X9822563Y-16517412D01*
X9984468Y-16612650D02*
X9984468Y-16745984D01*
X9936849Y-16536460D02*
X9889230Y-16679317D01*
X9889230Y-16679317D02*
X10013039Y-16679317D01*
X10241611Y-16745984D02*
X10241611Y-16545984D01*
X10327325Y-16745984D02*
X10327325Y-16641222D01*
X10327325Y-16641222D02*
X10317801Y-16622174D01*
X10317801Y-16622174D02*
X10298753Y-16612650D01*
X10298753Y-16612650D02*
X10270182Y-16612650D01*
X10270182Y-16612650D02*
X10251134Y-16622174D01*
X10251134Y-16622174D02*
X10241611Y-16631698D01*
X10451134Y-16745984D02*
X10432087Y-16736460D01*
X10432087Y-16736460D02*
X10422563Y-16726936D01*
X10422563Y-16726936D02*
X10413039Y-16707888D01*
X10413039Y-16707888D02*
X10413039Y-16650746D01*
X10413039Y-16650746D02*
X10422563Y-16631698D01*
X10422563Y-16631698D02*
X10432087Y-16622174D01*
X10432087Y-16622174D02*
X10451134Y-16612650D01*
X10451134Y-16612650D02*
X10479706Y-16612650D01*
X10479706Y-16612650D02*
X10498753Y-16622174D01*
X10498753Y-16622174D02*
X10508277Y-16631698D01*
X10508277Y-16631698D02*
X10517801Y-16650746D01*
X10517801Y-16650746D02*
X10517801Y-16707888D01*
X10517801Y-16707888D02*
X10508277Y-16726936D01*
X10508277Y-16726936D02*
X10498753Y-16736460D01*
X10498753Y-16736460D02*
X10479706Y-16745984D01*
X10479706Y-16745984D02*
X10451134Y-16745984D01*
X10632087Y-16745984D02*
X10613039Y-16736460D01*
X10613039Y-16736460D02*
X10603515Y-16717412D01*
X10603515Y-16717412D02*
X10603515Y-16545984D01*
X10784468Y-16736460D02*
X10765420Y-16745984D01*
X10765420Y-16745984D02*
X10727325Y-16745984D01*
X10727325Y-16745984D02*
X10708277Y-16736460D01*
X10708277Y-16736460D02*
X10698753Y-16717412D01*
X10698753Y-16717412D02*
X10698753Y-16641222D01*
X10698753Y-16641222D02*
X10708277Y-16622174D01*
X10708277Y-16622174D02*
X10727325Y-16612650D01*
X10727325Y-16612650D02*
X10765420Y-16612650D01*
X10765420Y-16612650D02*
X10784468Y-16622174D01*
X10784468Y-16622174D02*
X10793992Y-16641222D01*
X10793992Y-16641222D02*
X10793992Y-16660269D01*
X10793992Y-16660269D02*
X10698753Y-16679317D01*
X10870182Y-16736460D02*
X10889230Y-16745984D01*
X10889230Y-16745984D02*
X10927325Y-16745984D01*
X10927325Y-16745984D02*
X10946373Y-16736460D01*
X10946373Y-16736460D02*
X10955896Y-16717412D01*
X10955896Y-16717412D02*
X10955896Y-16707888D01*
X10955896Y-16707888D02*
X10946373Y-16688841D01*
X10946373Y-16688841D02*
X10927325Y-16679317D01*
X10927325Y-16679317D02*
X10898753Y-16679317D01*
X10898753Y-16679317D02*
X10879706Y-16669793D01*
X10879706Y-16669793D02*
X10870182Y-16650746D01*
X10870182Y-16650746D02*
X10870182Y-16641222D01*
X10870182Y-16641222D02*
X10879706Y-16622174D01*
X10879706Y-16622174D02*
X10898753Y-16612650D01*
X10898753Y-16612650D02*
X10927325Y-16612650D01*
X10927325Y-16612650D02*
X10946373Y-16622174D01*
X11022563Y-16822174D02*
X11032087Y-16812650D01*
X11032087Y-16812650D02*
X11051134Y-16784079D01*
X11051134Y-16784079D02*
X11060658Y-16765031D01*
X11060658Y-16765031D02*
X11070182Y-16736460D01*
X11070182Y-16736460D02*
X11079706Y-16688841D01*
X11079706Y-16688841D02*
X11079706Y-16650746D01*
X11079706Y-16650746D02*
X11070182Y-16603127D01*
X11070182Y-16603127D02*
X11060658Y-16574555D01*
X11060658Y-16574555D02*
X11051134Y-16555508D01*
X11051134Y-16555508D02*
X11032087Y-16526936D01*
X11032087Y-16526936D02*
X11022563Y-16517412D01*
M02*
