M48
; DRILL file {KiCad 8.0.5} date 2024-11-10T22:18:09+0200
; FORMAT={-:-/ absolute / inch / decimal}
; #@! TF.CreationDate,2024-11-10T22:18:09+02:00
; #@! TF.GenerationSoftware,Kicad,Pcbnew,8.0.5
; #@! TF.FileFunction,Plated,1,2,PTH
FMAT,2
INCH
; #@! TA.AperFunction,Plated,PTH,ComponentDrill
T1C0.0295
; #@! TA.AperFunction,Plated,PTH,ComponentDrill
T2C0.0300
; #@! TA.AperFunction,Plated,PTH,ComponentDrill
T3C0.0315
; #@! TA.AperFunction,Plated,PTH,ComponentDrill
T4C0.0354
; #@! TA.AperFunction,Plated,PTH,ComponentDrill
T5C0.0374
; #@! TA.AperFunction,Plated,PTH,ComponentDrill
T6C0.0394
; #@! TA.AperFunction,Plated,PTH,ComponentDrill
T7C0.0433
; #@! TA.AperFunction,Plated,PTH,ComponentDrill
T8C0.0512
; #@! TA.AperFunction,Plated,PTH,ComponentDrill
T9C0.0630
%
G90
G05
T1
X6.4124Y-3.3606
X6.4124Y-3.9709
X6.4624Y-3.3606
X6.4624Y-3.9709
X6.5124Y-3.3606
X6.5124Y-3.9709
T2
X3.0374Y-3.9567
X3.1374Y-3.9567
X3.2374Y-3.9567
X3.3374Y-3.9567
X3.4374Y-3.9567
X3.5374Y-3.9567
T3
X3.787Y-3.9567
X4.087Y-3.9567
X4.0945Y-5.0969
X4.0945Y-5.1953
X4.1043Y-3.5508
X4.1043Y-3.8508
X4.2913Y-4.3429
X4.2913Y-4.6429
X4.3201Y-3.5508
X4.3201Y-3.8508
X4.4201Y-3.5508
X4.4201Y-3.8508
X4.5201Y-3.5508
X4.5201Y-3.8508
X4.5402Y-4.3429
X4.5402Y-4.6429
X4.6201Y-3.5508
X4.6201Y-3.8508
X4.7201Y-3.5508
X4.7201Y-3.8508
X4.7244Y-5.1438
X4.7244Y-5.2422
X4.789Y-4.3429
X4.789Y-4.6429
X4.8201Y-3.5508
X4.8201Y-3.8508
X4.9201Y-3.5508
X4.9201Y-3.8508
X4.9902Y-2.8642
X4.9902Y-3.1642
X5.0201Y-3.5508
X5.0201Y-3.8508
X5.0587Y-4.2472
X5.0587Y-4.4441
X5.0591Y-4.0748
X5.1201Y-3.5508
X5.1201Y-3.8508
X5.2201Y-3.5508
X5.2201Y-3.8508
X5.2512Y-4.0748
X5.2555Y-4.2472
X5.2555Y-4.4441
X5.3201Y-3.5508
X5.3201Y-3.8508
X5.4201Y-3.5508
X5.4201Y-3.8508
X5.5201Y-3.5508
X5.5201Y-3.8508
X5.6102Y-5.1984
X5.6102Y-5.2969
X5.6201Y-3.5508
X5.6201Y-3.8508
X6.2598Y-5.0969
X6.2598Y-5.1953
X6.4632Y-3.4917
X6.4632Y-3.7917
X6.6335Y-3.5236
X6.6335Y-3.6236
X6.6346Y-3.3071
X6.6346Y-3.8406
X6.9335Y-3.5236
X6.9335Y-3.6236
X6.9346Y-3.3071
X6.9346Y-3.8406
T4
X4.2913Y-4.7492
X4.2913Y-4.8492
X4.5402Y-4.7492
X4.5402Y-4.8492
X4.789Y-4.7492
X4.789Y-4.8492
T5
X4.2126Y-3.0315
X4.311Y-3.0315
X4.4094Y-3.0315
X4.5079Y-3.0315
X4.6063Y-3.0315
X4.7047Y-3.0315
X4.8031Y-3.0315
X5.1772Y-3.0315
X5.2756Y-3.0315
X5.374Y-3.0315
X5.4724Y-3.0315
X5.5709Y-3.0315
X5.6693Y-3.0315
X5.7677Y-3.0315
X5.8661Y-3.0315
T6
X2.9736Y-2.8252
X2.9736Y-2.9252
X2.9736Y-3.0252
X2.9736Y-3.1252
X2.9736Y-3.2252
X2.9736Y-3.3252
X2.9736Y-3.4252
X3.9146Y-3.0252
X3.9146Y-3.1252
X3.9146Y-3.2252
X3.9146Y-3.3252
X3.9146Y-3.4252
X6.0236Y-3.5039
X6.0236Y-3.6039
X6.0236Y-3.7039
X6.0236Y-3.8039
X6.0236Y-3.9039
X6.1236Y-3.5039
X6.1236Y-3.6039
X6.1236Y-3.7039
X6.1236Y-3.8039
X6.1236Y-3.9039
X6.5748Y-2.7835
X6.5748Y-3.0827
T7
X3.8091Y-4.0846
X3.8091Y-4.3406
X3.9862Y-4.0846
X3.9862Y-4.3406
X4.2913Y-5.0969
X4.2913Y-5.1969
X4.2913Y-5.2969
X6.0236Y-5.0969
X6.0236Y-5.1969
X6.0236Y-5.2969
X6.1705Y-2.7835
X6.1705Y-3.1835
X6.4764Y-4.1701
X6.4764Y-4.5701
T8
X5.689Y-4.311
X5.689Y-4.7835
X6.1693Y-4.311
X6.1693Y-4.7835
X6.248Y-4.5472
X7.2659Y-3.2087
X7.2659Y-3.4055
X7.2659Y-3.6877
X7.2659Y-3.8845
X7.2659Y-4.1667
X7.2659Y-4.3635
X7.2659Y-4.6457
X7.2659Y-4.8425
T9
X3.8527Y-4.6606
X3.8527Y-5.2606
X6.5157Y-4.7697
X6.5157Y-5.3697
T6
G00X5.0984Y-4.9213
M15
G01X5.1772Y-4.9213
M16
G05
G00X5.0984Y-5.1575
M15
G01X5.1772Y-5.1575
M16
G05
G00X5.3228Y-5.0787
M15
G01X5.3228Y-5.0
M16
G05
M30
