%TF.GenerationSoftware,KiCad,Pcbnew,8.0.5*%
%TF.CreationDate,2024-11-10T22:18:10+02:00*%
%TF.ProjectId,LockBoard,4c6f636b-426f-4617-9264-2e6b69636164,rev?*%
%TF.SameCoordinates,Original*%
%TF.FileFunction,Drillmap*%
%TF.FilePolarity,Positive*%
%FSLAX45Y45*%
G04 Gerber Fmt 4.5, Leading zero omitted, Abs format (unit mm)*
G04 Created by KiCad (PCBNEW 8.0.5) date 2024-11-10 22:18:10*
%MOMM*%
%LPD*%
G01*
G04 APERTURE LIST*
%ADD10C,0.050000*%
%ADD11C,0.200000*%
%ADD12C,0.430000*%
G04 APERTURE END LIST*
D10*
X6250000Y-6400000D02*
X19250000Y-6400000D01*
X19250000Y-13900000D01*
X6250000Y-13900000D01*
X6250000Y-6400000D01*
D11*
D12*
X6635000Y-6785000D02*
X7065000Y-7215000D01*
X7065000Y-6785000D02*
X6635000Y-7215000D01*
X6635000Y-13085000D02*
X7065000Y-13515000D01*
X7065000Y-13085000D02*
X6635000Y-13515000D01*
X18435000Y-6785000D02*
X18865000Y-7215000D01*
X18865000Y-6785000D02*
X18435000Y-7215000D01*
X18435000Y-13085000D02*
X18865000Y-13515000D01*
X18865000Y-13085000D02*
X18435000Y-13515000D01*
D11*
X6508277Y-14213984D02*
X6508277Y-14013984D01*
X6508277Y-14013984D02*
X6555896Y-14013984D01*
X6555896Y-14013984D02*
X6584467Y-14023508D01*
X6584467Y-14023508D02*
X6603515Y-14042555D01*
X6603515Y-14042555D02*
X6613039Y-14061603D01*
X6613039Y-14061603D02*
X6622562Y-14099698D01*
X6622562Y-14099698D02*
X6622562Y-14128269D01*
X6622562Y-14128269D02*
X6613039Y-14166365D01*
X6613039Y-14166365D02*
X6603515Y-14185412D01*
X6603515Y-14185412D02*
X6584467Y-14204460D01*
X6584467Y-14204460D02*
X6555896Y-14213984D01*
X6555896Y-14213984D02*
X6508277Y-14213984D01*
X6708277Y-14213984D02*
X6708277Y-14080650D01*
X6708277Y-14118746D02*
X6717801Y-14099698D01*
X6717801Y-14099698D02*
X6727324Y-14090174D01*
X6727324Y-14090174D02*
X6746372Y-14080650D01*
X6746372Y-14080650D02*
X6765420Y-14080650D01*
X6832086Y-14213984D02*
X6832086Y-14080650D01*
X6832086Y-14013984D02*
X6822562Y-14023508D01*
X6822562Y-14023508D02*
X6832086Y-14033031D01*
X6832086Y-14033031D02*
X6841610Y-14023508D01*
X6841610Y-14023508D02*
X6832086Y-14013984D01*
X6832086Y-14013984D02*
X6832086Y-14033031D01*
X6955896Y-14213984D02*
X6936848Y-14204460D01*
X6936848Y-14204460D02*
X6927324Y-14185412D01*
X6927324Y-14185412D02*
X6927324Y-14013984D01*
X7060658Y-14213984D02*
X7041610Y-14204460D01*
X7041610Y-14204460D02*
X7032086Y-14185412D01*
X7032086Y-14185412D02*
X7032086Y-14013984D01*
X7289229Y-14213984D02*
X7289229Y-14013984D01*
X7289229Y-14013984D02*
X7355896Y-14156841D01*
X7355896Y-14156841D02*
X7422562Y-14013984D01*
X7422562Y-14013984D02*
X7422562Y-14213984D01*
X7603515Y-14213984D02*
X7603515Y-14109222D01*
X7603515Y-14109222D02*
X7593991Y-14090174D01*
X7593991Y-14090174D02*
X7574943Y-14080650D01*
X7574943Y-14080650D02*
X7536848Y-14080650D01*
X7536848Y-14080650D02*
X7517801Y-14090174D01*
X7603515Y-14204460D02*
X7584467Y-14213984D01*
X7584467Y-14213984D02*
X7536848Y-14213984D01*
X7536848Y-14213984D02*
X7517801Y-14204460D01*
X7517801Y-14204460D02*
X7508277Y-14185412D01*
X7508277Y-14185412D02*
X7508277Y-14166365D01*
X7508277Y-14166365D02*
X7517801Y-14147317D01*
X7517801Y-14147317D02*
X7536848Y-14137793D01*
X7536848Y-14137793D02*
X7584467Y-14137793D01*
X7584467Y-14137793D02*
X7603515Y-14128269D01*
X7698753Y-14080650D02*
X7698753Y-14280650D01*
X7698753Y-14090174D02*
X7717801Y-14080650D01*
X7717801Y-14080650D02*
X7755896Y-14080650D01*
X7755896Y-14080650D02*
X7774943Y-14090174D01*
X7774943Y-14090174D02*
X7784467Y-14099698D01*
X7784467Y-14099698D02*
X7793991Y-14118746D01*
X7793991Y-14118746D02*
X7793991Y-14175888D01*
X7793991Y-14175888D02*
X7784467Y-14194936D01*
X7784467Y-14194936D02*
X7774943Y-14204460D01*
X7774943Y-14204460D02*
X7755896Y-14213984D01*
X7755896Y-14213984D02*
X7717801Y-14213984D01*
X7717801Y-14213984D02*
X7698753Y-14204460D01*
X7879705Y-14194936D02*
X7889229Y-14204460D01*
X7889229Y-14204460D02*
X7879705Y-14213984D01*
X7879705Y-14213984D02*
X7870182Y-14204460D01*
X7870182Y-14204460D02*
X7879705Y-14194936D01*
X7879705Y-14194936D02*
X7879705Y-14213984D01*
X7879705Y-14090174D02*
X7889229Y-14099698D01*
X7889229Y-14099698D02*
X7879705Y-14109222D01*
X7879705Y-14109222D02*
X7870182Y-14099698D01*
X7870182Y-14099698D02*
X7879705Y-14090174D01*
X7879705Y-14090174D02*
X7879705Y-14109222D01*
X6047500Y-14442500D02*
X6247500Y-14642500D01*
X6247500Y-14442500D02*
X6047500Y-14642500D01*
X6593991Y-14500650D02*
X6593991Y-14633984D01*
X6546372Y-14424460D02*
X6498753Y-14567317D01*
X6498753Y-14567317D02*
X6622562Y-14567317D01*
X6698753Y-14614936D02*
X6708277Y-14624460D01*
X6708277Y-14624460D02*
X6698753Y-14633984D01*
X6698753Y-14633984D02*
X6689229Y-14624460D01*
X6689229Y-14624460D02*
X6698753Y-14614936D01*
X6698753Y-14614936D02*
X6698753Y-14633984D01*
X6774943Y-14433984D02*
X6898753Y-14433984D01*
X6898753Y-14433984D02*
X6832086Y-14510174D01*
X6832086Y-14510174D02*
X6860658Y-14510174D01*
X6860658Y-14510174D02*
X6879705Y-14519698D01*
X6879705Y-14519698D02*
X6889229Y-14529222D01*
X6889229Y-14529222D02*
X6898753Y-14548269D01*
X6898753Y-14548269D02*
X6898753Y-14595888D01*
X6898753Y-14595888D02*
X6889229Y-14614936D01*
X6889229Y-14614936D02*
X6879705Y-14624460D01*
X6879705Y-14624460D02*
X6860658Y-14633984D01*
X6860658Y-14633984D02*
X6803515Y-14633984D01*
X6803515Y-14633984D02*
X6784467Y-14624460D01*
X6784467Y-14624460D02*
X6774943Y-14614936D01*
X7022562Y-14433984D02*
X7041610Y-14433984D01*
X7041610Y-14433984D02*
X7060658Y-14443508D01*
X7060658Y-14443508D02*
X7070182Y-14453031D01*
X7070182Y-14453031D02*
X7079705Y-14472079D01*
X7079705Y-14472079D02*
X7089229Y-14510174D01*
X7089229Y-14510174D02*
X7089229Y-14557793D01*
X7089229Y-14557793D02*
X7079705Y-14595888D01*
X7079705Y-14595888D02*
X7070182Y-14614936D01*
X7070182Y-14614936D02*
X7060658Y-14624460D01*
X7060658Y-14624460D02*
X7041610Y-14633984D01*
X7041610Y-14633984D02*
X7022562Y-14633984D01*
X7022562Y-14633984D02*
X7003515Y-14624460D01*
X7003515Y-14624460D02*
X6993991Y-14614936D01*
X6993991Y-14614936D02*
X6984467Y-14595888D01*
X6984467Y-14595888D02*
X6974943Y-14557793D01*
X6974943Y-14557793D02*
X6974943Y-14510174D01*
X6974943Y-14510174D02*
X6984467Y-14472079D01*
X6984467Y-14472079D02*
X6993991Y-14453031D01*
X6993991Y-14453031D02*
X7003515Y-14443508D01*
X7003515Y-14443508D02*
X7022562Y-14433984D01*
X7213039Y-14433984D02*
X7232086Y-14433984D01*
X7232086Y-14433984D02*
X7251134Y-14443508D01*
X7251134Y-14443508D02*
X7260658Y-14453031D01*
X7260658Y-14453031D02*
X7270182Y-14472079D01*
X7270182Y-14472079D02*
X7279705Y-14510174D01*
X7279705Y-14510174D02*
X7279705Y-14557793D01*
X7279705Y-14557793D02*
X7270182Y-14595888D01*
X7270182Y-14595888D02*
X7260658Y-14614936D01*
X7260658Y-14614936D02*
X7251134Y-14624460D01*
X7251134Y-14624460D02*
X7232086Y-14633984D01*
X7232086Y-14633984D02*
X7213039Y-14633984D01*
X7213039Y-14633984D02*
X7193991Y-14624460D01*
X7193991Y-14624460D02*
X7184467Y-14614936D01*
X7184467Y-14614936D02*
X7174943Y-14595888D01*
X7174943Y-14595888D02*
X7165420Y-14557793D01*
X7165420Y-14557793D02*
X7165420Y-14510174D01*
X7165420Y-14510174D02*
X7174943Y-14472079D01*
X7174943Y-14472079D02*
X7184467Y-14453031D01*
X7184467Y-14453031D02*
X7193991Y-14443508D01*
X7193991Y-14443508D02*
X7213039Y-14433984D01*
X7365420Y-14633984D02*
X7365420Y-14500650D01*
X7365420Y-14519698D02*
X7374943Y-14510174D01*
X7374943Y-14510174D02*
X7393991Y-14500650D01*
X7393991Y-14500650D02*
X7422563Y-14500650D01*
X7422563Y-14500650D02*
X7441610Y-14510174D01*
X7441610Y-14510174D02*
X7451134Y-14529222D01*
X7451134Y-14529222D02*
X7451134Y-14633984D01*
X7451134Y-14529222D02*
X7460658Y-14510174D01*
X7460658Y-14510174D02*
X7479705Y-14500650D01*
X7479705Y-14500650D02*
X7508277Y-14500650D01*
X7508277Y-14500650D02*
X7527324Y-14510174D01*
X7527324Y-14510174D02*
X7536848Y-14529222D01*
X7536848Y-14529222D02*
X7536848Y-14633984D01*
X7632086Y-14633984D02*
X7632086Y-14500650D01*
X7632086Y-14519698D02*
X7641610Y-14510174D01*
X7641610Y-14510174D02*
X7660658Y-14500650D01*
X7660658Y-14500650D02*
X7689229Y-14500650D01*
X7689229Y-14500650D02*
X7708277Y-14510174D01*
X7708277Y-14510174D02*
X7717801Y-14529222D01*
X7717801Y-14529222D02*
X7717801Y-14633984D01*
X7717801Y-14529222D02*
X7727324Y-14510174D01*
X7727324Y-14510174D02*
X7746372Y-14500650D01*
X7746372Y-14500650D02*
X7774943Y-14500650D01*
X7774943Y-14500650D02*
X7793991Y-14510174D01*
X7793991Y-14510174D02*
X7803515Y-14529222D01*
X7803515Y-14529222D02*
X7803515Y-14633984D01*
X8193991Y-14424460D02*
X8022563Y-14681603D01*
X8451134Y-14433984D02*
X8470182Y-14433984D01*
X8470182Y-14433984D02*
X8489229Y-14443508D01*
X8489229Y-14443508D02*
X8498753Y-14453031D01*
X8498753Y-14453031D02*
X8508277Y-14472079D01*
X8508277Y-14472079D02*
X8517801Y-14510174D01*
X8517801Y-14510174D02*
X8517801Y-14557793D01*
X8517801Y-14557793D02*
X8508277Y-14595888D01*
X8508277Y-14595888D02*
X8498753Y-14614936D01*
X8498753Y-14614936D02*
X8489229Y-14624460D01*
X8489229Y-14624460D02*
X8470182Y-14633984D01*
X8470182Y-14633984D02*
X8451134Y-14633984D01*
X8451134Y-14633984D02*
X8432087Y-14624460D01*
X8432087Y-14624460D02*
X8422563Y-14614936D01*
X8422563Y-14614936D02*
X8413039Y-14595888D01*
X8413039Y-14595888D02*
X8403515Y-14557793D01*
X8403515Y-14557793D02*
X8403515Y-14510174D01*
X8403515Y-14510174D02*
X8413039Y-14472079D01*
X8413039Y-14472079D02*
X8422563Y-14453031D01*
X8422563Y-14453031D02*
X8432087Y-14443508D01*
X8432087Y-14443508D02*
X8451134Y-14433984D01*
X8603515Y-14614936D02*
X8613039Y-14624460D01*
X8613039Y-14624460D02*
X8603515Y-14633984D01*
X8603515Y-14633984D02*
X8593991Y-14624460D01*
X8593991Y-14624460D02*
X8603515Y-14614936D01*
X8603515Y-14614936D02*
X8603515Y-14633984D01*
X8803515Y-14633984D02*
X8689229Y-14633984D01*
X8746372Y-14633984D02*
X8746372Y-14433984D01*
X8746372Y-14433984D02*
X8727325Y-14462555D01*
X8727325Y-14462555D02*
X8708277Y-14481603D01*
X8708277Y-14481603D02*
X8689229Y-14491127D01*
X8974944Y-14433984D02*
X8936848Y-14433984D01*
X8936848Y-14433984D02*
X8917801Y-14443508D01*
X8917801Y-14443508D02*
X8908277Y-14453031D01*
X8908277Y-14453031D02*
X8889229Y-14481603D01*
X8889229Y-14481603D02*
X8879706Y-14519698D01*
X8879706Y-14519698D02*
X8879706Y-14595888D01*
X8879706Y-14595888D02*
X8889229Y-14614936D01*
X8889229Y-14614936D02*
X8898753Y-14624460D01*
X8898753Y-14624460D02*
X8917801Y-14633984D01*
X8917801Y-14633984D02*
X8955896Y-14633984D01*
X8955896Y-14633984D02*
X8974944Y-14624460D01*
X8974944Y-14624460D02*
X8984468Y-14614936D01*
X8984468Y-14614936D02*
X8993991Y-14595888D01*
X8993991Y-14595888D02*
X8993991Y-14548269D01*
X8993991Y-14548269D02*
X8984468Y-14529222D01*
X8984468Y-14529222D02*
X8974944Y-14519698D01*
X8974944Y-14519698D02*
X8955896Y-14510174D01*
X8955896Y-14510174D02*
X8917801Y-14510174D01*
X8917801Y-14510174D02*
X8898753Y-14519698D01*
X8898753Y-14519698D02*
X8889229Y-14529222D01*
X8889229Y-14529222D02*
X8879706Y-14548269D01*
X9089229Y-14633984D02*
X9127325Y-14633984D01*
X9127325Y-14633984D02*
X9146372Y-14624460D01*
X9146372Y-14624460D02*
X9155896Y-14614936D01*
X9155896Y-14614936D02*
X9174944Y-14586365D01*
X9174944Y-14586365D02*
X9184468Y-14548269D01*
X9184468Y-14548269D02*
X9184468Y-14472079D01*
X9184468Y-14472079D02*
X9174944Y-14453031D01*
X9174944Y-14453031D02*
X9165420Y-14443508D01*
X9165420Y-14443508D02*
X9146372Y-14433984D01*
X9146372Y-14433984D02*
X9108277Y-14433984D01*
X9108277Y-14433984D02*
X9089229Y-14443508D01*
X9089229Y-14443508D02*
X9079706Y-14453031D01*
X9079706Y-14453031D02*
X9070182Y-14472079D01*
X9070182Y-14472079D02*
X9070182Y-14519698D01*
X9070182Y-14519698D02*
X9079706Y-14538746D01*
X9079706Y-14538746D02*
X9089229Y-14548269D01*
X9089229Y-14548269D02*
X9108277Y-14557793D01*
X9108277Y-14557793D02*
X9146372Y-14557793D01*
X9146372Y-14557793D02*
X9165420Y-14548269D01*
X9165420Y-14548269D02*
X9174944Y-14538746D01*
X9174944Y-14538746D02*
X9184468Y-14519698D01*
X9251134Y-14433984D02*
X9374944Y-14433984D01*
X9374944Y-14433984D02*
X9308277Y-14510174D01*
X9308277Y-14510174D02*
X9336849Y-14510174D01*
X9336849Y-14510174D02*
X9355896Y-14519698D01*
X9355896Y-14519698D02*
X9365420Y-14529222D01*
X9365420Y-14529222D02*
X9374944Y-14548269D01*
X9374944Y-14548269D02*
X9374944Y-14595888D01*
X9374944Y-14595888D02*
X9365420Y-14614936D01*
X9365420Y-14614936D02*
X9355896Y-14624460D01*
X9355896Y-14624460D02*
X9336849Y-14633984D01*
X9336849Y-14633984D02*
X9279706Y-14633984D01*
X9279706Y-14633984D02*
X9260658Y-14624460D01*
X9260658Y-14624460D02*
X9251134Y-14614936D01*
X9451134Y-14433984D02*
X9451134Y-14472079D01*
X9527325Y-14433984D02*
X9527325Y-14472079D01*
X9822563Y-14710174D02*
X9813039Y-14700650D01*
X9813039Y-14700650D02*
X9793991Y-14672079D01*
X9793991Y-14672079D02*
X9784468Y-14653031D01*
X9784468Y-14653031D02*
X9774944Y-14624460D01*
X9774944Y-14624460D02*
X9765420Y-14576841D01*
X9765420Y-14576841D02*
X9765420Y-14538746D01*
X9765420Y-14538746D02*
X9774944Y-14491127D01*
X9774944Y-14491127D02*
X9784468Y-14462555D01*
X9784468Y-14462555D02*
X9793991Y-14443508D01*
X9793991Y-14443508D02*
X9813039Y-14414936D01*
X9813039Y-14414936D02*
X9822563Y-14405412D01*
X9984468Y-14500650D02*
X9984468Y-14633984D01*
X9936849Y-14424460D02*
X9889230Y-14567317D01*
X9889230Y-14567317D02*
X10013039Y-14567317D01*
X10241611Y-14633984D02*
X10241611Y-14433984D01*
X10327325Y-14633984D02*
X10327325Y-14529222D01*
X10327325Y-14529222D02*
X10317801Y-14510174D01*
X10317801Y-14510174D02*
X10298753Y-14500650D01*
X10298753Y-14500650D02*
X10270182Y-14500650D01*
X10270182Y-14500650D02*
X10251134Y-14510174D01*
X10251134Y-14510174D02*
X10241611Y-14519698D01*
X10451134Y-14633984D02*
X10432087Y-14624460D01*
X10432087Y-14624460D02*
X10422563Y-14614936D01*
X10422563Y-14614936D02*
X10413039Y-14595888D01*
X10413039Y-14595888D02*
X10413039Y-14538746D01*
X10413039Y-14538746D02*
X10422563Y-14519698D01*
X10422563Y-14519698D02*
X10432087Y-14510174D01*
X10432087Y-14510174D02*
X10451134Y-14500650D01*
X10451134Y-14500650D02*
X10479706Y-14500650D01*
X10479706Y-14500650D02*
X10498753Y-14510174D01*
X10498753Y-14510174D02*
X10508277Y-14519698D01*
X10508277Y-14519698D02*
X10517801Y-14538746D01*
X10517801Y-14538746D02*
X10517801Y-14595888D01*
X10517801Y-14595888D02*
X10508277Y-14614936D01*
X10508277Y-14614936D02*
X10498753Y-14624460D01*
X10498753Y-14624460D02*
X10479706Y-14633984D01*
X10479706Y-14633984D02*
X10451134Y-14633984D01*
X10632087Y-14633984D02*
X10613039Y-14624460D01*
X10613039Y-14624460D02*
X10603515Y-14605412D01*
X10603515Y-14605412D02*
X10603515Y-14433984D01*
X10784468Y-14624460D02*
X10765420Y-14633984D01*
X10765420Y-14633984D02*
X10727325Y-14633984D01*
X10727325Y-14633984D02*
X10708277Y-14624460D01*
X10708277Y-14624460D02*
X10698753Y-14605412D01*
X10698753Y-14605412D02*
X10698753Y-14529222D01*
X10698753Y-14529222D02*
X10708277Y-14510174D01*
X10708277Y-14510174D02*
X10727325Y-14500650D01*
X10727325Y-14500650D02*
X10765420Y-14500650D01*
X10765420Y-14500650D02*
X10784468Y-14510174D01*
X10784468Y-14510174D02*
X10793992Y-14529222D01*
X10793992Y-14529222D02*
X10793992Y-14548269D01*
X10793992Y-14548269D02*
X10698753Y-14567317D01*
X10870182Y-14624460D02*
X10889230Y-14633984D01*
X10889230Y-14633984D02*
X10927325Y-14633984D01*
X10927325Y-14633984D02*
X10946373Y-14624460D01*
X10946373Y-14624460D02*
X10955896Y-14605412D01*
X10955896Y-14605412D02*
X10955896Y-14595888D01*
X10955896Y-14595888D02*
X10946373Y-14576841D01*
X10946373Y-14576841D02*
X10927325Y-14567317D01*
X10927325Y-14567317D02*
X10898753Y-14567317D01*
X10898753Y-14567317D02*
X10879706Y-14557793D01*
X10879706Y-14557793D02*
X10870182Y-14538746D01*
X10870182Y-14538746D02*
X10870182Y-14529222D01*
X10870182Y-14529222D02*
X10879706Y-14510174D01*
X10879706Y-14510174D02*
X10898753Y-14500650D01*
X10898753Y-14500650D02*
X10927325Y-14500650D01*
X10927325Y-14500650D02*
X10946373Y-14510174D01*
X11022563Y-14710174D02*
X11032087Y-14700650D01*
X11032087Y-14700650D02*
X11051134Y-14672079D01*
X11051134Y-14672079D02*
X11060658Y-14653031D01*
X11060658Y-14653031D02*
X11070182Y-14624460D01*
X11070182Y-14624460D02*
X11079706Y-14576841D01*
X11079706Y-14576841D02*
X11079706Y-14538746D01*
X11079706Y-14538746D02*
X11070182Y-14491127D01*
X11070182Y-14491127D02*
X11060658Y-14462555D01*
X11060658Y-14462555D02*
X11051134Y-14443508D01*
X11051134Y-14443508D02*
X11032087Y-14414936D01*
X11032087Y-14414936D02*
X11022563Y-14405412D01*
X11384468Y-14710174D02*
X11374944Y-14700650D01*
X11374944Y-14700650D02*
X11355896Y-14672079D01*
X11355896Y-14672079D02*
X11346372Y-14653031D01*
X11346372Y-14653031D02*
X11336849Y-14624460D01*
X11336849Y-14624460D02*
X11327325Y-14576841D01*
X11327325Y-14576841D02*
X11327325Y-14538746D01*
X11327325Y-14538746D02*
X11336849Y-14491127D01*
X11336849Y-14491127D02*
X11346372Y-14462555D01*
X11346372Y-14462555D02*
X11355896Y-14443508D01*
X11355896Y-14443508D02*
X11374944Y-14414936D01*
X11374944Y-14414936D02*
X11384468Y-14405412D01*
X11460658Y-14500650D02*
X11460658Y-14633984D01*
X11460658Y-14519698D02*
X11470182Y-14510174D01*
X11470182Y-14510174D02*
X11489230Y-14500650D01*
X11489230Y-14500650D02*
X11517801Y-14500650D01*
X11517801Y-14500650D02*
X11536849Y-14510174D01*
X11536849Y-14510174D02*
X11546372Y-14529222D01*
X11546372Y-14529222D02*
X11546372Y-14633984D01*
X11670182Y-14633984D02*
X11651134Y-14624460D01*
X11651134Y-14624460D02*
X11641611Y-14614936D01*
X11641611Y-14614936D02*
X11632087Y-14595888D01*
X11632087Y-14595888D02*
X11632087Y-14538746D01*
X11632087Y-14538746D02*
X11641611Y-14519698D01*
X11641611Y-14519698D02*
X11651134Y-14510174D01*
X11651134Y-14510174D02*
X11670182Y-14500650D01*
X11670182Y-14500650D02*
X11698753Y-14500650D01*
X11698753Y-14500650D02*
X11717801Y-14510174D01*
X11717801Y-14510174D02*
X11727325Y-14519698D01*
X11727325Y-14519698D02*
X11736849Y-14538746D01*
X11736849Y-14538746D02*
X11736849Y-14595888D01*
X11736849Y-14595888D02*
X11727325Y-14614936D01*
X11727325Y-14614936D02*
X11717801Y-14624460D01*
X11717801Y-14624460D02*
X11698753Y-14633984D01*
X11698753Y-14633984D02*
X11670182Y-14633984D01*
X11793992Y-14500650D02*
X11870182Y-14500650D01*
X11822563Y-14433984D02*
X11822563Y-14605412D01*
X11822563Y-14605412D02*
X11832087Y-14624460D01*
X11832087Y-14624460D02*
X11851134Y-14633984D01*
X11851134Y-14633984D02*
X11870182Y-14633984D01*
X12089230Y-14500650D02*
X12089230Y-14700650D01*
X12089230Y-14510174D02*
X12108277Y-14500650D01*
X12108277Y-14500650D02*
X12146373Y-14500650D01*
X12146373Y-14500650D02*
X12165420Y-14510174D01*
X12165420Y-14510174D02*
X12174944Y-14519698D01*
X12174944Y-14519698D02*
X12184468Y-14538746D01*
X12184468Y-14538746D02*
X12184468Y-14595888D01*
X12184468Y-14595888D02*
X12174944Y-14614936D01*
X12174944Y-14614936D02*
X12165420Y-14624460D01*
X12165420Y-14624460D02*
X12146373Y-14633984D01*
X12146373Y-14633984D02*
X12108277Y-14633984D01*
X12108277Y-14633984D02*
X12089230Y-14624460D01*
X12298753Y-14633984D02*
X12279706Y-14624460D01*
X12279706Y-14624460D02*
X12270182Y-14605412D01*
X12270182Y-14605412D02*
X12270182Y-14433984D01*
X12460658Y-14633984D02*
X12460658Y-14529222D01*
X12460658Y-14529222D02*
X12451134Y-14510174D01*
X12451134Y-14510174D02*
X12432087Y-14500650D01*
X12432087Y-14500650D02*
X12393992Y-14500650D01*
X12393992Y-14500650D02*
X12374944Y-14510174D01*
X12460658Y-14624460D02*
X12441611Y-14633984D01*
X12441611Y-14633984D02*
X12393992Y-14633984D01*
X12393992Y-14633984D02*
X12374944Y-14624460D01*
X12374944Y-14624460D02*
X12365420Y-14605412D01*
X12365420Y-14605412D02*
X12365420Y-14586365D01*
X12365420Y-14586365D02*
X12374944Y-14567317D01*
X12374944Y-14567317D02*
X12393992Y-14557793D01*
X12393992Y-14557793D02*
X12441611Y-14557793D01*
X12441611Y-14557793D02*
X12460658Y-14548269D01*
X12527325Y-14500650D02*
X12603515Y-14500650D01*
X12555896Y-14433984D02*
X12555896Y-14605412D01*
X12555896Y-14605412D02*
X12565420Y-14624460D01*
X12565420Y-14624460D02*
X12584468Y-14633984D01*
X12584468Y-14633984D02*
X12603515Y-14633984D01*
X12746373Y-14624460D02*
X12727325Y-14633984D01*
X12727325Y-14633984D02*
X12689230Y-14633984D01*
X12689230Y-14633984D02*
X12670182Y-14624460D01*
X12670182Y-14624460D02*
X12660658Y-14605412D01*
X12660658Y-14605412D02*
X12660658Y-14529222D01*
X12660658Y-14529222D02*
X12670182Y-14510174D01*
X12670182Y-14510174D02*
X12689230Y-14500650D01*
X12689230Y-14500650D02*
X12727325Y-14500650D01*
X12727325Y-14500650D02*
X12746373Y-14510174D01*
X12746373Y-14510174D02*
X12755896Y-14529222D01*
X12755896Y-14529222D02*
X12755896Y-14548269D01*
X12755896Y-14548269D02*
X12660658Y-14567317D01*
X12927325Y-14633984D02*
X12927325Y-14433984D01*
X12927325Y-14624460D02*
X12908277Y-14633984D01*
X12908277Y-14633984D02*
X12870182Y-14633984D01*
X12870182Y-14633984D02*
X12851134Y-14624460D01*
X12851134Y-14624460D02*
X12841611Y-14614936D01*
X12841611Y-14614936D02*
X12832087Y-14595888D01*
X12832087Y-14595888D02*
X12832087Y-14538746D01*
X12832087Y-14538746D02*
X12841611Y-14519698D01*
X12841611Y-14519698D02*
X12851134Y-14510174D01*
X12851134Y-14510174D02*
X12870182Y-14500650D01*
X12870182Y-14500650D02*
X12908277Y-14500650D01*
X12908277Y-14500650D02*
X12927325Y-14510174D01*
X13003515Y-14710174D02*
X13013039Y-14700650D01*
X13013039Y-14700650D02*
X13032087Y-14672079D01*
X13032087Y-14672079D02*
X13041611Y-14653031D01*
X13041611Y-14653031D02*
X13051134Y-14624460D01*
X13051134Y-14624460D02*
X13060658Y-14576841D01*
X13060658Y-14576841D02*
X13060658Y-14538746D01*
X13060658Y-14538746D02*
X13051134Y-14491127D01*
X13051134Y-14491127D02*
X13041611Y-14462555D01*
X13041611Y-14462555D02*
X13032087Y-14443508D01*
X13032087Y-14443508D02*
X13013039Y-14414936D01*
X13013039Y-14414936D02*
X13003515Y-14405412D01*
M02*
