%TF.GenerationSoftware,KiCad,Pcbnew,8.0.5*%
%TF.CreationDate,2024-11-10T22:18:14+02:00*%
%TF.ProjectId,LockBoard,4c6f636b-426f-4617-9264-2e6b69636164,rev?*%
%TF.SameCoordinates,Original*%
%TF.FileFunction,Soldermask,Top*%
%TF.FilePolarity,Negative*%
%FSLAX46Y46*%
G04 Gerber Fmt 4.6, Leading zero omitted, Abs format (unit mm)*
G04 Created by KiCad (PCBNEW 8.0.5) date 2024-11-10 22:18:14*
%MOMM*%
%LPD*%
G01*
G04 APERTURE LIST*
G04 Aperture macros list*
%AMRoundRect*
0 Rectangle with rounded corners*
0 $1 Rounding radius*
0 $2 $3 $4 $5 $6 $7 $8 $9 X,Y pos of 4 corners*
0 Add a 4 corners polygon primitive as box body*
4,1,4,$2,$3,$4,$5,$6,$7,$8,$9,$2,$3,0*
0 Add four circle primitives for the rounded corners*
1,1,$1+$1,$2,$3*
1,1,$1+$1,$4,$5*
1,1,$1+$1,$6,$7*
1,1,$1+$1,$8,$9*
0 Add four rect primitives between the rounded corners*
20,1,$1+$1,$2,$3,$4,$5,0*
20,1,$1+$1,$4,$5,$6,$7,0*
20,1,$1+$1,$6,$7,$8,$9,0*
20,1,$1+$1,$8,$9,$2,$3,0*%
G04 Aperture macros list end*
%ADD10R,1.600000X1.600000*%
%ADD11C,1.600000*%
%ADD12R,2.500000X2.500000*%
%ADD13O,2.500000X2.500000*%
%ADD14R,1.800000X1.800000*%
%ADD15C,1.800000*%
%ADD16R,2.600000X2.600000*%
%ADD17C,2.600000*%
%ADD18C,1.500000*%
%ADD19R,3.500000X3.500000*%
%ADD20RoundRect,0.750000X1.000000X-0.750000X1.000000X0.750000X-1.000000X0.750000X-1.000000X-0.750000X0*%
%ADD21RoundRect,0.875000X0.875000X-0.875000X0.875000X0.875000X-0.875000X0.875000X-0.875000X-0.875000X0*%
%ADD22O,1.600000X1.600000*%
%ADD23R,2.200000X2.200000*%
%ADD24O,2.200000X2.200000*%
%ADD25C,4.300000*%
%ADD26R,1.050000X1.500000*%
%ADD27O,1.050000X1.500000*%
%ADD28R,3.200000X3.200000*%
%ADD29O,3.200000X3.200000*%
%ADD30R,2.000000X1.905000*%
%ADD31O,2.000000X1.905000*%
%ADD32C,2.000000*%
%ADD33R,2.000000X2.000000*%
%ADD34RoundRect,0.250000X0.600000X0.725000X-0.600000X0.725000X-0.600000X-0.725000X0.600000X-0.725000X0*%
%ADD35O,1.700000X1.950000*%
%ADD36RoundRect,0.250000X-0.600000X-0.600000X0.600000X-0.600000X0.600000X0.600000X-0.600000X0.600000X0*%
%ADD37C,1.700000*%
%ADD38C,1.524000*%
%ADD39R,1.524000X1.524000*%
G04 APERTURE END LIST*
D10*
%TO.C,C4*%
X142500000Y-134540000D03*
D11*
X142500000Y-132040000D03*
%TD*%
D12*
%TO.C,K1*%
X158700000Y-115500000D03*
D13*
X156700000Y-109500000D03*
X144500000Y-109500000D03*
X144500000Y-121500000D03*
X156700000Y-121500000D03*
%TD*%
D14*
%TO.C,D5*%
X115320375Y-123170000D03*
D15*
X115320375Y-120630000D03*
%TD*%
D16*
%TO.C,MAGNETIC*%
X184555000Y-123000000D03*
D17*
X184555000Y-118000000D03*
%TD*%
D10*
%TO.C,C6*%
X104000000Y-131960000D03*
D11*
X104000000Y-129460000D03*
%TD*%
D18*
%TO.C,Y1*%
X133380000Y-103500000D03*
X128500000Y-103500000D03*
%TD*%
D19*
%TO.C,J1*%
X130500000Y-125000000D03*
D20*
X130500000Y-131000000D03*
D21*
X135200000Y-128000000D03*
%TD*%
D11*
%TO.C,R7*%
X109000000Y-110310000D03*
D22*
X109000000Y-117930000D03*
%TD*%
D11*
%TO.C,C1*%
X128490000Y-107880000D03*
X128490000Y-112880000D03*
%TD*%
%TO.C,R1*%
X104250000Y-97810000D03*
D22*
X104250000Y-90190000D03*
%TD*%
D23*
%TO.C,D1*%
X164500000Y-116080000D03*
D24*
X164500000Y-105920000D03*
%TD*%
D25*
%TO.C,H3*%
X68500000Y-133000000D03*
%TD*%
D16*
%TO.C,J6*%
X184555000Y-98666666D03*
D17*
X184555000Y-93666666D03*
%TD*%
D26*
%TO.C,Q1*%
X162875000Y-100860000D03*
D27*
X164145000Y-100860000D03*
X165415000Y-100860000D03*
%TD*%
D25*
%TO.C,H4*%
X68500000Y-70000000D03*
%TD*%
D28*
%TO.C,D3*%
X97859250Y-133620000D03*
D29*
X97859250Y-118380000D03*
%TD*%
D30*
%TO.C,U4*%
X109000000Y-129460000D03*
D31*
X109000000Y-132000000D03*
X109000000Y-134540000D03*
%TD*%
D32*
%TO.C,SW1*%
X96750000Y-110250000D03*
X96750000Y-103750000D03*
X101250000Y-110250000D03*
X101250000Y-103750000D03*
%TD*%
D11*
%TO.C,R6*%
X121640750Y-110310000D03*
D22*
X121640750Y-117930000D03*
%TD*%
D11*
%TO.C,R10*%
X96190000Y-100500000D03*
D22*
X103810000Y-100500000D03*
%TD*%
D10*
%TO.C,C5*%
X120000000Y-133152651D03*
D11*
X120000000Y-130652651D03*
%TD*%
D14*
%TO.C,D6*%
X121640750Y-123170000D03*
D15*
X121640750Y-120630000D03*
%TD*%
D33*
%TO.C,BZ1*%
X167000000Y-70700000D03*
D32*
X167000000Y-78300000D03*
%TD*%
D23*
%TO.C,D4*%
X156730000Y-70700000D03*
D24*
X156730000Y-80860000D03*
%TD*%
D11*
%TO.C,R5*%
X115320375Y-110310000D03*
D22*
X115320375Y-117930000D03*
%TD*%
D16*
%TO.C,J5*%
X184555000Y-86500000D03*
D17*
X184555000Y-81500000D03*
%TD*%
D28*
%TO.C,D2*%
X165500000Y-121150000D03*
D29*
X165500000Y-136390000D03*
%TD*%
D34*
%TO.C,U5*%
X149000000Y-77000000D03*
D35*
X146500000Y-77000000D03*
X144000000Y-77000000D03*
X141500000Y-77000000D03*
X139000000Y-77000000D03*
X136500000Y-77000000D03*
X134000000Y-77000000D03*
X131500000Y-77000000D03*
%TD*%
D36*
%TO.C,J7*%
X153000000Y-89000000D03*
D37*
X155540000Y-89000000D03*
X153000000Y-91540000D03*
X155540000Y-91540000D03*
X153000000Y-94080000D03*
X155540000Y-94080000D03*
X153000000Y-96620000D03*
X155540000Y-96620000D03*
X153000000Y-99160000D03*
X155540000Y-99160000D03*
%TD*%
D10*
%TO.C,C3*%
X159000000Y-129460000D03*
D11*
X159000000Y-131960000D03*
%TD*%
%TO.C,R4*%
X164165000Y-96310000D03*
D22*
X164165000Y-88690000D03*
%TD*%
D38*
%TO.C,J9*%
X75530000Y-87000000D03*
X75530000Y-84460000D03*
X75530000Y-81920000D03*
X75530000Y-79380000D03*
X75530000Y-76840000D03*
X75530000Y-74300000D03*
X75530000Y-71760000D03*
X99430000Y-87000000D03*
X99430000Y-84460000D03*
X99430000Y-81920000D03*
X99430000Y-79380000D03*
X99430000Y-76840000D03*
%TD*%
D25*
%TO.C,H1*%
X186500000Y-70000000D03*
%TD*%
D10*
%TO.C,U1*%
X109730000Y-97810000D03*
D22*
X112270000Y-97810000D03*
X114810000Y-97810000D03*
X117350000Y-97810000D03*
X119890000Y-97810000D03*
X122430000Y-97810000D03*
X124970000Y-97810000D03*
X127510000Y-97810000D03*
X130050000Y-97810000D03*
X132590000Y-97810000D03*
X135130000Y-97810000D03*
X137670000Y-97810000D03*
X140210000Y-97810000D03*
X142750000Y-97810000D03*
X142750000Y-90190000D03*
X140210000Y-90190000D03*
X137670000Y-90190000D03*
X135130000Y-90190000D03*
X132590000Y-90190000D03*
X130050000Y-90190000D03*
X127510000Y-90190000D03*
X124970000Y-90190000D03*
X122430000Y-90190000D03*
X119890000Y-90190000D03*
X117350000Y-90190000D03*
X114810000Y-90190000D03*
X112270000Y-90190000D03*
X109730000Y-90190000D03*
%TD*%
D10*
%TO.C,U2*%
X168490000Y-89500000D03*
D22*
X168490000Y-92040000D03*
X176110000Y-92040000D03*
X176110000Y-89500000D03*
%TD*%
D14*
%TO.C,D7*%
X109000000Y-123170000D03*
D15*
X109000000Y-120630000D03*
%TD*%
D16*
%TO.C,J8*%
X184555000Y-110833332D03*
D17*
X184555000Y-105833332D03*
%TD*%
D11*
%TO.C,R11*%
X126750000Y-80370000D03*
D22*
X126750000Y-72750000D03*
%TD*%
D26*
%TO.C,Q2*%
X162875000Y-85360000D03*
D27*
X164145000Y-85360000D03*
X165415000Y-85360000D03*
%TD*%
D11*
%TO.C,R3*%
X176140000Y-84000000D03*
D22*
X168520000Y-84000000D03*
%TD*%
D11*
%TO.C,C2*%
X133490000Y-107880000D03*
X133490000Y-112880000D03*
%TD*%
%TO.C,R2*%
X176140000Y-97550000D03*
D22*
X168520000Y-97550000D03*
%TD*%
D30*
%TO.C,U3*%
X153000000Y-134540000D03*
D31*
X153000000Y-132000000D03*
X153000000Y-129460000D03*
%TD*%
D39*
%TO.C,J2*%
X89850000Y-100500000D03*
D38*
X87310000Y-100500000D03*
X84770000Y-100500000D03*
X82230000Y-100500000D03*
X79690000Y-100500000D03*
X77150000Y-100500000D03*
%TD*%
D34*
%TO.C,MOD1*%
X122000000Y-77000000D03*
D35*
X119500000Y-77000000D03*
X117000000Y-77000000D03*
X114500000Y-77000000D03*
X112000000Y-77000000D03*
X109500000Y-77000000D03*
X107000000Y-77000000D03*
%TD*%
D25*
%TO.C,H2*%
X186500000Y-133000000D03*
%TD*%
M02*
